<?xml version="1.0" encoding="utf-8"?>
<!-- Generator: Adobe Illustrator 26.0.1, SVG Export Plug-In . SVG Version: 6.00 Build 0)  -->
<svg version="1.1" id="Layer_1" xmlns="http://www.w3.org/2000/svg" xmlns:xlink="http://www.w3.org/1999/xlink" x="0px" y="0px"
	 viewBox="0 0 263.9 519.2" style="enable-background:new 0 0 263.9 519.2;" xml:space="preserve">
<style type="text/css">
	.st0{fill:#FFFFFF;}
	.st1{fill:#83C5EA;}
	.st2{fill:#116C99;}
	.st3{fill:url(#SVGID_1_);}
	.st4{fill:#DCEAEF;}
	.st5{clip-path:url(#SVGID_00000181784884440248654860000001920269762137031060_);}
</style>
<g>
	<g id="Layer_2_00000137850832689896162770000013697369134522491035_">
		<g id="Layer_1-2">
			<circle class="st0" cx="48.5" cy="216.4" r="24.6"/>
			<circle class="st1" cx="79.9" cy="424.7" r="19.8"/>
			<path class="st0" d="M21.7,488.4C9.3,486.8,0,495.8,0,503.2c0,7.4,9.4,16.3,21.8,14.6c77.2,0.1,154.5,0.3,231.7,0.4
				c0,0,15.5-11.2,8.5-21.9c-6.3-9.6-21-11.9-37.1-6.6c1-3.6,1.5-7.4,1.5-11.1c0-22.5-18-40.8-40.3-40.8c-10.4,0-20.4,4.1-27.8,11.3
				l-11.2-255.5h-37.1L85.2,460.2c-7.3-10.9-22.1-13.8-32.9-6.4c-5.2,3.5-8.8,8.9-10,15c-1.7-0.7-3.5-1-5.3-1
				c-7.1,0.1-13.4,6.9-15,13.8C21.2,484.3,21.4,486.8,21.7,488.4z"/>
			<circle class="st1" cx="172.7" cy="310.5" r="29.7"/>
			<circle class="st1" cx="92.4" cy="360.6" r="13.9"/>
			<circle class="st0" cx="224.6" cy="409.9" r="22.3"/>
			<path class="st2" d="M173.8,139.6c0,0,41.9,28.9,41.9,65.2h-56.6L173.8,139.6z"/>
			<path class="st2" d="M101.3,204.9l-14.7-65.2c0,0-41.9,28.9-41.9,65.2H101.3z"/>
			<rect x="102.4" y="212.8" class="st2" width="55.7" height="11.3"/>
			<linearGradient id="SVGID_1_" gradientUnits="userSpaceOnUse" x1="86.6547" y1="108.2127" x2="173.8246" y2="108.2127">
				<stop  offset="0" style="stop-color:#7FCDF4"/>
				<stop  offset="1" style="stop-color:#366DCE"/>
			</linearGradient>
			<path class="st3" d="M100.6,216.4h59.3c7.7,0,13.9-6.2,13.9-13.9V70.7c0-9.3-2.7-18.3-7.7-26.1L141.4,6.1c-4-6.2-12.2-8-18.3-4
				c-1.6,1-3,2.4-4,4L94.3,44.6c-5,7.8-7.7,16.9-7.7,26.1v131.8C86.7,210.2,92.9,216.4,100.6,216.4z"/>
			<path class="st4" d="M87.1,194.9h86.2c0.7-0.1,1.2-0.7,1.2-1.4c-0.1-0.6-0.5-1.1-1.2-1.2H87.1c-0.7-0.1-1.3,0.5-1.4,1.2
				c-0.1,0.7,0.5,1.3,1.2,1.4C87,194.9,87,194.9,87.1,194.9z"/>
			<path class="st4" d="M87.1,65.3h86.2c0.7,0,1.3-0.6,1.3-1.3c0-0.7-0.6-1.3-1.3-1.3H87.1c-0.7,0-1.3,0.6-1.3,1.3
				C85.8,64.8,86.4,65.3,87.1,65.3L87.1,65.3z"/>
			<path class="st2" d="M134.4,144c4.4,14.7,10.6,39.4,10.6,60.9h-29.7c0.6-20.7,4-41.3,10.2-61.1
				C127.4,138.1,132.7,138.2,134.4,144z"/>
			<circle class="st4" cx="130.2" cy="64.1" r="16.1"/>
			<g>
				<defs>
					<path id="SVGID_00000161604232317986574890000011545374082951185545_" d="M100.6,216.4h59.3c7.7,0,13.9-6.2,13.9-13.9V70.7
						c0-9.3-2.7-18.3-7.7-26.1L141.4,6.1c-4-6.2-12.2-8-18.3-4c-1.6,1-3,2.4-4,4L94.3,44.6c-5,7.8-7.7,16.9-7.7,26.1v131.8
						C86.7,210.2,92.9,216.4,100.6,216.4z"/>
				</defs>
				<clipPath id="SVGID_00000129893403904481053450000007885665603623610756_">
					<use xlink:href="#SVGID_00000161604232317986574890000011545374082951185545_"  style="overflow:visible;"/>
				</clipPath>
				<g style="clip-path:url(#SVGID_00000129893403904481053450000007885665603623610756_);">
					<path class="st4" d="M141.5,150.5V96.6c0-6.1,4.9-11,11-11h22.4c6.1,0,11,4.9,11,11v53.9c0,6.1-4.9,11-11,11h-22.4
						C146.4,161.5,141.5,156.5,141.5,150.5z M152.5,88.2c-4.6,0-8.4,3.8-8.4,8.4v53.9c0,4.6,3.8,8.4,8.4,8.4h22.4
						c4.6,0,8.4-3.8,8.4-8.4V96.6c0-4.6-3.8-8.4-8.4-8.4H152.5z"/>
					<path class="st4" d="M67.5,164.3v-17.8c0-7.3,5.9-13.3,13.3-13.2h17.8c7.3,0,13.2,5.9,13.2,13.2v17.8c0,7.3-5.9,13.2-13.2,13.2
						H80.7C73.4,177.5,67.5,171.6,67.5,164.3C67.5,164.3,67.5,164.3,67.5,164.3z M80.7,135.8c-5.9,0-10.7,4.8-10.7,10.7v17.8
						c0,5.9,4.8,10.7,10.7,10.7h17.8c5.9,0,10.7-4.8,10.7-10.7v-17.8c0-5.9-4.8-10.7-10.7-10.7L80.7,135.8z"/>
				</g>
			</g>
			<path class="st4" d="M10.8,477v2.5c0-0.8,0.1-1.7,0.2-2.5H10.8z"/>
		</g>
	</g>
</g>
</svg>
