<?xml version="1.0" encoding="utf-8"?>
<!-- Generator: Adobe Illustrator 26.0.1, SVG Export Plug-In . SVG Version: 6.00 Build 0)  -->
<svg version="1.1" id="Layer_1" xmlns="http://www.w3.org/2000/svg" xmlns:xlink="http://www.w3.org/1999/xlink" x="0px" y="0px"
	 viewBox="0 0 263.9 519.2" style="enable-background:new 0 0 263.9 519.2;" xml:space="preserve">
<style type="text/css">
	.st0{opacity:0.41;fill:url(#SVGID_1_);}
	.st1{fill:url(#SVGID_00000109742381837227898930000012084979134416490412_);}
	.st2{opacity:0.41;fill:url(#SVGID_00000057837311056287546020000017668881101361422760_);}
	.st3{fill:url(#SVGID_00000020366171366207917690000000028865550778056873_);}
	.st4{fill:url(#SVGID_00000137132541657316223150000011034313152467197374_);}
	.st5{opacity:0.41;fill:url(#SVGID_00000031886371232032471470000000284039784659189428_);}
	.st6{fill:#093E72;}
	.st7{fill:url(#SVGID_00000110440500491033733330000002254562253219450511_);}
	.st8{fill:#DCEAEF;}
	.st9{clip-path:url(#SVGID_00000132085646410242028050000000620333032393640108_);}
</style>
<g>
	<g id="Layer_2_00000137850832689896162770000013697369134522491035_">
		<g id="Layer_1-2">
			<linearGradient id="SVGID_1_" gradientUnits="userSpaceOnUse" x1="23.9" y1="216.4" x2="73.1" y2="216.4">
				<stop  offset="0" style="stop-color:#3B72CE"/>
				<stop  offset="1" style="stop-color:#FFFFFF"/>
			</linearGradient>
			<circle class="st0" cx="48.5" cy="216.4" r="24.6"/>
			
				<linearGradient id="SVGID_00000109029720177775537950000016043686796477040817_" gradientUnits="userSpaceOnUse" x1="89.8017" y1="407.5499" x2="69.9984" y2="441.8502">
				<stop  offset="0" style="stop-color:#3E9DCC"/>
				<stop  offset="1" style="stop-color:#EBEBEB"/>
			</linearGradient>
			<circle style="fill:url(#SVGID_00000109029720177775537950000016043686796477040817_);" cx="79.9" cy="424.7" r="19.8"/>
			
				<linearGradient id="SVGID_00000000928045579088990050000014091270171423530419_" gradientUnits="userSpaceOnUse" x1="0" y1="355.9" x2="263.8154" y2="355.9">
				<stop  offset="0" style="stop-color:#3B72CE"/>
				<stop  offset="1" style="stop-color:#FFFFFF"/>
			</linearGradient>
			<path style="opacity:0.41;fill:url(#SVGID_00000000928045579088990050000014091270171423530419_);" d="M21.7,488.4
				C9.3,486.8,0,495.8,0,503.2c0,7.4,9.4,16.3,21.8,14.6c77.2,0.1,154.5,0.3,231.7,0.4c0,0,15.5-11.2,8.5-21.9
				c-6.3-9.6-21-11.9-37.1-6.6c1-3.6,1.5-7.4,1.5-11.1c0-22.5-18-40.8-40.3-40.8c-10.4,0-20.4,4.1-27.8,11.3l-11.2-255.5H110
				L85.2,460.2c-7.3-10.9-22.1-13.8-32.9-6.4c-5.2,3.5-8.8,8.9-10,15c-1.7-0.7-3.5-1-5.3-1c-7.1,0.1-13.4,6.9-15,13.8
				C21.2,484.3,21.4,486.8,21.7,488.4z"/>
			
				<linearGradient id="SVGID_00000001643841152642338500000014648176394737891000_" gradientUnits="userSpaceOnUse" x1="187.5525" y1="284.7747" x2="157.8475" y2="336.2253">
				<stop  offset="0" style="stop-color:#3E9DCC"/>
				<stop  offset="1" style="stop-color:#EBEBEB"/>
			</linearGradient>
			<circle style="fill:url(#SVGID_00000001643841152642338500000014648176394737891000_);" cx="172.7" cy="310.5" r="29.7"/>
			
				<linearGradient id="SVGID_00000178185751598762013280000010682380203000403095_" gradientUnits="userSpaceOnUse" x1="99.3512" y1="348.5602" x2="85.4488" y2="372.6398">
				<stop  offset="0" style="stop-color:#3E9DCC"/>
				<stop  offset="1" style="stop-color:#EBEBEB"/>
			</linearGradient>
			<circle style="fill:url(#SVGID_00000178185751598762013280000010682380203000403095_);" cx="92.4" cy="360.6" r="13.9"/>
			
				<linearGradient id="SVGID_00000176742120121225446240000015203706071515251842_" gradientUnits="userSpaceOnUse" x1="202.3" y1="409.9" x2="246.9" y2="409.9">
				<stop  offset="0" style="stop-color:#3B72CE"/>
				<stop  offset="1" style="stop-color:#FFFFFF"/>
			</linearGradient>
			
				<circle style="opacity:0.41;fill:url(#SVGID_00000176742120121225446240000015203706071515251842_);" cx="224.6" cy="409.9" r="22.3"/>
			<path class="st6" d="M173.8,139.6c0,0,41.9,28.9,41.9,65.2h-56.6L173.8,139.6z"/>
			<path class="st6" d="M101.3,204.9l-14.7-65.2c0,0-41.9,28.9-41.9,65.2H101.3z"/>
			<rect x="102.4" y="212.8" class="st6" width="55.7" height="11.3"/>
			
				<linearGradient id="SVGID_00000018226815787231511500000015961947261974022029_" gradientUnits="userSpaceOnUse" x1="86.6" y1="413.8152" x2="173.8" y2="413.8152" gradientTransform="matrix(1 0 0 -1 0 522)">
				<stop  offset="0" style="stop-color:#7FCDF4"/>
				<stop  offset="1" style="stop-color:#366DCE"/>
			</linearGradient>
			<path style="fill:url(#SVGID_00000018226815787231511500000015961947261974022029_);" d="M100.6,216.4h59.3
				c7.7,0,13.9-6.2,13.9-13.9V70.7c0-9.3-2.7-18.3-7.7-26.1L141.4,6.1c-4-6.2-12.2-8-18.3-4c-1.6,1-3,2.4-4,4L94.3,44.6
				c-5,7.8-7.7,16.9-7.7,26.1v131.8C86.7,210.2,92.9,216.4,100.6,216.4z"/>
			<path class="st8" d="M87.1,194.9h86.2c0.7-0.1,1.2-0.7,1.2-1.4c-0.1-0.6-0.5-1.1-1.2-1.2H87.1c-0.7-0.1-1.3,0.5-1.4,1.2
				s0.5,1.3,1.2,1.4C87,194.9,87,194.9,87.1,194.9z"/>
			<path class="st8" d="M87.1,65.3h86.2c0.7,0,1.3-0.6,1.3-1.3c0-0.7-0.6-1.3-1.3-1.3H87.1c-0.7,0-1.3,0.6-1.3,1.3
				C85.8,64.8,86.4,65.3,87.1,65.3L87.1,65.3z"/>
			<path class="st6" d="M134.4,144c4.4,14.7,10.6,39.4,10.6,60.9h-29.7c0.6-20.7,4-41.3,10.2-61.1
				C127.4,138.1,132.7,138.2,134.4,144z"/>
			<circle class="st8" cx="130.2" cy="64.1" r="16.1"/>
			<g>
				<g>
					<defs>
						<path id="SVGID_00000133498182781686832980000002443730454730967448_" d="M100.6,216.4h59.3c7.7,0,13.9-6.2,13.9-13.9V70.7
							c0-9.3-2.7-18.3-7.7-26.1L141.4,6.1c-4-6.2-12.2-8-18.3-4c-1.6,1-3,2.4-4,4L94.3,44.6c-5,7.8-7.7,16.9-7.7,26.1v131.8
							C86.7,210.2,92.9,216.4,100.6,216.4z"/>
					</defs>
					<clipPath id="SVGID_00000023993640322891272490000017892504596898817683_">
						<use xlink:href="#SVGID_00000133498182781686832980000002443730454730967448_"  style="overflow:visible;"/>
					</clipPath>
					<g style="clip-path:url(#SVGID_00000023993640322891272490000017892504596898817683_);">
						<path class="st8" d="M141.5,150.5V96.6c0-6.1,4.9-11,11-11h22.4c6.1,0,11,4.9,11,11v53.9c0,6.1-4.9,11-11,11h-22.4
							C146.4,161.5,141.5,156.5,141.5,150.5z M152.5,88.2c-4.6,0-8.4,3.8-8.4,8.4v53.9c0,4.6,3.8,8.4,8.4,8.4h22.4
							c4.6,0,8.4-3.8,8.4-8.4V96.6c0-4.6-3.8-8.4-8.4-8.4H152.5z"/>
						<path class="st8" d="M67.5,164.3v-17.8c0-7.3,5.9-13.3,13.3-13.2h17.8c7.3,0,13.2,5.9,13.2,13.2v17.8
							c0,7.3-5.9,13.2-13.2,13.2H80.7C73.4,177.5,67.5,171.6,67.5,164.3L67.5,164.3z M80.7,135.8c-5.9,0-10.7,4.8-10.7,10.7v17.8
							c0,5.9,4.8,10.7,10.7,10.7h17.8c5.9,0,10.7-4.8,10.7-10.7v-17.8c0-5.9-4.8-10.7-10.7-10.7H80.7z"/>
					</g>
				</g>
			</g>
			<path class="st8" d="M10.8,477v2.5c0-0.8,0.1-1.7,0.2-2.5H10.8z"/>
		</g>
	</g>
</g>
</svg>
