<?xml version="1.0" encoding="utf-8"?>
<!-- Generator: Adobe Illustrator 26.0.1, SVG Export Plug-In . SVG Version: 6.00 Build 0)  -->
<svg version="1.1" id="Layer_1" xmlns="http://www.w3.org/2000/svg" xmlns:xlink="http://www.w3.org/1999/xlink" x="0px" y="0px"
	 viewBox="0 0 1596 200" style="enable-background:new 0 0 1596 200;" xml:space="preserve">
<style type="text/css">
	.st0{fill:none;}
	.st1{fill-rule:evenodd;clip-rule:evenodd;fill:#03562C;}
	.st2{fill-rule:evenodd;clip-rule:evenodd;fill:#F9A61D;}
	.st3{fill-rule:evenodd;clip-rule:evenodd;fill:#FFFFFF;}
	.st4{fill:#D12628;}
	.st5{fill:#3A3A3B;}
	.st6{fill:url(#SVGID_1_);}
	.st7{fill:#F58633;}
	.st8{fill:#363435;}
	.st9{clip-path:url(#SVGID_00000147909720190033816130000000716752776509216934_);}
	.st10{fill-rule:evenodd;clip-rule:evenodd;fill:#BE202A;}
	.st11{fill-rule:evenodd;clip-rule:evenodd;fill:#EB1D25;}
	.st12{opacity:0.5;}
	.st13{clip-path:url(#SVGID_00000108294576891607714140000014506307119953338545_);}
	.st14{clip-path:url(#SVGID_00000049180286929426890050000004635642646373541516_);}
	.st15{fill:url(#SVGID_00000115515080213042335230000012913546981920605825_);}
	.st16{fill:#FFFFFF;}
	.st17{fill:#222F61;}
</style>
<g id="Layer_2_00000141437999441158423780000004695489685043664015_">
	<g id="Layer_1-2">
		<rect class="st0" width="1596" height="200"/>
		<path class="st1" d="M138.6,59.9c38.4,0,69.8,17.1,69.8,38.2s-31.3,38.2-69.8,38.2s-69.8-17.1-69.8-38.2S100.2,59.9,138.6,59.9"/>
		<path class="st2" d="M138.4,62.8c36.9,0,67,15.9,67,35.4s-30.1,35.4-67,35.4s-67-15.9-67-35.4S101.5,62.8,138.4,62.8"/>
		<path class="st1" d="M138.6,67.7c33.8,0,61.4,13.6,61.4,30.4s-27.6,30.4-61.4,30.4s-61.4-13.6-61.4-30.4S104.8,67.7,138.6,67.7"/>
		<path class="st3" d="M162,101.2c0,0.9,0.1,1.7,0.5,2.5c0.3,0.6,0.7,1.2,1.3,1.5c0.5,0.3,1.1,0.5,1.8,0.5c0.6-0.1,1.2-0.3,1.7-0.5
			c2.3-0.7,3.7-1.8,6-3.2c-0.5,0.5-5.1,5-5.5,5.4c-0.5,0.3-1,0.6-1.5,0.8c-0.6,0.2-1.2,0.3-1.8,0.3c-0.8,0-1.6-0.2-2.4-0.5
			c-0.7-0.4-1.4-0.9-1.9-1.5c-0.6-0.7-1-1.5-1.2-2.4c-0.3-0.9-0.5-1.9-0.5-2.9c-0.1-1.9,0.4-3.8,1.6-5.3c1.1-1.3,2.7-2,4.4-1.9
			c0.9,0,1.8,0.1,2.6,0.5c0.8,0.4,1.5,1,2.1,1.6l-0.1-5.3c-0.1-0.6,0.1-1.2,0.4-1.7c0.3-0.4,0.8-0.6,1.3-0.6c0.5,0,0.9,0.2,1.3,0.5
			c0.3,0.4,0.5,1,0.5,1.5l0.1,10.2c-0.2,1.9-3.6,2.7-3.4,2s-0.1-1-0.1-1.7c0-0.8-0.2-1.7-0.5-2.4c-0.3-0.6-0.7-1.2-1.3-1.6
			c-0.5-0.4-1.1-0.5-1.8-0.5c-0.6,0-1.3,0.2-1.8,0.6c-0.5,0.4-1,1-1.2,1.6C162.1,99.6,162,100.4,162,101.2"/>
		<path class="st3" d="M169.3,107.1l-0.1-0.1c0.6-1,2.6-2.8,3.4-2.3v1.8c0,0.6-0.1,1.1-0.5,1.5c-0.7,0.7-1.8,0.7-2.4,0c0,0,0,0,0,0
			C169.4,107.6,169.3,107.7,169.3,107.1"/>
		<path class="st3" d="M147.2,96.1v0.4c0.5-0.8,1.2-1.4,2.1-1.9c0.8-0.4,1.7-0.6,2.6-0.6c0.9,0,1.8,0.2,2.6,0.6
			c0.7,0.4,1.3,1,1.7,1.7c0.2,0.4,0.4,0.9,0.5,1.4c0.1,0.6,0.1,1.3,0.1,1.9l0.1,6.7c0.1,0.6-0.1,1.2-0.5,1.6
			c-0.3,0.4-0.8,0.6-1.3,0.6c-0.5,0-1-0.2-1.3-0.6c-0.4-0.4-0.6-1-0.5-1.6l-0.1-6c0-0.9-0.1-1.9-0.5-2.7c-0.4-0.7-1.2-1-2-0.9
			c-0.6,0-1.3,0.2-1.8,0.6c-0.5,0.4-0.9,1-1.1,1.6c-0.2,1-0.3,2-0.2,3l0.1,4.5c0.1,0.6-0.1,1.2-0.5,1.7c-0.3,0.4-0.8,0.6-1.3,0.6
			c-0.5,0-1-0.2-1.3-0.5c-0.4-0.5-0.6-1-0.5-1.6l-0.1-10.3c-0.1-0.5,0.1-1.1,0.4-1.5c0.3-0.3,0.8-0.5,1.2-0.5c0.3,0,0.6,0.1,0.9,0.2
			c0.3,0.2,0.5,0.4,0.6,0.7C147.2,95.4,147.2,95.7,147.2,96.1"/>
		<path class="st3" d="M132,113.1h1.6c0-0.2-0.1-0.5-0.2-0.7c-0.1-0.1-0.3-0.2-0.6-0.2c-0.2,0-0.4,0.1-0.5,0.2
			C132.1,112.6,132,112.8,132,113.1 M133.7,113.5H132c0,0.2,0,0.4,0.1,0.5c0.1,0.1,0.2,0.3,0.3,0.3c0.1,0.1,0.3,0.1,0.4,0.1
			c0.1,0,0.2,0,0.3,0c0.1,0,0.2-0.1,0.2-0.1l0.2-0.2l0.3-0.2c0,0,0.1-0.1,0.2-0.1c0.1,0,0.2,0,0.2,0.1c0.1,0.1,0.1,0.1,0.1,0.2
			c0,0.1,0,0.2-0.1,0.3c-0.1,0.1-0.2,0.2-0.3,0.3c-0.1,0.1-0.3,0.2-0.4,0.2c-0.2,0.1-0.4,0.1-0.6,0.1c-0.5,0-0.9-0.1-1.3-0.5
			c-0.3-0.3-0.5-0.8-0.5-1.2c0-0.2,0-0.5,0.1-0.7c0.1-0.2,0.2-0.4,0.3-0.6c0.1-0.2,0.3-0.3,0.5-0.4c0.2-0.1,0.5-0.1,0.7-0.1
			c0.3,0,0.6,0.1,0.9,0.2c0.2,0.1,0.4,0.3,0.6,0.5c0.1,0.2,0.2,0.4,0.2,0.7c0,0.2,0,0.3-0.2,0.4C134,113.5,133.9,113.6,133.7,113.5"
			/>
		<path class="st3" d="M140.7,113.7v0.7c0,0.1,0,0.3-0.1,0.4c-0.1,0.1-0.2,0.1-0.3,0.1c-0.1,0-0.2,0-0.3-0.1
			c-0.1-0.1-0.1-0.2-0.1-0.4v-2.4c0-0.4,0.1-0.6,0.4-0.6c0.1,0,0.2,0,0.3,0.1c0.1,0.1,0.1,0.3,0.1,0.4c0.1-0.2,0.2-0.3,0.3-0.4
			c0.1-0.1,0.3-0.1,0.4-0.1c0.2,0,0.4,0,0.5,0.1c0.2,0.1,0.3,0.2,0.3,0.3c0,0.1,0,0.2-0.1,0.3c-0.1,0.1-0.1,0.1-0.2,0.1h-0.2
			c-0.1,0-0.2-0.1-0.3-0.1c-0.1,0-0.2,0-0.3,0.1c-0.1,0.1-0.2,0.2-0.2,0.3c0,0.1-0.1,0.3-0.1,0.4
			C140.7,113.3,140.7,113.5,140.7,113.7"/>
		<path class="st3" d="M138.5,106.8c-0.8,0.6-1.6,1.1-2.5,1.6c-0.9,0.4-1.8,0.5-2.8,0.5c-0.8,0-1.7-0.1-2.5-0.5
			c-0.7-0.3-1.2-0.8-1.6-1.5c-0.4-0.6-0.6-1.3-0.6-2c0-0.9,0.3-1.8,0.9-2.5c0.7-0.7,1.6-1.2,2.6-1.4l1.7-0.4
			c0.9-0.2,1.7-0.4,2.3-0.5s1.4-0.4,2.1-0.6c0-0.7-0.2-1.5-0.6-2.1c-0.6-0.5-1.3-0.8-2.1-0.6c-0.7,0-1.4,0.1-2.1,0.4
			c-0.5,0.3-0.9,0.7-1.2,1.2c-0.2,0.3-0.4,0.7-0.7,1c-0.3,0.2-0.6,0.3-0.9,0.2c-0.4,0-0.8-0.1-1.1-0.4c-0.3-0.2-0.5-0.6-0.4-1
			c0-0.7,0.2-1.3,0.6-1.8c0.6-0.7,1.3-1.2,2.1-1.5c1.1-0.4,2.4-0.6,3.6-0.6c1.3-0.1,2.6,0.1,3.8,0.5c0.9,0.3,1.5,0.9,1.9,1.7
			c0.4,1,0.6,2.1,0.6,3.2c0,0.8,0,1.6,0,2.1s0,1.2,0,2c0,0.7,0.1,1.4,0.4,2.1c0.2,0.5,0.3,0.9,0.4,1.4c0,0.4-0.2,0.8-0.5,1
			c-0.3,0.3-0.7,0.4-1.2,0.4c-0.4,0-0.8-0.2-1.1-0.5C139.2,107.9,138.8,107.4,138.5,106.8 M137.9,101.7c-0.7,0.3-1.5,0.5-2.3,0.6
			c-1,0.2-1.7,0.4-2.1,0.5c-0.4,0.1-0.8,0.3-1.1,0.6c-0.4,0.3-0.5,0.8-0.5,1.2c0,0.5,0.2,1,0.6,1.4c0.5,0.4,1,0.6,1.6,0.6
			c0.7,0,1.4-0.2,2-0.5c0.5-0.3,1-0.7,1.3-1.2c0.4-0.8,0.5-1.8,0.4-2.7L137.9,101.7z"/>
		<path class="st3" d="M122,103.8v3c0.1,0.6-0.1,1.2-0.5,1.7c-0.3,0.4-0.8,0.6-1.3,0.6c-0.5,0-1-0.2-1.3-0.5c-0.4-0.5-0.6-1-0.5-1.6
			l-0.1-10c0-1.6,0.6-2.4,1.7-2.4c0.5-0.1,1,0.2,1.3,0.6c0.3,0.5,0.5,1.1,0.5,1.7c0.3-0.6,0.8-1.2,1.3-1.7c0.5-0.4,1.2-0.6,1.8-0.6
			c0.8,0,1.5,0.2,2.2,0.5c0.6,0.2,1.1,0.8,1.1,1.5c0,0.4-0.1,0.8-0.4,1.1c-0.3,0.3-0.6,0.4-1,0.4c-0.3,0-0.7-0.1-1-0.2
			c-0.4-0.1-0.9-0.2-1.3-0.2c-0.5,0-0.9,0.1-1.3,0.4c-0.4,0.3-0.6,0.8-0.8,1.2c-0.2,0.6-0.3,1.3-0.4,1.9
			C121.9,101.9,121.9,102.8,122,103.8"/>
		<path class="st3" d="M125.8,114.1c0,0.1,0,0.2-0.1,0.3c-0.1,0.1-0.2,0.3-0.3,0.3c-0.1,0.1-0.3,0.2-0.5,0.3
			c-0.2,0.1-0.4,0.1-0.7,0.1c-0.5,0-0.9-0.1-1.2-0.4c-0.3-0.3-0.5-0.8-0.5-1.2c0-0.3,0.1-0.6,0.2-0.9c0.1-0.3,0.3-0.5,0.6-0.6
			c0.3-0.2,0.6-0.2,0.9-0.2c0.2,0,0.4,0,0.6,0.1c0.2,0.1,0.3,0.1,0.5,0.2c0.1,0.1,0.2,0.2,0.3,0.3c0.1,0.1,0.1,0.2,0.1,0.3
			c0,0.1,0,0.2-0.1,0.3c-0.1,0.1-0.2,0.1-0.3,0.1c-0.1,0-0.1,0-0.2,0c-0.1,0-0.1-0.1-0.2-0.2c-0.1-0.1-0.2-0.3-0.3-0.3
			c-0.1-0.1-0.3-0.1-0.4-0.1c-0.2,0-0.5,0.1-0.6,0.3c-0.2,0.2-0.2,0.5-0.2,0.8c0,0.1,0,0.3,0.1,0.4c0,0.1,0.1,0.2,0.2,0.3
			c0.1,0.1,0.2,0.2,0.3,0.2c0.1,0,0.2,0.1,0.3,0.1c0.2,0,0.3,0,0.4-0.1c0.1-0.1,0.2-0.2,0.3-0.4c0-0.1,0.1-0.2,0.2-0.2
			c0.1-0.1,0.1-0.1,0.2-0.1c0.1,0,0.2,0,0.3,0.1C125.8,113.9,125.8,114,125.8,114.1 M149.7,113.4H148c0,0.2,0,0.4,0.1,0.5
			c0.1,0.1,0.2,0.2,0.3,0.3c0.1,0.1,0.3,0.1,0.4,0.1c0.1,0,0.2,0,0.3,0c0.1,0,0.2-0.1,0.2-0.1c0.1,0,0.2-0.1,0.2-0.2l0.3-0.2
			c0,0,0.1-0.1,0.2-0.1c0.1,0,0.2,0,0.2,0.1c0.1,0.1,0.1,0.1,0.1,0.2c0,0.1,0,0.2-0.1,0.3c-0.1,0.1-0.2,0.2-0.3,0.3
			c-0.1,0.1-0.3,0.2-0.5,0.2c-0.2,0.1-0.4,0.1-0.6,0.1c-0.9,0.1-1.7-0.5-1.8-1.4c0-0.1,0-0.2,0-0.3c0-0.2,0-0.5,0.1-0.7
			c0.1-0.4,0.4-0.8,0.9-0.9c0.2-0.1,0.5-0.1,0.7-0.1c0.3,0,0.6,0.1,0.9,0.2c0.2,0.1,0.4,0.3,0.5,0.5c0.1,0.2,0.2,0.4,0.2,0.7
			c0,0.2,0,0.3-0.2,0.4C150.1,113.4,149.9,113.4,149.7,113.4 M148,112.9h1.6c0-0.2-0.1-0.5-0.2-0.6c-0.1-0.1-0.3-0.2-0.6-0.2
			c-0.2,0-0.4,0.1-0.5,0.2C148.1,112.5,148,112.7,148,112.9 M158,114.4c-0.2,0.1-0.4,0.3-0.6,0.4c-0.2,0.1-0.4,0.1-0.6,0.1
			c-0.2,0-0.4,0-0.6-0.1c-0.3-0.1-0.5-0.5-0.5-0.8c0-0.2,0.1-0.4,0.2-0.6c0.2-0.2,0.4-0.3,0.6-0.3l0.4-0.1l0.6-0.1l0.5-0.1
			c0-0.2,0-0.3-0.1-0.5c-0.1-0.1-0.3-0.2-0.5-0.2c-0.2,0-0.3,0-0.5,0.1c-0.1,0.1-0.2,0.2-0.3,0.3c0,0.1-0.1,0.2-0.2,0.2
			c0,0-0.1,0.1-0.2,0.1c-0.1,0-0.2,0-0.2-0.1c-0.1-0.1-0.1-0.1-0.1-0.2c0-0.2,0.1-0.3,0.2-0.4c0.1-0.2,0.3-0.3,0.5-0.4
			c0.3-0.1,0.6-0.1,0.9-0.1c0.3,0,0.6,0,0.9,0.1c0.2,0.1,0.4,0.2,0.5,0.4c0.1,0.2,0.1,0.5,0.1,0.8c0,0.2,0,0.4,0,0.5v0.5
			c0,0.2,0,0.3,0.1,0.5c0,0.1,0.1,0.2,0.1,0.3c0,0.1,0,0.2-0.1,0.2c-0.2,0.1-0.4,0.1-0.6,0C158.2,114.6,158.1,114.5,158,114.4
			 M158,113c-0.2,0.1-0.4,0.1-0.5,0.2l-0.5,0.1c-0.1,0-0.2,0.1-0.3,0.1c-0.1,0.1-0.1,0.2-0.1,0.3c0,0.1,0.1,0.2,0.1,0.3
			c0.1,0.1,0.2,0.1,0.4,0.1c0.2,0,0.3,0,0.5-0.1c0.1-0.1,0.2-0.2,0.3-0.3c0.1-0.2,0.1-0.4,0.1-0.6L158,113z M164.4,114.1v-3.7
			c0-0.1,0-0.3,0.1-0.4c0.1-0.1,0.2-0.2,0.3-0.2c0.1,0,0.2,0,0.3,0.1c0.1,0.1,0.1,0.2,0.1,0.4l0.1,3.7c0,0.1,0,0.3-0.1,0.4
			c-0.1,0.1-0.2,0.1-0.3,0.1c-0.1,0-0.2,0-0.3-0.1C164.5,114.4,164.5,114.3,164.4,114.1 M173.7,113.4c0,0.2-0.1,0.4-0.2,0.6
			c-0.1,0.2-0.3,0.3-0.5,0.4c-0.3,0.1-0.5,0.1-0.8,0.1c-0.3,0-0.5,0-0.8-0.1c-0.2-0.1-0.4-0.2-0.5-0.3c-0.1-0.1-0.2-0.3-0.2-0.4
			c0-0.1,0-0.2,0.1-0.2c0.1-0.1,0.2-0.1,0.3-0.1c0.1,0,0.1,0,0.2,0.1c0.1,0.1,0.1,0.1,0.1,0.2c0.1,0.1,0.2,0.3,0.3,0.3
			c0.2,0.1,0.3,0.1,0.5,0.1c0.1,0,0.3,0,0.4-0.1c0.1-0.1,0.2-0.2,0.2-0.3c0-0.1-0.1-0.3-0.2-0.3c-0.2-0.1-0.4-0.2-0.6-0.2
			c-0.2,0-0.5-0.1-0.7-0.2c-0.2-0.1-0.3-0.2-0.4-0.3c-0.1-0.1-0.2-0.3-0.2-0.5c0-0.2,0.1-0.3,0.1-0.5c0.1-0.2,0.3-0.3,0.5-0.4
			c0.2-0.1,0.5-0.1,0.7-0.2c0.2,0,0.4,0,0.6,0.1c0.2,0,0.3,0.1,0.4,0.2c0.1,0.1,0.2,0.1,0.3,0.2c0.1,0.1,0.1,0.2,0.1,0.3
			c0,0.1,0,0.2-0.1,0.2c-0.2,0.1-0.4,0.1-0.5,0c-0.1-0.1-0.2-0.1-0.2-0.2c-0.1-0.1-0.1-0.1-0.2-0.2c-0.1-0.1-0.2-0.1-0.4-0.1
			c-0.1,0-0.3,0-0.4,0.1c-0.1,0.1-0.1,0.1-0.1,0.2c0,0.1,0,0.2,0.1,0.2c0.1,0.1,0.2,0.1,0.3,0.1l0.5,0.1c0.2,0.1,0.4,0.1,0.6,0.2
			c0.2,0.1,0.3,0.2,0.4,0.3C173.6,113.1,173.7,113.2,173.7,113.4"/>
		<path class="st3" d="M173.7,83.1c5.2,3.4,8.3,9,5.3,14c-2.4,4.1-9.2,7-11.6,8.5C168,106.3,187.5,95.6,173.7,83.1"/>
		<path class="st2" d="M174.9,84.1c-9.7-6.9-21.5-2.8-32.1,2.2c-6,2.8-14.4,7.2-23.7,3.8C134.6,101.5,164.1,75.2,174.9,84.1"/>
		<path class="st3" d="M116.8,102.7v4.8c0,0.5,0,1-0.2,1.5c-0.1,0.4-0.3,0.7-0.6,1c-0.4,0.3-0.8,0.6-1.2,0.9
			c-1.3,0.8-2.7,1.4-4.1,1.8c-1.4,0.4-2.8,0.6-4.3,0.6c-1.7,0-3.4-0.2-5-0.8c-1.4-0.5-2.7-1.4-3.7-2.5c-1.1-1.1-1.9-2.5-2.5-4
			c-0.6-1.7-0.9-3.5-0.9-5.3c-0.1-1.8,0.2-3.6,0.7-5.3c0.5-1.5,1.3-2.9,2.4-4.1c1.1-1.1,2.4-2,3.8-2.6c1.6-0.6,3.4-1,5.2-0.9
			c1.4,0,2.9,0.2,4.2,0.6c1.1,0.3,2.1,0.9,3,1.7c0.7,0.6,1.3,1.3,1.8,2.1c0.4,0.6,0.6,1.3,0.6,2c0,0.6-0.2,1.2-0.7,1.6
			c-0.4,0.4-1,0.7-1.6,0.7c-0.3,0-0.7-0.1-1-0.2c-0.3-0.2-0.6-0.4-0.8-0.7c-0.5-0.8-1-1.5-1.5-2.2c-0.4-0.5-1-1-1.6-1.2
			c-0.8-0.4-1.7-0.5-2.7-0.5c-1,0-2,0.2-2.9,0.6c-0.9,0.4-1.6,1-2.2,1.8c-0.6,0.8-1.1,1.8-1.4,2.8c-0.3,1.2-0.5,2.4-0.4,3.7
			c0,2.9,0.7,5.2,2,6.7c1.3,1.6,3.3,2.4,5.3,2.3c1.1,0,2.1-0.2,3.1-0.5c1-0.3,2-0.8,2.9-1.3v-4l-3.7,0.1c-0.7,0.1-1.4-0.1-2-0.4
			c-0.5-0.3-0.8-0.9-0.7-1.4c0-0.5,0.2-1,0.5-1.4c0.4-0.4,1-0.6,1.6-0.6l5.4-0.1c0.6,0,1.1,0.1,1.7,0.2c0.5,0.1,0.9,0.4,1.1,0.8
			C116.7,101.4,116.9,102,116.8,102.7"/>
		<path class="st4" d="M462.3,52.3c10.3,0,18.2,8.1,18.2,18.7s-7.9,18.7-18.2,18.7S444,81.6,444,71S451.9,52.3,462.3,52.3
			 M462.2,84.8c7.4,0,13-5.9,13-13.8s-5.6-13.8-13-13.8s-13,6-13,13.8S454.8,84.8,462.2,84.8"/>
		<rect x="484.6" y="52.3" class="st4" width="4.9" height="37"/>
		<rect x="495.3" y="52.3" class="st4" width="4.9" height="37"/>
		<path class="st4" d="M524.4,87.1c-2.1,1.8-4.8,2.8-7.5,2.8c-2.2,0-4.3-0.6-6.1-1.6c-3.9-2.3-6.3-6.6-6.2-11.1
			c0-4.6,2.4-8.8,6.3-11.2c1.8-1.1,3.9-1.6,6-1.6c2.8,0,5.5,0.9,7.7,2.8v-2.2h4.8v24.5h-4.8L524.4,87.1z M524.2,72.5
			c-1.7-2.2-4.3-3.5-7-3.5c-4.3,0-7.8,3.5-7.9,7.8c0,0,0,0,0,0V77c0,4.4,3.6,8,8,8h0.1c2.6-0.1,5.1-1.3,6.7-3.5L524.2,72.5z"/>
		<path class="st5" d="M447.4,124.1c2.1,2.8,5.4,4.6,8.9,4.7c3.4,0,6.3-2.2,6.3-5.5c0-5.6-7.7-6.2-12.5-9.3c-2.9-1.6-4.6-4.7-4.6-8
			c0-5.3,4.7-9.7,11-9.7c3.6,0,7,1.2,9.8,3.6l-3.1,3.8c-1.8-1.6-4.1-2.5-6.5-2.5c-3,0-6,1.7-6,4.9c0,4.6,7.8,5.6,12.4,8.8
			c3,1.7,4.8,4.9,4.7,8.3c0,6.4-4.9,10.6-11.3,10.6c-5,0-9.7-2.2-12.8-6.1L447.4,124.1z"/>
		<polygon class="st5" points="470.5,145.7 477.1,130.6 466.7,108.7 472,108.7 479.6,124.8 486.7,108.7 491.9,108.7 475.8,145.7 		
			"/>
		<path class="st5" d="M494.5,126.7c2,1.7,4.6,2.6,7.2,2.7c2.1,0,4.3-1.1,4.3-3.1c0-2.8-4-3-7.6-4.2c-3-1-5.6-2.9-5.6-6.3
			c0-5.2,4.7-7.7,9.1-7.7c2.9-0.1,5.8,0.9,8.1,2.7l-2.5,3.5c-1.5-1.2-3.3-1.9-5.2-1.9c-2.4,0-4.4,1.2-4.4,3.1c0,1.7,1.9,2.2,4.4,2.8
			c3.8,1,8.9,2.7,8.9,7.8c0,4.6-4.3,7.5-9.1,7.5c-3.6,0.1-7.1-1.1-9.9-3.4L494.5,126.7z"/>
		<path class="st5" d="M531.1,133.2c-1.3,0.4-2.5,0.5-3.8,0.5c-2.6,0.1-5.2-0.9-6.9-2.9c-1.5-1.8-2.2-4.1-2-6.5v-11.2h-6.2v-4.4h6.2
			v-6.8h5v6.8h7.8v4.4h-7.8v11.4c-0.1,1.1,0.1,2.2,0.7,3.1c0.9,0.9,2.1,1.4,3.4,1.3c0.9,0,1.8-0.1,2.7-0.3L531.1,133.2z"/>
		<path class="st5" d="M537.4,122c0.3,4.2,3.7,7.4,7.9,7.4c2.7,0,5.3-1.2,7-3.3l3.2,3.1c-2.5,3-6.3,4.7-10.3,4.6
			c-6.9,0.1-12.5-5.3-12.6-12.2c0,0,0,0,0,0c0-0.2,0-0.4,0-0.6c0-7.3,5-12.8,11.9-12.8s11.8,5.5,11.8,12.8c0,0.3,0,0.7,0,1
			L537.4,122z M537.8,117.8h13.4c-0.7-3-3.3-5.3-6.5-5.3C541.4,112.5,538.6,114.7,537.8,117.8"/>
		<path class="st5" d="M565.2,108.7v2.3c2-1.8,4.5-2.8,7.2-2.9c3.3,0,6.5,1.4,8.6,4c2.4-2.6,5.8-4.1,9.4-4c3.4,0,6.6,1.5,8.7,4.1
			c1.5,1.9,2.2,4.3,2.2,8.4v12.5h-5v-13.3c0.2-1.7-0.3-3.5-1.3-4.9c-1.1-1.4-2.8-2.1-4.6-2.1c-2.9,0.1-5.6,1.3-7.5,3.5
			c0.3,1.4,0.4,2.9,0.4,4.3v12.5h-4.9v-13.3c0.2-1.8-0.4-3.5-1.4-4.9c-1.2-1.4-2.9-2.2-4.7-2.1c-2.7,0.1-5.2,1.4-6.9,3.5v16.8h-4.9
			v-24.4H565.2z"/>
		<path class="st5" d="M607.2,126.7c2,1.7,4.6,2.6,7.2,2.7c2.1,0,4.3-1.1,4.3-3.1c0-2.8-4-3-7.7-4.2c-3-1-5.6-2.9-5.6-6.3
			c0-5.2,4.7-7.7,9.1-7.7c2.9-0.1,5.8,0.9,8.1,2.7l-2.5,3.5c-1.5-1.2-3.3-1.9-5.2-1.9c-2.4,0-4.4,1.2-4.4,3.1c0,1.7,1.9,2.2,4.4,2.8
			c3.8,1,8.9,2.7,8.9,7.8c0,4.6-4.3,7.5-9.1,7.5c-3.6,0.1-7.1-1.1-9.9-3.4L607.2,126.7z"/>
		
			<linearGradient id="SVGID_1_" gradientUnits="userSpaceOnUse" x1="349.16" y1="128.89" x2="419.5948" y2="128.89" gradientTransform="matrix(1 0 0 -1 0 202)">
			<stop  offset="0" style="stop-color:#EA2429"/>
			<stop  offset="1" style="stop-color:#BE202F"/>
		</linearGradient>
		<path class="st6" d="M384.1,50.7c-21.3,0.1-38.9,16.4-40.8,37.6c-0.1,1.2-0.2,2.4-0.2,3.7V92c0,1.2,0,2.4,0.2,3.6h25.4
			c-0.5-2.4-0.5-4.9,0-7.3c0.6-3.1,2.1-6,4.3-8.2c6.2-6.3,16.4-6.3,22.6-0.1c0,0,0,0,0.1,0.1l0.2,0.2c1.6,1.6,2.8,3.5,3.6,5.6h8
			c-0.2-1-0.6-2.1-1-3.1c-2.5-5.9-7.1-10.6-12.9-13.1c-2.9-1.2-5.9-1.8-9-1.8c-11.9,0-22,8.6-23.7,20.4h-10.1
			c2-18.6,18.7-32.1,37.4-30.1c7.7,0.8,14.9,4.3,20.4,9.8l5.2-5.2c-7.7-7.7-18.1-12-28.9-12.1L384.1,50.7z"/>
		<path class="st5" d="M425.4,88.2H400c0.3,1.2,0.4,2.5,0.4,3.7c0,1.2-0.1,2.4-0.3,3.6c-0.6,3.1-2.1,6-4.3,8.2
			c-2.9,3.1-7,4.9-11.3,4.8c-3.8,0-7.4-1.3-10.4-3.7c-2.2-1.7-3.9-4.1-4.8-6.7h-8c0.2,1,0.6,1.9,0.9,2.9c1.2,2.9,3,5.5,5.2,7.8
			c2.2,2.3,4.8,4.1,7.7,5.3c3,1.2,6.2,1.8,9.5,1.8c3.1,0,6.2-0.6,9.1-1.7c5.8-2.5,10.4-7.1,12.8-12.9c0.7-1.8,1.3-3.8,1.5-5.8h10.1
			c-2,18.6-18.7,32.1-37.4,30.1c-7.7-0.8-14.9-4.3-20.3-9.8l-5.2,5.2c16.1,16.1,42.3,16,58.3-0.1c6.8-6.8,11-15.8,11.9-25.4
			c0.1-1.2,0.1-2.4,0.1-3.7C425.6,90.7,425.6,89.5,425.4,88.2"/>
		<path class="st7" d="M771.6,100.6c0.1,0,0.1-0.2,0.1-0.2c0.6-13.2,8.8-24.7,21.1-29.6l0.2-0.1c0.1-1.6,0.1-3-1.1-4.2
			c-1-1-2.4-1.5-3.8-1.2h-0.2v-4.1H799v15.2c-7.6,1.8-14,6.9-17.5,14c-2.8,5.5-3.4,11.7-1.9,17.7c3.5,14,17.7,22.5,31.7,19.1
			s22.5-17.7,19.1-31.7c-0.1-0.6-0.3-1.2-0.5-1.7c-1.3-4.1-3.7-7.9-6.9-10.8c-3.2-3-7-5.2-11.2-6.3V61.2h11v4.1
			c-0.5-0.1-1-0.1-1.5-0.1c-0.5,0-0.9,0.2-1.4,0.4c-1.1,0.6-2,1.6-2.3,2.8c-0.1,0.8-0.1,1.7-0.1,2.5c0.7,0.3,1.3,0.6,1.9,0.9
			c6.9,3.3,12.4,8.9,15.7,15.8c2.4,5.2,3.5,10.9,3.1,16.7c-1.2,16.2-13.9,29.1-30,30.7c-0.7,0.1-1.4,0.1-2.1,0.1
			c-0.1,0-0.2-0.1-0.2,0.1h-2c0-0.1-0.1-0.1-0.2-0.1l-1.7-0.1c-2.4-0.2-4.8-0.7-7.1-1.4c-13.4-4.2-22.7-16.3-23.3-30.4
			c0-0.1,0-0.2-0.1-0.2L771.6,100.6z"/>
		<path class="st8" d="M942.2,94.5c-0.3-3-2.2-5.5-4.9-6.6c-1.6-0.7-3.4-1-5.2-0.9h-17.4c-0.1,0-0.3,0-0.5,0c-0.4,0-0.9,0.1-1.1,0.5
			c-0.6,1-0.7,2.2,0.7,2.9c0.7,0.3,1.2,1,1.1,1.8c0,6.4,0,12.9,0,19.3c0.1,0.8-0.4,1.5-1.1,1.8c-0.4,0.2-0.8,0.5-1,0.9
			c-0.1,0.2-0.1,0.4-0.1,0.5c0,0.3,0,0.6,0.1,0.9c0.2,0.9,0.9,1,1.6,1c0.1,0,0.2,0,0.4,0h10.8c0.3,0,0.6,0,0.9,0
			c0.5,0.1,0.9-0.1,1.2-0.4c0.6-0.6,0.7-1.6,0.1-2.3c-0.2-0.3-0.5-0.5-0.8-0.6c-0.8-0.3-1.2-1.1-1.1-1.9V106c0-0.1,0-0.2,0-0.3
			c1-0.1,2-0.2,3-0.3c3.6-0.4,7.1-1.6,10.2-3.4c1.3-0.7,2.2-1.9,2.7-3.3C942.3,97.3,942.4,95.9,942.2,94.5 M930.6,97.9
			c-0.3,0.9-0.9,1.7-1.7,2.1c-0.7,0.5-1.5,0.9-2.3,1.3c-0.3,0.1-0.6,0.2-0.8,0.2V101c0-3,0-6.1,0-9.1c0-1.2,0.7-1.5,1.6-1.3
			c1.8,0.2,3.2,1.5,3.4,3.3C931.1,95.2,931.1,96.5,930.6,97.9"/>
		<path class="st8" d="M912.2,114.8c0-0.2-0.1-0.4-0.2-0.5c-0.2-0.4-0.6-0.8-1-1c-0.4-0.2-0.8-0.6-1-1c-0.2-0.5-0.5-0.9-0.7-1.4
			c-0.8-1.8-1.3-3.7-2-5.6c-1.6-4.6-3.5-9.2-5.5-13.7c-0.5-1.2-1.2-2.4-1.9-3.4c-0.7-1-1.8-1.6-3-1.6c-1,0-1.9,0.1-2.9,0.1
			c-1,0.1-1.9,0.5-2.6,1.2c-0.5,0.5-0.9,1-1.2,1.5c-1.4,2.4-2.6,5-3.7,7.6c-1.1,2.6-2,5.3-3,8c-0.9,2.3-1.7,4.7-2.7,7
			c-0.2,0.6-0.7,1.1-1.2,1.4c-0.8,0.3-1.2,1.2-0.9,2c0.3,1,0.6,1.3,1.7,1.3h0.2c2.1,0,4.2,0,6.3,0c0.2,0,0.4,0,0.7,0
			c0.3,0,0.7-0.2,0.9-0.4c0.6-0.7,0.6-1.7,0-2.4c-0.2-0.2-0.4-0.4-0.7-0.6c-0.8-0.3-1.2-1.2-1.1-2c0.2-1.2,0.5-2.5,1-3.6h9.5
			c0.4,1.2,0.7,2.5,1,3.8c0.2,0.7-0.2,1.5-0.8,1.7c-0.2,0.1-0.5,0.3-0.7,0.4c-0.6,0.4-0.9,1.1-0.7,1.7c0.1,0.6,0.6,1.2,1.2,1.3
			c0.3,0.1,0.5,0.1,0.8,0.1h12.3c0.8,0.1,1.5-0.3,1.9-1c0.1-0.3,0.2-0.6,0.1-0.9 M889.2,103.2c0.9-2.9,2-5.7,3.3-8.4
			c1.3,2.7,2.3,5.5,3.1,8.4H889.2z"/>
		<path class="st8" d="M859.2,102.3c-0.1,0.7,0,1.5,0.1,2.2c0.2,1,0.5,2,0.9,2.9c0.9,2.4,3,4.2,5.5,4.7c1.5,0.2,3.1,0,4.5-0.6
			c1.4-0.5,2.6-1.4,3.6-2.5c0.4-0.4,0.8-0.8,1.2-1.1c0.7-0.6,1.6-0.6,2.3-0.2c0.8,0.5,1.2,1.4,1.1,2.3c-0.1,0.8-0.5,1.6-1,2.2
			c-0.4,0.6-0.9,1.1-1.4,1.6c-2.2,1.7-4.7,2.8-7.4,3.2c-2.7,0.5-5.5,0.3-8.2-0.3c-5.4-1.5-9.5-4.6-11.4-9.9c-2.1-5.1-0.9-11,3-14.8
			c0.9-0.9,1.8-1.8,2.8-2.5c1.9-1.5,4.2-2.5,6.6-2.7c1-0.1,1.9-0.3,2.9-0.4c1.8-0.2,3.5-0.1,5.3,0.3c2.1,0.4,4.1,1.1,5.9,2.1
			c0.9,0.4,1.6,1.1,2.1,1.9c0,0.1,0.1,0.1,0.1,0.2c0.1,1.3,0.4,2.5,0.4,3.8c0,0.4,0,0.8-0.1,1.2c-0.1,0.7-0.6,1.2-1.3,1.3
			c-1,0.2-2.1-0.1-2.9-0.8c-0.3-0.2-0.5-0.5-0.6-0.8c-0.2-0.4-0.3-0.9-0.5-1.3c-0.7-1.8-2.2-3.1-4-3.6c-1.3-0.4-2.7-0.4-4,0
			c-1.6,0.6-2.9,1.6-3.8,3.1c-0.8,1.2-1.2,2.6-1.4,4.1C859.3,99.3,859.2,100.8,859.2,102.3"/>
		<path class="st7" d="M783.1,101.8c0-12.1,9.8-21.9,21.9-21.9c12.1,0,21.9,9.8,21.9,21.9c0,12.1-9.8,21.9-21.9,21.9c0,0,0,0,0,0
			C792.9,123.7,783.1,113.9,783.1,101.8 M820,101.8c0-8.3-6.6-15-14.9-15.1c-8.3,0-15,6.6-15.1,14.9c0,8.3,6.6,15,14.9,15.1
			c0,0,0,0,0.1,0C813.2,116.7,819.9,110.1,820,101.8"/>
		<g>
			<defs>
				<rect id="SVGID_00000097469273779587952420000000024621999462119843_" x="1100.7" y="55.9" width="79.8" height="79.8"/>
			</defs>
			<clipPath id="SVGID_00000183937637903242856000000008723381772915876531_">
				<use xlink:href="#SVGID_00000097469273779587952420000000024621999462119843_"  style="overflow:visible;"/>
			</clipPath>
			<g style="clip-path:url(#SVGID_00000183937637903242856000000008723381772915876531_);">
				<path class="st10" d="M1140.5,55.9c22,0,39.9,17.9,39.9,39.9s-17.9,39.9-39.9,39.9s-39.9-17.9-39.9-39.9
					S1118.5,55.9,1140.5,55.9L1140.5,55.9"/>
				<path class="st11" d="M1140.5,57.9c20.9,0,37.9,17,37.9,37.9s-17,37.9-37.9,37.9c-20.9,0-37.9-17-37.9-37.9
					S1119.6,57.9,1140.5,57.9L1140.5,57.9"/>
				<g class="st12">
					<g>
						<defs>
							<rect id="SVGID_00000083770810854140710630000013058226318771012744_" x="1105.7" y="59.1" width="62.4" height="62.5"/>
						</defs>
						<clipPath id="SVGID_00000131360626032181184150000002544698945065080251_">
							<use xlink:href="#SVGID_00000083770810854140710630000013058226318771012744_"  style="overflow:visible;"/>
						</clipPath>
						<g style="clip-path:url(#SVGID_00000131360626032181184150000002544698945065080251_);">
							<g>
								<defs>
									<path id="SVGID_00000098937654380800667590000003064044705534777002_" d="M1136.9,59.1c17.2,0,31.2,14,31.2,31.2
										s-14,31.2-31.2,31.2c-17.2,0-31.2-14-31.2-31.2c0,0,0,0,0,0C1105.7,73.1,1119.7,59.1,1136.9,59.1"/>
								</defs>
								<clipPath id="SVGID_00000101799883639924698810000001194403145225889665_">
									<use xlink:href="#SVGID_00000098937654380800667590000003064044705534777002_"  style="overflow:visible;"/>
								</clipPath>
								<g style="clip-path:url(#SVGID_00000101799883639924698810000001194403145225889665_);">
									
										<linearGradient id="SVGID_00000104668553846221585290000001642740594228147884_" gradientUnits="userSpaceOnUse" x1="152.3461" y1="655.2743" x2="153.0061" y2="655.2743" gradientTransform="matrix(13.276 52.1981 52.1981 -13.276 -35097.5586 806.8165)">
										<stop  offset="0" style="stop-color:#FFFFFF"/>
										<stop  offset="1" style="stop-color:#EB1D25"/>
									</linearGradient>
									<polygon style="fill:url(#SVGID_00000104668553846221585290000001642740594228147884_);" points="1090.8,62.9 1164.4,44.2 
										1183.1,117.8 1109.5,136.5 									"/>
								</g>
							</g>
						</g>
					</g>
				</g>
				<path class="st16" d="M1125.1,118.4c-0.3,0-0.6-0.1-0.8-0.3c0-0.1-0.1-0.1-0.1-0.2c0-0.1,0.1-0.3,0.2-0.3c0,0,0,0,0.1,0
					c0.1,0,0.2,0,0.2,0.1l0,0c0.1,0.1,0.2,0.1,0.3,0.1c0.1,0,0.2,0,0.2-0.1s-0.1-0.1-0.2-0.2l-0.1-0.1c-0.1-0.1-0.3-0.1-0.4-0.2
					c-0.2-0.1-0.2-0.3-0.2-0.5c0-0.2,0.1-0.4,0.2-0.5c0.2-0.1,0.4-0.2,0.6-0.2c0.1,0,0.3,0,0.4,0.1c0.1,0,0.2,0.1,0.3,0.2
					c0,0.1,0.1,0.1,0.1,0.2c0,0.1,0,0.1-0.1,0.2c-0.1,0.1-0.1,0.1-0.2,0.1c-0.1,0-0.2,0-0.2-0.1l0,0c-0.1,0-0.2-0.1-0.3-0.1
					c-0.1,0-0.2,0-0.2,0.1c0,0.1,0,0.1,0.1,0.1l0.1,0.1l0.3,0.1c0.1,0.1,0.2,0.1,0.3,0.2c0.1,0.1,0.1,0.2,0.1,0.4
					c0,0.2-0.1,0.4-0.3,0.6C1125.6,118.3,1125.4,118.4,1125.1,118.4 M1128.6,117.9c0,0.3-0.1,0.5-0.3,0.5s-0.3-0.2-0.3-0.5v-1.3
					c0-0.3,0.1-0.5,0.3-0.5s0.3,0.2,0.3,0.5V117.9z M1127.9,115.5c0-0.1,0-0.2,0.1-0.3c0.1-0.1,0.2-0.1,0.3-0.1c0.1,0,0.2,0,0.3,0.1
					c0.1,0.1,0.1,0.2,0.1,0.3c0,0.1,0,0.2-0.1,0.3c-0.1,0.1-0.2,0.1-0.3,0.1c-0.1,0-0.2,0-0.3-0.1
					C1128,115.7,1127.9,115.6,1127.9,115.5 M1130.8,117.9v-1.3c0-0.3,0.1-0.5,0.3-0.5c0.1,0,0.3,0.1,0.3,0.2
					c0.2-0.1,0.4-0.2,0.6-0.2c0.5,0,0.8,0.3,0.8,0.8v0.9c0,0.3-0.1,0.5-0.3,0.5s-0.3-0.2-0.3-0.5v-0.7c0-0.1,0-0.2,0-0.3
					c-0.1-0.1-0.2-0.2-0.3-0.1c-0.2,0-0.3,0.2-0.3,0.5v0.8c0,0.3-0.1,0.5-0.3,0.5S1130.8,118.2,1130.8,117.9 M1134.8,117.2
					c0-0.3,0.1-0.6,0.3-0.8c0.2-0.2,0.5-0.4,0.8-0.3c0.2,0,0.3,0,0.5,0.1c0.2,0,0.3,0.2,0.3,0.3c0,0.1,0,0.1-0.1,0.2
					c0,0.1-0.1,0.1-0.2,0.1c-0.1,0-0.1,0-0.2,0l0,0c-0.1,0-0.2,0-0.3,0c-0.1,0-0.3,0.1-0.3,0.2c-0.1,0.1-0.1,0.2-0.1,0.4
					c0,0.1,0,0.3,0.1,0.4c0.1,0.1,0.2,0.2,0.4,0.2c0.1,0,0.1,0,0.2,0l0,0c0.1,0,0.1,0,0.2,0c0.1,0,0.1,0,0.2,0.1
					c0.1,0.1,0.1,0.1,0.1,0.2c0,0.1-0.1,0.2-0.3,0.3c-0.2,0.1-0.3,0.1-0.5,0.1c-0.3,0-0.6-0.1-0.8-0.3c-0.2-0.2-0.3-0.5-0.3-0.8
					 M1139.1,117.6c0,0.1,0.1,0.2,0.2,0.3c0.1,0.1,0.2,0.1,0.3,0.1c0.1,0,0.3,0,0.4-0.1h0.1c0.1,0,0.1-0.1,0.2-0.1
					c0.1,0,0.2,0.1,0.3,0.2c0,0,0,0,0,0.1c0,0.1,0,0.1-0.1,0.2c-0.1,0.1-0.2,0.2-0.4,0.3c-0.2,0.1-0.3,0.1-0.5,0.1
					c-0.3,0-0.6-0.1-0.8-0.3c-0.2-0.2-0.3-0.5-0.3-0.8c0-0.3,0.1-0.6,0.3-0.8c0.3-0.3,0.8-0.4,1.2-0.3c0.2,0.1,0.3,0.2,0.5,0.4
					c0.1,0.2,0.2,0.4,0.2,0.6c0,0.1,0,0.2-0.1,0.2c-0.1,0.1-0.2,0.1-0.3,0.1L1139.1,117.6z M1139.1,117.2h0.9c0-0.1,0-0.2-0.1-0.3
					c-0.1-0.1-0.2-0.1-0.3-0.1c-0.1,0-0.2,0-0.3,0.1C1139.2,116.9,1139.1,117,1139.1,117.2 M1144.8,117.9h0.3c0.2,0,0.3,0.1,0.3,0.3
					s-0.1,0.3-0.3,0.3h-1.4c-0.2,0-0.3-0.1-0.3-0.3s0.1-0.3,0.3-0.3h0.4V116c-0.1,0-0.2,0-0.3,0c-0.1,0-0.2-0.1-0.2-0.2
					c0-0.1,0-0.1,0.1-0.2c0.2-0.2,0.5-0.2,0.8-0.2h0.1c0.1,0,0.1,0.1,0.1,0.2l0,0c0,0,0,0.1,0,0.3L1144.8,117.9z M1147.5,116.9
					c-0.2-0.1-0.3-0.4-0.3-0.6c0-0.2,0.1-0.5,0.3-0.6c0.4-0.3,0.9-0.3,1.3,0c0.2,0.2,0.3,0.4,0.3,0.6c0,0.2-0.1,0.4-0.3,0.6
					c0.3,0.2,0.4,0.4,0.4,0.7c0,0.3-0.1,0.5-0.3,0.7c-0.2,0.2-0.5,0.3-0.8,0.3c-0.3,0-0.5-0.1-0.8-0.3c-0.2-0.2-0.3-0.4-0.3-0.7
					C1147.1,117.3,1147.2,117,1147.5,116.9 M1147.8,117.6c0,0.1,0,0.2,0.1,0.3c0.1,0.1,0.2,0.1,0.3,0.1c0.1,0,0.2,0,0.3-0.1
					c0.1-0.2,0.1-0.4,0-0.6c-0.1-0.1-0.2-0.1-0.3-0.1c-0.1,0-0.2,0-0.3,0.1C1147.8,117.3,1147.8,117.5,1147.8,117.6 M1147.9,116.4
					c0,0.1,0,0.2,0.1,0.2c0.1,0.1,0.1,0.1,0.2,0.1c0.2,0,0.3-0.1,0.3-0.3c0-0.1,0-0.2-0.1-0.2c-0.1-0.1-0.1-0.1-0.2-0.1
					c-0.1,0-0.2,0-0.2,0.1C1147.9,116.2,1147.9,116.3,1147.9,116.4 M1152.1,116.2h-0.9c-0.3,0-0.4-0.1-0.4-0.3s0.1-0.3,0.4-0.3h1.2
					c0.3,0,0.5,0.1,0.5,0.4c0,0.1,0,0.2-0.1,0.2l-1,2.1c-0.1,0.2-0.2,0.3-0.3,0.3c-0.1,0-0.2,0-0.2-0.1c-0.1-0.1-0.1-0.1-0.1-0.2
					c0-0.1,0-0.2,0.1-0.3L1152.1,116.2z M1156,116.5c0-0.1,0-0.2-0.1-0.3c-0.1-0.2-0.4-0.2-0.5,0c0,0,0,0,0,0
					c-0.1,0.1-0.1,0.2-0.1,0.3c0,0.1,0,0.2,0.1,0.3c0.1,0.1,0.2,0.1,0.3,0.1c0.1,0,0.2,0,0.3-0.1
					C1155.9,116.7,1156,116.6,1156,116.5 M1155.6,117.4h-0.2c-0.2,0-0.5-0.1-0.6-0.3c-0.2-0.2-0.2-0.4-0.2-0.7
					c0-0.3,0.1-0.6,0.3-0.8c0.2-0.2,0.5-0.3,0.8-0.3c0.3,0,0.6,0.1,0.8,0.3c0.2,0.2,0.3,0.5,0.3,0.8c-0.1,0.6-0.3,1.1-0.7,1.5
					c-0.3,0.4-0.5,0.6-0.7,0.6c-0.1,0-0.2,0-0.2-0.1c-0.1-0.1-0.1-0.1-0.1-0.2c0-0.1,0.1-0.3,0.2-0.3
					C1155.3,117.8,1155.4,117.7,1155.6,117.4"/>
				<path class="st16" d="M1106.6,98.2v-8.9c0-3.2,1.1-4.8,3.3-4.8s3.3,1.6,3.3,4.8v7.5c-0.1,1.1,0.1,2.3,0.6,3.3c1,1.6,3.1,2,4.7,1
					c0.4-0.3,0.7-0.6,1-1c0.4-1.1,0.6-2.2,0.6-3.3v-7.5c0-3.2,1.1-4.8,3.3-4.8c2.2,0,3.3,1.6,3.3,4.8v8.9c0,3.2-0.9,5.6-2.6,7.3
					s-4.2,2.5-7.4,2.5c-3.2,0-5.7-0.8-7.5-2.5S1106.6,101.4,1106.6,98.2 M1136.8,96c0,1.3,0.3,2.6,1,3.7c0.7,1.1,2,1.8,3.3,1.7
					c1.3,0,2.6-0.6,3.2-1.7c0.7-1.1,1-2.4,1-3.7c0-1.3-0.3-2.6-1-3.7c-0.7-1.1-1.9-1.7-3.2-1.7c-1.3,0-2.5,0.6-3.3,1.7
					C1137.1,93.4,1136.7,94.7,1136.8,96 M1145.6,105.3c-1.4,1.7-3.4,2.6-5.6,2.5c-2.9,0-5.7-1.3-7.4-3.7c-1.8-2.3-2.7-5.1-2.7-8.1
					c0-2.9,0.9-5.7,2.7-8l0.1-0.1c1.8-2.4,4.6-3.8,7.5-3.7c2.1-0.1,4,0.8,5.4,2.4c0.6-1.3,1.8-2.1,3.2-2.1c2.2,0,3.3,1.6,3.3,4.8
					v13.4c0,3.2-1.1,4.9-3.3,4.9C1147.3,107.7,1146,106.8,1145.6,105.3 M1155.4,96.1c-0.1-3.2,1-6.2,3.1-8.6
					c2.2-2.3,5.2-3.5,8.3-3.3c1.6,0,3.2,0.2,4.7,0.8c1.8,0.8,2.7,1.9,2.7,3.5c0,0.7-0.3,1.5-0.8,2c-0.5,0.6-1.2,0.8-2,0.8
					c-0.7,0-1.4-0.2-2-0.5c-0.8-0.3-1.7-0.5-2.7-0.5c-1.4-0.1-2.7,0.6-3.5,1.7c-0.8,1.2-1.2,2.5-1.1,3.9c-0.1,1.4,0.3,2.8,1.2,4
					c0.9,1.1,2.3,1.7,3.7,1.7c0.9,0,1.7-0.1,2.5-0.5h0.1c0.6-0.3,1.3-0.5,2-0.5c0.7,0,1.4,0.3,1.9,0.8c0.5,0.6,0.7,1.3,0.7,2
					c0,1.3-0.9,2.5-2.8,3.4c-1.6,0.7-3.3,1-5,1c-3,0.1-6-1.1-8-3.3l-0.1-0.1C1156.4,102.2,1155.3,99.2,1155.4,96.1"/>
			</g>
		</g>
		<path class="st17" d="M1456.3,65.7C1456.2,65.7,1456.2,65.6,1456.3,65.7c-0.1-0.1,0-0.2,0-0.2l0.9-0.2c2.8-0.7,5.7-1.2,8.6-1.7
			s5.8-0.9,8.8-1.2s6.1-0.5,9.1-0.5c6-0.2,12,0.4,17.9,1.7c3.4,0.7,6.7,1.9,9.7,3.5c4.5,2.6,8.2,7.2,7.7,12.7
			c-0.4,2.9-1.6,5.7-3.4,8c-4.8,6.4-11.8,11.3-18.4,15.7c0,0-0.1,0-0.1,0c0,0,0-0.1,0-0.1c8.3-6.3,12.8-13.5,11.6-20.2
			C1506.3,70.1,1483.8,63,1456.3,65.7 M1497.3,58.5c5.7,0.2,11.4,0.8,16.7,3.1c4.3,1.9,8.2,5.4,9,10.2c0.5,3.3,0.2,6.7-1.1,9.9
			c0,0,0,0.1,0.1,0.1c0,0,0.1,0,0.1,0l0.5-0.6c2.8-3.4,5.5-7.2,6.9-11.5c0.8-2.2,1-4.6,0.5-6.9c-0.9-3.5-4.2-5.2-7.4-6.1
			c-1.3-0.4-2.6-0.6-3.9-0.8c-6-0.7-12-0.7-18,0.1c-3.4,0.3-6.8,0.8-10.2,1.3c-2.1,0.3-4.3,0.7-6.4,1.2c0,0-0.1,0-0.1,0
			c0,0,0,0.1,0,0.1c0,0,0,0,0.1,0c4.4-0.2,8.8-0.3,13.3-0.1 M1376.7,98.3c2.4-5.9-0.4-12.5-6.3-14.9c-1.4-0.6-2.8-0.8-4.3-0.8h-26.6
			V93h7.9v-2.6h18.7c2,0,3.5,1.6,3.5,3.5s-1.6,3.5-3.5,3.5l0,0h-26.6v7.9h33.1c2,0,3.5,1.6,3.5,3.5s-1.6,3.5-3.5,3.5h-25.2V110h-7.9
			v10.5h33.1c6.3,0,11.5-5.1,11.5-11.4C1384.1,104.3,1381.1,100,1376.7,98.3 M1440.1,90.5h47.4v-8h-47.4V90.5z M1459.8,120.5h7.9V95
			h-7.9V120.5z M1409.4,103.5l7.7-10.1l20.5,27.1h9.9l-30.5-40.2l-30.5,40.2h9.9l6.9-9.1h21.7l-6-7.9L1409.4,103.5z"/>
		<polygon class="st17" points="1383.2,140.5 1383.2,130.5 1390.4,137.9 1390.4,131 1391.6,131 1391.6,141 1384.4,133.5 
			1384.4,140.5 		"/>
		<rect x="1396" y="131" class="st17" width="1.2" height="9.5"/>
		<path class="st17" d="M1410,136.1v3.2c-0.2,0.2-0.5,0.4-0.7,0.6c-2.3,1.5-5.4,0.8-6.8-1.5c-1.5-2.3-0.8-5.4,1.5-6.8
			c1.6-1,3.7-1,5.3,0v1.5c-0.7-0.7-1.7-1.1-2.7-1.1c-2,0-3.7,1.7-3.7,3.7c0,2,1.7,3.7,3.7,3.7c0,0,0,0,0,0c0.7,0,1.5-0.2,2.1-0.6
			v-2.7L1410,136.1z"/>
		<polygon class="st17" points="1414.2,131 1420.7,131 1420.7,132.2 1415.4,132.2 1415.4,134.9 1419.7,134.9 1419.7,136.1 
			1415.4,136.1 1415.4,139.3 1420.7,139.3 1420.7,140.5 1414.2,140.5 		"/>
		<path class="st17" d="M1430.2,140.4l-2.5-3.6h-1.6v3.6h-1.2V131h3.8c1.6,0.1,2.9,1.4,2.8,3.1c-0.1,1.3-1,2.5-2.3,2.7l2.5,3.6
			H1430.2z M1426.1,135.6h2.4c0.9,0,1.7-0.7,1.7-1.7c0-0.9-0.7-1.6-1.7-1.6h-2.4V135.6z"/>
		<rect x="1436" y="131" class="st17" width="1.2" height="9.5"/>
		<path class="st17" d="M1448.4,138.3h-4.7l-1,2.2h-1.3l4.7-10l4.7,10h-1.3L1448.4,138.3z M1444.3,137.1h3.6l-1.8-3.9L1444.3,137.1z
			"/>
	</g>
</g>
</svg>
