<svg xmlns="http://www.w3.org/2000/svg" viewBox="0 0 750 750"><defs><style>.cls-1{fill:#e9f2ff;}.cls-2{fill:#f4dc78;}.cls-14,.cls-3{fill:#bacdff;}.cls-3{opacity:0.49;}.cls-4{fill:#3e8f7d;}.cls-5{fill:#276b5b;}.cls-6{fill:#9eb5e8;}.cls-7{fill:#9cb6ef;}.cls-8{fill:#7a89dd;}.cls-9{fill:#f9cf70;}.cls-10{fill:#fff;}.cls-11,.cls-24{fill:#1c2684;}.cls-12{fill:#20b8c4;}.cls-13{fill:none;}.cls-15{fill:#854e4b;}.cls-16{fill:#542d36;}.cls-17{fill:#302639;}.cls-18{fill:#563038;}.cls-19{fill:#fefdff;}.cls-20{fill:#e7e6e8;}.cls-21{fill:#efefef;}.cls-22,.cls-25{fill:#454dd8;}.cls-23{fill:#e472f7;}.cls-24,.cls-25,.cls-26{fill-rule:evenodd;}.cls-26{fill:#f6f5f4;}</style></defs><g id="BACKGROUND"><rect class="cls-1" y="125" width="750" height="500"/></g><g id="OBJECTS"><rect class="cls-2" x="-4.51" width="754.51" height="750"/><path class="cls-3" d="M324.77,199.05a46.76,46.76,0,0,1-15,36.47c-19.69,18.41-66.52,55.07-108.56,33.78-54.94-27.84,23.36-127.13,83.63-111C315.65,166.45,324,183.92,324.77,199.05Z"/><path class="cls-3" d="M667.82,308.67S662.47,205.47,538,211.36c-48.91,2.31-93.05,16.94-128.62,33.86-59.65,28.37-123.77,46.71-189.61,55.22C169.17,307,115.52,328.76,101.23,389.3,72.35,511.71,189.44,602.28,364.66,595S676.13,485.16,667.82,308.67Z"/><path class="cls-4" d="M65.52,423.25S12.1,434.33,16.87,410.07,65.52,423.25,65.52,423.25Z"/><path class="cls-5" d="M84.65,430.37a.89.89,0,0,1-.41.47.87.87,0,0,1-1.09-.2,53.6,53.6,0,0,0-17.77-6.52.77.77,0,0,1-.3-.11c-15.44-8.9-32.83-9.12-33-9.12a.89.89,0,0,1-.88-.89.87.87,0,0,1,.89-.87c.18,0,17.91.21,33.72,9.28a54.26,54.26,0,0,1,12.56,3.81c.06,0,5.7,2.49,6.22,3.43A.87.87,0,0,1,84.65,430.37Zm-1.6.12h0Z"/><path class="cls-4" d="M48.5,389.9s-54.34,4.85-46.8-18.7S48.5,389.9,48.5,389.9Z"/><path class="cls-5" d="M96.71,458.91a.86.86,0,0,1-.57.54.89.89,0,0,1-1.1-.58c-4.2-13.82-17.21-48.13-47-68.24l0,0C33.67,380,16.42,377.76,16.25,377.73a.86.86,0,0,1-.77-1,.88.88,0,0,1,1-.77c.18,0,17.86,2.29,32.55,13.19,30.27,20.44,43.45,55.18,47.71,69.17A.89.89,0,0,1,96.71,458.91Z"/><path class="cls-4" d="M55.3,381.49s-35.24-27.05-17.75-37S55.3,381.49,55.3,381.49Z"/><path class="cls-5" d="M58.51,397.25a.87.87,0,0,1-1.07.55.89.89,0,0,1-.6-1.09c.71-2.42-1.49-11.64-2.39-15l0-.06c-2.71-14.23-11.79-25-11.88-25.13a.88.88,0,1,1,1.34-1.14c.38.45,9.46,11.24,12.26,25.91.39,1.42,3.34,12.6,2.38,15.9A.08.08,0,0,1,58.51,397.25Z"/><path class="cls-4" d="M86.55,413.46s-33.41-46-8.3-51.91S86.55,413.46,86.55,413.46Z"/><path class="cls-5" d="M89.35,439.7a.86.86,0,0,1-.84.58.88.88,0,0,1-.86-.9c0-.17.34-17.53-2-25.68a1.22,1.22,0,0,1,0-.33c1.86-18.5-5.39-35.14-5.46-35.31a.88.88,0,1,1,1.61-.71c.07.17,7.46,17.12,5.61,36,2.3,8.46,2,25.32,2,26A.88.88,0,0,1,89.35,439.7Z"/><path class="cls-5" d="M88.34,585.41l.37,1H92.2l-.79-2.16c4.55-1.11,16.4-5,26.66-17.42,13-15.69,9.35-26-6.88-14.11-12.41,9.14-18.52,23-20.71,29L82,558.52c4.77-1.15,17.53-5.31,28.57-18.62,13.88-16.75,10-27.82-7.34-15.06-13.36,9.83-19.89,24.76-22.18,31.08l-5.92-16.25.2-.07s-.08-.12-.25-.33a47.66,47.66,0,0,0,20-22.55c7.92-18.26.56-27.29-12-11.82-7.25,9-9.86,19.58-10.78,27l-6.23-17.1A31.22,31.22,0,0,0,78,497c3.38-13.58-3.37-19.29-10.58-7.27A33.23,33.23,0,0,0,63,506.41l-5-13.67c3.58-5.21,12.72-19.86,6.65-25.7-5-4.81-10.08,4.66-10.74,14.49l-3-8.27a17.72,17.72,0,0,0,.46-13.39c-2-5.46-5.29-6.77-7.39-7a4.52,4.52,0,0,0-.52,0h-.11a3.28,3.28,0,0,0-.43,0h-.07l-.47.11h0a4.22,4.22,0,0,0-1.85,1.11c-1.45,1.54-3.14,4.67-1.15,10.12a17.71,17.71,0,0,0,8.29,9.59l3.21,8.81C44,475.56,34,471.58,33.3,478.48c-.88,8.38,15.54,13.7,21.64,15.38l5,13.67a33.23,33.23,0,0,0-14.12-9.95C32.54,493,31.06,501.74,42.39,510A31.25,31.25,0,0,0,63,515.88L69.21,533c-5.45-5.05-14.29-11.5-25.6-13.68-19.56-3.76-19.37,7.89-1.56,16.76a47.74,47.74,0,0,0,29.79,4.4c0,.27,0,.42,0,.42l.2-.08L78,557c-5.82-3.36-20.43-10.58-37-9.5-21.47,1.4-17.32,12.37,4.08,16.25,17,3.08,29.46-2,33.85-4.15l8.46,23.21C81.86,579.66,68.28,573,52.9,574c-16.15,1.05-16.82,7.89-6.07,12.42H86C87,586.07,87.73,585.71,88.34,585.41Z"/><path class="cls-4" d="M58.07,592.71c-5.79-.53-17.78-4.84-18.61-9.78s13.06-6.08,24.34-2.66c7.5,2.28,12.41,4.46,11.53,7.89-1,3.72-5.15,4.78-9.57,4.92H114.6c3.93-34.4-31.43-47-53.48-57.44-23.54-11.19-59.74-8.08-59.74-8.08,10.34,15.33,21.16,44.38,38.68,65.52H63.44C61.52,593,59.64,592.86,58.07,592.71Zm30.27-33.82c5.94-1.54,8.58,8.09,10.67,13.22s4.57,16.44.59,19.48-11.11-8.13-13.09-19.25C85.19,564.94,84.94,559.78,88.34,558.89ZM52.16,539c2.62-1.87,8.63,2.9,11,7.58s4.35,11.14,2.77,15.94-11.15-6.23-14.56-12.89S49.9,540.61,52.16,539ZM27.35,555.28c-4.87-1.79-5-3.76-4.5-5.52.53-2,5.91-2.31,9.34-1.06s7.44,3.58,8.81,6.61S32.23,557.07,27.35,555.28Z"/><path class="cls-5" d="M58.91,562.57C43.35,551,12.78,530.5,1.58,527.86c0,0,26.61,14.42,43.37,27a542.27,542.27,0,0,1,45.69,38.23H95A406.33,406.33,0,0,0,58.91,562.57Z"/><path class="cls-5" d="M614.88,413.44c2.54,1.82,9.89,5.55,20.66,4.38,13.46-1.24,17.42-7.39,4.4-10.72-10.15-2.46-20.3,2-24.22,4.41q2.65-6,5.8-11.72l.12.07s0-.1.08-.3c3.36,1.18,10.4,2.5,19.41-.27,12.57-3.59,15.53-10.56,2.5-11.34-7.58-.27-14.62,3.22-19,6.41q3.55-5.88,7.63-11.41a22.7,22.7,0,0,0,14.44-.92c9.18-3.3,11.09-8.87,1.42-8.61a23.59,23.59,0,0,0-11.76,4.22q3.45-4.27,7.22-8.32c4.42-.11,16.24,0,18.77-5.14,2.19-4.27-5.49-4.43-12.37-1.32,1.63-1.54,3.29-3.06,5-4.54a18.57,18.57,0,0,0,9.56-3.86c3.52-2.7,3.94-4.93,3.76-6.22a2.82,2.82,0,0,0-.07-.31l0-.06a2.44,2.44,0,0,0-.1-.24.05.05,0,0,1,0,0l-.16-.24h0a2.62,2.62,0,0,0-.22-.25h0a2.39,2.39,0,0,0-.92-.53c-1.38-.42-4.06-.56-7.72,2.24a13.5,13.5,0,0,0-5.21,7.84c-1.83,1.58-3.62,3.21-5.36,4.87,3.15-6.4,4.16-13.51-1-11.59C641,352.37,641.37,364,642,368q-3.79,4.07-7.29,8.39a29.8,29.8,0,0,0,2.38-12.09c-.28-9.42-6.89-6.82-9.12,3.32-1.48,7.32,1.16,12.09,2.61,14.13q-4.11,5.57-7.69,11.5c.77-5.43,1.55-13.29-.53-20.66-3.29-12.9-11.36-7.2-10.78,7.49.6,10.38,5.63,16,8.24,18.36l-.22.23.12.06q-3.18,5.78-5.86,11.83c-.89-4.81-2.88-16.33-9.35-24.82-8.34-11.19-13.75-2.23-7.34,11.68,5.2,10.89,13,14.07,15.85,15.08a156.51,156.51,0,0,0-6.37,17.83h2.1A156.72,156.72,0,0,1,614.88,413.44Z"/><path class="cls-4" d="M207.33,357.16c1.61-7.34,3.36-12.21,6.84-11.72,6.08.85,4.83,10.75,4.79,16.29a38.15,38.15,0,0,1-2.78,13.74h13.59c5.29-25.12-17.62-46.18-31.84-61.94-17.46-19.34-52.09-30.34-52.09-30.34,4.32,21.27,2,60.24,15.75,88.48.64,1.32,1.29,2.58,1.95,3.8h44C206.12,370.92,205.89,363.69,207.33,357.16Zm-50.16-45.24c1.28-1.68,6.34.13,9,2.6s5.5,6.15,5.61,9.48-8.78-1.73-12.59-5.25S156.08,313.38,157.17,311.92Zm33.77,55.58c-3.71,4.94-12.54.3-17.68-2.41s-14.57-11.28-13.45-16.17,14.4-.61,23.5,6.87C189.37,360.77,193.07,364.66,190.94,367.5Zm1.17-27.27c-3.29,3.83-7.91-10-8.51-17.48s2.06-8.92,4.77-9.53c3.13-.72,6.86,6,7.29,11.23S195.41,336.41,192.11,340.23Z"/><path class="cls-5" d="M185.58,337.56c-10-16.65-30.34-47.29-39.67-54,0,0,19.06,23.51,29.72,41.53a548.16,548.16,0,0,1,26.47,50.39h3.29A405.39,405.39,0,0,0,185.58,337.56Z"/><path class="cls-4" d="M684.48,449.62s53.42,11.08,48.65-13.18S684.48,449.62,684.48,449.62Z"/><path class="cls-5" d="M665.41,456c.52-.94,6.16-3.41,6.22-3.43a54.26,54.26,0,0,1,12.56-3.81c15.81-9.07,33.54-9.28,33.72-9.28a.88.88,0,1,1,0,1.76c-.17,0-17.56.22-33,9.12a.64.64,0,0,1-.3.11A53.6,53.6,0,0,0,666.85,457a.87.87,0,0,1-1.09.2.85.85,0,0,1-.41-.47A.87.87,0,0,1,665.41,456Zm1.54.85h0Z"/><path class="cls-4" d="M701.5,416.27s54.34,4.85,46.8-18.7S701.5,416.27,701.5,416.27Z"/><path class="cls-5" d="M653.29,485.28a.86.86,0,0,0,.57.54.89.89,0,0,0,1.1-.58c4.2-13.82,17.21-48.12,47-68.24l0,0c14.3-10.63,31.55-12.85,31.72-12.88a.86.86,0,0,0,.77-1,.88.88,0,0,0-1-.77c-.18,0-17.86,2.29-32.55,13.19-30.27,20.44-43.45,55.18-47.71,69.17A.89.89,0,0,0,653.29,485.28Z"/><path class="cls-4" d="M694.7,407.86s35.24-27.05,17.75-37S694.7,407.86,694.7,407.86Z"/><path class="cls-5" d="M691.49,423.62a.87.87,0,0,0,1.07.55.89.89,0,0,0,.6-1.09c-.71-2.42,1.49-11.64,2.39-15,0,0,0,0,0-.06,2.71-14.23,11.79-25,11.88-25.13a.88.88,0,0,0-1.34-1.14c-.38.45-9.46,11.24-12.26,25.91-.39,1.42-3.34,12.6-2.38,15.9A.08.08,0,0,0,691.49,423.62Z"/><path class="cls-4" d="M663.45,439.83s33.41-46.05,8.3-51.91S663.45,439.83,663.45,439.83Z"/><path class="cls-5" d="M660.65,466.07a.86.86,0,0,0,.84.58.88.88,0,0,0,.86-.9c0-.17-.34-17.53,1.95-25.68a1.22,1.22,0,0,0,0-.33c-1.86-18.5,5.39-35.14,5.46-35.31a.88.88,0,0,0-1.61-.71c-.07.17-7.46,17.12-5.61,36-2.3,8.46-2,25.32-2,26A.88.88,0,0,0,660.65,466.07Z"/><path class="cls-4" d="M637.47,582.89c4.92-5.13,13.26-10.57,15.32-10s-.27,1,2.47,2c1.44.49-2.73,6.23-5.31,12.85h46.79c-2.51-.58-4.41-1.28-4.88-2-1.4-2.26,1.13-5,6.8-3.34s14.39,1,20.25,2,9.93-4.55,12.48-10.24,7.76-16.12,8-18.08c0,0-6.53,6.44-13.19,7.78s-18.63,2.11-21.75,1.86-19.07,1.85-18.2-5.06,11.14-.34,20.76-.63,29.56-3.14,31.74-13.47,1-20.47,1-22.55c0,0-5.27,9.5-13.41,13S705.4,545.22,700.4,543s-8.43-6.15-1.39-8.17a234.72,234.72,0,0,0,25.78-9.67c4.85-2.34,12.28-13.61,11.14-16.9s-2.37-9.6-3.33-11.61c0,0-5.37,9.15-9.79,12.32s-16.91,8.09-17,3,10.35-9.05,13.92-11.22,8.31-10.19,6.67-12.57-6-6.28-7.83-12-1.6-12.05-3.28-13c0,0-7.07,12.76-19.86,11s-17,2.58-17,2.58a52.54,52.54,0,0,0-.36,20.66c2.16,10.52,1.49,14.14-1.64,14.18s-11.19-15.06-4.13-35.79c0,0-8,7.2-10.37,7.49s-9.31,3.18-7.66,13.82a140.32,140.32,0,0,0,7.6,27.91c2.58,6.56,1.33,11.23-2.74,9s-15.36-26.74-15.33-35.6.27-12.5.27-12.5-7.7,9.9-9.72,11.13-8.13,4.27-5.61,13.33,13.35,20.75,15.71,26.09,4.26,12.35-2.81,9.89-17.8-29.79-15.74-38.59c0,0-5,6.35-9.61,8.24s-11.15,12.91-10.54,19,2,14,8.2,19.64,19,9.67,17.55,12.39-11.61,7.32-28-4.84c0,0-1.29,16.41,11.23,25.53h18.37C634.65,586.15,636,584.41,637.47,582.89Zm45.94-45.71a6.25,6.25,0,0,1,6.35.12,3.34,3.34,0,0,1,1.77,2.64c.21,3.31-4.66,5.25-8.07,4.37C679.45,543.27,679.5,539.44,683.41,537.18ZM674,573.66c.63,4.2-5.83,3.57-9.73-.07s-.21-6,4.66-4.52S674,573.66,674,573.66Zm-10.22-36.08a4.22,4.22,0,0,1,2.8,1.06,5,5,0,0,1,1.65,3.56c.09,2-.11,5.72-2.82,4.86C661.66,545.9,660.5,537.56,663.74,537.58Z"/><path class="cls-5" d="M658.83,571.79c1.55-2,3.39-4.92,5.53-8.43C704.49,583,724.59,574,724.59,574c-25.21,4.88-52.38-8.68-59.16-12.37,1.51-2.5,3.17-5.25,5-8.16,1.33-2.16,2.68-4.39,4-6.61,43.68,12.9,58.05-4.24,58.05-4.24-20.4,14.26-49.88,4.53-56.71,2,4.72-8,8.86-15.44,10.42-18.08.37-.61.81-1.35,1.31-2.2,34.6,7,45.94-21,45.58-20.42-14.54,23.8-38.68,20.27-44.7,19,3.19-5.39,8.12-13.85,12.22-22.18,12.7-4.25,21.36-15.14,21.36-15.14C711.68,495,704.47,498,701.44,498.88c3.44-7.14,7.36-15.14,8.38-17.64a161.39,161.39,0,0,0,5.37-16.55,204.35,204.35,0,0,1-8.48,20.38c-.65,1.36-1.33,2.74-2,4.12-2.22-4.21-1.42-14-1.42-14-1.77,8.92-.35,14.36.3,16.21-3.3,6.43-6.93,12.89-10.11,18.35-6.11-12-3.34-27.66-3.34-27.66a51.94,51.94,0,0,0,2.12,29.75c-1.73,2.94-3.29,5.51-4.53,7.54-2.32,3.78-5.3,8.61-8.54,13.78-17.81-16.69-16.94-48.95-17-48.34C660.52,515,674.35,532,677.62,535.59c-3.84,6.09-8,12.47-11.77,18-29.06-27.48-29.59-55.68-29.59-55.68-.11,28.4,23.59,53.16,28.2,57.7A124.16,124.16,0,0,1,656.64,566c-31.4-15.64-41.46-41.19-41.46-41.19,6.35,22.8,33.16,39.1,39.88,42.87-.67.65-1.39,1.42-2.14,2.27-1.49-.26-5.32-.56-13.07.83-10.59,1.89-14.78,9-25.28,4,0,0,5.61,5.11,15.42,1a51.54,51.54,0,0,1,21.51-4.12c3.53-.46,4.53,4.21,6.42,1.51a82.85,82.85,0,0,0,15.26,14.59h3.64A99.74,99.74,0,0,1,658.83,571.79Z"/><rect class="cls-6" x="495.19" y="189.13" width="0.97" height="28.26"/><rect class="cls-6" x="501.38" y="196.34" width="0.97" height="21.05"/><path class="cls-6" d="M510.62,217.87a3.55,3.55,0,1,1,3.54-3.55A3.55,3.55,0,0,1,510.62,217.87Zm0-6.12a2.58,2.58,0,1,0,2.57,2.57A2.57,2.57,0,0,0,510.62,211.75Z"/><rect class="cls-6" x="682.43" y="296.82" width="0.97" height="37.87"/><rect class="cls-6" x="688.63" y="304.03" width="0.97" height="30.66"/><path class="cls-6" d="M672.08,335.18a3.55,3.55,0,1,1,3.54-3.54A3.54,3.54,0,0,1,672.08,335.18Zm0-6.12a2.58,2.58,0,1,0,2.57,2.58A2.58,2.58,0,0,0,672.08,329.06Z"/><rect class="cls-6" x="117.75" y="299.06" width="0.96" height="21.04"/><path class="cls-6" d="M131.83,316.05h-.72v-2.4h.72Zm0-5.76h-.72v-2.41h.72Zm0-5.77h-.72v-2.41h.72Z"/><rect class="cls-6" x="124.38" y="265.66" width="0.96" height="67.39"/><path class="cls-6" d="M515.66,164.48A3.54,3.54,0,1,1,519.2,161,3.54,3.54,0,0,1,515.66,164.48Zm0-6.11a2.58,2.58,0,1,0,2.57,2.58A2.58,2.58,0,0,0,515.66,158.37Z"/><path class="cls-6" d="M419.17,308.59a3.54,3.54,0,1,1,3.54-3.53A3.54,3.54,0,0,1,419.17,308.59Zm0-6.1a2.57,2.57,0,1,0,2.57,2.57A2.58,2.58,0,0,0,419.17,302.49Z"/><path class="cls-6" d="M419.54,296.08h-.73v-2.4h.73Zm0-5.77h-.73v-2.4h.73Zm0-5.77h-.73v-2.4h.73Zm0-5.77h-.73v-2.4h.73Zm0-5.77h-.73v-2.4h.73Zm0-5.77h-.73v-2.4h.73Zm0-5.77h-.73v-2.4h.73Zm0-5.77h-.73v-2.4h.73Zm0-5.77h-.73v-2.4h.73Zm0-5.77h-.73v-2.4h.73Zm0-5.77h-.73V236h.73Zm0-5.76h-.73v-2.4h.73Zm0-5.77h-.73v-2.4h.73Zm0-5.77h-.73v-2.4h.73Zm0-5.77h-.73v-2.4h.73Zm0-5.77h-.73v-2.4h.73Zm0-5.77h-.73v-2.4h.73Zm0-5.77h-.73v-2.4h.73Zm0-5.77h-.73v-2.4h.73Z"/><path class="cls-6" d="M533.26,247.26a3.54,3.54,0,1,1,3.54-3.54A3.54,3.54,0,0,1,533.26,247.26Zm0-6.12a2.58,2.58,0,1,0,2.58,2.58A2.58,2.58,0,0,0,533.26,241.14Z"/><path class="cls-6" d="M533.62,234.75h-.72v-2.41h.72Zm0-5.77h-.72v-2.41h.72Zm0-5.77h-.72v-2.4h.72Zm0-5.77h-.72V215h.72Zm0-5.77h-.72v-2.4h.72Zm0-5.77h-.72v-2.4h.72Zm0-5.77h-.72v-2.4h.72Zm0-5.76h-.72V192h.72Zm0-5.77h-.72v-2.41h.72Z"/><path class="cls-6" d="M473.72,261.35a3.54,3.54,0,1,1,3.54-3.54A3.54,3.54,0,0,1,473.72,261.35Zm0-6.1a2.57,2.57,0,1,0,2.58,2.56A2.56,2.56,0,0,0,473.72,255.25Z"/><path class="cls-6" d="M474.08,240.35h-.72V238h.72Zm0-5.77h-.72v-2.4h.72Zm0-5.77h-.72v-2.4h.72Zm0-5.77h-.72v-2.4h.72Zm0-5.77h-.72v-2.4h.72Zm0-5.77h-.72v-2.4h.72Zm0-5.77h-.72v-2.39h.72Zm0-5.76h-.72v-2.4h.72Zm0-5.77h-.72v-2.4h.72Zm0-5.77h-.72V186h.72Zm0-5.77h-.72v-2.4h.72Zm0-5.77h-.72v-2.4h.72Zm0-5.77h-.72v-2.4h.72Zm0-5.77h-.72V163h.72Zm0-5.77h-.72v-2.4h.72Z"/><path class="cls-6" d="M448.37,145a3.54,3.54,0,1,1,3.54-3.54A3.55,3.55,0,0,1,448.37,145Zm0-6.11a2.58,2.58,0,1,0,2.57,2.57A2.58,2.58,0,0,0,448.37,138.84Z"/><path class="cls-6" d="M448.73,190.42H448V188h.72Zm0-5.77H448v-2.4h.72Zm0-5.77H448v-2.4h.72Zm0-5.77H448v-2.4h.72Zm0-5.76H448v-2.41h.72Zm0-5.77H448v-2.41h.72Zm0-5.77H448V153.4h.72Zm0-5.77H448v-2.41h.72Z"/><rect class="cls-7" x="570.44" y="409.58" width="108.63" height="183.54" rx="1.71"/><rect class="cls-8" x="577.78" y="416.43" width="93.95" height="169.84"/><rect class="cls-7" x="583.54" y="449.27" width="84.16" height="19.08"/><rect class="cls-7" x="582.68" y="448.41" width="84.16" height="19.08"/><path class="cls-9" d="M592.24,455.12a2.83,2.83,0,1,0,2.83,2.83A2.83,2.83,0,0,0,592.24,455.12Z"/><circle class="cls-9" cx="603.5" cy="457.95" r="2.83"/><path class="cls-8" d="M659.44,455.34h-44.9a.65.65,0,1,0,0,1.3h44.9a.65.65,0,1,0,0-1.3Z"/><path class="cls-8" d="M659.44,459.25h-44.9a.67.67,0,0,0-.66.66.66.66,0,0,0,.66.65h44.9a.66.66,0,0,0,.66-.65A.67.67,0,0,0,659.44,459.25Z"/><rect class="cls-7" x="583.54" y="422.89" width="84.16" height="19.08"/><rect class="cls-7" x="582.68" y="422.02" width="84.16" height="19.08"/><path class="cls-9" d="M592.24,428.74a2.83,2.83,0,1,0,2.83,2.83A2.82,2.82,0,0,0,592.24,428.74Z"/><path class="cls-9" d="M603.5,428.74a2.83,2.83,0,1,0,2.83,2.83A2.83,2.83,0,0,0,603.5,428.74Z"/><path class="cls-8" d="M659.44,429h-44.9a.65.65,0,1,0,0,1.3h44.9a.65.65,0,1,0,0-1.3Z"/><path class="cls-8" d="M659.44,432.87h-44.9a.66.66,0,0,0-.66.65.67.67,0,0,0,.66.66h44.9a.67.67,0,0,0,.66-.66A.66.66,0,0,0,659.44,432.87Z"/><rect class="cls-7" x="583.54" y="475.66" width="84.16" height="19.08"/><rect class="cls-7" x="582.68" y="474.79" width="84.16" height="19.08"/><path class="cls-9" d="M592.24,481a2.83,2.83,0,1,0,2.83,2.82A2.82,2.82,0,0,0,592.24,481Z"/><path class="cls-9" d="M603.5,481a2.83,2.83,0,1,0,2.83,2.82A2.83,2.83,0,0,0,603.5,481Z"/><path class="cls-8" d="M659.44,481.21h-44.9a.66.66,0,1,0,0,1.31h44.9a.66.66,0,1,0,0-1.31Z"/><path class="cls-8" d="M659.44,485.13h-44.9a.65.65,0,1,0,0,1.3h44.9a.65.65,0,1,0,0-1.3Z"/><rect class="cls-7" x="583.54" y="502.04" width="84.16" height="19.08"/><rect class="cls-7" x="582.68" y="501.18" width="84.16" height="19.08"/><path class="cls-9" d="M592.24,507.85a2.83,2.83,0,1,0,2.83,2.82A2.82,2.82,0,0,0,592.24,507.85Z"/><circle class="cls-9" cx="603.5" cy="510.67" r="2.83"/><path class="cls-8" d="M659.44,508.06h-44.9a.67.67,0,0,0-.66.66.66.66,0,0,0,.66.65h44.9a.66.66,0,0,0,.66-.65A.67.67,0,0,0,659.44,508.06Z"/><path class="cls-8" d="M659.44,512h-44.9a.65.65,0,1,0,0,1.3h44.9a.65.65,0,1,0,0-1.3Z"/><rect class="cls-7" x="582.68" y="527.06" width="84.16" height="53.33"/><rect class="cls-9" x="660.66" y="557.72" width="3.68" height="1.25"/><rect class="cls-9" x="660.66" y="554.66" width="3.68" height="1.25"/><rect class="cls-9" x="660.66" y="551.6" width="3.68" height="1.25"/><rect class="cls-9" x="660.66" y="548.54" width="3.68" height="1.25"/><rect class="cls-9" x="660.66" y="542.43" width="3.68" height="1.25"/><rect class="cls-9" x="660.66" y="545.49" width="3.68" height="1.25"/><rect class="cls-9" x="660.66" y="536.32" width="3.68" height="1.25"/><rect class="cls-9" x="660.66" y="539.37" width="3.68" height="1.25"/><rect class="cls-7" x="660.66" y="530.2" width="3.68" height="1.25"/><rect class="cls-7" x="660.66" y="533.26" width="3.68" height="1.25"/><rect class="cls-7" x="660.66" y="565" width="3.68" height="12.21"/><path class="cls-7" d="M653.88,537.75a2.83,2.83,0,1,0,2.83,2.83A2.82,2.82,0,0,0,653.88,537.75Z"/><path class="cls-9" d="M653.88,550.9a2.83,2.83,0,1,0,2.83,2.83A2.83,2.83,0,0,0,653.88,550.9Z"/><path class="cls-7" d="M653.88,564.06a2.83,2.83,0,1,0,2.83,2.83A2.83,2.83,0,0,0,653.88,564.06Z"/><rect class="cls-8" x="585.64" y="529.85" width="2.52" height="47.75"/><rect class="cls-8" x="590.56" y="529.85" width="2.52" height="47.75"/><rect class="cls-8" x="595.47" y="529.85" width="2.52" height="47.75"/><rect class="cls-8" x="600.39" y="529.85" width="2.52" height="47.75"/><rect class="cls-8" x="605.31" y="529.85" width="2.52" height="47.75"/><rect class="cls-8" x="610.23" y="529.85" width="2.52" height="47.75"/><rect class="cls-8" x="615.15" y="529.85" width="2.52" height="47.75"/><rect class="cls-8" x="620.06" y="529.85" width="2.52" height="47.75"/><rect class="cls-8" x="624.98" y="529.85" width="2.52" height="47.75"/><rect class="cls-8" x="629.9" y="529.85" width="2.52" height="47.75"/><rect class="cls-8" x="634.82" y="529.85" width="2.52" height="47.75"/><rect class="cls-8" x="639.74" y="529.85" width="2.52" height="47.75"/><rect class="cls-8" x="644.65" y="529.85" width="2.52" height="47.75"/><rect class="cls-8" x="79.24" y="532.86" width="157.37" height="56.07" transform="translate(315.84 1121.79) rotate(-180)"/><rect class="cls-7" x="79.24" y="532.86" width="157.37" height="6.89" transform="translate(315.84 1072.61) rotate(-180)"/><rect class="cls-7" x="134.06" y="556.12" width="89.8" height="12.49" transform="translate(357.93 1124.73) rotate(-180)"/><circle class="cls-7" cx="118.97" cy="561.93" r="6.68" transform="translate(-381.94 280.84) rotate(-48.75)"/><circle class="cls-10" cx="100.67" cy="561.93" r="6.68" transform="translate(-453.96 426.67) rotate(-66.14)"/><rect class="cls-8" x="79.24" y="476.79" width="157.37" height="56.07" transform="translate(315.84 1009.65) rotate(-180)"/><rect class="cls-7" x="79.24" y="476.79" width="157.37" height="6.89" transform="translate(315.84 960.48) rotate(-180)"/><rect class="cls-7" x="134.06" y="500.05" width="89.8" height="12.49" transform="translate(357.93 1012.59) rotate(-180)"/><circle class="cls-7" cx="118.97" cy="505.87" r="6.68" transform="translate(-107.21 38) rotate(-12.57)"/><circle class="cls-10" cx="100.67" cy="505.87" r="6.68" transform="translate(-81.98 23.5) rotate(-9.48)"/><rect class="cls-8" x="79.24" y="420.73" width="157.37" height="56.07" transform="translate(315.84 897.52) rotate(-180)"/><rect class="cls-7" x="79.24" y="420.73" width="157.37" height="6.89" transform="translate(315.84 848.34) rotate(-180)"/><rect class="cls-7" x="134.06" y="443.98" width="89.8" height="12.49" transform="translate(357.93 900.46) rotate(-180)"/><path class="cls-7" d="M112.29,449.8a6.68,6.68,0,1,0,6.68-6.68A6.68,6.68,0,0,0,112.29,449.8Z"/><path class="cls-10" d="M94,449.8a6.68,6.68,0,1,0,6.68-6.68A6.68,6.68,0,0,0,94,449.8Z"/><rect class="cls-8" x="79.24" y="364.66" width="157.37" height="56.07" transform="translate(315.84 785.39) rotate(-180)"/><rect class="cls-7" x="79.24" y="364.66" width="157.37" height="6.89" transform="translate(315.84 736.21) rotate(-180)"/><rect class="cls-7" x="134.06" y="387.92" width="89.8" height="12.49" transform="translate(357.93 788.33) rotate(-180)"/><circle class="cls-7" cx="118.97" cy="393.73" r="6.68"/><circle class="cls-10" cx="100.67" cy="393.73" r="6.68"/><rect class="cls-10" x="186.9" y="393.8" width="30.74" height="0.73"/><rect class="cls-10" x="186.9" y="449.87" width="30.74" height="0.73"/><rect class="cls-10" x="186.9" y="505.93" width="30.74" height="0.73"/><rect class="cls-10" x="186.9" y="562" width="30.74" height="0.73"/><path class="cls-11" d="M578.87,326.22H242a19.17,19.17,0,0,0-19.17,19.17v213.5A19.17,19.17,0,0,0,242,578.06H578.87A19.17,19.17,0,0,0,598,558.89V345.39A19.17,19.17,0,0,0,578.87,326.22Zm2.92,229.09H239.1V341.72H581.79Z"/><path class="cls-12" d="M427.44,450.76c0,5.45-3.24,9.86-7.23,9.86s-7.23-4.41-7.23-9.86,3.24-9.85,7.23-9.85S427.44,445.32,427.44,450.76Z"/><path class="cls-13" d="M425.74,454.27a6.36,6.36,0,1,0-8.58,6l-3,14.69a1.24,1.24,0,0,0,1.05,1.57h8.39a1.24,1.24,0,0,0,1.05-1.57l-3-14.69A6.38,6.38,0,0,0,425.74,454.27Z"/><path class="cls-14" d="M643.65,568H177.46a1.76,1.76,0,0,0-1.76,1.76v9.07c1.54,7.12,18.53,10.27,29.08,11.29H616.33c10.55-1,27.54-4.17,29.09-11.29v-9.07A1.77,1.77,0,0,0,643.65,568Z"/><path class="cls-6" d="M204.78,590.07H616.33c10.55-1,27.54-4.17,29.09-11.29v-.72H175.7v.72C177.24,585.9,194.23,589.05,204.78,590.07Z"/><path class="cls-6" d="M465,568H357.89a.41.41,0,0,0-.41.41v2.11c.36,1.65,4.26,2.38,6.69,2.62h94.58c2.42-.24,6.33-1,6.68-2.62v-2.11A.4.4,0,0,0,465,568Z"/><rect class="cls-6" x="238.98" y="341.72" width="342.81" height="213.36"/><polygon class="cls-8" points="361.95 450.02 361.95 500.11 405 500.11 405 461.94 393.08 450.02 361.95 450.02"/><polygon class="cls-1" points="363.72 448.26 363.72 498.35 406.76 498.35 406.76 460.18 394.85 448.26 363.72 448.26"/><polygon class="cls-8" points="394.85 460.18 406.76 460.18 394.85 448.26 394.85 460.18"/><rect class="cls-8" x="370.22" y="461.98" width="30.04" height="2.36"/><rect class="cls-8" x="370.22" y="467.86" width="30.04" height="2.36"/><rect class="cls-8" x="370.22" y="473.75" width="30.04" height="2.36"/><rect class="cls-8" x="370.22" y="479.64" width="30.04" height="2.36"/><rect class="cls-8" x="376.75" y="485.53" width="16.97" height="2.36"/><polygon class="cls-8" points="381.99 428.43 381.99 495.74 439.83 495.74 439.83 444.45 423.82 428.43 381.99 428.43"/><polygon class="cls-1" points="384.36 426.06 384.36 493.37 442.2 493.37 442.2 442.08 426.19 426.06 384.36 426.06"/><polygon class="cls-8" points="426.19 442.08 442.2 442.08 426.19 426.06 426.19 442.08"/><rect class="cls-8" x="393.1" y="444.5" width="40.36" height="3.16"/><rect class="cls-8" x="393.1" y="452.41" width="40.36" height="3.16"/><rect class="cls-8" x="393.1" y="460.32" width="40.36" height="3.16"/><rect class="cls-8" x="393.1" y="468.23" width="40.36" height="3.16"/><rect class="cls-8" x="401.88" y="476.14" width="22.81" height="3.16"/><polygon class="cls-8" points="416.14 407.73 416.14 489.23 486.18 489.23 486.18 427.12 466.79 407.73 416.14 407.73"/><polygon class="cls-1" points="419.01 404.86 419.01 486.36 489.05 486.36 489.05 424.25 469.65 404.86 419.01 404.86"/><polygon class="cls-8" points="469.65 424.25 489.05 424.25 469.65 404.86 469.65 424.25"/><rect class="cls-8" x="429.59" y="427.18" width="48.88" height="3.83"/><rect class="cls-8" x="429.59" y="436.76" width="48.88" height="3.83"/><rect class="cls-8" x="429.59" y="446.34" width="48.88" height="3.83"/><rect class="cls-8" x="429.59" y="455.92" width="48.88" height="3.83"/><rect class="cls-8" x="440.22" y="465.5" width="27.62" height="3.83"/><path class="cls-15" d="M280.4,254.64c2.55,1,6,2.12,8.72,1.49l.73-.18a30.6,30.6,0,0,0-.53,8.16,15.82,15.82,0,0,1-6.72,3.16,21.79,21.79,0,0,1-7.59-4.38c.15-3.68.59-7.41,1-11.1A12.69,12.69,0,0,0,280.4,254.64Z"/><path class="cls-16" d="M289.12,256.13c-2.69.63-6.17-.49-8.72-1.49a12.69,12.69,0,0,1-4.36-2.85c-.16,1.33-.32,2.67-.46,4a17.48,17.48,0,0,0,1.88,2.07,9.7,9.7,0,0,0,5.84,2.72,9.84,9.84,0,0,0,6.14-2c.1-.89.23-1.77.41-2.64Z"/><path class="cls-15" d="M270.37,240.18a2.72,2.72,0,0,0-3.06-.9,2.29,2.29,0,0,0-1.33,1.87,4.57,4.57,0,0,0,.44,2.35,4.38,4.38,0,0,0,1.79,2.22c.84.47,2,1.05,2.61.31.88,4.66,3.42,9.47,8.29,11.38,2.31.9,5.45,1.91,7.89,1.35a10.57,10.57,0,0,0,6.66-4.16,29.31,29.31,0,0,0,3.21-7.71c1.21.51,2.11-.3,3.13-1a4.67,4.67,0,0,0,1.88-2.84c.28-1.15.08-2.63-1-3.09s-2.34.47-3.22,1.36a26,26,0,0,0-.88-9.27,10,10,0,0,1-8.54-2.93c-.42.55-1.59.48-2.3.53a10.38,10.38,0,0,1-6.26-1.54,5.94,5.94,0,0,1-4,5.3,20.8,20.8,0,0,1-1.82,4.69,19.77,19.77,0,0,1-2.51,3.61A6.31,6.31,0,0,0,270.37,240.18Z"/><path class="cls-17" d="M281.7,236.83l-2.31.41c-.43.08-.95.13-1.23-.19-1.12-1.27,1.47-2.14,2.36-2.38.73-.2,1.49-.44,2,.25A1.21,1.21,0,0,1,281.7,236.83Z"/><ellipse class="cls-17" cx="281.01" cy="241.79" rx="1.39" ry="1.32"/><ellipse class="cls-17" cx="292.15" cy="243.12" rx="1.39" ry="1.32"/><path class="cls-17" d="M292.16,238.4l2.3.41a1.36,1.36,0,0,0,1.24-.19c1.11-1.27-1.47-2.14-2.36-2.38-.74-.2-1.5-.44-2,.25A1.21,1.21,0,0,0,292.16,238.4Z"/><path class="cls-18" d="M286.65,247.3a.25.25,0,0,1-.22-.12.27.27,0,0,1,.09-.34,3.39,3.39,0,0,1,1.22-.27c.46,0,1.09-.12,1.2-.32s-.09-.53-.39-.91l-.14-.18c-1-1.37-.32-3.66.21-5.33.09-.26.16-.5.22-.72a.25.25,0,0,1,.31-.17.26.26,0,0,1,.17.31c-.07.22-.15.46-.23.73-.49,1.57-1.17,3.71-.29,4.88l.14.18c.31.4.71.9.43,1.43s-.88.51-1.58.59a3,3,0,0,0-1,.21Z"/><path class="cls-18" d="M269.93,243.74h0a.25.25,0,0,1-.23-.26,2.55,2.55,0,0,0-1.81-2.48.25.25,0,0,1-.16-.31.24.24,0,0,1,.3-.16,3,3,0,0,1,2.16,3A.25.25,0,0,1,269.93,243.74Zm28.16.44a3.25,3.25,0,0,1,2-2.05.24.24,0,0,0,.14-.32.23.23,0,0,0-.31-.14,3.77,3.77,0,0,0-2.26,2.37.26.26,0,0,0,.17.31h.07A.26.26,0,0,0,298.09,244.18Z"/><path class="cls-19" d="M281,247.69a12.62,12.62,0,0,0,7.8,1.43,5.08,5.08,0,0,0-.94,1.39,4.8,4.8,0,0,1-1,1.69,2.16,2.16,0,0,1-1.9.27,4.18,4.18,0,0,1-1.66-1A8.77,8.77,0,0,1,281,247.69Z"/><path class="cls-20" d="M281,247.69c.08.26.18.53.29.8a11.54,11.54,0,0,0,5,1.88,9.08,9.08,0,0,0,1.65.07,5,5,0,0,1,.9-1.32A12.62,12.62,0,0,1,281,247.69Z"/><path class="cls-17" d="M300.89,240c-1.13-.49-2.34.47-3.22,1.36a26,26,0,0,0-.88-9.27,10,10,0,0,1-8.54-2.93c-.42.55-1.59.48-2.3.53a10.38,10.38,0,0,1-6.26-1.54,5.94,5.94,0,0,1-4,5.3,20.8,20.8,0,0,1-1.82,4.69,19.77,19.77,0,0,1-2.51,3.61,6.31,6.31,0,0,0-1-1.57,2.72,2.72,0,0,0-3.06-.9,1.9,1.9,0,0,0-.77.58,8.47,8.47,0,0,1,.32-6,2.8,2.8,0,0,1,1-4.14,7.31,7.31,0,0,1-.67-4.12,3.71,3.71,0,0,1,3.1-2.87,5.29,5.29,0,0,1,2.36-3.72,6.14,6.14,0,0,1,4.66-.42c.46-1.59,2.53-2.24,4.19-1.76a6.08,6.08,0,0,1,5.61-3.19c2.31.12,4.75,2.28,5.51,4.35a6.58,6.58,0,0,1,5,.25,7.68,7.68,0,0,1,3.5,4.25A4.44,4.44,0,0,1,305,226a6,6,0,0,1-.25,3.14,24.28,24.28,0,0,1-1.39,2.36c1.42,1.81.95,4.63-.53,6.4a2.46,2.46,0,0,1,.7,2.64,4.12,4.12,0,0,1-1.51,2A2.35,2.35,0,0,0,300.89,240Z"/><polygon class="cls-15" points="292.69 553.4 294.51 575.47 305.49 577.76 311.35 568.58 310.05 551.81 292.69 553.4"/><path class="cls-16" d="M310.39,556.22s-11.81,7.57-17,5.13l-.66-8,17.36-1.59Z"/><path class="cls-21" d="M352.15,591.64l-51.45-.08c-1.38.05-4.67.3-5.83-.63s-1.61-3-1.77-5.49l57,.82A10.74,10.74,0,0,1,352.15,591.64Z"/><path class="cls-11" d="M350.09,586.26l-57-.82c-.3-5,.72-11.64.62-14.25a11,11,0,0,0,4.09,2.24c7.76,3,10.73-3.16,13-9.2l.28-.16c8,13.65,25.31,12.19,36.93,20.19A8.89,8.89,0,0,1,350.09,586.26Z"/><path class="cls-10" d="M312.28,575.77a.23.23,0,0,1-.22-.21c-.12-2.19,1.26-5.52,3.79-6a.22.22,0,0,1,.26.18.23.23,0,0,1-.18.26c-2.26.39-3.54,3.52-3.43,5.5a.21.21,0,0,1-.2.23Z"/><path class="cls-10" d="M315.8,577.28a.22.22,0,0,1-.22-.21c-.13-1.88,1.25-4.74,3.78-5.11a.21.21,0,0,1,.25.19.22.22,0,0,1-.18.25c-2.26.32-3.53,3-3.41,4.64a.22.22,0,0,1-.2.24Z"/><path class="cls-10" d="M319.6,579.26a.22.22,0,0,1-.21-.21c-.13-1.88,1.24-4.74,3.78-5.11a.22.22,0,0,1,.25.19.22.22,0,0,1-.18.25c-2.26.32-3.53,3-3.41,4.64a.22.22,0,0,1-.21.24Z"/><polygon class="cls-15" points="251.81 519.41 238.22 536.89 244.75 546.01 255.28 543.21 265.67 529.98 251.81 519.41"/><path class="cls-16" d="M262.94,533.46s-13.82-2.42-16-7.75l4.9-6.3L265.67,530Z"/><path class="cls-21" d="M269.72,587.8l-37.83-34.87c-1-.9-3.65-2.94-3.86-4.42s.83-3.29,2.41-5.23l41.41,39.16A10.79,10.79,0,0,1,269.72,587.8Z"/><path class="cls-11" d="M271.85,582.35l-41.41-39.16c3.14-3.87,8.4-8.09,10.1-10.08a11,11,0,0,0,1.49,4.42c3.69,7.45,10,4.93,15.8,2l.32.07c-3.35,15.46,10.39,26.1,13.53,39.85A9.22,9.22,0,0,1,271.85,582.35Z"/><path class="cls-10" d="M251.1,549.14a.23.23,0,0,1,0-.3c1.4-1.7,4.67-3.22,6.83-1.83a.22.22,0,0,1,.06.31.21.21,0,0,1-.3.06c-1.93-1.24-5,.2-6.25,1.74a.23.23,0,0,1-.31,0Z"/><path class="cls-10" d="M252.67,552.62a.21.21,0,0,1,0-.29c1.18-1.48,4.13-2.65,6.25-1.21a.22.22,0,0,1-.25.37c-1.88-1.29-4.61-.2-5.66,1.11a.22.22,0,0,1-.31,0Z"/><path class="cls-10" d="M254.13,556.66a.23.23,0,0,1,0-.3c1.18-1.48,4.13-2.65,6.25-1.2a.21.21,0,0,1,.06.3.22.22,0,0,1-.31.06c-1.88-1.28-4.6-.2-5.65,1.12a.22.22,0,0,1-.31,0Z"/><path class="cls-11" d="M242.55,334.64s-8.4,2.72-26.83-21.13l9-11.52L240,322.57Z"/><path class="cls-15" d="M240.33,324.09s-15.59,40.1-42.11,64l-10.49-8.36s19.43-39,33.85-63.09c0,0,.23-1.37,4.74-12.56Z"/><path class="cls-16" d="M223,346.82l-.11,0-.33.07c-.28.05-.69.12-1.18.17-.24,0-.51.05-.79.06s-.57,0-.87,0-.61-.06-.92-.1a6,6,0,0,1-.93-.23,6.17,6.17,0,0,1-.88-.34l-.21-.11a1.32,1.32,0,0,1-.2-.12,3.11,3.11,0,0,1-.38-.25l-.35-.26c-.11-.1-.22-.18-.32-.28s-.37-.39-.54-.57l-.21-.28a2.07,2.07,0,0,1-.19-.25c-.11-.17-.22-.3-.29-.43l-.24-.39s.05.16.16.43a4.7,4.7,0,0,0,.22.48,5.51,5.51,0,0,0,.34.6l.23.32c.08.11.18.21.27.33s.21.21.32.32a2.77,2.77,0,0,0,.36.31,5.39,5.39,0,0,0,.83.54,7.17,7.17,0,0,0,.94.4,9,9,0,0,0,1,.22,8.22,8.22,0,0,0,1,.07,8.69,8.69,0,0,0,.91-.06,7.88,7.88,0,0,0,.8-.13,8.92,8.92,0,0,0,1.16-.35A3.55,3.55,0,0,0,223,346.82Z"/><path class="cls-16" d="M220.19,319s10.46,12.5,16.58,13.3l5.78-12.11-17.29-10.58Z"/><path class="cls-22" d="M246.5,518c20.54,22,23,16.86,23,16.86l47.73-51.61c13.19-22.39,8.37-35,8.37-35l-14.34-90.56S285,368.24,273,374.6c-2.82,20.48,5,33.08,19.19,67.64C292.2,442.24,267.28,478.35,246.5,518Z"/><path class="cls-11" d="M291.9,386.16s25.77,64.68,22.89,97.52C312.56,509.07,291.9,386.16,291.9,386.16Z"/><polygon class="cls-11" points="277.45 464.75 281.73 521.58 298.39 506.25 277.45 464.75"/><path class="cls-22" d="M248.22,367.63c-4.81,26.3,28.84,94.24,28.84,94.24l12.45,89.81c15.82,12.44,29.88,0,29.88,0,2.91-27-3.07-61.07-8.26-87.94-5.42-28-14.42-69.19-26.1-95.5Z"/><polygon class="cls-11" points="298.1 556.15 298.66 556.34 287.99 460.42 287.98 460.38 252.91 369.26 252.41 369.46 287.46 460.55 298.1 556.15"/><path class="cls-11" d="M249,368.52s34.89,10.61,64.82,5.31l-1.26-8.48Z"/><path class="cls-11" d="M340.52,302.54s-2.85,23.11-15.58,25.13l-4.59-26.86,16.78-.84Z"/><path class="cls-15" d="M317.83,291.43s4.87,4.89,25.84,16.47c0,0,12.61-.34,28-7,9.57,1.73,10.44,2.68,9.5,9.13-13.84,7.38-32.24,21.34-42.65,21.13,0,0-13.8-2.48-31.42-27.54Z"/><path class="cls-16" d="M339.5,305.56s-8.68,18.76-13.06,19.09l-4.56-3.37,14.56-17.71Z"/><path class="cls-16" d="M342.67,309.63l0,.43c0,.14,0,.3,0,.5s0,.4,0,.64,0,.49,0,.75,0,.55-.05.84c0,.14,0,.29-.05.44s0,.29-.07.44a6.71,6.71,0,0,1-.19.89c0,.15-.09.29-.13.44s-.1.28-.16.42a5.74,5.74,0,0,1-.38.79,1.62,1.62,0,0,1-.1.18l-.12.17a2.62,2.62,0,0,1-.23.32,3.74,3.74,0,0,1-.25.29,2.06,2.06,0,0,1-.25.26c-.16.16-.33.29-.47.41l-.41.29-.36.23.41-.14.47-.2a4.57,4.57,0,0,0,.56-.35,3.15,3.15,0,0,0,.3-.24,4,4,0,0,0,.3-.28,3.11,3.11,0,0,0,.29-.33,2.42,2.42,0,0,0,.27-.36l.13-.2c0-.07.07-.14.11-.2a3.61,3.61,0,0,0,.22-.44l.18-.45c0-.16.1-.31.14-.47a7.78,7.78,0,0,0,.26-1.88,8.16,8.16,0,0,0,0-.87,6,6,0,0,0-.08-.78,8.54,8.54,0,0,0-.24-1.13A3.17,3.17,0,0,0,342.67,309.63Z"/><path class="cls-23" d="M312.22,266.51c6.93,2.48,9,9.78,13.07,16,5.08,7.69,10.78,11.88,15.23,20a.49.49,0,0,0-.14.11c-6.68,8-16.85,18.25-15.44,25-4.47-3.81-14.22-8-17.84-12.59l-4.21-51.27C305.24,265,309.77,265.64,312.22,266.51Z"/><path class="cls-15" d="M164.48,406.16c-1.9,2-2-.76.32-3.67a28.84,28.84,0,0,1,5.07-5.05c8.29-6,14.37-10.09,19.19-20.32l10.52,9.06c-1.48,2.39-2.83,3.38-4.6,5.63a44.24,44.24,0,0,0-3.35,4.51c-.93,1.58-1.2,3.49-2.21,5-1.25,1.86-3.51,3.46-5.21,4.9-.75.63-3.38,3-4.32,2.15-1.14-1.06,2.27-5.19,2.58-6.41-2.62-.58-4.25,1.27-6.29,2.76-1.36,1-6.87,5.83-8.86,3.7-.75.62-1.79.86-1.85-.29C164.83,408.67,163.11,408.05,164.48,406.16Z"/><path class="cls-16" d="M164.85,405.69a.09.09,0,0,1-.09-.07.13.13,0,0,1,.05-.17,30.3,30.3,0,0,0,6.33-4.71c.82-.72,1.66-1.48,2.62-2.26a.12.12,0,0,1,.17,0,.14.14,0,0,1,0,.18c-1,.77-1.8,1.52-2.61,2.25a31.49,31.49,0,0,1-6.38,4.74A.08.08,0,0,1,164.85,405.69Z"/><path class="cls-16" d="M166.06,406.93a.11.11,0,0,1-.1-.06.13.13,0,0,1,0-.17c4.19-2.14,6.62-4.42,9.85-7.64a.13.13,0,0,1,.18,0,.14.14,0,0,1,0,.17c-3.25,3.25-5.69,5.53-9.91,7.69Z"/><path class="cls-16" d="M167.62,408.07a.12.12,0,0,1-.11-.08.14.14,0,0,1,.07-.16c5.5-2.21,9.9-7.21,10.38-7.77a.13.13,0,0,1,.18,0,.12.12,0,0,1,0,.17h0s-.09.1-.19.24,0,0-.05,0c-1.11,1.23-5.22,5.55-10.23,7.57Z"/><path class="cls-23" d="M273.35,258.17c-2.82,9.93-18.52,9.84-25.27,14.55-5.65,3.94-2.6,9.57-3.13,16.72-.76,10.34.4,20.76,1,31.1.65,11.15.22,20.26.55,31.42.07,2.23-.09,14,0,16.26,0,0,67.31,8.35,68.62,1h0c-.07-14.72-1.61-41.77.07-67.83h0c-1.45-8.1-.93-16.43-2.76-24.56a21.54,21.54,0,0,0-5-10.24c-4.66-5.12-13.18-2.74-16.38-6.89-4.64,7.38-13,4-17.71-1.57Z"/><path class="cls-23" d="M215.72,313.51c4.27-11.86,15-21.62,20.59-30.51,9.25-14.81,25.14-11.93,34.8-20.27l-15,35.14-.25-.07c-3.91,10.15-8.29,27.08-13.35,36.84C236.35,327.28,224.3,317.28,215.72,313.51Z"/><path class="cls-11" d="M314.51,318.54h.05a.18.18,0,0,0,.12-.23l-11.05-33.65a.18.18,0,0,0-.35.11l11.05,33.66A.2.2,0,0,0,314.51,318.54Z"/><path class="cls-11" d="M247.12,323.94a.18.18,0,0,0,.17-.12l13.07-35.39a.18.18,0,0,0-.1-.23.19.19,0,0,0-.24.11L247,323.69a.18.18,0,0,0,.11.23Z"/><polygon class="cls-8" points="358.87 280.4 388.53 332.38 433.19 306.9 410.6 267.29 391.17 261.98 358.87 280.4"/><polygon class="cls-1" points="359.66 277.53 389.31 329.51 433.98 304.02 411.38 264.42 391.96 259.1 359.66 277.53"/><polygon class="cls-8" points="399.01 271.47 411.38 264.42 391.96 259.1 399.01 271.47"/><rect class="cls-8" x="372.87" y="278.84" width="35.89" height="2.81" transform="translate(-87.52 230.49) rotate(-29.71)"/><rect class="cls-8" x="376.35" y="284.95" width="35.89" height="2.81" transform="translate(-90.08 233.02) rotate(-29.71)"/><rect class="cls-8" x="379.84" y="291.06" width="35.89" height="2.81" transform="translate(-92.65 235.55) rotate(-29.71)"/><rect class="cls-8" x="383.32" y="297.17" width="35.89" height="2.81" transform="translate(-95.22 238.08) rotate(-29.71)"/><rect class="cls-8" x="394.61" y="303.28" width="20.28" height="2.81" transform="translate(-97.79 240.61) rotate(-29.71)"/><path class="cls-11" d="M715,586.72H43.34c-3.26,0-5.9,1.21-5.9,2.7v1.3c0,1.49,2.64,2.7,5.9,2.7H715c3.25,0,5.89-1.21,5.89-2.7v-1.3C720.86,587.93,718.22,586.72,715,586.72Z"/><path class="cls-22" d="M654.72,263.86a49.54,49.54,0,0,0-42.85-41.46,3.48,3.48,0,0,0-3.89,3.46h0a3.46,3.46,0,0,0,3,3.45,42.57,42.57,0,0,1,36.83,35.62,3.46,3.46,0,0,0,3.43,2.91h0A3.47,3.47,0,0,0,654.72,263.86Z"/><path class="cls-22" d="M642.34,263.63A37.42,37.42,0,0,0,612,234.68a3.48,3.48,0,0,0-4,3.45h0a3.5,3.5,0,0,0,2.93,3.44,30.39,30.39,0,0,1,24.61,23.52,3.49,3.49,0,0,0,3.41,2.76h0A3.49,3.49,0,0,0,642.34,263.63Z"/><path class="cls-22" d="M629.1,263.23a24.74,24.74,0,0,0-16.7-15.52,3.49,3.49,0,0,0-4.42,3.35h0a3.46,3.46,0,0,0,2.52,3.35,17.75,17.75,0,0,1,12,11.08,3.5,3.5,0,0,0,3.29,2.35h0A3.48,3.48,0,0,0,629.1,263.23Z"/><path class="cls-22" d="M564.19,333a14.92,14.92,0,0,1,11,.2,14.43,14.43,0,0,1,3.52,2.11l.21-.53a11.46,11.46,0,0,1,14.88-6.41,10.78,10.78,0,0,1,4.79,3.95,17.63,17.63,0,0,1,20.64-.61V290.21h14.34l-41.86-40.87-41.86,40.87h14.33Z"/><path class="cls-10" d="M619.24,296.64v35.09a17.63,17.63,0,0,0-20.64.61,10.78,10.78,0,0,0-4.79-3.95,11.46,11.46,0,0,0-14.88,6.41l-.21.53a14.43,14.43,0,0,0-3.52-2.11,14.92,14.92,0,0,0-11-.2V290.21H549.86l33.54-32.76a41.06,41.06,0,0,0-47.32,17.11,25.34,25.34,0,0,0-38.7,21.21c0,.41,0,.82,0,1.22a34.91,34.91,0,0,0-9.16-1.22,34.06,34.06,0,1,0,0,68.11H611.46a34,34,0,0,0,7.78-67.24Z"/><polygon class="cls-24" points="180.22 214.55 184.5 204.1 143.19 188.41 180.22 214.55"/><polygon class="cls-25" points="178.14 208.11 143.19 188.41 167.51 213.12 178.14 208.11"/><polygon class="cls-25" points="193.95 199.84 143.19 188.41 184.5 204.1 193.95 199.84"/><polygon class="cls-26" points="178.14 208.11 180.22 214.55 173.91 210.1 178.14 208.11"/><path class="cls-6" d="M228.41,245.48a.42.42,0,0,1,.37-.46,9.57,9.57,0,0,0,4-1.49.42.42,0,0,1,.45.71,10.61,10.61,0,0,1-4.31,1.61h0A.43.43,0,0,1,228.41,245.48Zm-4.08-.59a4.58,4.58,0,0,1-2.14-3.84c0-.1,0-.21,0-.31a.42.42,0,1,1,.84.06,2,2,0,0,0,0,.25,3.75,3.75,0,0,0,1.76,3.14.42.42,0,0,1-.23.77A.39.39,0,0,1,224.33,244.89Zm43.16-2.5a26.69,26.69,0,0,0-2.59-3.53.41.41,0,0,1,0-.58.41.41,0,0,1,.59,0A26.21,26.21,0,0,1,268.2,242a.41.41,0,0,1-.14.57.39.39,0,0,1-.21.06A.42.42,0,0,1,267.49,242.39ZM236,241.28a.42.42,0,0,1-.05-.59,12.12,12.12,0,0,0,2.14-3.71.4.4,0,0,1,.53-.25.41.41,0,0,1,.25.53,13.05,13.05,0,0,1-2.28,4,.41.41,0,0,1-.32.15A.41.41,0,0,1,236,241.28Zm-11.73-4.1a.42.42,0,0,1,0-.59,15,15,0,0,1,3.71-2.65.41.41,0,0,1,.56.17.42.42,0,0,1-.17.57,14.06,14.06,0,0,0-3.51,2.5.4.4,0,0,1-.29.12A.44.44,0,0,1,224.3,237.18Zm37.44-1.34a23.63,23.63,0,0,0-3.65-2.39.41.41,0,0,1-.18-.56.42.42,0,0,1,.57-.18,24.86,24.86,0,0,1,3.78,2.48.41.41,0,0,1-.26.74A.43.43,0,0,1,261.74,235.84Zm-22.48-2.67a.41.41,0,0,1-.41-.42v-.14a16.42,16.42,0,0,0-.56-4.15.42.42,0,1,1,.81-.21,17.17,17.17,0,0,1,.59,4.36v.15a.42.42,0,0,1-.42.41Zm-7.35-.44a.42.42,0,0,1,.27-.52c1.45-.5,2.9-.92,4.3-1.26a.43.43,0,0,1,.51.3.42.42,0,0,1-.31.51c-1.38.34-2.8.75-4.24,1.24l-.13,0A.43.43,0,0,1,231.91,232.73Zm22.14-.95a26.76,26.76,0,0,0-4.27-.94.42.42,0,0,1-.36-.47.42.42,0,0,1,.47-.36,27.42,27.42,0,0,1,4.41,1,.42.42,0,0,1-.13.82Zm-13.51-1.21a.42.42,0,0,1,.36-.47,36.93,36.93,0,0,1,4.49-.35h0a.41.41,0,0,1,.42.41.43.43,0,0,1-.41.43,35.29,35.29,0,0,0-4.39.34H241A.42.42,0,0,1,240.54,230.57Zm-3.79-6.19a27.33,27.33,0,0,0-2.28-3.74.42.42,0,0,1,.09-.58.42.42,0,0,1,.58.09,27.48,27.48,0,0,1,2.35,3.86.41.41,0,0,1-.18.56.45.45,0,0,1-.19.05A.41.41,0,0,1,236.75,224.38Zm-5.11-7.09a32.76,32.76,0,0,0-3.27-2.94.42.42,0,0,1,.51-.66,34.58,34.58,0,0,1,3.36,3,.42.42,0,0,1,0,.59.46.46,0,0,1-.29.11A.42.42,0,0,1,231.64,217.29Zm-41.31-3.79a.43.43,0,0,1,.1-.59l.68-.48a.42.42,0,0,1,.58.11.41.41,0,0,1-.1.58l-.68.47a.43.43,0,0,1-.24.08A.42.42,0,0,1,190.33,213.5Zm34.41-1.63a31.3,31.3,0,0,0-3.92-2,.42.42,0,0,1,.32-.77,32.21,32.21,0,0,1,4,2,.41.41,0,0,1,.15.57.43.43,0,0,1-.36.21A.42.42,0,0,1,224.74,211.87Zm-30-1.2a.42.42,0,0,1,.18-.56,33.44,33.44,0,0,1,4.14-1.8.43.43,0,0,1,.53.26.41.41,0,0,1-.26.53,32.18,32.18,0,0,0-4,1.75.49.49,0,0,1-.2.05A.43.43,0,0,1,194.79,210.67Zm21.88-2.21a31.18,31.18,0,0,0-4.31-.83.41.41,0,0,1-.37-.46.44.44,0,0,1,.46-.37,32.34,32.34,0,0,1,4.43.85.42.42,0,0,1,.3.51.42.42,0,0,1-.41.31Zm-13.54-.84a.42.42,0,0,1,.33-.49,29.53,29.53,0,0,1,4.48-.5.42.42,0,0,1,.44.4.43.43,0,0,1-.41.43,29,29,0,0,0-4.35.49h-.08A.42.42,0,0,1,203.13,207.62Z"/></g></svg>