<?xml version="1.0" encoding="utf-8"?>
<!-- Generator: Adobe Illustrator 26.0.1, SVG Export Plug-In . SVG Version: 6.00 Build 0)  -->
<svg version="1.1" id="Layer_1" xmlns="http://www.w3.org/2000/svg" xmlns:xlink="http://www.w3.org/1999/xlink" x="0px" y="0px"
	 viewBox="0 0 500 500" style="enable-background:new 0 0 500 500;" xml:space="preserve">
<style type="text/css">
	.st0{fill:#F78DE8;}
	.st1{opacity:0.46;}
	.st2{fill:#D1C7FF;}
	.st3{fill:#FFFFFF;}
	.st4{fill:#FD8753;}
	.st5{fill:#FFB700;}
	.st6{fill:#E2209E;}
	.st7{fill:#5E1DBB;}
	.st8{fill:#1B1F44;}
	.st9{fill:#D5D1DE;}
	.st10{fill:#8A91E6;}
	.st11{fill:#7B8DFF;}
	.st12{fill:#7E72AC;}
	.st13{fill:#310047;}
	.st14{fill:#2A2E5E;}
	.st15{fill:#39ACCC;}
	.st16{fill:#FFA800;}
	.st17{fill:#373C7A;}
	.st18{fill:#FE9B88;}
	.st19{opacity:5.000000e-02;}
	.st20{fill:#363A68;}
	.st21{fill:#FE8D77;}
	.st22{fill:#48C7F9;}
	.st23{fill:#FFB476;}
	.st24{fill:#000300;}
	.st25{fill:#FD521B;}
	.st26{fill:#009BFA;}
	.st27{fill:#0E3266;}
	.st28{fill:#A3CFD1;}
	.st29{fill:#4929CF;}
	.st30{fill:#401671;}
	.st31{fill:#24004D;}
	.st32{fill:none;stroke:#000000;stroke-width:0.9076;stroke-linecap:round;stroke-miterlimit:10;}
</style>
<rect x="-0.5" y="-0.5" class="st0" width="501" height="501"/>
<g class="st1">
	<path class="st2" d="M371.7,115.5c38,44.1,56.7,107.5,32.5,172.5c-6.1,16.3-17.6,31.1-32.1,36.9c-17.7,7-35.7-0.1-53.4-2.9
		c-55.6-8.9-113.7,25.5-170.8,27.1c-23.2,0.6-46.8-4.7-63.9-20.5c-21.1-19.4-29.9-53-26.7-85.6c5.1-50.6,36.8-98.2,71-131.8
		c32.2-31.7,72.8-51.9,113.4-55.1C289.1,52.4,338,76.3,371.7,115.5z"/>
</g>
<g>
	<g>
		<g>
			<g>
				<path class="st3" d="M212.5,86.9c-1.8,0-3.5,0.2-5.2,0.6C202.3,74.9,190,66,175.6,66S149,74.9,144,87.5
					c-1.7-0.4-3.4-0.6-5.2-0.6c-13,0-23.6,10.6-23.6,23.6c0,0.7,0,1.5,0.1,2.2c-0.1,0.1-0.1,0.1-0.1,0.2c0,1.7,27,3,60.4,3
					c33.3,0,60.4-1.3,60.4-3c0.1-0.8,0.1-1.6,0.1-2.4C236.1,97.4,225.5,86.9,212.5,86.9z"/>
			</g>
		</g>
	</g>
	<g>
		<g>
			<g>
				<path class="st3" d="M331.3,159.1c-1.8,0-3.5,0.2-5.2,0.6c-5-12.6-17.3-21.5-31.7-21.5c-14.4,0-26.7,8.9-31.7,21.5
					c-1.7-0.4-3.4-0.6-5.2-0.6c-13,0-23.6,10.6-23.6,23.6c0,0.7,0,1.5,0.1,2.2c-0.1,0.1-0.1,0.1-0.1,0.2c0,1.7,27,3,60.4,3
					c33.3,0,60.4-1.3,60.4-3c0.1-0.8,0.1-1.6,0.1-2.4C354.9,169.7,344.3,159.1,331.3,159.1z"/>
			</g>
		</g>
	</g>
	<g>
		<g>
			<g>
				<path class="st3" d="M131.1,189.5c-1.8,0-3.5,0.2-5.2,0.6c-5-12.6-17.3-21.5-31.7-21.5s-26.7,8.9-31.7,21.5
					c-1.7-0.4-3.4-0.6-5.2-0.6c-13,0-23.6,10.6-23.6,23.6c0,0.7,0,1.5,0.1,2.2c-0.1,0.1-0.1,0.1-0.1,0.2c0,1.7,27,3,60.4,3
					c33.3,0,60.4-1.3,60.4-3c0.1-0.8,0.1-1.6,0.1-2.4C154.7,200,144.2,189.5,131.1,189.5z"/>
			</g>
		</g>
	</g>
	<g>
		<g>
			<g>
				<path class="st3" d="M433,209.4c-1.8,0-3.5,0.2-5.2,0.6c-5-12.6-17.3-21.5-31.7-21.5c-14.4,0-26.7,8.9-31.7,21.5
					c-1.7-0.4-3.4-0.6-5.2-0.6c-13,0-23.6,10.6-23.6,23.6c0,0.7,0,1.5,0.1,2.2c-0.1,0.1-0.1,0.1-0.1,0.2c0,1.7,27,3,60.4,3
					c33.3,0,60.4-1.3,60.4-3c0.1-0.8,0.1-1.6,0.1-2.4C456.6,220,446.1,209.4,433,209.4z"/>
			</g>
		</g>
	</g>
</g>
<g>
	<g>
		<polygon class="st4" points="148.6,227.4 135.4,221.7 141.5,207.3 153.4,211.3 		"/>
	</g>
	<g>
		<path class="st4" d="M257.3,155.7c0,0,11.3,3.2,13.5,3.6c2.1,0.3,0.4-1.7,0.4-1.7s4,0.6,2.9-0.8s-14-5.1-17-5.5s-7.4-0.9-7.4-0.9
			L257.3,155.7z"/>
	</g>
	<g>
		<path class="st5" d="M215.2,136.3c0,0,6.8,2.1,8.4,3.1c1.6,1.1,12.3,11.1,14.6,11.7c2.3,0.6,13.2-2.9,13.2-2.9l11.7,11.5
			c0,0-13.2,15.2-27.2,13.2c-14.1-2-17.9-9-17.9-9L215.2,136.3z"/>
	</g>
	<g>
		<polygon class="st4" points="194.4,263.2 189.6,276.7 174.8,271.6 178,259.5 		"/>
	</g>
	<g>
		<path class="st6" d="M220.4,183.9c0,0,3,25.2-2.6,45.7s-17.7,41.1-17.7,41.1l-27.5-6.7c0,0,10.4-20.6,12.1-25.6
			c1.7-4.9,11.2-36.5,11.2-36.5l6-21.6L220.4,183.9z"/>
	</g>
	<g>
		<path class="st6" d="M188.7,168.3c0,0-7.3,16-11,25.3c-2.5,6.3-9.6,11.7-16.3,12.1c-6.7,0.4-12.7-0.2-12.7-0.2l-7.1,23.6
			c0,0,19.2,11,36.2,5.7c16.9-5.3,21-24.5,21-24.5L208,180L188.7,168.3z"/>
	</g>
	<g>
		<g>
			<path class="st5" d="M210.8,135.2c10.5,1.7,17,11.1,15.7,21.6l-0.8,6.3c0,0-2.6,20.8-3.3,21.4c-0.6,0.7-10.4,0.2-19.3-2.6
				c-8.8-2.8-15.8-5.5-16.1-6c-0.1-0.1-3.2-5-1.8-10.1c3.4-12.4,15.4-31.6,15.5-31.8C200.8,133.7,205.2,134.2,210.8,135.2z"/>
		</g>
	</g>
	<g>
		<path class="st7" d="M187.9,229.1c-0.1,0-0.1-0.1-0.2-0.1c-0.1-0.1-0.1-0.3,0.1-0.4c17.5-13.1,17.8-39.1,17.8-39.4
			c0-0.1,0-0.2,0.1-0.2c0.1-0.1,0.2-0.1,0.2-0.1l8.5,1.4c0.2,0,0.3,0.2,0.2,0.3c0,0.2-0.2,0.3-0.3,0.2l-8.2-1.3
			c-0.1,3.2-1.4,27.1-18,39.5C188.1,229.1,188,229.1,187.9,229.1z"/>
	</g>
	<g>
		<path class="st7" d="M186.1,184.1c-0.1,0-0.2-0.1-0.3-0.1c-0.2,0-0.2-0.2-0.2-0.4s0.2-0.3,0.4-0.2c0.1,0,0.2,0.1,0.3,0.1
			c4.6,1.2,6-2.1,6-2.2c0.1-0.2,0.2-0.2,0.4-0.2c0.2,0.1,0.2,0.2,0.2,0.4C192.8,181.5,191.2,185.4,186.1,184.1z"/>
	</g>
	<g>
		<path class="st7" d="M172.7,209c-0.3-0.1-0.6-0.3-0.8-0.5c-1.4-1.7-0.8-6.5-0.7-6.7c0-0.1,0.1-0.2,0.2-0.3c0.1,0,0.2,0,0.3,0.1
			c0.5,0.9,3.1,5.6,2.2,7c-0.1,0.2-0.4,0.4-0.9,0.4C172.8,209,172.7,209,172.7,209z M171.6,202.8c-0.1,1.7-0.1,4.3,0.7,5.3
			c0.2,0.2,0.4,0.4,0.7,0.4s0.3-0.1,0.4-0.1C173.8,207.6,172.7,204.8,171.6,202.8z"/>
	</g>
	<g>
		<g>
			<path class="st7" d="M168.9,284.7c0.3,1,6.6,1.8,7,2.1c0.5,0.3,2.9-2.9,3.8-2.1c0.9,0.8,1.6,2.8,2.9,3.9
				c1.2,1.1,23.7,6.8,28.2,7.4c0.4,0,0.7-0.2,0.7-0.7c0.1-1,0.2-3,0-5c-0.2-1.8-0.7-3.8-1.8-5.1c-2.8-3.6-9.8-6.5-12-9
				s-4-7.5-5.8-7.1s-5.7,3.3-9.9,1.7c-4.2-1.6-5.9-3.2-7.3-2.5c-0.9,0.5-3,6.5-4.4,11.1C169.4,282.1,168.8,284.3,168.9,284.7z"/>
		</g>
	</g>
	<g>
		<path class="st8" d="M215.8,121c0,0,5.8,1.8,7.6-3.7c1.9-5.9-3.5-8-6.5-6.2s-3.2,4.4-3.2,4.4s-1.3-1.9-3.5-0.6
			c-1.7,1-1.6,3.4-1.6,3.4s-3-0.9-3.4,1.8c-0.4,2.7,1.1,4.6,1.1,4.6L215.8,121z"/>
	</g>
	<g>
		<g>
			<path class="st4" d="M207.7,130l-1,6.4c0,0,0.9,2,4.6,3c2.8,0.7,3.9,0.2,3.9,0.2l0.1-3.3l0.1-3.2l-6.5-2.6L207.7,130z"/>
		</g>
	</g>
	<g>
		<g>
			<path d="M208.8,130.4c0,0.2,0,0.4,0.1,0.7c0.9,3.4,4.7,4.8,6.3,5.2l0.1-3.2L208.8,130.4z"/>
		</g>
	</g>
	<g>
		<g>
			<path class="st4" d="M219.1,118.6c0,0,2.1,8.6,0,12.9s-6,2.8-8.3,1.5s-3.2-3-3.2-3s-2.4,0.4-3.6-2c-1.1-2.4,0.2-4.7,1.6-5
				c1.4-0.3,2.8,0.9,2.8,0.9l-0.8-2.5C207.7,121.3,214.9,110.5,219.1,118.6z"/>
		</g>
	</g>
	<g>
		<path d="M207.7,127.3c0,0-0.1,0-0.1-0.1l-2.6-2.6c-0.1-0.1-0.1-0.3,0-0.4s0.3-0.1,0.4,0l2.6,2.6c0.1,0.1,0.1,0.3,0,0.4
			C207.9,127.3,207.8,127.4,207.7,127.3z"/>
	</g>
	<g>
		<path d="M205,126.9c-0.1,0-0.2-0.1-0.2-0.3c0-0.2,0.1-0.3,0.3-0.3l2-0.2c0.2,0,0.3,0.1,0.3,0.3c0,0.2-0.1,0.3-0.3,0.3l-2,0.2
			C205.1,126.9,205.1,126.9,205,126.9z"/>
	</g>
	<g>
		<path d="M213.1,121.2c-0.1,0-0.2-0.1-0.2-0.2c-0.1-0.2,0-0.3,0.2-0.4c1.3-0.5,2.4-0.3,2.5-0.2c0.1,0,0.3,0.2,0.2,0.3
			c0,0.2-0.2,0.3-0.3,0.2c0,0-1-0.2-2.1,0.2C213.3,121.2,213.2,121.2,213.1,121.2z"/>
	</g>
	<g>
		<path d="M218.1,121.5c-0.1,0-0.2-0.1-0.2-0.2c0-0.2,0.1-0.3,0.3-0.3c0,0,0.8-0.1,1.5,0.4c0.1,0.1,0.2,0.3,0.1,0.4
			c-0.1,0.1-0.3,0.2-0.4,0.1c-0.5-0.4-1.1-0.3-1.1-0.3C218.2,121.5,218.2,121.5,218.1,121.5z"/>
	</g>
	<g>
		<path d="M216.7,128.8c-0.1,0-0.1,0-0.1-0.1c-0.1-0.1-0.1-0.3,0-0.4c1.4-1.4,0.1-4,0-4c-0.1-0.1,0-0.3,0.1-0.4s0.3,0,0.4,0.1
			c0.1,0.1,1.6,3-0.2,4.7C216.9,128.8,216.8,128.8,216.7,128.8z"/>
	</g>
	<g>
		<path d="M218.9,125c-0.1,0-0.2-0.1-0.2-0.3l-0.2-1.5c0-0.2,0.1-0.3,0.3-0.3s0.3,0.1,0.3,0.3l0.2,1.5c0,0.2-0.1,0.3-0.3,0.3H218.9z
			"/>
	</g>
	<g>
		<path d="M214.8,124.4c-0.1,0-0.2-0.1-0.2-0.3l-0.2-1.5c0-0.2,0.1-0.3,0.3-0.3s0.3,0.1,0.3,0.3l0.2,1.5c0,0.2-0.1,0.3-0.3,0.3
			C214.9,124.4,214.9,124.4,214.8,124.4z"/>
	</g>
	<g>
		<path class="st8" d="M219.5,120.5c0,0-0.5-1.4-2.1-1.7c-1.6-0.3-2.7,0.7-2.7,0.7s0.3,2.8-2.1,3.9c-2.4,1.1-4,0.4-4,0.4L207,123
			l-0.8-2.5l5.4-4.2l6.4-2.2l2.6,3.2L219.5,120.5z"/>
	</g>
	<g>
		<path class="st8" d="M211.2,139.5c-1.8-0.5-3.7-1.5-5.3-3.5c-0.1-0.1-0.1-0.3,0-0.4c0.1-0.1,0.3-0.1,0.4,0
			c3.9,4.8,9.8,3.4,9.9,3.4c0.2,0,0.3,0.1,0.4,0.2c0,0.2-0.1,0.3-0.2,0.4C216.4,139.6,214,140.2,211.2,139.5z"/>
	</g>
	<g>
		<path class="st8" d="M197.5,279.1c-0.1,0-0.2-0.2-0.2-0.3c0-0.2,0.2-0.3,0.3-0.3c1.9,0.1,7,0.2,8.1-1.2c0.1-0.1,0.1-0.2,0.1-0.2
			c-0.4-0.7-4.4-0.8-8-0.6c-0.1,0-0.3-0.1-0.3-0.2s0.1-0.3,0.2-0.3c1.5-0.5,5.4-2.2,6-3.6c0.1-0.2,0.1-0.4,0-0.6
			c-0.1-0.1-0.2-0.2-0.4-0.3c-1.5-0.4-5.8,2.5-7.3,3.6c-0.1,0.1-0.3,0.1-0.4-0.1c-0.1-0.1-0.1-0.3,0.1-0.4c0.6-0.4,5.7-4.2,7.8-3.7
			c0.3,0.1,0.6,0.3,0.8,0.6c0.2,0.3,0.2,0.7,0,1.1c-0.5,1.3-3,2.6-4.8,3.3c2.5-0.1,6.2,0,6.8,1c0.1,0.2,0.2,0.5-0.1,0.8
			C204.6,279.6,198.2,279.2,197.5,279.1L197.5,279.1z"/>
	</g>
	<g>
		<g>
			<path class="st7" d="M128.8,200.5c-1,0.2-2.2,6.4-2.5,6.9s2.7,3.1,1.8,3.9c-0.8,0.8-2.9,1.4-4.1,2.6c-1.1,1.1-8.4,23.1-9.3,27.6
				c-0.1,0.4,0.2,0.7,0.6,0.8c1,0.2,2.9,0.4,5,0.3c1.9-0.1,3.8-0.5,5.3-1.4c3.7-2.5,7.2-9.3,9.8-11.3s7.8-3.5,7.5-5.3s-2.9-6-1-10
				s3.6-5.6,3-7.1c-0.4-0.9-6.3-3.5-10.8-5.2C131.4,201.2,129.2,200.5,128.8,200.5z"/>
		</g>
	</g>
	<g>
		<path class="st8" d="M133.7,238.3c-0.1,0-0.2-0.1-0.4-0.2c-1.8-1.6-1-7.9-0.9-8.7c0-0.2,0.2-0.3,0.3-0.2c0.2,0,0.3,0.2,0.2,0.3
			c-0.3,1.9-0.7,7,0.7,8.1c0.1,0.1,0.2,0.1,0.2,0.1c0.7-0.3,1.1-4.3,1.2-7.9c0-0.1,0.1-0.3,0.3-0.3c0.1,0,0.3,0.1,0.3,0.2
			c0.4,1.5,1.8,5.6,3.2,6.3c0.2,0.1,0.4,0.1,0.6,0c0.2-0.1,0.3-0.2,0.3-0.4c0.5-1.5-2.1-5.9-3.1-7.5c-0.1-0.1-0.1-0.3,0.1-0.4
			c0.1-0.1,0.3,0,0.4,0.1c0.4,0.6,3.8,6,3.2,8c-0.1,0.3-0.3,0.6-0.6,0.7c-0.3,0.1-0.7,0.1-1.1-0.1c-1.3-0.6-2.4-3.2-3-5
			c-0.1,2.5-0.4,6.2-1.5,6.7C134,238.3,133.9,238.3,133.7,238.3z"/>
	</g>
	<g>
		<path class="st4" d="M197.3,158.7c0,0,1.6-2.4,2.2-3.2c0.6-0.8,1.2-3.7,2.3-3.9c1.2-0.2,0.3,4.5,0.3,4.5s7.9-5.3,9-4.7
			c1,0.6-2.8,4.6-2.8,4.6s5.9-3.7,6.5-2.6c0.6,1.1-4.5,5-4.5,5s4.3-2.1,4.7-0.9s-7.1,7.3-7.1,7.3s-5.3,7.1-9.4,4.8
			C194.3,167.3,197.3,158.7,197.3,158.7z"/>
	</g>
	<g>
		<path d="M214.6,130.8c-0.8-0.2-1-1.6-1-1.9c0-0.1,0-0.2,0.1-0.3s0.2-0.1,0.3,0l2.2,1.1c0.1,0,0.1,0.1,0.2,0.2c0,0.1,0,0.2-0.1,0.3
			C216.2,130.3,215.4,131,214.6,130.8z M214.3,129.4c0.1,0.4,0.3,0.8,0.5,0.8c0.2,0.1,0.5-0.1,0.7-0.2L214.3,129.4z"/>
	</g>
	<g>
		<path class="st5" d="M200.7,133.9c0,0-15.1,1.9-26.8,13c-10.8,10.3-13.8,21-1.8,27.5s28.1-2.5,28.1-2.5l-3.1-15.2l-3.3,0.4
			L200.7,133.9z"/>
	</g>
	<g>
		<path d="M200.9,158.5L200.9,158.5c-0.2-0.1-0.2-0.2-0.2-0.4l1.2-2.1c0.1-0.1,0.2-0.2,0.3-0.1c0.1,0.1,0.2,0.2,0.1,0.3l-1.2,2.1
			C201.1,158.5,201,158.5,200.9,158.5z"/>
	</g>
	<g>
		<path d="M209,159.5c-0.1,0-0.1,0-0.1-0.1c-0.1-0.1,0-0.3,0.1-0.3l1.1-0.8c0.1-0.1,0.3,0,0.3,0.1c0.1,0.1,0,0.3-0.1,0.3l-1.1,0.8
			C209.2,159.5,209.1,159.5,209,159.5z"/>
	</g>
	<g>
		<path d="M207.1,157c-0.1,0-0.1-0.1-0.1-0.1c-0.1-0.1,0-0.3,0.1-0.3l1.2-0.7c0.1-0.1,0.3,0,0.3,0.1c0.1,0.1,0,0.3-0.1,0.3l-1.2,0.7
			C207.2,157,207.1,157.1,207.1,157z"/>
	</g>
	<g>
		<path class="st8" d="M224.8,169.9c-0.1,0-0.2-0.2-0.2-0.3l0.8-7.9c0-0.2,0.2-0.3,0.3-0.3c0.2,0,0.3,0.2,0.3,0.3l-0.8,7.9
			C225.2,169.8,225,169.9,224.8,169.9L224.8,169.9z"/>
	</g>
	<g>
		<path class="st8" d="M177.7,157.5c-0.1,0-0.2-0.1-0.2-0.2c0-0.2,0-0.3,0.2-0.4c7.1-2.2,16.4-1.3,16.5-1.3c0.2,0,0.3,0.2,0.3,0.3
			c0,0.2-0.2,0.3-0.3,0.3s-9.3-0.9-16.2,1.3C177.9,157.5,177.8,157.5,177.7,157.5z"/>
	</g>
	<g>
		<path class="st8" d="M180.3,155.5c-1.2-0.3-2.1-0.7-2.2-1.2c-0.1-0.2-0.1-0.5,0.5-0.8c2-1.1,6.6,2,6.8,2.1
			c0.1,0.1,0.2,0.2,0.1,0.3c0,0.1-0.1,0.2-0.3,0.2C184.3,156.2,182.1,156,180.3,155.5z M180.8,154c-0.8-0.2-1.4-0.2-1.9,0
			c-0.2,0.1-0.2,0.2-0.2,0.2c0.1,0.5,3.3,1.3,5.6,1.4C183.3,155,181.9,154.3,180.8,154z"/>
	</g>
	<g>
		<path class="st8" d="M237.8,156.9L237.8,156.9c-0.3-0.1-0.6-0.3-0.7-0.6c-0.7-1.4,0.6-4.9,0.8-5.3c0-0.1,0.2-0.2,0.3-0.2
			s0.2,0.1,0.3,0.2c0.2,0.8,0.9,4.9,0,5.7C238.3,156.9,238.1,157,237.8,156.9z M238.1,152.3c-0.4,1.3-0.8,3-0.4,3.8
			c0.1,0.1,0.2,0.2,0.3,0.3c0.1,0,0.1,0,0.1,0C238.4,156,238.4,154.1,238.1,152.3z"/>
	</g>
	<g>
		<path class="st8" d="M188.8,176.4c-0.1,0-0.2-0.1-0.2-0.2c0-0.2,0.1-0.3,0.2-0.4c0.1,0,7.6-1.8,10.5-4.1c0.1-0.1,0.3-0.1,0.4,0
			c0.1,0.1,0.1,0.3,0,0.4c-2.9,2.4-10.4,4.1-10.7,4.2C188.9,176.4,188.8,176.4,188.8,176.4z"/>
	</g>
	<g>
		<path d="M271.1,157.8L271.1,157.8c-0.1-0.1-3.4-2.4-6.2-3.3c-0.1,0-0.2-0.2-0.2-0.3s0.1-0.2,0.3-0.2h2.3c0.2,0,0.3,0.1,0.3,0.3
			s-0.1,0.3-0.3,0.3h-0.8c2.4,1.1,4.7,2.7,4.8,2.8c0.1,0.1,0.2,0.3,0.1,0.4C271.4,157.8,271.2,157.9,271.1,157.8z"/>
	</g>
</g>
<g>
	<g>
		<g>
			<g>
				<g>
					<g>
						<path class="st9" d="M125.1,384h218.5l-29-165.6h-236l26,148.4C106.4,376.7,115,384,125.1,384z"/>
					</g>
				</g>
			</g>
		</g>
		<g>
			<polygon class="st10" points="78.6,218.4 105.3,370.7 111,370.7 84.3,218.4 			"/>
		</g>
	</g>
	<g>
		<path class="st9" d="M437.5,384H123.3c-9,0-16.8-6.5-18.3-15.4l-1.2-6.8H448v11.7C448,379.3,443.3,384,437.5,384z"/>
	</g>
	<g>
		<path class="st10" d="M225.9,373.5v-11.7H103.7l2.1,11.8c1,6,6.3,10.4,12.3,10.4h118.2C230.6,384,225.9,379.3,225.9,373.5z"/>
	</g>
	<g>
		<polygon class="st10" points="104.3,365.2 448,365.2 448,361.8 103.7,361.8 		"/>
	</g>
	<g>
		<polygon class="st11" points="330.6,353.9 308.3,226.2 94.5,226.2 116.8,353.9 		"/>
	</g>
	<g>
		<path class="st12" d="M205.2,222.8l-0.2-0.9c-0.1-0.6-0.6-1-1.2-1h-3.2c-0.8,0-1.4,0.7-1.2,1.4l0.2,0.9c0.1,0.6,0.6,1,1.2,1h3.2
			C204.7,224.3,205.3,223.6,205.2,222.8z"/>
	</g>
	<g>
		<polygon class="st12" points="141.7,370.7 127.2,370.7 127.9,375 142.5,375 		"/>
	</g>
	<g>
		<polygon class="st12" points="161.9,370.7 147.3,370.7 148.1,375 162.6,375 		"/>
	</g>
	<g>
		<g>
			<polygon class="st13" points="330.8,350.3 123.6,350.3 103.9,236.3 311.1,236.3 			"/>
		</g>
		<g>
			<polygon class="st14" points="312,241.4 97,241.4 94.3,226.2 309.3,226.2 			"/>
		</g>
		<g>
			<polygon class="st15" points="324.9,326.6 292.5,326.6 279.3,251.4 311.7,251.4 			"/>
		</g>
		<g>
			<g>
				<path class="st10" d="M306.1,236.7c-0.1,0-0.2,0-0.3-0.1l-4.9-4.2c-0.2-0.2-0.2-0.5-0.1-0.7c0.2-0.2,0.5-0.2,0.7-0.1l4.9,4.2
					c0.2,0.2,0.2,0.5,0.1,0.7C306.4,236.7,306.3,236.7,306.1,236.7z"/>
			</g>
			<g>
				<path class="st10" d="M301.9,236.7c-0.1,0-0.2,0-0.3-0.1c-0.2-0.2-0.2-0.5-0.1-0.7l3.5-4.2c0.2-0.2,0.5-0.2,0.7-0.1
					c0.2,0.2,0.2,0.5,0.1,0.7l-3.5,4.2C302.2,236.7,302.1,236.7,301.9,236.7z"/>
			</g>
		</g>
		<g>
			<g>
				<g>
					<polygon class="st14" points="149.9,254.6 123.9,254.6 123.2,251.1 149.3,251.1 					"/>
				</g>
				<g>
					<polygon class="st16" points="152.2,267.5 126.1,267.5 123.7,253.7 149.8,253.7 					"/>
				</g>
			</g>
			<g>
				<g>
					<polygon class="st14" points="152.8,271 126.8,271 126.1,267.5 152.2,267.5 					"/>
				</g>
				<g>
					<polygon class="st16" points="155.1,283.9 129,283.9 126.6,270.1 152.7,270.1 					"/>
				</g>
			</g>
		</g>
		<g>
			<path class="st10" d="M297.3,236.8H293c-0.2,0-0.4-0.2-0.5-0.4l-0.8-4.3c0-0.1,0-0.3,0.1-0.4c0.1-0.1,0.2-0.2,0.4-0.2h4.3
				c0.2,0,0.4,0.2,0.5,0.4l0.8,4.3c0,0.1,0,0.3-0.1,0.4C297.6,236.7,297.5,236.8,297.3,236.8z M293.4,235.8h3.3l-0.6-3.3h-3.3
				L293.4,235.8z"/>
		</g>
		<g>
			<polygon class="st14" points="331.4,353.9 116.5,353.9 115.2,346.7 330.1,346.7 			"/>
		</g>
		<g>
			<polygon class="st14" points="125.3,346.7 115.2,346.7 97,241.4 107.1,241.4 			"/>
		</g>
		<g>
			<polygon class="st14" points="314.4,266.7 282,266.7 281.5,263.9 313.9,263.9 			"/>
		</g>
		<g>
			<polygon class="st14" points="317.1,282 284.7,282 284.2,279.2 316.6,279.2 			"/>
		</g>
		<g>
			<polygon class="st14" points="319.8,297.4 287.4,297.4 286.9,294.5 319.3,294.5 			"/>
		</g>
		<g>
			<polygon class="st14" points="322.5,312.7 290.1,312.7 289.6,309.9 322,309.9 			"/>
		</g>
		<g>
			<polygon class="st3" points="289.3,330.6 166.4,330.6 152.4,251.1 275.3,251.1 			"/>
		</g>
	</g>
</g>
<g>
	<g>
		<g>
			<g>
				<g>
					<polygon class="st9" points="146.5,352.5 139.4,352.2 140.8,338.9 147.7,340.8 					"/>
				</g>
			</g>
			<g>
				<g>
					<g>
						<path class="st14" d="M158.9,360.4c0-1.7-0.6-6.5-3.9-6.5l-5.4-0.1l-1.1-4.2c-0.4-1.4-1.7-1.5-2-0.9c-0.9,2.1-1.2,3-2.3,3.1
							l-4.1-0.1c-1.8,0-1.7,1.1-1.7,2.6c0,0,0,4.9,0,6.1H158.9z"/>
					</g>
				</g>
				<g>
					<g>
						<path class="st17" d="M153.3,360.4h5.6c0-1.7-0.6-6.5-3.9-6.5h-1.7L153.3,360.4L153.3,360.4z"/>
					</g>
				</g>
				<g>
					<g>
						<polygon class="st17" points="159,361.9 138.5,361.9 138.4,360.3 158.9,360.3 						"/>
					</g>
				</g>
			</g>
		</g>
	</g>
	<g>
		<g>
			<path class="st5" d="M137.8,345.2c3.9,0.3,7.8,0.6,11.8,0.9c2.4-6.7,4.7-15.1,5.1-23.8c0.1-1.8,0.2-4.7-1.1-7.9
				c-1.4-3.5-4.9-9.1-8.6-7.9c-4.2,1.4-6.3,1.6-12.4,2.1c-5.2,0.4-7.4-1.4-12.7-2.6c-4.5-1-11.3-1.7-20.3,0.6
				c1.7,8.5,3.5,17,5.2,25.5c4.3,0.4,9.5,0.6,15.3,0.1c7.7-0.7,14.3-2.4,19.4-4.2c-0.5,2.4-1,5.1-1.3,8.2
				C137.7,339.6,137.7,342.6,137.8,345.2z"/>
		</g>
	</g>
	<g>
		<path class="st18" d="M130.8,310.1c-1.6,0-3.2-0.3-4.8-1c-7.2-3.3-10.6-13.6-9.9-30.8c0.1-1.5,1.3-2.7,2.7-2.7
			c1.4,0.1,2.5,1.4,2.5,2.9c-0.5,14.2,1.9,23.2,6.8,25.4c4.7,2.1,12.5-1.9,19.5-10.1c1-1.1,2.6-1.2,3.7-0.2c1,1,1.1,2.8,0.1,4
			C145.8,304.1,138,310.1,130.8,310.1z"/>
	</g>
	<g>
		<g>
			<g>
				<polygon class="st9" points="96.1,306.1 96,283.8 165.8,283.9 165.9,306.1 				"/>
			</g>
			<g>
				
					<rect x="71" y="283.9" transform="matrix(1 -6.175399e-03 6.175399e-03 1 -1.8204 0.5392)" class="st9" width="30.8" height="22.3"/>
			</g>
			<g>
				<polygon class="st10" points="187.1,293.9 165.8,283.9 165.9,306.1 187.1,297 				"/>
			</g>
			<g>
				<path class="st9" d="M165.1,284L165.1,284c4.5,0,4.7,22,0.1,22.1l0,0C160.8,306,160.6,284,165.1,284z"/>
			</g>
			<g>
				<path class="st12" d="M183.8,292.4c0.3,2.4,0.3,3.5,0.1,6l4.2-1.5c1.1-0.6,1.1-2.1,0.1-2.7L183.8,292.4z"/>
			</g>
			<g>
				<path class="st10" d="M70.9,284L70.9,284c4.5,0,4.7,22.2,0.1,22.3l0,0C66.5,306.3,66.4,284,70.9,284z"/>
			</g>
			<g>
				<g>
					<path class="st12" d="M139.5,287h-10.2c-0.9,0-1.6,0.7-1.6,1.6s0.7,1.6,1.6,1.6h10.2V287z"/>
				</g>
				<g>
					<path class="st12" d="M151.9,287h-10.3v3.2h10.3c0.9,0,1.6-0.7,1.6-1.6S152.8,287,151.9,287z"/>
				</g>
			</g>
			<g>
				<g>
					<path class="st10" d="M139.5,285.8h-10.2c-0.9,0-1.6,0.7-1.6,1.6s0.7,1.6,1.6,1.6h10.2V285.8z"/>
				</g>
				<g>
					<path class="st10" d="M151.9,285.8h-10.3v3.2h10.3c0.9,0,1.6-0.7,1.6-1.6S152.8,285.8,151.9,285.8z"/>
				</g>
			</g>
			<g>
				<path class="st12" d="M71,291L71,291c1.7,0,1.7,8.1,0.1,8.2l0,0C69.3,299.2,69.3,291,71,291z"/>
			</g>
			<g class="st19">
				<path d="M188.8,295.9c0.2-0.6-0.1-1.4-0.7-1.8l-4.3-1.7l-18-8.5v0.2v-0.2h-64l0,0h-5.7l0,0L70.9,284c-2.4,0-3.5,6.1-3.3,11.9
					H188.8z"/>
			</g>
		</g>
	</g>
	<g>
		<g>
			<g>
				<g>
					<path class="st20" d="M106,412.9h-8.7v-4.6c0-1.1,0.9-2,2-2h4.7c1.1,0,2,0.9,2,2V412.9z"/>
				</g>
			</g>
		</g>
		<g>
			<g>
				<g>
					<rect x="96" y="397.9" class="st9" width="7.4" height="13.1"/>
				</g>
			</g>
		</g>
		<g>
			<g>
				<path class="st14" d="M108,418H94.1v-5.1c0-1,0.8-1.9,1.9-1.9h8.1c2.2,0,3.9,1.8,3.9,3.9V418z"/>
			</g>
		</g>
		<g>
			<g>
				<polygon class="st17" points="94.1,418 108,418 108.1,420.1 94.2,420.1 				"/>
			</g>
		</g>
	</g>
	<g>
		<g>
			<path class="st5" d="M107.9,407.1c-6.3,0-9.8,0-16.1,0c-4.9-23.4-8-51.6-5.8-83.2c0.4-6.5,1.1-12.7,1.9-18.7
				c1.2,0.4,9.8,2.7,11,3.2c3.9,1.6,7.8,3.2,11,3.2L107.9,407.1z"/>
		</g>
	</g>
	<g>
		<path class="st5" d="M87.8,322.3c5.7,0.1,11.8,0.1,18.1-0.3c4.2-0.2,8.2-0.5,12.1-0.9l0.9-14.8l0,0c-2.5-0.9-11.9-1.2-31.1-0.5
			C87.8,311.4,87.8,316.8,87.8,322.3z"/>
	</g>
	<g>
		<path class="st10" d="M119.7,307c-11.2-0.2-22.5-0.4-33.7-0.7c3.1-5.4,3.8-9.8,3.9-12.9c0.2-8-3.7-11.1-2.6-19.8
			c0.3-2.7,0.8-6.4,3.6-9.4c3.1-3.4,7.3-3.8,8.7-3.9h11c6.8,0,11.3,4.9,11.3,12.3L119.7,307z"/>
	</g>
	<g>
		<path class="st18" d="M129.4,310c-0.1,0-0.2,0-0.3,0c-1.9-0.3-3.6-1-5.1-2.1c-1.7-1.3-3.2-3-4.3-5.3c-2.8-5.3-4-13.5-3.6-24.3
			c0-1,0.6-1.9,1.3-2.3c0,0,0.6-0.3,1.3-0.3c1.1,0,4.5,2,8.6,5.4c1,5.6,1.9,9.9,2.5,12.8c0.5,2.4,0.8,4.9,1.4,7.3
			c0.8,3,1.5,4.6,0.8,6.4C131.9,307.7,130.9,310,129.4,310z"/>
	</g>
	<g>
		<path class="st10" d="M127.8,284.3c-1.3,0.1-2.6,0.1-4,0.1c-2.8,0.1-5.5,0-8.1,0c0.1-1.4,0.2-3.5,0.4-6.1c0.3-3.2,0.5-4.6,0.6-6.1
			c0.2-2.5,0.2-6-0.7-10.6c1.8,0.6,5.2,2,8.1,5.6C129.7,274.2,128,283.2,127.8,284.3z"/>
	</g>
	<g>
		<g>
			<path class="st21" d="M117.8,248h-1.2v-6.2h1.6l1.2,3.6c0.4,1.2-0.3,2.5-1.4,2.6C117.9,248,117.8,248,117.8,248z"/>
		</g>
		<g>
			<path class="st18" d="M113.2,258.5c-2.6,0.8-5.8-2.4-7.1-4.5c-3.4-5-3.9-14.4,1-18.4c3.4-2.8,9.2-2.7,11.1,0
				c0.5,0.7,0.5,2.7,0.5,6.7c0,4.5-0.2,9-0.2,9l0,0c0,0-1,3.6-3.4,5.8C114.4,257.9,113.9,258.3,113.2,258.5z"/>
		</g>
		<g>
			<path class="st13" d="M118.4,240.5h-0.5c-0.2,0-0.3-0.2-0.3-0.4l0,0c0-0.2,0.2-0.4,0.3-0.4h0.5c0.2,0,0.3,0.2,0.3,0.4l0,0
				C118.8,240.3,118.6,240.5,118.4,240.5z"/>
		</g>
		<g>
			<path class="st17" d="M104.2,225.5c-0.4,0.2-6.7,2.8-9,9.4c-1.1,3.1,0,3.5-1.1,8.5c-0.8,3.4-1.5,7.1-4.3,9.9
				c-2.9,3-6.3,3.7-7.6,3.9c2.8,14.3,13.5,22.1,21.6,20.1c7.1-1.7,10.5-10.6,10.9-11.8c-2.2-13.2-2.2-23.6,0-26.2
				c0.8-1,1.3-1.4,1.3-1.4c1-0.6,2.2-1.4,3.4-2.4c0.8-0.7,1.5-1.3,2-1.9c-0.3-1-2-5.7-6.8-8.1C110,223.1,105.7,224.9,104.2,225.5z"
				/>
		</g>
	</g>
</g>
<g>
	<path class="st22" d="M463.5,392.6h-32.9c-10,0-18.1-8.1-18.1-18.1v-62.9c0-10,8.1-18.1,18.1-18.1h32.9c10,0,18.1,8.1,18.1,18.1
		v62.9C481.7,384.5,473.5,392.6,463.5,392.6z"/>
	<g>
		<path class="st18" d="M378.7,316.9c-0.8,0-1.5-0.4-1.9-1.1l-1.1-1.9c-0.6-1.1-0.2-2.4,0.8-3c1.1-0.6,2.4-0.2,3,0.8l1.1,1.9
			c0.6,1.1,0.2,2.4-0.8,3C379.5,316.8,379.1,316.9,378.7,316.9z"/>
	</g>
	<g>
		<g>
			
				<rect x="330.8" y="255.5" transform="matrix(0.2697 -0.9629 0.9629 0.2697 -21.4448 573.4173)" class="st10" width="73.1" height="90.7"/>
		</g>
		<g>
			<g>
				
					<rect x="336.6" y="260.7" transform="matrix(0.2697 -0.9629 0.9629 0.2697 -21.4331 573.2827)" class="st3" width="61.2" height="80.1"/>
			</g>
			<g>
				<polygon class="st16" points="403.1,321.5 392.3,284.6 359.4,314.6 350.6,284.8 323.2,309.8 320.5,319.5 397.6,341.1 				"/>
			</g>
		</g>
	</g>
	<g>
		<g>
			<polygon class="st23" points="408.4,282.4 414.8,290.2 431.6,275.9 425.5,268.2 			"/>
		</g>
		<g>
			<path class="st24" d="M429.5,274.4c-0.1,0-0.2,0-0.3-0.1l-3.9-5.5c-0.1-0.2-0.1-0.4,0.1-0.5s0.4-0.1,0.5,0.1l3.9,5.5
				c0.1,0.2,0.1,0.4-0.1,0.5C429.6,274.4,429.5,274.4,429.5,274.4z"/>
		</g>
		<g>
			<path class="st24" d="M417.2,282.5c-0.1,0-0.2,0-0.3-0.1l-3.6-4c-0.1-0.1-0.1-0.4,0-0.5s0.4-0.1,0.5,0l3.6,4
				c0.1,0.1,0.1,0.4,0,0.5C417.4,282.4,417.3,282.5,417.2,282.5z"/>
		</g>
		<g>
			<polygon class="st24" points="426.7,269.8 425.5,268.2 408.4,282.4 410.1,284.4 			"/>
		</g>
		<g id="XMLID_00000097477642422099062790000013386728448074737834_">
			<path class="st25" d="M431.1,273l-21.9,14.4l3.3,6.5L364.8,373l13.3,9.7l55.9-73.5l7.9-4.9c6-3.7,7.1-12,2.3-17.2L431.1,273z"/>
		</g>
		<g>
			<path class="st23" d="M377.7,381.4l-17.9,22.2c-1,1.2-2.8,1.4-4.1,0.4L332,384.1c-0.9-0.8-1.2-2.1-0.8-3.2l0,0
				c0.8-1.8,2.9-2.5,4.6-1.4l14.6,8.9c2.4,1.5,5.6,0.9,7.4-1.4l14.6-19.1L377.7,381.4z"/>
		</g>
		<g>
			<polygon points="377.7,381.4 374.4,372.7 370.4,370.6 366.2,376.1 373.7,386.3 			"/>
		</g>
		<g>
			<g>
				<path class="st23" d="M383.8,219.6c0,0-5.8-1.5-8.4,6.9c-2.5,8.4,0.9,11.2,3.8,11.8c3.6,0.8,8.4-1,9.1-3.2l5.4-10L383.8,219.6z"
					/>
			</g>
		</g>
		<g>
			<path class="st24" d="M402.3,287.7L402.3,287.7c-0.2,0-0.3-0.1-0.3-0.2s-4.8-9.8-9.2-19.8c-8.9-20.5-7.4-22.3-6.9-23
				c0.4-0.5,0.7-1,1.1-1.5c0.8-1.1,1.5-2.2,3.1-3.5c0.1-0.1,0.4-0.1,0.5,0.1c0.1,0.1,0.1,0.4-0.1,0.5c-1.5,1.2-2.2,2.3-3,3.3
				c-0.3,0.5-0.7,1-1.1,1.5c-2.1,2.6,8.4,26.2,16,41.7l26.9-21.9l-6-5.1c-0.1-0.1-0.2-0.3,0-0.5c0.1-0.1,0.3-0.2,0.5,0l6.3,5.3
				c0.1,0.1,0.1,0.2,0.1,0.3c0,0.1,0,0.2-0.1,0.3l-27.5,22.4C402.5,287.7,402.4,287.7,402.3,287.7z"/>
		</g>
		<g>
			<g>
				<path class="st3" d="M376.9,226.6c0,0,0.8-2.1,3-1.9c2.2,0.2,2.9,1.7,2.9,1.7s-0.8,2-3.3,1.8S376.9,226.6,376.9,226.6z"/>
			</g>
		</g>
		<g>
			<g>
				<polygon class="st23" points="375.4,226.7 373.4,226 374.9,229.4 				"/>
			</g>
		</g>
		<g>
			<path class="st26" d="M384.7,218.4c0,0,6.3-0.4,9.8,4.4c2.9,4.1,1.2,5.8,2.4,10.2c1.5,5.4,7.8,6,7.5-1.4c0,0,4.4,8.7-3.1,8.5
				c-0.9,0-4.7-1.5-7.1-0.9c-3.7,0.9-7.4,4.3-7.4,4.3l-3.4-3.3l7.6-14L384.7,218.4z"/>
		</g>
		<g>
			<g>
				<path class="st26" d="M374.6,231.7l3.6,0.4c0,0-1.6,1.9-3.3,2.1C374.9,234.2,374.5,233.3,374.6,231.7z"/>
			</g>
		</g>
		<g>
			<g>
				<path d="M382.9,224.1c0.1,0,0.2,0,0.3-0.1c0.1-0.1,0.1-0.3,0-0.4c-1.6-1.7-3.5-1.7-3.6-1.7c-0.2,0-0.3,0.1-0.3,0.3
					s0.1,0.3,0.3,0.3c0,0,1.7,0,3.1,1.5C382.8,224.1,382.9,224.1,382.9,224.1z"/>
			</g>
		</g>
		<g>
			<path class="st26" d="M385.3,218.4c-3.8,0-6.3-0.5-3,5.1c1.5,2.5,6.4,5.5,6.4,5.5l-1.1,3.2c0,0-4.9-0.7-7.3,3.8
				c-1.6,3,4.4,6.8,2.8,8.8c-2.2,2.8-6-1.1-5.7-2.3c0,0-2.2,5.2,3.5,5.3c5.7,0,8.6-5.4,8.6-5.4l4.1-15.3l-4.1-6.4
				C389.6,220.7,386.5,218.4,385.3,218.4z"/>
		</g>
		<g>
			<g>
				<path class="st23" d="M387.7,229.6c0,0,1.8-1.6,3.2-0.1s-0.3,4.6-2,4.4c-1.9-0.2-2.4-1.7-2.4-1.7L387.7,229.6z"/>
			</g>
		</g>
		<g>
			<g>
				<path d="M387.6,231.5c0.1,0,0.2,0,0.3-0.1c0.8-0.7,2.4-0.7,2.5-0.7c0.2,0,0.3-0.1,0.3-0.3s-0.1-0.3-0.3-0.3
					c-0.1,0-1.8,0-2.8,0.8c-0.1,0.1-0.1,0.3,0,0.4C387.5,231.5,387.5,231.5,387.6,231.5z"/>
			</g>
		</g>
		<g>
			<g>
				<path d="M388.9,232.6c0.1,0,0.1,0,0.2,0c0.1-0.1,0.2-0.2,0.2-0.4l-0.5-1.3c-0.1-0.1-0.2-0.2-0.4-0.2c-0.1,0.1-0.2,0.2-0.2,0.4
					l0.5,1.3C388.7,232.5,388.8,232.5,388.9,232.6z"/>
			</g>
		</g>
		<g>
			<g>
				<path d="M376.9,226.6c0,0,0.8-2.1,3-1.9c0.1,0,0.2,0,0.3,0c0.5,0.6,0.6,1.5,0.2,2.3c-0.3,0.6-0.8,1-1.3,1.1
					C376.9,227.9,376.9,226.6,376.9,226.6z"/>
			</g>
		</g>
		<g>
			<path class="st25" d="M431.1,273l-21.9,14.4l3.3,6.5L364.8,373l13.3,9.7l55.9-73.5l7.9-4.9c6-3.7,7.1-12,2.3-17.2L431.1,273z"/>
		</g>
		<g>
			<g>
				<path class="st24" d="M409.9,293.3c-0.1,0-0.2-0.1-0.3-0.2c-0.1-0.2-0.1-0.4,0.1-0.5l25.7-16.4c0.2-0.1,0.4-0.1,0.5,0.1
					s0.1,0.4-0.1,0.5L410,293.3H409.9z"/>
			</g>
			<g>
				<path class="st24" d="M420.3,295.5C420.3,295.5,420.2,295.5,420.3,295.5l-7.9-1.3c-0.2,0-0.3-0.2-0.3-0.4c0-0.2,0.2-0.3,0.4-0.3
					l7.8,1.2c0.2,0,0.3,0.2,0.3,0.4C420.6,295.3,420.4,295.5,420.3,295.5z"/>
			</g>
			<g>
				<path class="st24" d="M419.2,302.6c-0.1,0-0.2,0-0.3-0.1l-5.6-6.1c-0.1-0.1-0.1-0.4,0-0.5s0.4-0.1,0.5,0l5.6,6.1
					c0.1,0.1,0.1,0.4,0,0.5C419.4,302.6,419.3,302.6,419.2,302.6z"/>
			</g>
			<g>
				<path class="st24" d="M442.8,297.5c-0.1,0-0.2,0-0.3-0.1l-8.4-10.7c-0.1-0.1-0.1-0.3,0-0.5l6.5-6.3c0.1-0.1,0.2-0.1,0.4-0.1
					l8.7,3.5c0.1,0,0.1,0.1,0.2,0.2c0.2,0.4,4.5,8.6,2.2,11.2C449.8,297.2,443.1,297.5,442.8,297.5L442.8,297.5z M434.9,286.5
					l8.1,10.3c1.1-0.1,6.7-0.5,8.6-2.6c1.7-1.8-1-7.9-2.2-10.3l-8.4-3.4L434.9,286.5z"/>
			</g>
			<g>
				<path class="st24" d="M406,343.2c-0.1,0-0.3-0.1-0.3-0.2l-2.1-6.2c-0.1-0.2,0-0.4,0.2-0.4c0.2-0.1,0.4,0,0.4,0.2l2.1,6.2
					c0.1,0.2,0,0.4-0.2,0.4H406z"/>
			</g>
			<g>
				<path class="st24" d="M403.9,344.9c-0.1,0-0.1,0-0.2-0.1l-7.2-4.8c-0.2-0.1-0.2-0.3-0.1-0.5s0.3-0.2,0.5-0.1l7.2,4.8
					c0.2,0.1,0.2,0.3,0.1,0.5C404.1,344.8,404,344.9,403.9,344.9z"/>
			</g>
			<g>
				<path class="st24" d="M386.1,381.7c-0.1,0-0.1,0-0.2-0.1L366,368.2c-0.2-0.1-0.2-0.3-0.1-0.5s0.3-0.2,0.5-0.1l19.9,13.5
					c0.2,0.1,0.2,0.3,0.1,0.5C386.3,381.6,386.2,381.7,386.1,381.7z"/>
			</g>
		</g>
		<g>
			<polygon class="st23" points="435.7,300.8 409.3,273.5 420.4,262.2 444.1,295.1 			"/>
		</g>
		<g>
			<polygon class="st24" points="422.1,264.5 420.4,262.2 409.3,273.5 412.6,277 			"/>
		</g>
		<g>
			<path class="st24" d="M406.8,276.5L406.8,276.5c-0.1,0-0.2,0-0.2-0.1c-14.3-15.2-20.5-26.2-18.2-32.7c1-2.8,3.6-4.6,7.3-5.1
				c9.1-1.3,28.2,18.5,29,19.4c0.1,0.1,0.1,0.3,0,0.5L407,276.4C407,276.5,406.9,276.5,406.8,276.5z M396.5,239.3
				c-0.3,0-0.6,0-0.8,0.1c-2,0.3-5.6,1.3-6.7,4.7c-1.5,4.2,0.4,13.2,17.8,31.7l17.1-17.4C421.7,256.1,405.1,239.3,396.5,239.3z"/>
		</g>
		<g>
			<g>
				<g>
					<g>
						<path class="st23" d="M430.5,308.7c0,0-3.5,3.7-3.9,7.2c-0.3,2.6-0.1,6.4,0.1,8.1c0,0.5,0.5,0.9,1,0.9l0,0
							c0.8,0,1.5-0.6,1.6-1.4l0.5-6.8l8.5-11.7l-0.9-5.7L430.5,308.7z"/>
					</g>
				</g>
			</g>
		</g>
		<g>
			<g>
				<g>
					<g>
						<path class="st23" d="M433.6,307.6c0,0-3.5,3.7-3.9,7.2c-0.3,2.5-0.1,6.2,0.1,8c0.1,0.6,0.6,1.1,1.2,1.1l0,0
							c0.7,0,1.3-0.6,1.4-1.3l0.9-5.4l3.9-12.2L433.6,307.6z"/>
					</g>
				</g>
			</g>
		</g>
		<g>
			<g>
				<g>
					<g>
						<path class="st23" d="M430.9,304.4c-1.6,1.7-4.2,5.2-5.7,9.2c-1,2.8-0.9,6.4-0.7,8.3c0.1,0.7,0.7,1.3,1.4,1.2l0,0
							c0.6,0,1.2-0.5,1.3-1.1l1-5.5l9.3-17.2C437.4,299.4,433.1,302,430.9,304.4z"/>
					</g>
				</g>
			</g>
		</g>
		<g>
			<g>
				<g>
					<g>
						<path class="st23" d="M435.9,307.8c0,0-6.1,3.6-4,11.1c0.2,0.8,1,1.2,1.8,0.9c0,0,0.9-0.5,1-1.6c0.1-1.7,0-3,3-7.1
							c1.4-1.8,4.8-4.4,6.5-6.3c3.6-3.9,2.7-5.1-0.2-9.6c-2.9-4.5-14.5-0.8-14.5-0.8l6.4,7.9L435.9,307.8z"/>
					</g>
				</g>
			</g>
		</g>
		<g>
			<g>
				<g>
					<g>
						<path d="M431.7,318.4c-0.1-0.7,0.1-1.2,0.5-1.3c0.4-0.1,0.8,0.4,0.9,1.1s-0.1,1.2-0.5,1.3
							C432.2,319.6,431.8,319.1,431.7,318.4z"/>
					</g>
				</g>
			</g>
		</g>
		<g>
			<g>
				<g>
					<g>
						<path d="M429.7,322.2c0-0.8,0.3-1.4,0.6-1.5c0.4,0,0.7,0.6,0.8,1.4c0,0.8-0.3,1.4-0.6,1.5C430,323.6,429.7,323,429.7,322.2z"
							/>
					</g>
				</g>
			</g>
		</g>
		<g>
			<g>
				<g>
					<g>
						<path d="M426.7,323.2c0-0.9,0.2-1.6,0.6-1.6s0.7,0.7,0.7,1.5c0,0.9-0.2,1.6-0.6,1.6C427,324.7,426.7,324.1,426.7,323.2z"/>
					</g>
				</g>
			</g>
		</g>
		<g>
			<g>
				<g>
					<g>
						<path d="M424.4,321.5c0-0.7,0.2-1.4,0.6-1.4s0.7,0.6,0.7,1.3c0,0.7-0.2,1.4-0.6,1.4C424.8,322.8,424.5,322.2,424.4,321.5z"/>
					</g>
				</g>
			</g>
		</g>
		<g>
			<path d="M329.5,382.4l27.9,22.7c0.9,0.7,1,1.9,0.3,2.8l0,0c-0.7,0.9-1.9,1-2.8,0.3L327,385.5c-0.9-0.7-1-1.9-0.3-2.8l0,0
				C327.4,381.9,328.6,381.7,329.5,382.4z"/>
		</g>
		<g>
			<path d="M339.5,380.6l5.4,3.4c0.3,0.2,0.5,0.6,0.3,1l-2.7,7.4c-0.2,0.5-0.9,0.7-1.3,0.4l-7.4-5.9c-0.4-0.3-0.4-0.9-0.1-1.2l4.7-5
				C338.7,380.4,339.2,380.4,339.5,380.6z"/>
		</g>
		<g>
			<path d="M365.2,396.8l-16.3,1.3c-0.5,0-0.7,0.6-0.3,0.9l2.7,2.6c0.1,0.1,0.3,0.2,0.4,0.2l12-0.9c0.2,0,0.4-0.1,0.4-0.3l1.6-3.1
				C365.9,397.2,365.6,396.8,365.2,396.8z"/>
		</g>
		<g>
			<path class="st24" d="M432.6,320.3L432.6,320.3c-0.4,0-1-0.3-1.3-1.3c-0.8-2.6,0.3-8.3,3.4-10.6c0.1-0.1,0.4-0.1,0.5,0.1
				s0.1,0.4-0.1,0.5c-3.1,2.3-3.8,7.7-3.1,9.8c0.1,0.3,0.3,0.8,0.6,0.8c0.2,0,0.3,0.2,0.3,0.4C432.9,320.2,432.7,320.3,432.6,320.3z
				"/>
		</g>
		<g>
			<path class="st24" d="M429.2,321.4c-0.2,0-0.3-0.1-0.3-0.3c0-0.4-0.7-9.7,4-13.6c0.1-0.1,0.4-0.1,0.5,0s0.1,0.4,0,0.5
				c-4.5,3.6-3.8,12.9-3.8,13C429.6,321.2,429.4,321.4,429.2,321.4L429.2,321.4z"/>
		</g>
		<g>
			<path class="st24" d="M426.2,323.1c-0.2,0-0.3-0.1-0.3-0.3c0-0.4-0.7-9.9,3.5-15.5c0.1-0.1,0.3-0.2,0.5-0.1s0.2,0.3,0.1,0.5
				c-4.1,5.4-3.4,15-3.4,15C426.5,322.9,426.4,323.1,426.2,323.1L426.2,323.1z"/>
		</g>
	</g>
</g>
<g>
	<g>
		<path class="st18" d="M267.9,164.5c-0.6,0.2-1.2,0.1-1.7-0.2c-1.1-0.6-1.5-2-0.8-3l1-1.9c0.6-1.1,2-1.5,3-0.9c1.1,0.6,1.5,2,0.9,3
			l-1.1,1.9C268.9,164,268.5,164.4,267.9,164.5z"/>
	</g>
	<g>
		<g>
			<polygon class="st9" points="243,203.5 272.6,215.5 310.5,121.8 309.7,119.3 281,109.8 242.2,201 			"/>
		</g>
		<g>
			
				<rect x="225.4" y="144.2" transform="matrix(0.3754 -0.9269 0.9269 0.3754 23.8986 355.8238)" class="st3" width="101.1" height="31.9"/>
		</g>
		<g>
			<path class="st27" d="M297.7,121.8c-0.8,2,0.2,4.3,2.2,5.2c2,0.8,4.3-0.2,5.2-2.2c0.8-2-0.2-4.3-2.2-5.2
				C300.8,118.8,298.5,119.8,297.7,121.8z"/>
		</g>
		<g>
			<path class="st17" d="M302.8,128.1c-1.1,0.3-2.2,0.3-3.3-0.2c-1.2-0.5-2.2-1.5-2.7-2.7s-0.5-2.6,0-3.8l0,0c1-2.5,3.9-3.8,6.5-2.8
				c1.2,0.5,2.2,1.5,2.7,2.7s0.5,2.6,0,3.8c-0.5,1.2-1.5,2.2-2.7,2.7C303.1,128,303,128,302.8,128.1z M298.7,122.2
				c-0.3,0.7-0.3,1.5,0,2.2s0.9,1.3,1.6,1.6c0.7,0.3,1.5,0.3,2.2,0s1.3-0.9,1.6-1.6c0.3-0.7,0.3-1.5,0-2.2s-0.9-1.3-1.6-1.6
				C301,120,299.3,120.7,298.7,122.2L298.7,122.2z"/>
		</g>
		<g>
			<g>
				
					<rect x="277.3" y="123.1" transform="matrix(0.3754 -0.9269 0.9269 0.3754 51.4006 350.0663)" class="st16" width="16.2" height="27.5"/>
			</g>
			<g>
				<path class="st28" d="M293.8,151.6c-0.1,0-0.2,0-0.4,0l-15.4-6.2c-0.3-0.1-0.4-0.4-0.3-0.7s0.4-0.4,0.7-0.3l15.4,6.2
					c0.3,0.1,0.4,0.4,0.3,0.7C294.1,151.4,293.9,151.5,293.8,151.6z"/>
			</g>
		</g>
		<g>
			<g>
				
					<rect x="269.5" y="142.4" transform="matrix(0.3754 -0.9269 0.9269 0.3754 28.6847 354.8582)" class="st10" width="16.2" height="27.5"/>
			</g>
			<g>
				<path class="st28" d="M286,170.8c-0.1,0-0.2,0-0.4,0l-15.4-6.2c-0.3-0.1-0.4-0.4-0.3-0.7s0.4-0.4,0.7-0.3l15.4,6.2
					c0.3,0.1,0.4,0.4,0.3,0.7C286.2,170.7,286.1,170.8,286,170.8z"/>
			</g>
		</g>
		<g>
			<g>
				
					<rect x="261.7" y="161.6" transform="matrix(0.3754 -0.9269 0.9269 0.3754 5.9706 359.6508)" class="st17" width="16.2" height="27.5"/>
			</g>
			<g>
				<path class="st28" d="M278.2,190.1c-0.1,0-0.2,0-0.4,0l-15.4-6.2c-0.3-0.1-0.4-0.4-0.3-0.7s0.4-0.4,0.7-0.3l15.4,6.2
					c0.3,0.1,0.4,0.4,0.3,0.7C278.4,190,278.3,190.1,278.2,190.1z"/>
			</g>
		</g>
		<g>
			<g>
				
					<rect x="253.9" y="180.9" transform="matrix(0.3754 -0.9269 0.9269 0.3754 -16.7466 364.4422)" class="st15" width="16.2" height="27.5"/>
			</g>
			<g>
				<path class="st28" d="M270.4,209.4c-0.1,0-0.2,0-0.4,0l-15.4-6.2c-0.3-0.1-0.4-0.4-0.3-0.7c0.1-0.3,0.4-0.4,0.7-0.3l15.4,6.2
					c0.3,0.1,0.4,0.4,0.3,0.7C270.6,209.2,270.5,209.3,270.4,209.4z"/>
			</g>
		</g>
	</g>
</g>
<g>
	<g>
		
			<ellipse transform="matrix(0.6753 -0.7375 0.7375 0.6753 -141.5916 248.2711)" class="st29" cx="211.2" cy="285" rx="17.5" ry="20.9"/>
	</g>
	<g>
		<polygon class="st16" points="262.4,318.4 227,266.1 210.1,318.4 		"/>
	</g>
	<g>
		<path class="st10" d="M230.3,285c-0.8-4.3-2.8-8.2-5.8-11.4l-9.9,30.5C225.2,304.1,232.2,295.5,230.3,285z"/>
	</g>
	<g>
		<polygon class="st30" points="190.4,263.9 188.6,266.1 186,263.9 187.8,261.6 		"/>
	</g>
	<g>
		<polygon class="st30" points="194.1,284.9 192.3,287.1 189.7,284.9 191.5,282.7 		"/>
	</g>
	<g>
		<polygon class="st30" points="197.8,305.9 196,308.2 193.4,305.9 195.2,303.7 		"/>
	</g>
	<g>
		<path class="st30" d="M195.5,305.4c-0.3,0-0.6-0.2-0.6-0.5l-7-39.5c-0.1-0.3,0.2-0.7,0.5-0.7c0.3-0.1,0.7,0.2,0.7,0.5l7,39.5
			C196.2,305,195.9,305.4,195.5,305.4C195.6,305.4,195.5,305.4,195.5,305.4z"/>
	</g>
	<g>
		<g>
			<g>
				<g>
					<polygon class="st29" points="260.4,272.2 252,272.2 250.5,263.8 258.9,263.8 					"/>
				</g>
				<g>
					<polygon class="st16" points="270.3,272.2 261.9,272.2 260.4,263.8 268.8,263.8 					"/>
				</g>
			</g>
			<g>
				<g>
					<polygon class="st16" points="262.2,282.5 253.8,282.5 252.3,274.1 260.7,274.1 					"/>
				</g>
				<g>
					<polygon class="st29" points="272.1,282.5 263.7,282.5 262.2,274.1 270.6,274.1 					"/>
				</g>
			</g>
			<g>
				<g>
					<polygon class="st29" points="264,292.7 255.6,292.7 254.1,284.3 262.5,284.3 					"/>
				</g>
				<g>
					<polygon class="st16" points="273.9,292.7 265.5,292.7 264,284.3 272.4,284.3 					"/>
				</g>
			</g>
		</g>
	</g>
	<g>
		<polygon class="st31" points="276.4,297.6 254.4,297.6 253.8,294.6 275.8,294.6 		"/>
	</g>
</g>
<path class="st10" d="M201.9,320.5"/>
<path class="st32" d="M91.6,312.5c3.4,0,6.8-0.1,10.2-0.1c0,0.4,0,0.9,0,1.6c0,5.7,0.2,8.6-1,9.9c-2.5,2.6-7.1,3.4-9.3,1.4
	c-1.4-1.3-1.4-3.5-1.4-6C90.2,316.3,91,313.9,91.6,312.5z"/>
<path class="st32" d="M98,330c3,1.1,7.2,2.3,12.3,2.7c4,0.3,7.5,0,10.2-0.4"/>
<path class="st32" d="M116.3,276.8c-0.2,2.5-0.4,5.1-0.6,7.6"/>
</svg>
