<svg xmlns="http://www.w3.org/2000/svg" xmlns:xlink="http://www.w3.org/1999/xlink" viewBox="0 0 1595.96 200"><defs><style>.cls-1,.cls-2{fill:none;}.cls-2{clip-rule:evenodd;}.cls-3,.cls-6{fill:#fff;}.cls-4{fill:#383838;}.cls-13,.cls-14,.cls-4,.cls-5,.cls-6{fill-rule:evenodd;}.cls-5{fill:#b0b0b0;}.cls-7{fill:#5a5a5a;}.cls-8{fill:#3a3a3a;}.cls-9{fill:url(#linear-gradient);}.cls-10{fill:#9e9e9e;}.cls-11{fill:#353535;}.cls-12{clip-path:url(#clip-path);}.cls-13{fill:#505050;}.cls-14{fill:#5c5c5c;}.cls-15{isolation:isolate;opacity:0.5;}.cls-16{clip-path:url(#clip-path-2);}.cls-17{clip-path:url(#clip-path-3);}.cls-18{fill:url(#linear-gradient-2);}.cls-19{fill:#313131;}</style><linearGradient id="linear-gradient" x1="349.16" y1="73.12" x2="419.58" y2="73.12" gradientUnits="userSpaceOnUse"><stop offset="0" stop-color="#606060"/><stop offset="1" stop-color="#515151"/></linearGradient><clipPath id="clip-path"><rect class="cls-1" x="1100.65" y="55.94" width="79.76" height="79.76"/></clipPath><clipPath id="clip-path-2"><rect class="cls-1" x="1105.69" y="59.1" width="62.45" height="62.45"/></clipPath><clipPath id="clip-path-3"><path class="cls-2" d="M1136.92,59.1a31.23,31.23,0,1,1-31.23,31.23,31.23,31.23,0,0,1,31.23-31.23"/></clipPath><linearGradient id="linear-gradient-2" x1="299.55" y1="272.28" x2="300.21" y2="272.28" gradientTransform="translate(15803.13 -16075.04) rotate(90) scale(53.86)" gradientUnits="userSpaceOnUse"><stop offset="0" stop-color="#fff"/><stop offset="1" stop-color="#5c5c5c"/></linearGradient></defs><g id="Layer_2" data-name="Layer 2"><g id="Layer_1-2" data-name="Layer 1"><rect class="cls-3" width="1595.96" height="200"/><path class="cls-4" d="M138.58,59.93c38.43,0,69.76,17.14,69.76,38.16S177,136.26,138.58,136.26,68.83,119.11,68.83,98.09s31.33-38.16,69.75-38.16"/><path class="cls-5" d="M138.43,62.75c36.88,0,67,15.88,67,35.36s-30.08,35.36-67,35.36-67-15.89-67-35.36,30.08-35.36,67-35.36"/><path class="cls-4" d="M138.58,67.73c33.81,0,61.38,13.64,61.38,30.36s-27.57,30.37-61.38,30.37S77.21,114.82,77.21,98.09s27.57-30.36,61.37-30.36"/><path class="cls-6" d="M162,101.23a6.09,6.09,0,0,0,.48,2.48,3.52,3.52,0,0,0,1.28,1.54,3.15,3.15,0,0,0,1.75.49,5.84,5.84,0,0,0,1.73-.51c2.31-.74,3.68-1.79,6-3.16-.46.52-5.05,5-5.51,5.36a5.27,5.27,0,0,1-1.52.8,5.87,5.87,0,0,1-1.81.29A5.48,5.48,0,0,1,162,108a5.86,5.86,0,0,1-1.94-1.54,7,7,0,0,1-1.25-2.37,9.78,9.78,0,0,1-.46-2.93,7.72,7.72,0,0,1,1.6-5.26A5.6,5.6,0,0,1,164.34,94a6.05,6.05,0,0,1,2.65.51,7.28,7.28,0,0,1,2.11,1.62L169,90.8a2.58,2.58,0,0,1,.43-1.67,1.54,1.54,0,0,1,1.26-.58,1.55,1.55,0,0,1,1.27.51,2.25,2.25,0,0,1,.47,1.51l.1,10.24c-.17,1.86-3.65,2.68-3.45,2s-.14-1-.15-1.68a5.91,5.91,0,0,0-.5-2.45,3.82,3.82,0,0,0-1.3-1.56,3,3,0,0,0-1.76-.52,2.91,2.91,0,0,0-1.77.58,3.64,3.64,0,0,0-1.21,1.61,6.31,6.31,0,0,0-.39,2.42"/><path class="cls-6" d="M169.33,107.06l-.05-.12c.65-1,2.59-2.76,3.35-2.34l0,1.78a2.18,2.18,0,0,1-.46,1.54,1.73,1.73,0,0,1-2.46,0c-.33-.36-.4-.21-.4-.87"/><path class="cls-6" d="M147.24,96.13v.44a6.28,6.28,0,0,1,2.07-1.86,5.84,5.84,0,0,1,2.61-.62,5.37,5.37,0,0,1,2.56.59,4,4,0,0,1,1.71,1.73,3.92,3.92,0,0,1,.47,1.41,13.88,13.88,0,0,1,.14,1.94l.07,6.67a2.27,2.27,0,0,1-.48,1.63,1.6,1.6,0,0,1-1.28.56,1.65,1.65,0,0,1-1.32-.55,2.33,2.33,0,0,1-.53-1.6l-.07-6a6.19,6.19,0,0,0-.52-2.71,2,2,0,0,0-2-.91,3,3,0,0,0-1.76.59,3.24,3.24,0,0,0-1.15,1.59,10.79,10.79,0,0,0-.24,3l.06,4.49a2.31,2.31,0,0,1-.49,1.65,1.69,1.69,0,0,1-1.31.55,1.65,1.65,0,0,1-1.3-.54,2.37,2.37,0,0,1-.52-1.61l-.12-10.35a2.21,2.21,0,0,1,.43-1.54,1.59,1.59,0,0,1,1.23-.53,1.77,1.77,0,0,1,.86.22,1.58,1.58,0,0,1,.63.67,2.49,2.49,0,0,1,.25,1.08"/><path class="cls-6" d="M132,113.05l1.56,0a1,1,0,0,0-.24-.65.74.74,0,0,0-.55-.21.7.7,0,0,0-.52.23,1.08,1.08,0,0,0-.25.65m1.69.46-1.68,0a1,1,0,0,0,.13.51.64.64,0,0,0,.31.32.74.74,0,0,0,.42.12,1.08,1.08,0,0,0,.27,0,.8.8,0,0,0,.25-.11l.22-.16.26-.24a.24.24,0,0,1,.18-.06.28.28,0,0,1,.22.07.27.27,0,0,1,.09.2.6.6,0,0,1-.1.27.93.93,0,0,1-.27.3,1.58,1.58,0,0,1-.45.23,2.09,2.09,0,0,1-.64.11,1.74,1.74,0,0,1-1.3-.46,1.71,1.71,0,0,1-.47-1.25,2.57,2.57,0,0,1,.1-.7,1.58,1.58,0,0,1,.33-.55,1.45,1.45,0,0,1,.53-.37,1.94,1.94,0,0,1,.7-.13,1.7,1.7,0,0,1,.87.2,1.43,1.43,0,0,1,.55.54,1.38,1.38,0,0,1,.18.68.4.4,0,0,1-.18.41,1.07,1.07,0,0,1-.52.1"/><path class="cls-6" d="M140.66,113.73v.7a.55.55,0,0,1-.12.39.38.38,0,0,1-.3.13.33.33,0,0,1-.31-.13.49.49,0,0,1-.13-.38l0-2.36c0-.38.13-.57.41-.58a.36.36,0,0,1,.31.13.8.8,0,0,1,.11.4,1.57,1.57,0,0,1,.31-.41.69.69,0,0,1,.43-.13,1.08,1.08,0,0,1,.52.13.38.38,0,0,1,.26.35.33.33,0,0,1-.11.26.34.34,0,0,1-.23.1l-.22,0a1.16,1.16,0,0,0-.33-.06.49.49,0,0,0-.3.1.74.74,0,0,0-.19.3,1.82,1.82,0,0,0-.08.45c0,.18,0,.4,0,.66"/><path class="cls-6" d="M138.51,106.8a11.21,11.21,0,0,1-2.53,1.55,7.13,7.13,0,0,1-2.75.53,5.21,5.21,0,0,1-2.46-.51,4.05,4.05,0,0,1-1.65-1.46,3.83,3.83,0,0,1-.59-2,3.61,3.61,0,0,1,.91-2.52A4.7,4.7,0,0,1,132,101l1.71-.38c.91-.19,1.68-.37,2.33-.52s1.35-.37,2.12-.59a3.67,3.67,0,0,0-.62-2.08,2.54,2.54,0,0,0-2.11-.63,4.41,4.41,0,0,0-2.07.39,3.55,3.55,0,0,0-1.19,1.16,10.72,10.72,0,0,1-.69,1,1.18,1.18,0,0,1-.89.25,1.52,1.52,0,0,1-1.05-.37,1.25,1.25,0,0,1-.45-1,3,3,0,0,1,.65-1.85,4.91,4.91,0,0,1,2.09-1.5,9.6,9.6,0,0,1,3.57-.62,10,10,0,0,1,3.76.52,3.5,3.5,0,0,1,1.95,1.74,7.5,7.5,0,0,1,.61,3.2c0,.84,0,1.55,0,2.14s0,1.24,0,2a6.69,6.69,0,0,0,.37,2.1,7.33,7.33,0,0,1,.35,1.41,1.33,1.33,0,0,1-.52,1,1.86,1.86,0,0,1-1.17.45,1.59,1.59,0,0,1-1.12-.49,7.84,7.84,0,0,1-1.16-1.5m-.54-5.18a16,16,0,0,1-2.3.64c-1,.23-1.72.39-2.11.5a2.72,2.72,0,0,0-1.1.6,1.53,1.53,0,0,0-.52,1.23,1.84,1.84,0,0,0,.64,1.38,2.36,2.36,0,0,0,1.64.56,4.46,4.46,0,0,0,2-.49,3.27,3.27,0,0,0,1.32-1.22,5.42,5.42,0,0,0,.45-2.69Z"/><path class="cls-6" d="M122,103.85l0,3a2.27,2.27,0,0,1-.5,1.65,1.75,1.75,0,0,1-1.3.55,1.62,1.62,0,0,1-1.3-.54,2.31,2.31,0,0,1-.52-1.62l-.12-10c0-1.62.56-2.43,1.74-2.44a1.46,1.46,0,0,1,1.3.55,3.06,3.06,0,0,1,.47,1.66A6,6,0,0,1,123.08,95a2.8,2.8,0,0,1,1.82-.59,4.78,4.78,0,0,1,2.22.54,1.68,1.68,0,0,1,1.09,1.5,1.35,1.35,0,0,1-.45,1.07,1.41,1.41,0,0,1-1,.45,5,5,0,0,1-1-.23,4.33,4.33,0,0,0-1.35-.23,2,2,0,0,0-1.3.43,2.54,2.54,0,0,0-.77,1.24,8.63,8.63,0,0,0-.36,1.93c-.06.75-.09,1.67-.08,2.75"/><path class="cls-6" d="M125.84,114.07a.67.67,0,0,1-.09.34,1.15,1.15,0,0,1-.29.35,1.51,1.51,0,0,1-.49.26,2,2,0,0,1-.67.11,1.65,1.65,0,0,1-1.25-.44,1.73,1.73,0,0,1-.46-1.23,2.07,2.07,0,0,1,.19-.92,1.39,1.39,0,0,1,.59-.63,1.77,1.77,0,0,1,.92-.23,1.7,1.7,0,0,1,.61.09,1.54,1.54,0,0,1,.48.24,1.07,1.07,0,0,1,.29.32.68.68,0,0,1,.11.32.35.35,0,0,1-.11.27.41.41,0,0,1-.27.1.24.24,0,0,1-.18,0,.58.58,0,0,1-.16-.18,1.22,1.22,0,0,0-.34-.34.73.73,0,0,0-.43-.12.74.74,0,0,0-.61.3,1.2,1.2,0,0,0-.22.81,1.56,1.56,0,0,0,.06.44,1,1,0,0,0,.18.34.79.79,0,0,0,.27.21.81.81,0,0,0,.35.07.72.72,0,0,0,.44-.13,1,1,0,0,0,.32-.36,1.05,1.05,0,0,1,.17-.22.36.36,0,0,1,.22-.09.34.34,0,0,1,.27.12.36.36,0,0,1,.1.25m23.88-.74-1.68,0a1.07,1.07,0,0,0,.12.51.8.8,0,0,0,.31.32.7.7,0,0,0,.42.11.82.82,0,0,0,.28,0,.64.64,0,0,0,.25-.12,1.12,1.12,0,0,0,.22-.16l.26-.23a.25.25,0,0,1,.18-.07.38.38,0,0,1,.22.07.28.28,0,0,1,.08.2.71.71,0,0,1-.08.28,1.27,1.27,0,0,1-.28.29,1.33,1.33,0,0,1-.46.24,1.74,1.74,0,0,1-.63.1,1.6,1.6,0,0,1-1.77-1.71,2,2,0,0,1,.11-.7,1.44,1.44,0,0,1,.85-.91,1.94,1.94,0,0,1,.7-.14,1.8,1.8,0,0,1,.87.2,1.4,1.4,0,0,1,.54.54,1.43,1.43,0,0,1,.19.68.45.45,0,0,1-.18.42,1.2,1.2,0,0,1-.52.1m-1.69-.47,1.56,0a1.11,1.11,0,0,0-.24-.64.73.73,0,0,0-.55-.21.69.69,0,0,0-.53.22,1.17,1.17,0,0,0-.24.65m10,1.41a2.58,2.58,0,0,1-.6.36,1.51,1.51,0,0,1-.65.13,1.31,1.31,0,0,1-.58-.12.9.9,0,0,1-.53-.82.82.82,0,0,1,.21-.6,1.18,1.18,0,0,1,.61-.34l.41-.09.55-.12.5-.14a.89.89,0,0,0-.14-.49.65.65,0,0,0-.5-.15.94.94,0,0,0-.5.1.8.8,0,0,0-.28.27,2.37,2.37,0,0,1-.16.24s-.1.06-.21.06a.37.37,0,0,1-.25-.09.3.3,0,0,1-.11-.23.7.7,0,0,1,.16-.44,1.2,1.2,0,0,1,.49-.36,2.32,2.32,0,0,1,.85-.14,2.22,2.22,0,0,1,.89.12.83.83,0,0,1,.46.42,1.73,1.73,0,0,1,.14.75c0,.2,0,.37,0,.51v.46a1.8,1.8,0,0,0,.08.5,1.36,1.36,0,0,1,.09.33.31.31,0,0,1-.12.24.4.4,0,0,1-.55,0,2.4,2.4,0,0,1-.27-.36M158,113a3.19,3.19,0,0,1-.54.15l-.5.12a.73.73,0,0,0-.26.14.38.38,0,0,0-.12.29.43.43,0,0,0,.15.33.51.51,0,0,0,.38.13,1,1,0,0,0,.47-.11.76.76,0,0,0,.32-.29,1.41,1.41,0,0,0,.11-.64Zm6.43,1.12,0-3.68a.48.48,0,0,1,.11-.38.39.39,0,0,1,.31-.15.42.42,0,0,1,.31.13.55.55,0,0,1,.12.39l.05,3.68a.52.52,0,0,1-.12.38.37.37,0,0,1-.31.14.39.39,0,0,1-.31-.13.56.56,0,0,1-.12-.38m9.2-.7a1,1,0,0,1-.17.6,1,1,0,0,1-.5.39,2.49,2.49,0,0,1-.83.13,2.12,2.12,0,0,1-.79-.12,1.26,1.26,0,0,1-.49-.35.67.67,0,0,1-.16-.42.28.28,0,0,1,.09-.24.34.34,0,0,1,.26-.1.33.33,0,0,1,.21.06.94.94,0,0,1,.14.18.81.81,0,0,0,.32.34,1,1,0,0,0,.5.11.87.87,0,0,0,.42-.12.33.33,0,0,0,.16-.27.34.34,0,0,0-.17-.32,2.19,2.19,0,0,0-.57-.19,4.29,4.29,0,0,1-.72-.21,1.3,1.3,0,0,1-.45-.32.73.73,0,0,1-.18-.48.85.85,0,0,1,.15-.48,1.07,1.07,0,0,1,.46-.37,1.83,1.83,0,0,1,.72-.15,2.74,2.74,0,0,1,.6.07,1.19,1.19,0,0,1,.44.18,1,1,0,0,1,.28.25.48.48,0,0,1,.09.27.32.32,0,0,1-.09.24.43.43,0,0,1-.51,0,2.54,2.54,0,0,1-.22-.23.71.71,0,0,0-.23-.19.61.61,0,0,0-.35-.07.67.67,0,0,0-.39.1.3.3,0,0,0-.15.25.26.26,0,0,0,.11.21.81.81,0,0,0,.31.14l.53.13a3.27,3.27,0,0,1,.65.22,1.16,1.16,0,0,1,.39.31.71.71,0,0,1,.14.42"/><path class="cls-6" d="M173.71,83.13c5.22,3.43,8.28,9,5.31,14-2.44,4.11-9.24,7-11.57,8.52.54.63,20.06-10.08,6.26-22.5"/><path class="cls-5" d="M174.86,84.06c-9.74-6.94-21.51-2.83-32.09,2.21-6,2.83-14.39,7.2-23.67,3.84,15.5,11.44,45-14.87,55.76-6"/><path class="cls-6" d="M116.76,102.68l0,4.76a5.34,5.34,0,0,1-.16,1.53,2.44,2.44,0,0,1-.63,1,7.8,7.8,0,0,1-1.2.9,17.88,17.88,0,0,1-4.1,1.82,15.22,15.22,0,0,1-4.29.61,13.85,13.85,0,0,1-5-.81A10.24,10.24,0,0,1,97.65,110a10.93,10.93,0,0,1-2.46-4,16,16,0,0,1-.9-5.33A16.36,16.36,0,0,1,95,95.33a11,11,0,0,1,2.37-4.12,10.55,10.55,0,0,1,3.83-2.62,14.17,14.17,0,0,1,5.17-.94,11.84,11.84,0,0,1,4.21.62,8.76,8.76,0,0,1,3,1.65,7.43,7.43,0,0,1,1.75,2.13,4.46,4.46,0,0,1,.6,2,2.26,2.26,0,0,1-.65,1.63,2.16,2.16,0,0,1-1.59.69,2,2,0,0,1-1-.24,2.33,2.33,0,0,1-.79-.71,20.89,20.89,0,0,0-1.52-2.18A4.71,4.71,0,0,0,108.74,92a5.8,5.8,0,0,0-2.65-.47,7,7,0,0,0-2.94.62,6.34,6.34,0,0,0-2.22,1.78,8.58,8.58,0,0,0-1.38,2.81,13.84,13.84,0,0,0-.43,3.69c0,2.91.68,5.17,2,6.71a6.4,6.4,0,0,0,5.33,2.29,10.12,10.12,0,0,0,3.1-.5,14.55,14.55,0,0,0,2.92-1.34l0-4-3.68.05a3.74,3.74,0,0,1-2-.41,1.54,1.54,0,0,1-.7-1.43,1.85,1.85,0,0,1,.54-1.38,2.19,2.19,0,0,1,1.55-.56l5.42-.07a6.86,6.86,0,0,1,1.68.18,1.79,1.79,0,0,1,1.12.82,3.42,3.42,0,0,1,.45,1.91"/><path class="cls-7" d="M462.26,52.34c10.31,0,18.22,8.12,18.22,18.7s-7.91,18.7-18.22,18.7S444,81.62,444,71s7.91-18.7,18.22-18.7m0,32.54c7.44,0,13-5.89,13-13.8s-5.56-13.75-13-13.75-13,6-13,13.8,5.58,13.75,13,13.75"/><rect class="cls-7" x="484.64" y="52.34" width="4.94" height="36.97"/><rect class="cls-7" x="495.34" y="52.34" width="4.94" height="36.97"/><path class="cls-7" d="M524.38,87.07a11.16,11.16,0,0,1-7.54,2.75,12.6,12.6,0,0,1-6.15-1.61,12.78,12.78,0,0,1-6.24-11.14,13,13,0,0,1,6.29-11.2,11.66,11.66,0,0,1,6-1.56,11.45,11.45,0,0,1,7.65,2.76V64.83h4.8V89.3h-4.8Zm-.14-14.59a8.82,8.82,0,0,0-7-3.48,7.84,7.84,0,0,0-7.86,7.82V77a8,8,0,0,0,8,8h.11a8.5,8.5,0,0,0,6.68-3.49Z"/><path class="cls-8" d="M447.38,124.13a11.6,11.6,0,0,0,8.91,4.69c3.38,0,6.34-2.19,6.34-5.46,0-5.57-7.69-6.2-12.54-9.35a9.26,9.26,0,0,1-4.64-8c0-5.34,4.69-9.69,11-9.69a15,15,0,0,1,9.78,3.56l-3.08,3.81a10,10,0,0,0-6.5-2.52c-3,0-6,1.73-6,4.91,0,4.63,7.76,5.62,12.44,8.75a9.57,9.57,0,0,1,4.74,8.32c0,6.4-4.94,10.57-11.3,10.57a16.34,16.34,0,0,1-12.76-6.09Z"/><polygon class="cls-8" points="470.53 145.68 477.14 130.63 466.68 108.7 472 108.7 479.65 124.85 486.68 108.7 491.88 108.7 475.79 145.68 470.53 145.68"/><path class="cls-8" d="M494.54,126.67a11.85,11.85,0,0,0,7.23,2.67c2.13,0,4.27-1.15,4.27-3.07,0-2.82-4-3-7.65-4.17-3-1-5.63-2.86-5.63-6.3,0-5.25,4.69-7.65,9.06-7.65a12.42,12.42,0,0,1,8.12,2.68l-2.55,3.54a8.68,8.68,0,0,0-5.25-1.93c-2.41,0-4.44,1.15-4.44,3.08,0,1.67,1.94,2.24,4.39,2.85,3.84,1,8.89,2.68,8.89,7.77,0,4.63-4.31,7.49-9.11,7.49a15.16,15.16,0,0,1-9.88-3.38Z"/><path class="cls-8" d="M531.12,133.18a13.2,13.2,0,0,1-3.85.52,8.82,8.82,0,0,1-6.92-2.89,9.34,9.34,0,0,1-2-6.48V113.14h-6.24V108.7h6.24v-6.76h5v6.76h7.8v4.44h-7.81v11.45a4.71,4.71,0,0,0,.72,3.12,4.56,4.56,0,0,0,3.39,1.34,11.4,11.4,0,0,0,2.67-.31Z"/><path class="cls-8" d="M537.37,122a7.89,7.89,0,0,0,7.92,7.4,8.78,8.78,0,0,0,7-3.34l3.22,3.08a12.78,12.78,0,0,1-10.3,4.58,12.41,12.41,0,0,1-12.65-12.19,5.42,5.42,0,0,1,0-.57c0-7.33,5-12.75,11.91-12.75s11.77,5.52,11.77,12.75a6,6,0,0,1,0,1Zm.41-4.15h13.36a6.82,6.82,0,0,0-6.45-5.35,7.13,7.13,0,0,0-6.88,5.35"/><path class="cls-8" d="M565.23,108.72v2.33a10.72,10.72,0,0,1,7.17-2.86,11.07,11.07,0,0,1,8.64,4,12.31,12.31,0,0,1,9.36-4,11,11,0,0,1,8.69,4.12c1.51,1.87,2.24,4.26,2.24,8.38v12.49h-5V119.9A6.92,6.92,0,0,0,595,115a6,6,0,0,0-4.58-2.14,10.08,10.08,0,0,0-7.45,3.49,20.25,20.25,0,0,1,.42,4.33v12.49h-4.94V119.9A6.89,6.89,0,0,0,577,115a6.22,6.22,0,0,0-4.73-2.14,9.36,9.36,0,0,0-6.88,3.49v16.82h-4.94V108.72Z"/><path class="cls-8" d="M607.22,126.67a11.85,11.85,0,0,0,7.23,2.67c2.13,0,4.27-1.15,4.27-3.07,0-2.82-4-3-7.66-4.17-3-1-5.62-2.86-5.62-6.3,0-5.25,4.69-7.65,9.06-7.65a12.44,12.44,0,0,1,8.12,2.68l-2.55,3.54a8.68,8.68,0,0,0-5.25-1.93c-2.41,0-4.44,1.15-4.44,3.08,0,1.67,1.94,2.24,4.39,2.85,3.84,1,8.89,2.68,8.89,7.77,0,4.63-4.31,7.49-9.11,7.49a15.21,15.21,0,0,1-9.89-3.38Z"/><path class="cls-9" d="M384.06,50.66a41.25,41.25,0,0,0-40.83,37.59c-.1,1.2-.16,2.43-.16,3.66V92a28.11,28.11,0,0,0,.16,3.56h25.39a18.75,18.75,0,0,1,0-7.32A15.83,15.83,0,0,1,372.89,80,16,16,0,0,1,395.57,80l.21.22a15.9,15.9,0,0,1,3.59,5.61h8a19.13,19.13,0,0,0-1-3.06,24.87,24.87,0,0,0-12.94-13.11,23,23,0,0,0-9.05-1.76,23.86,23.86,0,0,0-23.7,20.4H350.57a33.91,33.91,0,0,1,57.71-20.32l5.22-5.17a41.14,41.14,0,0,0-28.92-12.1Z"/><path class="cls-8" d="M425.43,88.25H400a18,18,0,0,1,.38,3.74,18.74,18.74,0,0,1-.34,3.59,16,16,0,0,1-4.33,8.22,15.3,15.3,0,0,1-11.31,4.8,16.1,16.1,0,0,1-10.36-3.69,15.18,15.18,0,0,1-4.82-6.68h-8a21.88,21.88,0,0,0,.94,2.87,24.81,24.81,0,0,0,5.22,7.78,22.51,22.51,0,0,0,7.7,5.34,24.33,24.33,0,0,0,9.46,1.79,23.6,23.6,0,0,0,9.12-1.74,24.56,24.56,0,0,0,12.83-12.94A23.41,23.41,0,0,0,408,95.58h10.13a33.91,33.91,0,0,1-57.71,20.31l-5.18,5.18a41.25,41.25,0,0,0,70.19-25.49c.1-1.21.15-2.43.15-3.67a29.55,29.55,0,0,0-.15-3.66"/><path class="cls-10" d="M771.64,100.62c.13,0,.08-.15.08-.22A33.35,33.35,0,0,1,792.8,70.83l.25-.12c.11-1.55.07-3-1.14-4.23a4.18,4.18,0,0,0-3.82-1.24l-.23,0V61.18H799V76.34a26,26,0,0,0-17.46,14A25.23,25.23,0,0,0,779.62,108a26.14,26.14,0,1,0,50.24-14.35A25.75,25.75,0,0,0,823,82.81a26,26,0,0,0-11.24-6.27V61.19h11v4.07a7.44,7.44,0,0,0-1.49-.06,3.22,3.22,0,0,0-1.36.38,4.34,4.34,0,0,0-2.28,2.84,13.26,13.26,0,0,0-.09,2.52c.65.29,1.29.57,1.92.87a33.25,33.25,0,0,1,15.67,15.8,33.3,33.3,0,0,1,3.08,16.65,33.29,33.29,0,0,1-30,30.68c-.69.07-1.38.09-2.07.14-.07,0-.18-.06-.22.08h-2c0-.12-.09-.08-.16-.08l-1.66-.12a31.13,31.13,0,0,1-7.09-1.39,33.38,33.38,0,0,1-23.31-30.36c0-.07,0-.18-.08-.22Z"/><path class="cls-11" d="M942.21,94.5a8,8,0,0,0-4.93-6.64,12.48,12.48,0,0,0-5.2-.92H914.71a3.34,3.34,0,0,0-.45,0c-.42,0-.87.1-1.09.5-.58,1-.65,2.24.73,2.89a1.81,1.81,0,0,1,1.13,1.8c0,6.45,0,12.9,0,19.34a1.86,1.86,0,0,1-1.13,1.85,1.85,1.85,0,0,0-1,.93,2.42,2.42,0,0,0-.09.54,2.24,2.24,0,0,0,.12.87c.22.92.9,1,1.64,1,.11,0,.24,0,.36,0h10.8c.29,0,.59,0,.88,0a1.48,1.48,0,0,0,1.22-.43,1.83,1.83,0,0,0,.14-2.35,2,2,0,0,0-.77-.63,1.84,1.84,0,0,1-1.11-1.94V106a.62.62,0,0,1,0-.33,29.71,29.71,0,0,0,3-.31,26.26,26.26,0,0,0,10.17-3.42,5.74,5.74,0,0,0,2.66-3.3,9.14,9.14,0,0,0,.29-4.09m-11.56,3.32a3.46,3.46,0,0,1-1.68,2.1,21.15,21.15,0,0,1-2.29,1.26,2.67,2.67,0,0,1-.84.16V101c0-3,0-6.06,0-9.09,0-1.16.73-1.46,1.59-1.32a3.79,3.79,0,0,1,3.43,3.27,8.05,8.05,0,0,1-.2,3.93"/><path class="cls-11" d="M912.24,114.77a1.51,1.51,0,0,0-.17-.51,2.09,2.09,0,0,0-1-1,2,2,0,0,1-1-1c-.23-.47-.47-.94-.66-1.43-.75-1.82-1.35-3.7-2-5.56a146.47,146.47,0,0,0-5.53-13.65,20.26,20.26,0,0,0-1.93-3.43A3.61,3.61,0,0,0,897,86.61c-1,0-1.93.07-2.88.14a3.93,3.93,0,0,0-2.57,1.16,7.49,7.49,0,0,0-1.18,1.51A55.74,55.74,0,0,0,886.7,97c-1.06,2.63-2,5.31-3,8-.89,2.34-1.68,4.72-2.72,7a2.75,2.75,0,0,1-1.25,1.42,1.65,1.65,0,0,0-.9,2c.28,1,.63,1.3,1.74,1.31h.15c2.09,0,4.2,0,6.3,0a4.87,4.87,0,0,0,.66,0,1.1,1.1,0,0,0,.87-.43,1.88,1.88,0,0,0,0-2.39,2.07,2.07,0,0,0-.72-.56,1.9,1.9,0,0,1-1.12-2,15,15,0,0,1,1-3.63h9.5a31,31,0,0,1,.95,3.77,1.44,1.44,0,0,1-.84,1.73c-.24.14-.47.26-.68.41a1.61,1.61,0,0,0-.72,1.74,1.66,1.66,0,0,0,1.18,1.34,2.43,2.43,0,0,0,.81.09h12.29a1.9,1.9,0,0,0,1.89-1,1.69,1.69,0,0,0,.14-.9m-23.08-11.65a53.66,53.66,0,0,1,3.31-8.38,48,48,0,0,1,3.09,8.38Z"/><path class="cls-11" d="M859.19,102.34a9.32,9.32,0,0,0,.12,2.24,20.32,20.32,0,0,0,.86,2.91,7.21,7.21,0,0,0,5.52,4.71,8,8,0,0,0,4.52-.6,9.63,9.63,0,0,0,3.6-2.47,7.44,7.44,0,0,1,1.23-1.08,2,2,0,0,1,2.33-.21,2.32,2.32,0,0,1,1.07,2.27,4.34,4.34,0,0,1-1,2.23A8.32,8.32,0,0,1,876,113.9a15.86,15.86,0,0,1-7.41,3.21,19.73,19.73,0,0,1-8.21-.35c-5.37-1.46-9.47-4.56-11.43-9.92a13.57,13.57,0,0,1,3-14.83,24.78,24.78,0,0,1,2.78-2.54,12.62,12.62,0,0,1,6.62-2.72c1-.1,1.92-.31,2.89-.41a18.21,18.21,0,0,1,5.26.26,24.51,24.51,0,0,1,5.94,2.08,4.2,4.2,0,0,1,2.08,1.91.55.55,0,0,1,.1.22c.14,1.27.38,2.52.41,3.8a4.69,4.69,0,0,1-.13,1.18,1.55,1.55,0,0,1-1.3,1.28,3.31,3.31,0,0,1-2.89-.75,1.9,1.9,0,0,1-.58-.84c-.15-.43-.29-.86-.46-1.28a5.83,5.83,0,0,0-4-3.56,7,7,0,0,0-4,0,7.07,7.07,0,0,0-3.75,3.08,9.82,9.82,0,0,0-1.39,4.07,26.37,26.37,0,0,0-.24,4.57"/><path class="cls-10" d="M783.12,101.8A21.89,21.89,0,1,1,805,123.68a21.89,21.89,0,0,1-21.88-21.88m36.84,0a15,15,0,1,0-15,14.93,15,15,0,0,0,15-14.93"/><g class="cls-12"><path class="cls-13" d="M1140.53,55.94a39.88,39.88,0,1,1-39.88,39.88,39.88,39.88,0,0,1,39.88-39.88"/><path class="cls-14" d="M1140.53,57.9a37.92,37.92,0,1,1-37.92,37.92,37.92,37.92,0,0,1,37.92-37.92"/><g class="cls-15"><g class="cls-16"><g class="cls-17"><rect class="cls-18" x="1098.96" y="52.37" width="75.92" height="75.92" transform="translate(12.83 283.08) rotate(-14.27)"/></g></g></g><path class="cls-3" d="M1125.14,118.37a.83.83,0,0,1-.75-.3.32.32,0,0,1-.06-.18.27.27,0,0,1,.3-.3.49.49,0,0,1,.22.08l0,0a.64.64,0,0,0,.31.09c.12,0,.18,0,.18-.13s-.08-.12-.23-.18l-.12-.06a3.32,3.32,0,0,1-.38-.21.55.55,0,0,1-.25-.46.64.64,0,0,1,.25-.53.9.9,0,0,1,.57-.18,1.32,1.32,0,0,1,.39.06.65.65,0,0,1,.32.22.32.32,0,0,1,.06.18.27.27,0,0,1-.08.19.28.28,0,0,1-.2.08.66.66,0,0,1-.22-.06l0,0a.83.83,0,0,0-.27-.08q-.15,0-.15.12c0,.06,0,.1.12.13l.13.05.27.12a1,1,0,0,1,.34.24.51.51,0,0,1,.14.37.68.68,0,0,1-.28.55,1,1,0,0,1-.61.19m3.5-.51c0,.32-.11.48-.32.48s-.33-.16-.33-.48v-1.32c0-.31.11-.47.33-.47s.32.16.32.47Zm-.7-2.35a.36.36,0,0,1,.11-.27.37.37,0,0,1,.27-.11.36.36,0,0,1,.26.11.4.4,0,0,1,.11.27.37.37,0,0,1-.11.27.36.36,0,0,1-.26.11.41.41,0,0,1-.28-.11.36.36,0,0,1-.1-.27m2.81,2.35v-1.32c0-.31.11-.47.33-.47a.35.35,0,0,1,.31.2.78.78,0,0,1,.58-.2c.53,0,.8.28.8.85v.94q0,.48-.33.48t-.33-.48v-.74a1,1,0,0,0,0-.35.33.33,0,0,0-.3-.14c-.23,0-.35.16-.35.48v.75q0,.48-.33.48t-.33-.48m4-.66a1.16,1.16,0,0,1,.31-.84,1,1,0,0,1,.82-.33,1.11,1.11,0,0,1,.46.09.36.36,0,0,1,.27.34.3.3,0,0,1-.08.2.26.26,0,0,1-.19.08.68.68,0,0,1-.17,0h0a.6.6,0,0,0-.26,0,.39.39,0,0,0-.35.17.66.66,0,0,0-.11.38.67.67,0,0,0,.11.39.44.44,0,0,0,.37.16.78.78,0,0,0,.22,0l0,0a.5.5,0,0,1,.19,0,.19.19,0,0,1,.18.08.28.28,0,0,1,.08.2c0,.13-.1.24-.28.34a1.21,1.21,0,0,1-.5.09,1,1,0,0,1-.79-.33,1.22,1.22,0,0,1-.29-.83m4.33.19a.41.41,0,0,0,.16.29.52.52,0,0,0,.33.1,1,1,0,0,0,.4-.11l.07,0a.87.87,0,0,1,.23-.08.23.23,0,0,1,.26.26.34.34,0,0,1-.08.2.86.86,0,0,1-.41.27,1.69,1.69,0,0,1-.5.08,1.07,1.07,0,0,1-.81-.34,1.12,1.12,0,0,1-.32-.82,1.17,1.17,0,0,1,.31-.83,1.07,1.07,0,0,1,1.22-.26,1.16,1.16,0,0,1,.46.39.93.93,0,0,1,.18.55.29.29,0,0,1-.12.25.46.46,0,0,1-.27.08Zm0-.43h.86a.36.36,0,0,0-.13-.28.38.38,0,0,0-.29-.11.43.43,0,0,0-.29.1.51.51,0,0,0-.15.29m5.71.73h.35c.19,0,.29.1.29.31s-.1.31-.29.31h-1.41c-.2,0-.3-.1-.3-.31s.1-.31.3-.31h.37V116a1.67,1.67,0,0,1-.31,0,.22.22,0,0,1-.16-.24.22.22,0,0,1,.09-.17,1.19,1.19,0,0,1,.79-.21h.14a.22.22,0,0,1,.12.2v0s0,.13,0,.29Zm2.65-1a.75.75,0,0,1-.27-.59.76.76,0,0,1,.29-.61,1.08,1.08,0,0,1,1.32,0,.78.78,0,0,1,.29.62.74.74,0,0,1-.27.59.84.84,0,0,1,.4.74.88.88,0,0,1-.33.71,1.12,1.12,0,0,1-.75.26,1.16,1.16,0,0,1-.75-.26.9.9,0,0,1-.32-.71.83.83,0,0,1,.39-.74m.28.68a.44.44,0,0,0,.12.3.39.39,0,0,0,.28.13.39.39,0,0,0,.29-.13.46.46,0,0,0,0-.6.36.36,0,0,0-.29-.13.34.34,0,0,0-.28.13.41.41,0,0,0-.12.3m.1-1.21a.33.33,0,0,0,.09.22.29.29,0,0,0,.21.09.31.31,0,0,0,.22-.53.3.3,0,0,0-.22-.1.32.32,0,0,0-.22.1.33.33,0,0,0-.08.22m4.28-.19h-.91c-.27,0-.41-.1-.41-.31s.14-.31.41-.31h1.2c.33,0,.49.12.49.37a.69.69,0,0,1-.06.25l-1,2.11c-.1.22-.22.32-.35.32a.37.37,0,0,1-.25-.09.33.33,0,0,1-.1-.24.71.71,0,0,1,.09-.29Zm3.82.32a.41.41,0,0,0-.11-.28.36.36,0,0,0-.55,0,.41.41,0,0,0-.11.28.42.42,0,0,0,.11.29.38.38,0,0,0,.28.12.37.37,0,0,0,.27-.12.42.42,0,0,0,.11-.29m-.38.95h-.22a.8.8,0,0,1-.62-.29,1,1,0,0,1-.24-.65,1,1,0,0,1,.32-.76,1.1,1.1,0,0,1,.78-.3,1,1,0,0,1,.75.3,1,1,0,0,1,.29.77,2.62,2.62,0,0,1-.69,1.51q-.45.57-.66.57a.34.34,0,0,1-.23-.1.32.32,0,0,1-.1-.22.65.65,0,0,1,.2-.34q.15-.16.42-.51"/><path class="cls-3" d="M1106.57,98.18V89.3q0-4.83,3.33-4.83t3.34,4.83v7.52a7.44,7.44,0,0,0,.58,3.34,3.4,3.4,0,0,0,5.68,0,7.44,7.44,0,0,0,.58-3.34V89.3q0-4.83,3.34-4.83t3.29,4.83v8.88q0,4.78-2.61,7.29t-7.44,2.5q-4.82,0-7.46-2.5t-2.63-7.29M1136.76,96a6.56,6.56,0,0,0,1,3.72,3.81,3.81,0,0,0,3.3,1.73,3.69,3.69,0,0,0,3.25-1.73,6.7,6.7,0,0,0,1-3.72,6.5,6.5,0,0,0-1-3.68,3.7,3.7,0,0,0-3.25-1.69,3.78,3.78,0,0,0-3.26,1.69,6.29,6.29,0,0,0-1.07,3.68m8.82,9.33a6.86,6.86,0,0,1-5.6,2.52,9.06,9.06,0,0,1-7.42-3.71,12.75,12.75,0,0,1-2.68-8.06,12.52,12.52,0,0,1,2.74-8l.06-.09a9.26,9.26,0,0,1,7.54-3.71,6.65,6.65,0,0,1,5.36,2.39,3.51,3.51,0,0,1,3.17-2.1c2.2,0,3.29,1.61,3.29,4.83v13.42c0,3.25-1.09,4.88-3.29,4.88a3.3,3.3,0,0,1-3.17-2.32m9.84-9.25a12,12,0,0,1,3.13-8.57,10.88,10.88,0,0,1,8.32-3.33,12.43,12.43,0,0,1,4.74.83q2.72,1.16,2.72,3.47a2.87,2.87,0,0,1-.78,2,2.6,2.6,0,0,1-2,.82,5.62,5.62,0,0,1-2-.52,7,7,0,0,0-2.66-.51,4.06,4.06,0,0,0-3.5,1.73,6.65,6.65,0,0,0-1.11,3.93,6.28,6.28,0,0,0,1.15,4,4.49,4.49,0,0,0,3.71,1.65,6.67,6.67,0,0,0,2.51-.46l.09,0a5.4,5.4,0,0,1,2-.5,2.37,2.37,0,0,1,1.88.85,3,3,0,0,1,.72,2c0,1.35-.93,2.5-2.8,3.43a11.38,11.38,0,0,1-5,1,10.32,10.32,0,0,1-8-3.35l-.06-.07a12.09,12.09,0,0,1-3-8.39"/></g><path class="cls-19" d="M1456.26,65.66a.08.08,0,0,1,0-.16l.92-.23c2.85-.69,5.71-1.24,8.59-1.74s5.84-.88,8.78-1.16,6.09-.45,9.14-.49a76,76,0,0,1,17.92,1.68,36,36,0,0,1,9.71,3.52c4.54,2.55,8.16,7.24,7.69,12.66a16.34,16.34,0,0,1-3.39,8c-4.76,6.45-11.78,11.31-18.42,15.65a.08.08,0,0,1-.09-.13c8.32-6.33,12.78-13.48,11.56-20.22-2.34-12.93-24.83-20-52.38-17.37m41-7.17c5.67.23,11.44.8,16.68,3.11,4.31,1.9,8.16,5.44,9,10.25a18.67,18.67,0,0,1-1.08,9.86.08.08,0,0,0,.13.08l.54-.64c2.82-3.41,5.49-7.21,6.86-11.47a12.57,12.57,0,0,0,.48-6.87c-.9-3.46-4.2-5.19-7.42-6.1a29.32,29.32,0,0,0-3.94-.82,76.43,76.43,0,0,0-18,.07c-3.43.33-6.84.78-10.24,1.33q-3.21.51-6.39,1.15a.08.08,0,1,0,0,.15c4.42-.19,8.85-.28,13.27-.1M1376.7,98.29a11.46,11.46,0,0,0-10.62-15.77h-26.61V93h7.93V90.44h18.68a3.54,3.54,0,0,1,0,7.08h-26.61v7.92h33.1a3.54,3.54,0,0,1,0,7.08H1347.4V110h-7.93v10.5h33.1a11.46,11.46,0,0,0,4.13-22.16m63.36-7.85h47.44V82.52h-47.44Zm19.76,30h7.92V95h-7.92Zm-50.38-17,7.65-10.1,20.52,27.08h9.94l-30.46-40.21-30.46,40.21h9.94l6.86-9.06h21.67l-6-7.92Z"/><polygon class="cls-19" points="1383.22 140.47 1383.22 130.47 1390.42 137.93 1390.42 131 1391.64 131 1391.64 140.96 1384.43 133.54 1384.43 140.47 1383.22 140.47"/><rect class="cls-19" x="1396.03" y="131" width="1.22" height="9.46"/><path class="cls-19" d="M1410,136.15v3.24a4.88,4.88,0,0,1-.73.56,4.94,4.94,0,1,1,0-8.35v1.52a3.88,3.88,0,0,0-2.68-1.07,3.71,3.71,0,1,0,0,7.42,3.52,3.52,0,0,0,2.08-.61v-2.71Z"/><polygon class="cls-19" points="1414.2 131 1420.67 131 1420.67 132.17 1415.41 132.17 1415.41 134.92 1419.71 134.92 1419.71 136.09 1415.4 136.09 1415.4 139.28 1420.67 139.28 1420.67 140.47 1414.2 140.47 1414.2 131"/><path class="cls-19" d="M1430.19,140.45l-2.47-3.6h-1.59v3.62h-1.21V131h3.77a2.94,2.94,0,0,1,.49,5.81l2.48,3.64Zm-4.06-4.87h2.43a1.65,1.65,0,1,0,0-3.3h-2.43Z"/><rect class="cls-19" x="1436.04" y="131" width="1.22" height="9.46"/><path class="cls-19" d="M1448.43,138.26l-4.66,0-1,2.23h-1.33l4.71-10,4.7,10h-1.31Zm-4.12-1.17,3.59,0-1.8-3.9Z"/></g></g></svg>