<svg xmlns="http://www.w3.org/2000/svg" xmlns:xlink="http://www.w3.org/1999/xlink" viewBox="0 0 1481.53 96.84"><defs><style>.cls-1,.cls-2{fill:none;}.cls-2{clip-rule:evenodd;}.cls-3{clip-path:url(#clip-path);}.cls-4{fill:#383838;}.cls-14,.cls-15,.cls-4,.cls-5,.cls-6{fill-rule:evenodd;}.cls-5{fill:#b0b0b0;}.cls-20,.cls-6{fill:#fff;}.cls-7{fill:#5a5a5a;}.cls-8{fill:#3a3a3a;}.cls-9{fill:url(#linear-gradient);}.cls-10{clip-path:url(#clip-path-2);}.cls-11{fill:#9e9e9e;}.cls-12{fill:#353535;}.cls-13{clip-path:url(#clip-path-3);}.cls-14{fill:#505050;}.cls-15{fill:#5c5c5c;}.cls-16{isolation:isolate;opacity:0.5;}.cls-17{clip-path:url(#clip-path-5);}.cls-18{clip-path:url(#clip-path-6);}.cls-19{fill:url(#linear-gradient-2);}.cls-21{clip-path:url(#clip-path-7);}.cls-22{fill:#313131;}</style><clipPath id="clip-path" transform="translate(-26.78 0)"><rect class="cls-1" y="5.15" width="195.23" height="75.89"/></clipPath><linearGradient id="linear-gradient" x1="319.24" y1="23.78" x2="390.15" y2="23.78" gradientUnits="userSpaceOnUse"><stop offset="0" stop-color="#606060"/><stop offset="1" stop-color="#515151"/></linearGradient><clipPath id="clip-path-2" transform="translate(-26.78 0)"><rect class="cls-1" x="746.86" y="11.98" width="173.6" height="75.24"/></clipPath><clipPath id="clip-path-3" transform="translate(-26.78 0)"><rect class="cls-1" x="1081.32" y="11.98" width="75.24" height="75.24"/></clipPath><clipPath id="clip-path-5" transform="translate(-26.78 0)"><rect class="cls-1" x="1086.08" y="14.96" width="58.92" height="58.92"/></clipPath><clipPath id="clip-path-6" transform="translate(-26.78 0)"><path class="cls-2" d="M1115.53,15a29.46,29.46,0,1,1-29.45,29.46A29.46,29.46,0,0,1,1115.53,15"/></clipPath><linearGradient id="linear-gradient-2" x1="277.9" y1="214.71" x2="278.53" y2="214.71" gradientTransform="translate(12680.67 -14953.49) rotate(90) scale(53.86)" gradientUnits="userSpaceOnUse"><stop offset="0" stop-color="#fff"/><stop offset="1" stop-color="#383838"/></linearGradient><clipPath id="clip-path-7" transform="translate(-26.78 0)"><rect class="cls-1" x="1316.22" width="192.09" height="86.19"/></clipPath></defs><g id="Layer_2" data-name="Layer 2"><g id="Layer_1-2" data-name="Layer 1"><g class="cls-3"><path class="cls-4" d="M97.62,5.15c39,0,70.84,17,70.84,37.88S136.63,80.9,97.62,80.9,26.78,63.89,26.78,43,58.6,5.15,97.62,5.15" transform="translate(-26.78 0)"/><path class="cls-5" d="M97.46,8c37.45,0,68,15.76,68,35.09s-30.55,35.09-68,35.09-68-15.77-68-35.09S60,8,97.46,8" transform="translate(-26.78 0)"/><path class="cls-4" d="M97.62,12.9c34.32,0,62.32,13.53,62.32,30.13s-28,30.13-62.32,30.13S35.29,59.62,35.29,43s28-30.13,62.33-30.13" transform="translate(-26.78 0)"/><path class="cls-6" d="M121.43,46.15a6,6,0,0,0,.49,2.46,3.56,3.56,0,0,0,1.3,1.52,3.18,3.18,0,0,0,1.78.48,6.31,6.31,0,0,0,1.76-.49c2.35-.74,3.74-1.78,6.11-3.15-.46.52-5.13,5-5.59,5.32a5.44,5.44,0,0,1-1.55.8,6,6,0,0,1-1.83.29,5.7,5.7,0,0,1-2.47-.51,5.77,5.77,0,0,1-2-1.53A6.92,6.92,0,0,1,118.19,49a9.64,9.64,0,0,1-.46-2.91,7.48,7.48,0,0,1,1.63-5.22,5.72,5.72,0,0,1,4.42-1.92,6.05,6.05,0,0,1,2.68.51,7.32,7.32,0,0,1,2.15,1.6l-.06-5.26a2.57,2.57,0,0,1,.43-1.66,1.8,1.8,0,0,1,2.57-.06,2.15,2.15,0,0,1,.47,1.5l.11,10.16c-.18,1.84-3.71,2.66-3.5,2s-.15-1-.16-1.67a5.69,5.69,0,0,0-.51-2.43,3.73,3.73,0,0,0-1.31-1.55,3.16,3.16,0,0,0-1.79-.51,3,3,0,0,0-1.8.57,3.65,3.65,0,0,0-1.23,1.6,6.25,6.25,0,0,0-.4,2.41" transform="translate(-26.78 0)"/><path class="cls-6" d="M128.83,51.93l0-.12c.66-1.05,2.63-2.74,3.4-2.32l0,1.76a2.16,2.16,0,0,1-.46,1.53,1.77,1.77,0,0,1-2.5,0c-.34-.35-.41-.2-.42-.86" transform="translate(-26.78 0)"/><path class="cls-6" d="M106.4,41.08v.43a6.41,6.41,0,0,1,2.1-1.84,5.85,5.85,0,0,1,2.65-.61,5.56,5.56,0,0,1,2.6.58,4,4,0,0,1,1.73,1.72,3.84,3.84,0,0,1,.49,1.4,15.65,15.65,0,0,1,.13,1.92l.08,6.62a2.25,2.25,0,0,1-.49,1.62,1.65,1.65,0,0,1-1.31.56,1.71,1.71,0,0,1-1.33-.55,2.26,2.26,0,0,1-.54-1.59l-.07-5.92a5.94,5.94,0,0,0-.53-2.69,2.11,2.11,0,0,0-2-.91,3.06,3.06,0,0,0-1.78.59A3.27,3.27,0,0,0,106.93,44a11,11,0,0,0-.24,3l.06,4.45a2.29,2.29,0,0,1-.49,1.64,1.82,1.82,0,0,1-1.33.55,1.72,1.72,0,0,1-1.32-.54,2.3,2.3,0,0,1-.54-1.6L103,41.18a2.16,2.16,0,0,1,.44-1.52,1.58,1.58,0,0,1,1.25-.53,1.68,1.68,0,0,1,.87.22,1.59,1.59,0,0,1,.65.66,2.32,2.32,0,0,1,.24,1.07" transform="translate(-26.78 0)"/><path class="cls-6" d="M90.92,57.87h1.59a1.05,1.05,0,0,0-.25-.65.77.77,0,0,0-.55-.21.73.73,0,0,0-.54.23,1,1,0,0,0-.25.64m1.72.46-1.71,0a.91.91,0,0,0,.13.5.77.77,0,0,0,.31.33.92.92,0,0,0,.43.11,1.16,1.16,0,0,0,.28,0,1.09,1.09,0,0,0,.25-.1,2.11,2.11,0,0,0,.22-.17l.27-.24a.25.25,0,0,1,.19-.06.3.3,0,0,1,.21.08.22.22,0,0,1,.09.19.54.54,0,0,1-.09.27,1,1,0,0,1-.28.3,1.65,1.65,0,0,1-.46.23,2.1,2.1,0,0,1-.65.11,1.75,1.75,0,0,1-1.31-.46A1.63,1.63,0,0,1,90,58.15a2.28,2.28,0,0,1,.1-.7,1.63,1.63,0,0,1,.33-.54,1.58,1.58,0,0,1,.54-.37,2.24,2.24,0,0,1,.71-.13,1.82,1.82,0,0,1,.88.2,1.39,1.39,0,0,1,.56.54,1.47,1.47,0,0,1,.19.67c0,.21-.06.35-.19.41a1.2,1.2,0,0,1-.52.1" transform="translate(-26.78 0)"/><path class="cls-6" d="M99.73,58.54v.7a.51.51,0,0,1-.12.39.43.43,0,0,1-.62,0,.53.53,0,0,1-.13-.38l0-2.34c0-.38.13-.57.41-.57a.39.39,0,0,1,.32.12.8.8,0,0,1,.11.4,1.54,1.54,0,0,1,.31-.4.74.74,0,0,1,.44-.14,1.19,1.19,0,0,1,.54.13.41.41,0,0,1,.26.35.33.33,0,0,1-.11.25.32.32,0,0,1-.23.1.78.78,0,0,1-.23,0,1.56,1.56,0,0,0-.33-.05.5.5,0,0,0-.31.1.59.59,0,0,0-.19.29,2.5,2.5,0,0,0-.09.46c0,.17,0,.39,0,.64" transform="translate(-26.78 0)"/><path class="cls-6" d="M97.54,51.67A11.49,11.49,0,0,1,95,53.21a7.34,7.34,0,0,1-2.79.52,5.31,5.31,0,0,1-2.49-.5A4,4,0,0,1,88,51.78a3.71,3.71,0,0,1-.6-2,3.5,3.5,0,0,1,.92-2.51A4.84,4.84,0,0,1,91,45.87l1.73-.38c.93-.18,1.71-.36,2.37-.51s1.38-.37,2.15-.59a3.47,3.47,0,0,0-.62-2.06,2.69,2.69,0,0,0-2.15-.63,4.64,4.64,0,0,0-2.1.4,3.48,3.48,0,0,0-1.21,1.15,9.24,9.24,0,0,1-.7,1,1.25,1.25,0,0,1-.9.25,1.63,1.63,0,0,1-1.07-.38,1.25,1.25,0,0,1-.46-1,2.94,2.94,0,0,1,.67-1.84,5,5,0,0,1,2.12-1.49,10.06,10.06,0,0,1,3.62-.62,10.48,10.48,0,0,1,3.82.52,3.5,3.5,0,0,1,2,1.72,7.27,7.27,0,0,1,.62,3.18c0,.84,0,1.54,0,2.13s0,1.23,0,1.93a6.93,6.93,0,0,0,.37,2.09,6.7,6.7,0,0,1,.36,1.4,1.33,1.33,0,0,1-.52,1,1.94,1.94,0,0,1-1.2.45,1.74,1.74,0,0,1-1.14-.49,8.13,8.13,0,0,1-1.17-1.49M97,46.53a19.41,19.41,0,0,1-2.33.64c-1,.22-1.75.38-2.14.49a2.83,2.83,0,0,0-1.13.6,1.5,1.5,0,0,0-.52,1.21,1.75,1.75,0,0,0,.65,1.37,2.37,2.37,0,0,0,1.66.56,4.52,4.52,0,0,0,2-.49,3.17,3.17,0,0,0,1.34-1.2A5.34,5.34,0,0,0,97,47Z" transform="translate(-26.78 0)"/><path class="cls-6" d="M80.74,48.74l0,3a2.17,2.17,0,0,1-.5,1.63,1.71,1.71,0,0,1-1.32.55,1.67,1.67,0,0,1-1.32-.53,2.26,2.26,0,0,1-.53-1.61L77,41.85c0-1.61.57-2.41,1.77-2.43a1.51,1.51,0,0,1,1.32.55,3,3,0,0,1,.47,1.65A6.09,6.09,0,0,1,81.87,40a2.84,2.84,0,0,1,1.85-.58A5,5,0,0,1,86,39.9a1.68,1.68,0,0,1,1.1,1.48,1.32,1.32,0,0,1-.46,1.07,1.37,1.37,0,0,1-1,.44,4.34,4.34,0,0,1-1-.23,4.77,4.77,0,0,0-1.37-.22,2,2,0,0,0-1.33.43,2.66,2.66,0,0,0-.78,1.22A8.1,8.1,0,0,0,80.82,46c-.07.74-.09,1.65-.08,2.72" transform="translate(-26.78 0)"/><path class="cls-6" d="M84.68,58.88a.75.75,0,0,1-.09.34,1.37,1.37,0,0,1-.3.35,1.57,1.57,0,0,1-.5.26,2.07,2.07,0,0,1-.68.1,1.69,1.69,0,0,1-1.26-.43,1.67,1.67,0,0,1-.48-1.22,2.11,2.11,0,0,1,.2-.92,1.44,1.44,0,0,1,.6-.62,1.81,1.81,0,0,1,.93-.23,1.76,1.76,0,0,1,.62.09,1.6,1.6,0,0,1,.49.24,1.27,1.27,0,0,1,.3.32.62.62,0,0,1,.11.32.34.34,0,0,1-.12.26.37.37,0,0,1-.28.1.27.27,0,0,1-.18-.05.67.67,0,0,1-.16-.17,1.27,1.27,0,0,0-.34-.35.84.84,0,0,0-.44-.11.76.76,0,0,0-.62.3,1.23,1.23,0,0,0-.23.8,1.49,1.49,0,0,0,.07.43.74.74,0,0,0,.18.34.65.65,0,0,0,.28.21.81.81,0,0,0,.35.07.79.79,0,0,0,.45-.12,1.16,1.16,0,0,0,.33-.36.86.86,0,0,1,.17-.23.35.35,0,0,1,.22-.08.34.34,0,0,1,.27.12.34.34,0,0,1,.11.24m24.24-.73-1.7,0a1,1,0,0,0,.12.5.85.85,0,0,0,.32.33.86.86,0,0,0,.71.06.8.8,0,0,0,.25-.11,1.28,1.28,0,0,0,.22-.17c.07-.05.15-.13.26-.23a.29.29,0,0,1,.19-.06.42.42,0,0,1,.23.07.28.28,0,0,1,.08.2.6.6,0,0,1-.09.27,1.09,1.09,0,0,1-.28.29,1.43,1.43,0,0,1-.46.24,1.89,1.89,0,0,1-.65.1,1.77,1.77,0,0,1-1.32-.45,1.67,1.67,0,0,1-.47-1.25,2,2,0,0,1,.1-.69,1.33,1.33,0,0,1,.33-.55,1.55,1.55,0,0,1,.54-.36,2,2,0,0,1,.71-.13,1.84,1.84,0,0,1,.88.2,1.37,1.37,0,0,1,.56.53,1.51,1.51,0,0,1,.19.67.43.43,0,0,1-.19.42,1.22,1.22,0,0,1-.53.1m-1.71-.46,1.58,0a1,1,0,0,0-.25-.64.7.7,0,0,0-.55-.21.68.68,0,0,0-.53.22,1,1,0,0,0-.25.65m10.15,1.39a2.63,2.63,0,0,1-.61.36,1.53,1.53,0,0,1-.66.13,1.38,1.38,0,0,1-.59-.12.93.93,0,0,1-.39-.34.82.82,0,0,1-.15-.47.86.86,0,0,1,.22-.6,1.2,1.2,0,0,1,.62-.33l.41-.09.56-.12.51-.14a.89.89,0,0,0-.14-.49.67.67,0,0,0-.51-.15.94.94,0,0,0-.5.1.89.89,0,0,0-.29.26,1.16,1.16,0,0,1-.16.24.3.3,0,0,1-.22.07.38.38,0,0,1-.25-.09.3.3,0,0,1-.11-.23.7.7,0,0,1,.16-.44,1.14,1.14,0,0,1,.5-.35,2.37,2.37,0,0,1,.86-.15,2.54,2.54,0,0,1,.91.13.81.81,0,0,1,.46.41,1.58,1.58,0,0,1,.15.75v1a1.75,1.75,0,0,0,.09.49,1.36,1.36,0,0,1,.09.33.3.3,0,0,1-.13.24.43.43,0,0,1-.28.11.45.45,0,0,1-.27-.11,2,2,0,0,1-.28-.36m-.07-1.22a5.08,5.08,0,0,1-.55.16l-.51.11a.78.78,0,0,0-.27.14.38.38,0,0,0-.12.29.43.43,0,0,0,.15.33.55.55,0,0,0,.39.12,1.06,1.06,0,0,0,.48-.11.8.8,0,0,0,.32-.28,1.29,1.29,0,0,0,.11-.64ZM123.81,59l0-3.65a.52.52,0,0,1,.11-.38.44.44,0,0,1,.63,0,.53.53,0,0,1,.13.38l0,3.65a.52.52,0,0,1-.11.39.41.41,0,0,1-.32.13.39.39,0,0,1-.31-.13.62.62,0,0,1-.13-.38m9.34-.69a1,1,0,0,1-.17.6,1.07,1.07,0,0,1-.51.38,2.28,2.28,0,0,1-.84.13,2.14,2.14,0,0,1-.8-.12,1.41,1.41,0,0,1-.5-.34.67.67,0,0,1-.16-.42.27.27,0,0,1,.09-.24.35.35,0,0,1,.26-.1.33.33,0,0,1,.21.06.68.68,0,0,1,.15.18.92.92,0,0,0,.32.33,1,1,0,0,0,.51.11.71.71,0,0,0,.43-.12.3.3,0,0,0,.16-.26.34.34,0,0,0-.17-.32,2.16,2.16,0,0,0-.58-.19,4.45,4.45,0,0,1-.73-.21,1.45,1.45,0,0,1-.46-.32.68.68,0,0,1-.18-.47.79.79,0,0,1,.16-.48,1,1,0,0,1,.45-.36,2,2,0,0,1,.74-.15,2.87,2.87,0,0,1,.61.06,1.56,1.56,0,0,1,.45.18,1.16,1.16,0,0,1,.28.25.51.51,0,0,1,.09.27.32.32,0,0,1-.09.24.48.48,0,0,1-.29.1.42.42,0,0,1-.23-.07l-.22-.23a.71.71,0,0,0-.23-.19.64.64,0,0,0-.36-.07.82.82,0,0,0-.4.1.3.3,0,0,0-.15.25.26.26,0,0,0,.11.21,1.06,1.06,0,0,0,.32.14l.54.13a2.83,2.83,0,0,1,.66.22,1.07,1.07,0,0,1,.4.31.71.71,0,0,1,.13.41" transform="translate(-26.78 0)"/><path class="cls-6" d="M133.28,28.18c5.31,3.4,8.41,8.91,5.4,13.87-2.48,4.08-9.39,7-11.75,8.46.55.63,20.37-10,6.35-22.33" transform="translate(-26.78 0)"/><path class="cls-5" d="M134.45,29.1c-9.88-6.89-21.84-2.8-32.58,2.2-6.05,2.81-14.62,7.14-24,3.8,15.74,11.36,45.67-14.75,56.62-6" transform="translate(-26.78 0)"/><path class="cls-6" d="M75.46,47.59l.05,4.72a4.86,4.86,0,0,1-.17,1.51,2.29,2.29,0,0,1-.64,1,8.05,8.05,0,0,1-1.22.9,17.94,17.94,0,0,1-4.16,1.8,15.67,15.67,0,0,1-4.36.61,14.2,14.2,0,0,1-5-.8,10.29,10.29,0,0,1-3.88-2.51,10.8,10.8,0,0,1-2.5-4,15.52,15.52,0,0,1-.91-5.29,15.81,15.81,0,0,1,.75-5.27A11.12,11.12,0,0,1,55.8,36.2a10.86,10.86,0,0,1,3.89-2.6,14.88,14.88,0,0,1,5.25-.94,12.68,12.68,0,0,1,4.28.62,9.08,9.08,0,0,1,3,1.63A7.53,7.53,0,0,1,74,37a4.42,4.42,0,0,1,.6,2,2.3,2.3,0,0,1-2.27,2.3,2.09,2.09,0,0,1-1-.24,2.15,2.15,0,0,1-.8-.7A21.06,21.06,0,0,0,69,38.21,4.68,4.68,0,0,0,67.31,37a6.12,6.12,0,0,0-2.69-.47,7.33,7.33,0,0,0-3,.62,6.36,6.36,0,0,0-2.26,1.77A8.31,8.31,0,0,0,58,41.7a13.22,13.22,0,0,0-.44,3.66c0,2.89.69,5.12,2,6.65A6.57,6.57,0,0,0,65,54.29a10.39,10.39,0,0,0,3.15-.5,14.3,14.3,0,0,0,3-1.33l0-4-3.73,0a3.91,3.91,0,0,1-2.06-.4,1.52,1.52,0,0,1-.7-1.42,1.75,1.75,0,0,1,.55-1.37,2.22,2.22,0,0,1,1.56-.56l5.51-.06a6.46,6.46,0,0,1,1.7.17,1.91,1.91,0,0,1,1.15.81,3.41,3.41,0,0,1,.46,1.91" transform="translate(-26.78 0)"/></g><path class="cls-7" d="M439.25,2.85c10.39,0,18.35,8.18,18.35,18.83s-8,18.84-18.35,18.84S420.9,32.34,420.9,21.68s8-18.83,18.35-18.83m0,32.77c7.5,0,13.11-5.93,13.11-13.9s-5.6-13.84-13.11-13.84-13.1,6-13.1,13.9,5.62,13.84,13.1,13.84" transform="translate(-26.78 0)"/><rect class="cls-7" x="435.01" y="2.85" width="4.98" height="37.22"/><rect class="cls-7" x="445.79" y="2.85" width="4.98" height="37.22"/><path class="cls-7" d="M501.81,37.83a11.33,11.33,0,0,1-7.6,2.77,12.44,12.44,0,0,1-12.47-12.85,13.05,13.05,0,0,1,6.33-11.27,11.72,11.72,0,0,1,6-1.58,11.58,11.58,0,0,1,7.71,2.79V15.43h4.83V40.07h-4.83Zm-.15-14.69a8.88,8.88,0,0,0-7-3.52,7.91,7.91,0,0,0-7.92,7.89,1.28,1.28,0,0,0,0,.19,8.07,8.07,0,0,0,8.07,8.07h.1a8.57,8.57,0,0,0,6.73-3.51Z" transform="translate(-26.78 0)"/><path class="cls-8" d="M424.27,75.14a11.66,11.66,0,0,0,9,4.72c3.4,0,6.39-2.2,6.39-5.5,0-5.61-7.75-6.24-12.63-9.41a9.32,9.32,0,0,1-4.67-8.08c0-5.38,4.72-9.75,11.11-9.75a15.1,15.1,0,0,1,9.85,3.58l-3.09,3.83A10.17,10.17,0,0,0,433.64,52c-3,0-6.08,1.74-6.08,4.94,0,4.67,7.82,5.66,12.53,8.81a9.63,9.63,0,0,1,4.77,8.38c0,6.45-5,10.64-11.38,10.64a16.38,16.38,0,0,1-12.84-6.13Z" transform="translate(-26.78 0)"/><polygon class="cls-8" points="420.8 96.84 427.46 81.68 416.93 59.6 422.28 59.6 429.99 75.87 437.07 59.6 442.3 59.6 426.1 96.84 420.8 96.84"/><path class="cls-8" d="M471.76,77.7A11.92,11.92,0,0,0,479,80.39c2.16,0,4.31-1.16,4.31-3.1,0-2.83-4-3-7.71-4.19-3-1-5.66-2.88-5.66-6.35,0-5.29,4.72-7.7,9.12-7.7a12.55,12.55,0,0,1,8.18,2.69l-2.57,3.57a8.72,8.72,0,0,0-5.29-1.94c-2.42,0-4.47,1.16-4.47,3.1,0,1.68,1.95,2.26,4.42,2.87,3.87,1,9,2.7,9,7.82,0,4.67-4.35,7.55-9.18,7.55a15.3,15.3,0,0,1-9.95-3.41Z" transform="translate(-26.78 0)"/><path class="cls-8" d="M508.59,84.25a13.41,13.41,0,0,1-3.88.53,8.88,8.88,0,0,1-7-2.91,9.37,9.37,0,0,1-2-6.52V64.07h-6.29V59.6h6.29V52.8h5v6.8h7.85v4.47h-7.87V75.6a4.8,4.8,0,0,0,.73,3.15,4.59,4.59,0,0,0,3.42,1.34,11.11,11.11,0,0,0,2.69-.31Z" transform="translate(-26.78 0)"/><path class="cls-8" d="M514.89,73a8,8,0,0,0,8,7.45,8.87,8.87,0,0,0,7.08-3.36l3.24,3.09a12.85,12.85,0,0,1-10.37,4.61A12.5,12.5,0,0,1,510.07,72.5a5.42,5.42,0,0,1,0-.57c0-7.39,5-12.84,12-12.84s11.85,5.56,11.85,12.84a9.19,9.19,0,0,1,0,1Zm.41-4.19h13.45a6.88,6.88,0,0,0-6.49-5.38,7.17,7.17,0,0,0-6.93,5.38" transform="translate(-26.78 0)"/><path class="cls-8" d="M542.93,59.62V62a10.85,10.85,0,0,1,7.23-2.88,11.15,11.15,0,0,1,8.7,4,12.35,12.35,0,0,1,9.42-4A11.12,11.12,0,0,1,577,63.24c1.52,1.88,2.24,4.29,2.24,8.43V84.25h-5V70.88A7.05,7.05,0,0,0,572.89,66a6.1,6.1,0,0,0-4.61-2.15,10.13,10.13,0,0,0-7.49,3.51,20.65,20.65,0,0,1,.41,4.36V84.25h-5V70.88A6.89,6.89,0,0,0,554.8,66,6.29,6.29,0,0,0,550,63.8a9.43,9.43,0,0,0-6.93,3.51V84.25h-5V59.62Z" transform="translate(-26.78 0)"/><path class="cls-8" d="M585.22,77.7a11.94,11.94,0,0,0,7.27,2.69c2.16,0,4.31-1.16,4.31-3.1,0-2.83-4-3-7.71-4.19-3-1-5.66-2.88-5.66-6.35,0-5.29,4.72-7.7,9.12-7.7a12.55,12.55,0,0,1,8.18,2.69l-2.57,3.57a8.72,8.72,0,0,0-5.29-1.94c-2.42,0-4.47,1.16-4.47,3.1,0,1.68,2,2.26,4.42,2.87,3.87,1,9,2.7,9,7.82,0,4.67-4.35,7.55-9.18,7.55a15.32,15.32,0,0,1-10-3.41Z" transform="translate(-26.78 0)"/><path class="cls-9" d="M360.51,1.16A41.54,41.54,0,0,0,319.4,39c-.1,1.21-.16,2.45-.16,3.69v.11a28.43,28.43,0,0,0,.16,3.58H345a20.92,20.92,0,0,1-.36-3.53A20.63,20.63,0,0,1,345,39a15.93,15.93,0,0,1,4.31-8.27,16.15,16.15,0,0,1,22.83-.1l.21.22a16,16,0,0,1,3.62,5.65H384a19.69,19.69,0,0,0-1-3.08,25.09,25.09,0,0,0-13-13.2,23.18,23.18,0,0,0-9.11-1.77A24,24,0,0,0,337,39H326.79a34.16,34.16,0,0,1,58.12-20.46l5.24-5.21A41.42,41.42,0,0,0,361,1.16Z" transform="translate(-26.78 0)"/><path class="cls-8" d="M402.17,39H376.6a17.64,17.64,0,0,1,.38,3.76,18.27,18.27,0,0,1-.34,3.62,16.17,16.17,0,0,1-4.35,8.28,15.44,15.44,0,0,1-11.4,4.83,16.13,16.13,0,0,1-10.42-3.72,15.12,15.12,0,0,1-4.86-6.72h-8.07a21.18,21.18,0,0,0,.94,2.89,25,25,0,0,0,5.26,7.83,22.67,22.67,0,0,0,7.75,5.38A24.45,24.45,0,0,0,361,67a23.91,23.91,0,0,0,9.19-1.74,24.77,24.77,0,0,0,12.92-13,23.62,23.62,0,0,0,1.5-5.79h10.2A34.15,34.15,0,0,1,336.7,66.84l-5.2,5.22a41.53,41.53,0,0,0,70.67-25.67c.1-1.22.16-2.44.16-3.69a28.09,28.09,0,0,0-.16-3.69" transform="translate(-26.78 0)"/><g class="cls-10"><path class="cls-11" d="M746.86,52.09c.14,0,.08-.15.09-.23a33.94,33.94,0,0,1,21.43-30.07l.26-.12c.11-1.58.07-3.07-1.16-4.31a4.28,4.28,0,0,0-3.88-1.26l-.24,0V12h11.29V27.4A26.38,26.38,0,0,0,756.9,41.67a25.57,25.57,0,0,0-1.92,18,26.59,26.59,0,0,0,52-1.55A26.62,26.62,0,0,0,787.63,27.6V12h11.24v4.14a7,7,0,0,0-1.51-.07,3.53,3.53,0,0,0-1.39.39,4.41,4.41,0,0,0-2.32,2.89,12.85,12.85,0,0,0-.09,2.56c.66.3,1.32.58,2,.89a33.75,33.75,0,0,1,15.94,16.07,32.83,32.83,0,0,1,2.79,9A33.85,33.85,0,0,1,784.09,87c-.7.07-1.4.09-2.1.14-.08,0-.19-.06-.23.08h-2c0-.12-.1-.08-.16-.08l-1.7-.12a32.09,32.09,0,0,1-7.2-1.41A33.94,33.94,0,0,1,747,54.73c0-.08,0-.19-.09-.23Z" transform="translate(-26.78 0)"/><path class="cls-12" d="M920.36,45.87a8.19,8.19,0,0,0-5-6.76,12.6,12.6,0,0,0-5.29-.94H892.39a3.39,3.39,0,0,0-.46,0c-.44,0-.89.1-1.11.51-.6,1.06-.66,2.28.74,2.93a1.86,1.86,0,0,1,1.15,1.84c0,6.56,0,13.11,0,19.67A1.89,1.89,0,0,1,891.55,65a1.9,1.9,0,0,0-1,.94,2.52,2.52,0,0,0-.09.55,2.35,2.35,0,0,0,.12.89c.22.93.92,1,1.67,1.06H903.6c.3,0,.6,0,.9,0a1.53,1.53,0,0,0,1.24-.44,1.84,1.84,0,0,0,.14-2.39,2,2,0,0,0-.78-.64A1.89,1.89,0,0,1,904,63v-5.5c0-.11,0-.23,0-.34a27.65,27.65,0,0,0,3-.31,26.59,26.59,0,0,0,10.34-3.48A5.81,5.81,0,0,0,920.06,50a9.26,9.26,0,0,0,.3-4.15m-11.77,3.37a3.47,3.47,0,0,1-1.7,2.14,21.11,21.11,0,0,1-2.33,1.28,2.52,2.52,0,0,1-.85.16v-.31c0-3.09,0-6.16,0-9.25,0-1.18.73-1.49,1.61-1.34a3.87,3.87,0,0,1,3.5,3.32,8.22,8.22,0,0,1-.22,4" transform="translate(-26.78 0)"/><path class="cls-12" d="M889.87,66.48a1.66,1.66,0,0,0-.17-.52,2.13,2.13,0,0,0-1-1,2.07,2.07,0,0,1-1.06-1c-.23-.48-.47-1-.67-1.45-.76-1.86-1.37-3.77-2.05-5.66-1.69-4.7-3.47-9.37-5.62-13.89a21.84,21.84,0,0,0-2-3.49,3.64,3.64,0,0,0-3-1.65c-1,0-2,.07-2.93.14a4,4,0,0,0-2.62,1.18,7.73,7.73,0,0,0-1.19,1.54,56,56,0,0,0-3.7,7.73c-1.07,2.67-2,5.4-3.06,8.11-.9,2.38-1.7,4.8-2.76,7.12a2.82,2.82,0,0,1-1.28,1.45,1.69,1.69,0,0,0-.91,2c.28,1,.65,1.32,1.77,1.33h6.56a4,4,0,0,0,.68,0,1.09,1.09,0,0,0,.88-.44,1.91,1.91,0,0,0,0-2.43A2.34,2.34,0,0,0,865,65a2,2,0,0,1-1.15-2.07,16.18,16.18,0,0,1,1.06-3.7h9.67a32.65,32.65,0,0,1,1,3.84,1.45,1.45,0,0,1-.86,1.76c-.23.14-.47.27-.69.42a1.64,1.64,0,0,0-.72,1.77,1.67,1.67,0,0,0,1.19,1.37,2.9,2.9,0,0,0,.83.09h12.5a1.93,1.93,0,0,0,1.92-1.06,1.67,1.67,0,0,0,.14-.92M866.4,54.64a52.89,52.89,0,0,1,3.37-8.53,49.34,49.34,0,0,1,3.13,8.53Z" transform="translate(-26.78 0)"/><path class="cls-11" d="M758.54,53.29a22.26,22.26,0,1,1,22.25,22.25,22.28,22.28,0,0,1-22.25-22.25m37.48,0A15.22,15.22,0,1,0,780.77,68.5,15.23,15.23,0,0,0,796,53.31" transform="translate(-26.78 0)"/><path class="cls-12" d="M835.92,53.83a9.21,9.21,0,0,0,.12,2.29,21.41,21.41,0,0,0,.87,3,7.32,7.32,0,0,0,5.62,4.78,8,8,0,0,0,4.59-.6,9.75,9.75,0,0,0,3.66-2.51,7,7,0,0,1,1.26-1.1,2,2,0,0,1,2.37-.22,2.35,2.35,0,0,1,1.08,2.31,4.36,4.36,0,0,1-1,2.27A8.65,8.65,0,0,1,853,65.6a16,16,0,0,1-7.54,3.26,20.07,20.07,0,0,1-8.35-.35c-5.46-1.49-9.63-4.65-11.62-10.1a13.81,13.81,0,0,1,3-15.08,23.86,23.86,0,0,1,2.83-2.58A12.81,12.81,0,0,1,838.06,38c1-.1,2-.31,2.94-.42a18.48,18.48,0,0,1,5.35.27,24.75,24.75,0,0,1,6,2.11,4.28,4.28,0,0,1,2.12,2,.55.55,0,0,1,.1.22c.14,1.29.38,2.57.42,3.87a4.78,4.78,0,0,1-.14,1.19,1.57,1.57,0,0,1-1.31,1.31,3.4,3.4,0,0,1-3-.76,1.9,1.9,0,0,1-.59-.86c-.15-.43-.29-.87-.47-1.3a5.9,5.9,0,0,0-4.1-3.62,7.09,7.09,0,0,0-4.08,0,7.24,7.24,0,0,0-3.81,3.14,9.83,9.83,0,0,0-1.42,4.14,25.31,25.31,0,0,0-.24,4.64" transform="translate(-26.78 0)"/></g><g class="cls-13"><g class="cls-13"><path class="cls-14" d="M1118.94,12a37.62,37.62,0,1,1-37.62,37.62A37.62,37.62,0,0,1,1118.94,12" transform="translate(-26.78 0)"/><path class="cls-15" d="M1118.94,13.82a35.78,35.78,0,1,1-35.77,35.78,35.78,35.78,0,0,1,35.77-35.78" transform="translate(-26.78 0)"/><g class="cls-16"><g class="cls-17"><g class="cls-18"><rect class="cls-19" x="1079.72" y="8.61" width="71.62" height="71.62" transform="translate(-3.29 276.4) rotate(-14.27)"/></g></g></g><path class="cls-20" d="M1104.42,70.88a.77.77,0,0,1-.7-.29.27.27,0,0,1-.06-.17c0-.19.1-.28.29-.28a.4.4,0,0,1,.2.07l0,0a.6.6,0,0,0,.29.09c.11,0,.17,0,.17-.12s-.07-.11-.21-.18l-.11,0a1.69,1.69,0,0,1-.36-.2.53.53,0,0,1-.24-.44.61.61,0,0,1,.23-.49.84.84,0,0,1,.54-.18.94.94,0,0,1,.37.07.49.49,0,0,1,.3.21.25.25,0,0,1,.06.16.27.27,0,0,1-.26.26.57.57,0,0,1-.21-.06l0,0a.67.67,0,0,0-.26-.07c-.09,0-.14,0-.14.11s0,.09.12.12l.12,0,.25.11a1.26,1.26,0,0,1,.33.22.53.53,0,0,1,.12.35.62.62,0,0,1-.26.52.92.92,0,0,1-.58.19m3.31-.49c0,.31-.1.46-.31.46s-.31-.15-.31-.46V69.15c0-.3.11-.45.31-.45s.31.15.31.45Zm-.67-2.21a.36.36,0,0,1,.11-.26.37.37,0,0,1,.25-.1.34.34,0,0,1,.35.36.33.33,0,0,1-.1.25.32.32,0,0,1-.25.1.33.33,0,0,1-.25-.1.34.34,0,0,1-.11-.25m2.66,2.21V69.15c0-.3.1-.45.31-.45a.35.35,0,0,1,.3.2.69.69,0,0,1,.54-.2q.75,0,.75.81v.88c0,.31-.1.46-.31.46s-.31-.15-.31-.46v-.7a.64.64,0,0,0,0-.32.29.29,0,0,0-.28-.14c-.22,0-.33.15-.33.46v.7c0,.31-.1.46-.31.46s-.31-.15-.31-.46m3.75-.62a1.13,1.13,0,0,1,.29-.79,1,1,0,0,1,.78-.31,1.14,1.14,0,0,1,.43.08.35.35,0,0,1,.26.32.27.27,0,0,1-.08.19.23.23,0,0,1-.18.07l-.16,0h0a.52.52,0,0,0-.24-.05.37.37,0,0,0-.33.16.61.61,0,0,0-.1.36.58.58,0,0,0,.1.37.44.44,0,0,0,.35.15.76.76,0,0,0,.21,0h0a.49.49,0,0,1,.18,0,.25.25,0,0,1,.18.08.31.31,0,0,1,.06.19c0,.12-.08.23-.26.32a1,1,0,0,1-.46.09,1,1,0,0,1-.75-.32,1.08,1.08,0,0,1-.28-.78m4.09.18a.34.34,0,0,0,.15.27.46.46,0,0,0,.31.1,1.07,1.07,0,0,0,.38-.1l.06,0a1,1,0,0,1,.22-.08.22.22,0,0,1,.24.25.27.27,0,0,1-.07.18.77.77,0,0,1-.39.26,1.45,1.45,0,0,1-.47.07,1,1,0,0,1-.76-.31,1.06,1.06,0,0,1-.31-.78,1.17,1.17,0,0,1,.29-.79,1,1,0,0,1,.75-.32,1.07,1.07,0,0,1,.41.08,1,1,0,0,1,.43.37.83.83,0,0,1,.17.52.25.25,0,0,1-.11.23.39.39,0,0,1-.25.08Zm0-.41h.81a.32.32,0,0,0-.12-.26.4.4,0,0,0-.27-.11.45.45,0,0,0-.28.1.5.5,0,0,0-.14.27m5.38.69h.33c.19,0,.28.1.28.29s-.09.3-.28.3h-1.32a.26.26,0,0,1-.29-.3.26.26,0,0,1,.29-.29h.35V68.59a1.53,1.53,0,0,1-.3,0,.2.2,0,0,1-.15-.22.21.21,0,0,1,.08-.16,1.1,1.1,0,0,1,.75-.2h.14s.09.08.11.18v0a1.5,1.5,0,0,1,0,.27Zm2.51-.94a.73.73,0,0,1-.26-.56.74.74,0,0,1,.28-.58,1,1,0,0,1,1.24,0,.73.73,0,0,1,.27.58.7.7,0,0,1-.25.56.78.78,0,0,1,.37.7.85.85,0,0,1-.3.67,1.17,1.17,0,0,1-1.42,0,.85.85,0,0,1-.31-.67.78.78,0,0,1,.38-.7m.26.64a.41.41,0,0,0,.11.28.36.36,0,0,0,.27.12.34.34,0,0,0,.27-.12.41.41,0,0,0,.11-.28.44.44,0,0,0-.11-.29.33.33,0,0,0-.27-.11.34.34,0,0,0-.27.12.41.41,0,0,0-.11.28m.09-1.14a.3.3,0,0,0,.09.21.27.27,0,0,0,.2.09.29.29,0,0,0,.21-.09.32.32,0,0,0,0-.42.29.29,0,0,0-.42,0,.32.32,0,0,0-.08.21m4-.18H1129c-.26,0-.38-.1-.38-.29s.12-.3.38-.3h1.14c.31,0,.46.12.46.35a.6.6,0,0,1-.06.24l-.92,2c-.1.2-.21.3-.34.3a.33.33,0,0,1-.23-.09.3.3,0,0,1-.1-.22.68.68,0,0,1,.09-.28Zm3.6.31a.4.4,0,0,0-.1-.28.36.36,0,0,0-.26-.11.33.33,0,0,0-.25.11.41.41,0,0,0-.11.28.4.4,0,0,0,.11.27.33.33,0,0,0,.25.11.36.36,0,0,0,.26-.11.39.39,0,0,0,.1-.27m-.35.88-.18,0h0a.79.79,0,0,1-.59-.26.92.92,0,0,1-.22-.62,1,1,0,0,1,.3-.72,1,1,0,0,1,.74-.28.93.93,0,0,1,.71.28,1,1,0,0,1,.27.73,2.44,2.44,0,0,1-.66,1.42c-.28.36-.49.54-.62.54a.31.31,0,0,1-.3-.3.62.62,0,0,1,.18-.32c.09-.1.23-.26.4-.49" transform="translate(-26.78 0)"/><path class="cls-20" d="M1086.91,51.83V43.45c0-3,1-4.56,3.14-4.56s3.15,1.52,3.15,4.56v7.09a7,7,0,0,0,.55,3.16,3.21,3.21,0,0,0,5.36,0,7.18,7.18,0,0,0,.54-3.16V43.45q0-4.56,3.15-4.56t3.11,4.56v8.38q0,4.52-2.47,6.87c-1.64,1.58-4,2.36-7,2.36s-5.38-.78-7-2.36-2.48-3.86-2.48-6.87m28.48-2.11a6.11,6.11,0,0,0,1,3.51,3.58,3.58,0,0,0,3.11,1.64,3.48,3.48,0,0,0,3.07-1.64,6.33,6.33,0,0,0,.93-3.51,6.17,6.17,0,0,0-.93-3.47,3.5,3.5,0,0,0-3.07-1.59,3.57,3.57,0,0,0-3.07,1.59,5.92,5.92,0,0,0-1,3.47m8.32,8.81a6.49,6.49,0,0,1-5.29,2.38,8.53,8.53,0,0,1-7-3.51,12.58,12.58,0,0,1,0-15.2l.06-.08a8.74,8.74,0,0,1,7.11-3.5,6.28,6.28,0,0,1,5.06,2.26,3.3,3.3,0,0,1,3-2q3.1,0,3.11,4.56V56.11q0,4.61-3.11,4.6a3.13,3.13,0,0,1-3-2.18M1133,49.8a11.34,11.34,0,0,1,3-8.09,10.27,10.27,0,0,1,7.85-3.13,11.75,11.75,0,0,1,4.47.78c1.71.72,2.56,1.82,2.56,3.27a2.65,2.65,0,0,1-.74,1.91,2.45,2.45,0,0,1-1.86.78,5.31,5.31,0,0,1-1.93-.49,6.59,6.59,0,0,0-2.5-.49,3.83,3.83,0,0,0-3.31,1.64,6.24,6.24,0,0,0-1,3.7,6,6,0,0,0,1.09,3.74A4.23,4.23,0,0,0,1144,55a6.36,6.36,0,0,0,2.37-.43l.08,0a5.09,5.09,0,0,1,1.86-.46,2.18,2.18,0,0,1,1.77.8,2.83,2.83,0,0,1,.68,1.93c0,1.27-.88,2.35-2.64,3.23a10.76,10.76,0,0,1-4.74.93,9.7,9.7,0,0,1-7.56-3.16l-.06-.07a11.42,11.42,0,0,1-2.8-7.91" transform="translate(-26.78 0)"/></g></g><g class="cls-21"><path class="cls-22" d="M1433.84,10.34a.08.08,0,0,1,0-.15l.93-.23c2.87-.69,5.75-1.25,8.65-1.76s5.89-.88,8.84-1.16,6.13-.46,9.21-.5a77,77,0,0,1,18,1.69,36.57,36.57,0,0,1,9.79,3.55c4.57,2.57,8.22,7.29,7.74,12.75a16.44,16.44,0,0,1-3.41,8c-4.8,6.5-11.87,11.39-18.55,15.76a.08.08,0,0,1-.09-.13c8.38-6.38,12.86-13.58,11.64-20.36-2.36-13-25-20.13-52.76-17.51m41.3-7.21c5.71.23,11.51.8,16.79,3.13,4.35,1.92,8.22,5.48,9.12,10.33a18.94,18.94,0,0,1-1.09,9.93c0,.08.07.14.13.07l.53-.63c2.85-3.44,5.54-7.27,6.92-11.56a12.66,12.66,0,0,0,.48-6.92c-.9-3.48-4.23-5.23-7.47-6.15a31.41,31.41,0,0,0-4-.82,76.47,76.47,0,0,0-18.08.07c-3.45.33-6.89.79-10.32,1.34-2.15.35-4.29.73-6.43,1.16a.08.08,0,1,0,0,.15c4.45-.2,8.92-.28,13.37-.1M1353.71,43.21a11.38,11.38,0,0,0,.85-4.34A11.56,11.56,0,0,0,1343,27.33h-26.79V37.9h8V35.31H1343a3.57,3.57,0,1,1,0,7.13h-26.79v8h33.33a3.57,3.57,0,1,1,0,7.13H1324.2V55h-8V65.53h33.33a11.55,11.55,0,0,0,4.16-22.32m63.81-7.9h47.79v-8h-47.79Zm19.9,30.22h8V39.86h-8Zm-50.74-17.1,7.71-10.17,20.67,27.27h10L1394.39,25l-30.68,40.49h10l6.9-9.12h21.82l-6-8Z" transform="translate(-26.78 0)"/><polygon class="cls-22" points="1333.5 85.69 1333.5 75.63 1340.75 83.13 1340.75 76.16 1341.99 76.16 1341.99 86.19 1334.72 78.72 1334.72 85.69 1333.5 85.69"/><rect class="cls-22" x="1346.4" y="76.16" width="1.23" height="9.53"/><path class="cls-22" d="M1387.2,81.35v3.26a4.5,4.5,0,0,1-.74.56,5,5,0,1,1,0-8.4v1.52a3.89,3.89,0,0,0-2.69-1.07,3.74,3.74,0,1,0,0,7.47,3.47,3.47,0,0,0,2.09-.62V81.35Z" transform="translate(-26.78 0)"/><polygon class="cls-22" points="1364.7 76.16 1371.22 76.16 1371.22 77.34 1365.92 77.34 1365.92 80.1 1370.26 80.1 1370.26 81.28 1365.91 81.28 1365.91 84.5 1371.22 84.5 1371.22 85.69 1364.7 85.69 1364.7 76.16"/><path class="cls-22" d="M1407.59,85.68l-2.49-3.63h-1.6v3.64h-1.22V76.16h3.79a3,3,0,0,1,.5,5.85l2.49,3.67Zm-4.09-4.91h2.44a1.66,1.66,0,1,0,0-3.32h-2.44Z" transform="translate(-26.78 0)"/><rect class="cls-22" x="1386.7" y="76.16" width="1.23" height="9.53"/><path class="cls-22" d="M1426,83.47l-4.69,0-1.06,2.24h-1.34l4.74-10,4.74,10H1427Zm-4.16-1.18h3.62l-1.81-3.93Z" transform="translate(-26.78 0)"/></g></g></g></svg>