<?xml version="1.0" encoding="utf-8"?>
<!-- Generator: Adobe Illustrator 26.0.1, SVG Export Plug-In . SVG Version: 6.00 Build 0)  -->
<svg version="1.1" id="Layer_1" xmlns="http://www.w3.org/2000/svg" xmlns:xlink="http://www.w3.org/1999/xlink" x="0px" y="0px"
	 viewBox="0 0 527.2 516.9" style="enable-background:new 0 0 527.2 516.9;" xml:space="preserve">
<style type="text/css">
	.st0{fill:#6F94F4;}
	.st1{clip-path:url(#SVGID_00000121280717669546275810000015524744925204698027_);}
	.st2{fill:#D4D1FE;}
	.st3{fill:#281E62;}
	.st4{fill:#FDF3EA;}
	.st5{fill:#BD6EEB;}
	.st6{fill:#EF8E4D;}
	.st7{fill:#FFFFFF;}
	.st8{fill:#FFC401;}
	.st9{fill-rule:evenodd;clip-rule:evenodd;fill:#6F94F4;}
</style>
<g>
	<rect x="18.4" class="st0" width="500" height="500"/>
	<g>
		<defs>
			<rect id="SVGID_1_" x="18.4" width="500" height="500"/>
		</defs>
		<clipPath id="SVGID_00000085225363228001890530000000097641312590865310_">
			<use xlink:href="#SVGID_1_"  style="overflow:visible;"/>
		</clipPath>
		<g style="clip-path:url(#SVGID_00000085225363228001890530000000097641312590865310_);">
			<path class="st2" d="M242.1,516.9h285.1V308c0,0-38.8,2.5-51.5,38c-32.1-4.9-51.5,18.7-51.5,41.5c-34.6-8.4-66.9,17.3-72.2,48.7
				c-35.8-10.8-68.9,22.4-67.5,45.9C264.2,479.2,243,502.1,242.1,516.9z"/>
			<path class="st2" d="M285.1,516.9H0V308c0,0,38.8,2.4,51.5,38c32.1-4.9,51.5,18.7,51.5,41.5c34.6-8.4,66.9,17.3,72.2,48.7
				c35.8-10.8,68.9,22.4,67.5,45.9C263,479.2,284.2,502.1,285.1,516.9z"/>
			<circle class="st3" cx="268.4" cy="236" r="171.9"/>
		</g>
	</g>
	<path class="st4" d="M192.2,338.4L317.6,139c3.8-6,11.2-8.6,18-6.3l79.8,27.3c8,2.8,12.3,11.5,9.5,19.5c-0.4,1.1-0.9,2.1-1.5,3.1
		L294.7,389.4c-4.1,6.5-12.3,9-19.4,5.9l-76.5-34.7c-7.7-3.5-11.1-12.6-7.6-20.3C191.5,339.6,191.8,339,192.2,338.4z"/>
	<path class="st2" d="M329.4,136.6l82.6,26.8c3,1,4.7,4.2,3.7,7.2c-0.1,0.4-0.3,0.8-0.6,1.2L286.9,382.4c-1.5,2.5-4.6,3.4-7.3,2.3
		l-80-35.7c-2.9-1.3-4.2-4.7-2.9-7.6c0.1-0.2,0.2-0.5,0.4-0.7L322.7,139C324.1,136.7,326.9,135.7,329.4,136.6z"/>
	<path class="st4" d="M342.5,136.9l-4,6.9c-1.6,2.7-0.7,6.3,2.1,7.9c0.3,0.2,0.6,0.3,0.9,0.4l41.9,15c2.5,0.9,5.2,0,6.7-2.1l6.3-9.1
		L342.5,136.9z"/>
	<path class="st5" d="M399.4,215.6c-0.3,0-0.6-0.1-0.9-0.3l-1.4-0.8c-1-0.6-1.4-1.9-0.8-2.9l10.1-17.7l0,0c0.6-1,1.8-1.4,2.8-0.9
		l1.5,0.7c1.1,0.5,1.5,1.8,1,2.9c0,0,0,0.1-0.1,0.1l-10.2,17.8C401,215.2,400.2,215.6,399.4,215.6z M406.9,194.1l-10.1,17.7
		c-0.5,0.8-0.2,1.8,0.6,2.3c0,0,0,0,0,0l1.4,0.8c0.8,0.5,1.8,0.2,2.3-0.6l10.2-17.8c0.2-0.4,0.3-0.9,0.1-1.3c-0.1-0.4-0.5-0.8-0.9-1
		l-1.5-0.7C408.2,193.1,407.3,193.4,406.9,194.1L406.9,194.1z"/>
	<path class="st6" d="M317.4,285.9c0,0-34,47.4-65.1,52.6c0,0-8-16.3-14.3-23.9s-48.8-46.6-45.8-60c0.3-1.2,0.6-2.3,0.9-3.4
		c1.9-6.8,5-13.1,9.1-18.8c0,0-9-8.1,5.9-24c0,0-3.3-11.8,6.4-16.8c0,0-3.6-11.4,9.9-16.5c6.7-2.5,17.2,1.7,26.6,7.1
		c9.7,5.7,18,12.8,19.3,15.3c2.5,5,6.7,21.4,6.7,21.4l25.4,43.3L317.4,285.9z"/>
	<path class="st7" d="M331.7,188.7c-10.2,18.2-27.7,18-46.6,11.1c-13.3-4.8-27.4-13-40.2-20.4c-26.9-15.5-56.8-27.3-71.1-32.6
		l-3.1-1.1c-3.4-1.3-5.4-1.9-5.4-1.9l38.9-97.6c0,0,3,3,7.7,7.7c3.8,3.7,8.7,8.6,14.3,13.9c17.2,16.6,40,37.8,50.9,44.8
		c8.4,5.4,23.9,13.8,36.9,24.7C330.5,151,343,168.6,331.7,188.7z"/>
	<path class="st8" d="M226.2,67.8c-4.2,15.3-10.9,29.8-19.9,42.9c-9.2,13.5-13.9,20.3-32.5,36.2l-3.1-1.1
		c18.5-28,30.9-59.7,41.3-91.8C215.8,57.6,220.7,62.5,226.2,67.8z"/>
	<path class="st8" d="M331.7,188.7c-10.2,18.2-27.7,18-46.6,11.1c9.7-8,17.2-18.3,21.9-29.9c4.2-10.4,6.6-21.5,7.1-32.7
		C330.5,151,343,168.6,331.7,188.7z"/>
	<path class="st7" d="M241.7,171.9c0,0-39.3,91.5-34.7,97.8s24.1,19.7,29.5,13.3s41.6-94.4,41.6-94.4L241.7,171.9z"/>
	<ellipse transform="matrix(0.4945 -0.8691 0.8691 0.4945 3.5 188.0757)" class="st7" cx="163.5" cy="91" rx="80.5" ry="39.1"/>
	<path class="st0" d="M197.2,77.4c-0.3,0.8-0.6,1.6-0.9,2.4c-3,8-6.6,15.7-10.9,23.1c-4.6,8.1-9.8,15.7-15.7,22.9
		c-16.8,20.5-35.2,31.1-46.1,24.9c-14.4-8.2-10.1-42.9,9.6-77.5s47.3-56,61.8-47.8C205.8,31.5,206,52.6,197.2,77.4z"/>
	<path class="st7" d="M197.2,77.4c-0.3,0.8-0.6,1.6-0.9,2.4c-3,8-6.6,15.7-10.9,23.1c-4.6,8.1-9.8,15.7-15.7,22.9l-4.9-4.4
		L144.7,103c0,0-2.2-7.6,4.7-20.9c6.8-13.3,18-13.6,18-13.6L197.2,77.4z"/>
	<path class="st8" d="M196.3,79.8c-3,8-6.6,15.7-10.9,23.1c-4.6,8.1-9.8,15.7-15.7,22.9l-4.9-4.4C176.3,108.2,186.7,94.3,196.3,79.8
		z"/>
	<path class="st6" d="M263,196.9c0.4,9.5-9.8,11.1-9.8,11.1c3.5,3.4,6.4,7.3,8.6,11.6c3.5,6.9-6.9,15.7-6.9,15.7
		c4.7,10.5-8.6,17.5-8.6,17.5s-0.5,5.4-6.8,10.8s-17-8.3-20.4-10.6s-15.4,2.6-15.4,2.6l-10.7-4.3c1.9-6.8,5-13.1,9.1-18.8
		c0,0-9-8.1,5.9-24c0,0-3.3-11.8,6.4-16.8c0,0-3.6-11.4,9.9-16.5c6.7-2.5,17.2,1.7,26.6,7.1C257.2,186.5,262.8,191.9,263,196.9z"/>
	<path class="st3" d="M247.7,252.7c0,1.5-0.4,3-1.1,4.3c-1.1,2.1-3.1,3.5-5.4,3.9H241c-0.3,0-0.6,0.1-0.9,0c-2,0-3.9-0.8-5.3-2.3
		c-0.4-0.5-0.9-0.9-1.3-1.4c-2.1-2.1-3.9-4.5-3.5-7.3c0.3-1.5,1.1-3,2.1-4.1c1.2-1.4,2.5-2.7,4-3.8c-3.3-3.1-8.6-6.1-15.9-8.9
		c-2.4-0.9-4.9-1.4-7.4-1.3c-3.4-0.1-6.8,0.5-10,1.8l-2.1,1c0.2-0.8,0.3-1.4,0.3-1.8c0.2-0.9,0.3-1.6,0.8-1.8c3.5-1.3,7.3-2,11.1-2
		c2.9,0,5.7,0.5,8.4,1.5c9.6,3.7,15.8,7.7,19.1,12s7.1,9.2,7.2,9.3C247.6,252.1,247.7,252.4,247.7,252.7z"/>
	<path class="st3" d="M255.5,237.9c-0.7,0-1.4-0.6-1.4-1.3v-1c-3.6-5.7-17-16.3-27.9-22.1c-4.7-2-9.6-3.4-14.6-4.1
		c-0.9-0.1-1.8-0.2-2.7-0.1c-0.7,0-1.3,0.2-1.9,0.3c-0.1-0.3-0.2-0.6-0.2-0.9c0-0.7,0.4-1.3,0.9-1.7c1.3-0.3,2.6-0.5,3.9-0.4
		c3.4,0,8.8,0.8,15.8,4.4c11.5,6.1,25.6,17.4,29.1,23.4c0.1,0.2,0.2,0.4,0.2,0.6v1.4c0,0.4-0.2,0.9-0.6,1.1
		C256.1,237.8,255.8,237.9,255.5,237.9z"/>
	<path class="st3" d="M254.7,242.6c-0.7,1.3-2.1,2.3-3.6,2.4h-0.6c-1.4,0-2.7-0.6-3.7-1.6c-3.6-4-4.8-7-3.8-9l0.6-1.3
		c1.2-2.4,2-4.2,3.4-4.6c0.2-0.1,0.4-0.1,0.6-0.1c0.4,0,0.7,0.1,1,0.3c2.6,1.9,4.9,4.1,6.9,6.6C256.2,236.2,256.4,239.4,254.7,242.6
		z"/>
	<path class="st3" d="M261.9,227.4c-0.2,0-0.4,0-0.6-0.1c-0.3-0.2-0.6-0.5-0.7-0.8c-0.1-0.3-0.1-0.7,0.1-1.1
		c0.5-1.3,0.7-2.8,0.7-4.2c0-1.8-2.8-5-5.5-8.1c-1-1.2-2.2-2.5-3.2-3.8c-3.4-4.2-12.4-10-23-14.9c-3.2-1.2-6.6-2-10-2.5
		c-1.4-0.2-2.9-0.2-4.3-0.1c-0.6,0.1-1.3,0.1-1.9,0.3c0-0.7,0.2-1.3,0.6-1.9c1.1-1.4,3.5-1.1,5.6-1.1c3.9,0.1,7.7,1.1,11.2,2.8
		c11.1,5.1,20.3,11.2,24,15.7c1,1.2,2,2.4,3.1,3.6c3.2,3.6,6.2,7.1,6.2,9.9c0.1,1.9-0.3,3.7-1,5.4c-0.2,0.4-0.6,0.7-1.1,0.7
		L261.9,227.4z"/>
	<path class="st3" d="M261.1,227.1c-0.5,1.1-1.5,1.9-2.7,2.2c-0.1,0-0.2,0-0.3,0c-0.2,0-0.3,0-0.5,0c-1,0-1.9-0.3-2.6-1
		c-5.9-5.5-6.5-7.4-6.2-8.4c0.4-1.7,3.6-8.4,6-8.6h0.1c2.4,0,8,8.2,8.1,8.3C263.7,220.8,261.5,226.4,261.1,227.1z"/>
	<path class="st3" d="M246.4,253.8c-0.7,0-1.3-0.5-1.4-1.2c0-0.4,0.1-0.7,0.3-1c0.2-0.3,0.6-0.5,1-0.5c0.1,0,0.3-0.1,0.4-0.1
		c0.3-0.1,0.5-0.3,0.8-0.5c1.1-0.8,2.1-1.6,3.1-2.6c0.4-0.4,0.8-1,1.1-1.4l1.6-2.2c0.3-0.3,0.7-0.5,1.1-0.6c0.2,0,0.4,0,0.6,0.1
		l0.4,0.2c0.7,0.3,1,1.2,0.6,1.8c-0.2,0.5-0.7,0.8-1.2,0.8l-1.1,1.4c-0.4,0.5-0.8,1.1-1.3,1.6c-1,1.1-2.2,2.1-3.4,2.9
		c-0.4,0.3-0.8,0.6-1.3,0.8c-0.4,0.2-0.8,0.3-1.2,0.4L246.4,253.8z"/>
	<path class="st3" d="M246.4,252.8L246.4,252.8c-0.2,0-0.4-0.1-0.4-0.3c0-0.2,0.1-0.4,0.3-0.4c0,0,0,0,0,0c0.3,0,0.5-0.1,0.8-0.2
		c0.4-0.2,0.7-0.4,1-0.6c1.1-0.8,2.2-1.7,3.2-2.7c0.4-0.5,0.8-1,1.2-1.5l1.7-2.2c0.1-0.1,0.3-0.2,0.4-0.1l0.4,0.2
		c0.2,0.1,0.3,0.3,0.2,0.5c-0.1,0.2-0.3,0.3-0.5,0.2l-0.2-0.1l-1.5,1.9c-0.4,0.5-0.8,1-1.2,1.6c-1,1-2.1,2-3.3,2.8
		c-0.3,0.3-0.7,0.5-1.1,0.7C247.1,252.7,246.8,252.8,246.4,252.8z"/>
	<path class="st3" d="M255.7,234.8c-0.1,0-0.3,0-0.4-0.1c-0.1-0.2-0.1-0.4,0.1-0.5c0,0,0,0,0,0c1.6-1.3,3-2.9,4.1-4.6
		c0.1-0.2,0.3-0.2,0.5-0.1c0.2,0.1,0.2,0.3,0.1,0.5l0,0c-1.2,1.8-2.6,3.4-4.2,4.8C255.8,234.8,255.7,234.8,255.7,234.8z"/>
	<path class="st3" d="M253.2,209.3c-0.7,0-1.3-0.5-1.4-1.2c0-0.4,0.1-0.8,0.4-1.1c0.2-0.3,0.6-0.4,0.9-0.4c3.3-0.6,6.2-2.7,7.8-5.6
		c0.2-0.4,0.7-0.7,1.2-0.7c0.2,0,0.5,0.1,0.7,0.2c0.3,0.2,0.5,0.5,0.6,0.8c0.1,0.3,0,0.7-0.1,1c-2.1,3.7-5.7,6.3-9.9,7L253.2,209.3z
		"/>
	<path class="st3" d="M253.3,208.3L253.3,208.3c-0.3,0-0.4-0.1-0.5-0.3c0,0,0,0,0,0c0-0.2,0.1-0.4,0.3-0.4c3.7-0.6,6.9-2.9,8.7-6.1
		c0.1-0.2,0.3-0.2,0.5-0.1c0,0,0,0,0,0c0.2,0.1,0.2,0.3,0.1,0.5c0,0,0,0,0,0C260.6,205.3,257.2,207.7,253.3,208.3z"/>
	<path class="st6" d="M248.1,171.1c0,0-12.1,7.6-8.8,14s23.2,17.4,23.2,17.4l5.3,12.1c0,0-18.3,30.2-14.8,55.6l52.8,1.9
		c0,0-6.3-49.2-8.6-55.1s-13.3-32.8-16.3-34.5S255.7,170.2,248.1,171.1z"/>
	<path class="st3" d="M266.9,175.9c0.4,1.2-0.7,2.3-2,4.4c-0.8,1.5-2.1,2.6-3.6,3.3c-0.6,0.3-1.2,0.4-1.9,0.5
		c-2.3,0.1-4.6-0.4-6.7-1.4c-1.8-0.8-3.6-1.8-5.2-2.8c-1.2-0.6-2.1-1.6-2.7-2.8c-0.4-1.2-0.2-2.6,0.5-3.6c0.5-1.1,1.4-2,2.4-2.6
		c0.4-0.2,0.8-0.4,1.3-0.5c1.8-0.4,8.6,1.5,17.6,5.1C266.7,175.5,266.8,175.7,266.9,175.9z"/>
	<path class="st3" d="M265.9,175.6l-4.4-1.2C263.5,174.8,265.1,175.3,265.9,175.6z"/>
	<path class="st3" d="M253.9,275.3c-0.7,0-1.2-0.5-1.4-1.1c-3.8-23,5.4-45,13.9-59.5l-5.7-13.1c-3.2-0.9-14.1-4.4-19.9-11.2
		c-2.9-3.4-3.6-8.2-1.8-12.3c1.7-3.7,4.8-6.6,8.5-8.1c0.2-0.1,0.4-0.1,0.6-0.1c0.8,0,1.4,0.6,1.4,1.4c0,0.5-0.3,1-0.8,1.2
		c-3.2,1.3-5.7,3.7-7.1,6.8c-1.4,3.1-0.9,6.8,1.4,9.4c6,7,19.1,10.4,19.2,10.5c0.4,0.1,0.7,0.4,0.9,0.8l6.3,14.4
		c0.2,0.4,0.1,0.9-0.1,1.2c-8.4,14.1-17.6,35.7-13.9,58.3c0.1,0.4,0,0.7-0.2,1c-0.2,0.3-0.5,0.5-0.8,0.5h-0.2L253.9,275.3z"/>
	<path class="st7" d="M67.9,419.4c9,1.8,11.7,4.8,13.2,16c0,0.6,0.4,1,1,1c0.6,0,1-0.4,1-1c1.4-11.2,4.1-14.3,13.1-16
		c0.6,0,1-0.4,1-1s-0.4-1-1-1c-9-1.8-11.7-4.8-13.1-16c0-0.6-0.4-1-1-1c-0.6,0-1,0.4-1,1c-1.4,11.2-4.2,14.3-13.2,16
		c-0.6,0-1,0.4-1,1S67.4,419.4,67.9,419.4z"/>
	<path class="st7" d="M139.1,462.3c1.7,0.3,2.2,0.9,2.5,3.1c0,0.1,0.1,0.2,0.2,0.2c0.1,0,0.1-0.1,0.2-0.2c0.3-2.1,0.8-2.7,2.5-3.1
		c0.1,0,0.2-0.1,0.2-0.2s-0.1-0.2-0.2-0.2l0,0c-1.7-0.3-2.2-0.9-2.5-3.1c0-0.1-0.1-0.2-0.2-0.2c-0.1,0-0.1,0.1-0.2,0.2
		c-0.3,2.1-0.8,2.7-2.5,3.1c-0.1,0-0.2,0.1-0.2,0.2S139,462.3,139.1,462.3z"/>
	<path class="st7" d="M46.9,384.1c4.9,1,6.4,2.6,7.2,8.7c0,0.3,0.3,0.6,0.6,0.6c0.3,0,0.6-0.3,0.6-0.6c0.8-6.1,2.3-7.8,7.2-8.7
		c0.3-0.1,0.5-0.4,0.4-0.7c0-0.2-0.2-0.4-0.4-0.4c-4.9-1-6.4-2.6-7.2-8.8c0-0.3-0.3-0.6-0.6-0.6c-0.3,0-0.6,0.3-0.6,0.6
		c-0.8,6.1-2.3,7.8-7.2,8.8c-0.3,0-0.6,0.2-0.6,0.6C46.3,383.9,46.6,384.1,46.9,384.1C46.9,384.1,46.9,384.1,46.9,384.1z"/>
	<path class="st0" d="M197.4,211.8l3.9-11.8c0-0.1,0-0.2,0-0.3c-0.4-0.8-1.2-1.3-2.1-1.3l-3.3-0.4l-1.8-0.2l0.1-0.3
		c0.1-0.4,0.2-0.8,0.3-1.2c0.5-1.5,0.4-3.2-0.3-4.7c-0.7-1.4-2.3-2.1-3.8-1.7c-0.4,0.1-0.5,0.3-0.5,0.5l-0.1,3.2
		c0,0.5-0.1,0.9-0.4,1.3c-0.7,1-1.3,1.9-2,2.8l-0.9,1.3h-0.3l-1-0.1l0,0h-0.3h-0.1h-0.2l-3-0.3l-2-0.2c-0.7-0.1-1.3,0.4-1.3,1.1
		c0,0,0,0,0,0L177,210c0,0.3,0.1,0.7,0.3,0.9c0.2,0.2,0.4,0.4,0.7,0.4h0.2l5.4,0.6h0.1h0.5c0.3,0,0.6-0.1,0.7-0.4l0.1-0.2l8,0.9
		c1,0.1,1.9,0.2,2.9,0.3c0.5,0.1,1.1-0.1,1.5-0.4L197.4,211.8z M182.2,210.4l-3.6-0.4h-0.3v-0.3c0.2-2.4,0.5-4.8,0.7-7.1l0.3-3h0.3
		c1.2,0.1,2.4,0.2,3.6,0.4l1.2,0.1h0.4l-0.1,1.4l-1,9.2L182.2,210.4z M195.9,211.2h-0.1l-2.3-0.3l-6-0.6h-0.3L185,210l0.2-2.3
		c0.2-2.1,0.4-4.1,0.6-6.2l0.1-1.3l0.9,0.1c0.1,0,0.2-0.1,0.2-0.1c1-1.4,2-2.9,3-4.4c0.5-0.7,0.7-1.5,0.7-2.3c0-0.5,0-1,0-1.6v-1
		h0.2c0.5-0.1,1.1,0.2,1.4,0.7c0.8,1.2,1.1,2.7,0.7,4.1c-0.2,0.7-0.4,1.4-0.6,2.1l-0.2,0.8c0,0.1,0,0.2,0.1,0.2
		c0.1,0.1,0.2,0.1,0.3,0.1l6,0.6c0.2,0,0.5,0.1,0.7,0.2l0.2,0.1l-2.9,8.8c0,0,0,0.1,0,0.1v0.1l-0.8,2.3L195.9,211.2z"/>
	<path class="st0" d="M179.6,169.8l0.7-0.3c1.4-0.6,3.1-0.4,4.4,0.5c1.8,1.2,2.6,3.4,2.1,5.4c-0.4,1.5-1.5,2.7-2.9,3.2
		c-2.2,0.9-4.5,1.8-6.7,2.6l-3.4,1.3l-0.2,0.1c-0.1-0.1-0.1-0.1-0.1-0.2c-1.1-3.3-2.2-6.7-3.3-10.1c-0.5-1.4-0.4-2.9,0.4-4.2
		c1.1-1.9,3.3-2.9,5.5-2.3c1.3,0.4,2.4,1.2,3.1,2.4c0.1,0.2,0.2,0.5,0.3,0.7C179.5,169.2,179.5,169.5,179.6,169.8z"/>
	<path class="st0" d="M370.5,342.4l-11.7-8.3c-2-1.4-4.8-1-6.3,1c0,0,0,0,0,0l-3.9,5.5c-1.4,2-1,4.8,1.1,6.3c0,0,0,0,0,0l6.4,4.5
		l1.2,4.6c0.2,0.8,1,1.2,1.8,1c0.3-0.1,0.6-0.3,0.8-0.6l1.1-1.5l0.4,0.3c2,1.4,4.8,1,6.3-1.1l3.9-5.5
		C373,346.7,372.6,343.9,370.5,342.4z"/>
	<path class="st3" d="M357.7,341.6c0.4,0.5,0.3,1.2-0.2,1.6c-0.5,0.4-1.2,0.3-1.6-0.2c-0.4-0.5-0.3-1.2,0.2-1.6c0,0,0,0,0,0
		C356.6,341,357.3,341.1,357.7,341.6z"/>
	<path class="st3" d="M361.1,344c0.4,0.5,0.3,1.2-0.2,1.6c-0.5,0.4-1.2,0.3-1.6-0.2s-0.3-1.2,0.2-1.6
		C359.9,343.4,360.7,343.5,361.1,344z"/>
	<path class="st3" d="M364.4,346.3c0.4,0.5,0.3,1.2-0.2,1.6c-0.5,0.4-1.2,0.3-1.6-0.2c-0.4-0.5-0.3-1.2,0.2-1.6
		C363.3,345.7,364,345.8,364.4,346.3z"/>
	<path class="st0" d="M135.8,266.3c0.2-1.3,0-2.6-0.7-3.7c-0.7-1.2-1.9-2-3.2-2.4c-3.2-1-6.4-1.8-9.7-2.4c-2.1-0.3-4.2,0.8-5.2,2.7
		c-0.9,1.5-2.8,9.2-3,10.9c-0.3,2.2,0.8,4.3,2.8,5.3c1.4,0.8,9,2.7,10.8,2.9c2.2,0.3,4.3-0.8,5.3-2.8
		C133.8,275.2,135.5,267.9,135.8,266.3z M131.4,275.6c-0.6,1.6-2.2,2.5-3.9,2.1c-1.6-0.2-8.7-2-10-2.8c-1.2-0.7-1.9-2-1.7-3.4
		c0.6-3.3,1.4-6.6,2.6-9.8c0.6-1.6,2.2-2.5,3.9-2.1c3.2,0.6,6.4,1.5,9.6,2.5c1.6,0.6,2.5,2.2,2.1,3.9
		C133.3,269.3,132.5,272.5,131.4,275.6z M126.2,263.7c-2.8-0.7-5.6,0.9-6.3,3.7c-0.7,2.8,0.9,5.6,3.7,6.3c2.8,0.7,5.6-0.9,6.3-3.7
		C130.6,267.2,129,264.4,126.2,263.7L126.2,263.7z M124,271.9c-1.8-0.5-2.8-2.3-2.4-4.1c0.5-1.8,2.3-2.8,4.1-2.4
		c1.8,0.5,2.8,2.3,2.4,4.1c0,0,0,0,0,0C127.6,271.3,125.8,272.4,124,271.9L124,271.9z M132.6,265.1c-0.1,0.7-0.8,1.1-1.4,0.9
		c-0.7-0.1-1.1-0.8-0.9-1.4c0,0,0-0.1,0-0.1c0.2-0.6,0.9-1,1.5-0.8C132.4,263.9,132.7,264.5,132.6,265.1z"/>
	<path class="st0" d="M135.8,266.3c0.2-1.3,0-2.6-0.7-3.7c-0.7-1.2-1.9-2-3.2-2.4c-3.2-1-6.4-1.8-9.7-2.4c-2.1-0.3-4.2,0.8-5.2,2.7
		c-0.9,1.5-2.8,9.2-3,10.9c-0.3,2.2,0.8,4.3,2.8,5.3c1.4,0.8,9,2.7,10.8,2.9c2.2,0.3,4.3-0.8,5.3-2.8
		C133.8,275.2,135.5,267.9,135.8,266.3z M131.4,275.6c-0.6,1.6-2.2,2.5-3.9,2.1c-1.6-0.2-8.7-2-10-2.8c-1.2-0.7-1.9-2-1.7-3.4
		c0.6-3.3,1.4-6.6,2.6-9.8c0.6-1.6,2.2-2.5,3.9-2.1c3.2,0.6,6.4,1.5,9.6,2.5c1.6,0.6,2.5,2.2,2.1,3.9
		C133.3,269.3,132.5,272.5,131.4,275.6z M126.2,263.7c-2.8-0.7-5.6,0.9-6.3,3.7c-0.7,2.8,0.9,5.6,3.7,6.3c2.8,0.7,5.6-0.9,6.3-3.7
		C130.6,267.2,129,264.4,126.2,263.7L126.2,263.7z M124,271.9c-1.8-0.5-2.8-2.3-2.4-4.1c0.5-1.8,2.3-2.8,4.1-2.4
		c1.8,0.5,2.8,2.3,2.4,4.1c0,0,0,0,0,0C127.6,271.3,125.8,272.4,124,271.9L124,271.9z M132.6,265.1c-0.1,0.7-0.8,1.1-1.4,0.9
		c-0.7-0.1-1.1-0.8-0.9-1.4c0,0,0-0.1,0-0.1c0.2-0.6,0.9-1,1.5-0.8C132.4,263.9,132.7,264.5,132.6,265.1z"/>
	<path class="st9" d="M173.9,280.5c-2,0.2-3.8-0.9-4.6-2.7c0.7,0.1,1.4,0,2-0.3h0.1c-1.3-0.1-2.4-0.8-3.2-1.8
		c-0.6-0.7-0.9-1.5-1-2.4c0.7,0.3,1.4,0.4,2.1,0.3c-2.2-1.1-3.1-3.8-2.1-6c2.7,2.6,6.3,3.9,10,3.7c-0.1-0.2-0.1-0.3-0.1-0.5
		c-0.6-2.4,0.8-4.8,3.2-5.5c1.4-0.4,3-0.1,4.2,0.8c0.1,0,0.2,0,0.2,0c0.9-0.3,1.8-0.8,2.6-1.3h0.1l0,0c-0.2,1.1-0.8,2-1.7,2.7
		c0.9-0.2,1.7-0.5,2.5-1l0,0l-0.4,0.8c-0.4,0.7-0.9,1.3-1.5,1.8c0,0-0.1,0.1-0.1,0.1c0.1,0.7,0.2,1.4,0.1,2c0,1.4-0.2,2.9-0.7,4.2
		c-0.5,1.4-1.2,2.7-2.1,3.9c-1.5,2-3.6,3.5-5.9,4.2c-0.8,0.3-1.7,0.5-2.5,0.6c-2.6,0.4-5.2,0-7.6-1.1l-0.1-0.1
		c1.6,0,3.1-0.4,4.5-1.2C172.6,281.6,173.3,281.1,173.9,280.5z"/>
	<path class="st9" d="M292.3,102.8c0.1-0.5,0.2-0.9,0.4-1.4c0.4-1.4,0.8-2.8,1.1-4.1c0.1-0.2,0-0.5-0.1-0.7
		c-3-5.6-0.9-12.5,4.7-15.4c5.6-3,12.5-0.9,15.4,4.7c3,5.6,0.9,12.5-4.7,15.4c-3.3,1.8-7.2,1.8-10.5,0.1c-0.2-0.1-0.5-0.1-0.7-0.1
		C294.9,102.1,292.9,102.7,292.3,102.8z M295,100.2c1.1-0.3,2.2-0.6,3.2-0.8c0.3-0.1,0.5,0,0.8,0.1c1.9,1.1,4.1,1.6,6.3,1.2
		c5.2-0.8,8.7-5.7,7.9-10.9c-0.8-5.2-5.7-8.7-10.9-7.9c-5.2,0.8-8.7,5.7-7.9,10.9c0.2,1.1,0.5,2.1,1.1,3.1c0.4,0.5,0.4,1.2,0.2,1.8
		C295.4,98.4,295.2,99.2,295,100.2L295,100.2z"/>
	<path class="st9" d="M306.8,96.7c-2.2-0.1-5.8-1.8-8.2-6.1c-0.9-1.4-0.7-3.2,0.5-4.4c0.4-0.3,1-0.4,1.5-0.2c0.1,0,0.3,0.2,0.3,0.3
		c0.3,0.7,0.6,1.5,0.9,2.2c0.1,0.4-0.1,0.8-0.7,1.4c-0.2,0.2-0.2,0.4-0.1,0.6c0.9,1.6,2.3,2.8,4,3.4c0.2,0.1,0.5,0,0.6-0.2
		c0.9-1.1,1-1.4,1.5-1.2c2.3,1.1,2.5,1.2,2.5,1.4c0,1.4-1.1,2.5-2.4,2.6C307,96.7,306.9,96.7,306.8,96.7z"/>
	<path class="st9" d="M339.5,94.7c0.8,0,1.6,0,2.5,0h0.3l-0.1-4.2c-0.4,0-0.9-0.1-1.4-0.1c-0.8,0-1.7,0-2.5,0
		c-1.3,0-2.5,0.4-3.5,1.2c-1.1,0.8-1.9,2.1-2.1,3.5c-0.1,0.6-0.1,1.2-0.1,1.8c0,1,0,1.9,0,2.9v0.4l-4.1,0.1l0.1,4.8l4-0.1l0.2,12
		l5-0.1l-0.2-11.9l4-0.1c0.2-1.6,0.4-3.2,0.5-4.8h-0.9l-3.8,0.1c0,0,0-2.4,0-3.4C337.6,95.2,338.4,94.8,339.5,94.7z"/>
	<polygon class="st0" points="361.1,121.8 355.6,117.9 356.7,116.4 361.1,119.6 365.9,116 370.8,119.6 375.7,116 381.1,120 
		380,121.5 375.7,118.3 370.8,121.8 365.9,118.3 	"/>
	<polygon class="st0" points="124.8,228.2 117.3,222.8 118.8,220.8 124.8,225.2 131.5,220.2 138.2,225.2 145,220.2 152.4,225.7 
		151,227.7 145,223.3 138.2,228.2 131.5,223.3 	"/>
	<path class="st0" d="M187.6,256.1c-3.2,0-5.8-2.6-5.8-5.8s2.6-5.8,5.8-5.8s5.8,2.6,5.8,5.8C193.3,253.5,190.7,256.1,187.6,256.1z
		 M187.6,247.6c-1.5,0-2.8,1.2-2.8,2.8s1.2,2.8,2.8,2.8s2.8-1.2,2.8-2.8c0,0,0,0,0,0C190.3,248.8,189.1,247.6,187.6,247.6
		L187.6,247.6z"/>
	<path class="st0" d="M428.6,257.5c-1.8,0-3.3-1.5-3.3-3.3c0-1.8,1.5-3.3,3.3-3.3c1.8,0,3.3,1.5,3.3,3.3c0,0,0,0,0,0
		C431.9,256,430.4,257.5,428.6,257.5C428.6,257.5,428.6,257.5,428.6,257.5z M428.6,252.7c-0.9,0-1.6,0.7-1.6,1.6
		c0,0.9,0.7,1.6,1.6,1.6c0.9,0,1.6-0.7,1.6-1.6C430.2,253.4,429.5,252.7,428.6,252.7C428.6,252.7,428.6,252.7,428.6,252.7z"/>
	<path class="st0" d="M276.4,86.9c-2.2,0-4-1.8-4-4s1.8-4,4-4s4,1.8,4,4S278.6,86.9,276.4,86.9z M276.4,81c-1.1,0-1.9,0.9-1.9,1.9
		c0,1.1,0.9,1.9,1.9,1.9c1,0,1.8-0.8,1.9-1.8c0-1.1-0.8-1.9-1.8-2C276.5,81,276.5,81,276.4,81z"/>
	<path class="st0" d="M389.5,136.4c-2.2,0-4-1.8-4-4s1.8-4,4-4s4,1.8,4,4S391.7,136.4,389.5,136.4z M389.5,130.6
		c-1.1,0-1.9,0.9-1.9,1.9s0.9,1.9,1.9,1.9c1.1,0,1.9-0.9,1.9-1.9C391.4,131.4,390.5,130.6,389.5,130.6z"/>
	<polygon class="st0" points="400.3,295.5 395.9,292.3 396.8,291.1 400.4,293.7 404.4,290.8 408.4,293.7 412.4,290.8 416.9,294 
		416,295.2 412.4,292.6 408.4,295.5 404.4,292.6 	"/>
	<polygon class="st0" points="375.4,316.6 366.4,306.1 380,303.6 	"/>
	<path class="st0" d="M164.2,317c0,1.9-1.6,3.5-3.5,3.5s-3.5-1.6-3.5-3.5c0-1.9,1.6-3.5,3.5-3.5C162.7,313.5,164.2,315.1,164.2,317
		C164.2,317,164.2,317,164.2,317z"/>
	<path class="st0" d="M324.4,112.5c0,1.5-1.3,2.8-2.8,2.8s-2.8-1.3-2.8-2.8c0-1.5,1.3-2.8,2.8-2.8
		C323.2,109.7,324.4,110.9,324.4,112.5C324.4,112.5,324.4,112.5,324.4,112.5z"/>
	<polygon class="st0" points="171.5,346 175.6,344.3 173.9,340.2 169.8,342 168,337.8 164,339.5 165.7,343.6 161.5,345.4 
		163.2,349.4 167.4,347.7 169.1,351.9 173.2,350.2 	"/>
	<polygon class="st0" points="422.7,232 426.9,230.2 425.2,226.2 421,227.9 419.3,223.7 415.2,225.4 416.9,229.6 412.8,231.3 
		414.5,235.4 418.6,233.7 420.4,237.8 424.4,236.1 	"/>
	<path class="st2" d="M400.9,69.7c0-0.5,0.1-1.1,0.1-1.6s0-1.1-0.1-1.6l-3.5-1.2c-0.2-1.3-0.5-2.6-1-3.8l2.5-2.8
		c-0.5-1-1-1.9-1.6-2.8l-3.6,0.8c-0.8-1-1.8-2-2.8-2.8l0.8-3.6c-0.9-0.6-1.8-1.2-2.8-1.6L386,51c-1.2-0.5-2.5-0.8-3.8-1l-1.2-3.5
		c-0.5,0-1.1-0.1-1.6-0.1c-0.6,0-1.1,0-1.6,0.1l-1.2,3.5c-1.3,0.2-2.6,0.5-3.8,1l-2.8-2.5c-1,0.5-1.9,1-2.8,1.6l0.8,3.6
		c-1,0.8-2,1.8-2.8,2.8l-3.6-0.8c-0.6,0.9-1.2,1.8-1.6,2.8l2.5,2.8c-0.5,1.2-0.8,2.5-1,3.8l-3.5,1.2c0,0.5-0.1,1.1-0.1,1.6
		s0,1.1,0.1,1.6l3.5,1.2c0.2,1.3,0.5,2.6,1,3.8l-2.5,2.8c0.5,1,1,1.9,1.6,2.8l3.6-0.8c0.8,1,1.8,2,2.8,2.8l-0.8,3.6
		c0.9,0.6,1.8,1.2,2.8,1.6l2.8-2.4c1.2,0.5,2.5,0.8,3.8,1l1.1,3.5c0.5,0,1.1,0.1,1.6,0.1c0.5,0,1.1,0,1.6-0.1l1.2-3.5
		c1.3-0.2,2.6-0.5,3.8-1l2.8,2.4c1-0.5,1.9-1,2.8-1.6l-0.8-3.6c1-0.8,2-1.8,2.8-2.8l3.6,0.8c0.6-0.9,1.2-1.8,1.6-2.8l-2.5-2.8
		c0.5-1.2,0.8-2.5,1-3.8L400.9,69.7z M379.3,78c-5.5,0-10-4.4-10-9.9c0-5.5,4.4-10,9.9-10c5.5,0,10,4.4,10,9.9c0,0,0,0,0,0
		C389.3,73.5,384.8,78,379.3,78z"/>
	
		<ellipse transform="matrix(0.9912 -0.1326 0.1326 0.9912 -8.6966 59.7978)" class="st3" cx="444.6" cy="95.2" rx="31.8" ry="31.8"/>
	<circle class="st7" cx="444.6" cy="95.2" r="25.7"/>
	<circle class="st3" cx="444.6" cy="95.2" r="18"/>
	<circle class="st7" cx="444.6" cy="95.2" r="9.3"/>
	<polygon class="st8" points="427.5,112.1 420.9,111.7 426.6,107.5 431.8,107.9 	"/>
	<polygon class="st8" points="427.7,112.4 428.4,119 432.3,113.2 431.8,108.1 	"/>
	<path class="st0" d="M427,113.2c-0.1,0-0.1,0-0.2-0.1c-0.1-0.1-0.1-0.3,0-0.4l17.8-18.2c0.1-0.1,0.3-0.1,0.4,0
		c0.1,0.1,0.1,0.3,0,0.4l0,0l-17.8,18.2C427.2,113.2,427.1,113.2,427,113.2z"/>
</g>
</svg>
