<?xml version="1.0" encoding="utf-8"?>
<!-- Generator: Adobe Illustrator 26.0.1, SVG Export Plug-In . SVG Version: 6.00 Build 0)  -->
<svg version="1.1" id="Layer_1" xmlns="http://www.w3.org/2000/svg" xmlns:xlink="http://www.w3.org/1999/xlink" x="0px" y="0px"
	 viewBox="0 0 448 512" style="enable-background:new 0 0 448 512;" xml:space="preserve">
<style type="text/css">
	.st0{fill:#FFFFFF;}
</style>
<path class="st0" d="M382.9,190c-1.3-25.6-7.2-48.4-25.9-67s-41.4-24.5-67-25.8c-26.4-1.5-105.6-1.5-132,0
	c-25.5,1.2-48.3,7.1-67,25.8s-24.5,41.4-25.8,67c-1.5,26.4-1.5,105.6,0,132c1.2,25.6,7.1,48.2,25.8,67s41.4,24.6,67,25.9
	c26.4,1.5,105.6,1.5,132,0c25.6-1.3,48.2-7.2,67-25.9s24.6-41.4,25.9-67C384.4,295.6,384.4,216.4,382.9,190z M348.8,350.3
	c-5.5,13.9-16.5,24.9-30.4,30.4c-21.1,8.3-71,6.4-94.3,6.4c-23.3,0-73.3,1.9-94.3-6.4c-13.9-5.5-24.9-16.5-30.4-30.4
	c-8.3-21-6.5-71.1-6.5-94.3s-1.9-73.3,6.4-94.3c5.5-13.9,16.5-24.9,30.4-30.4c21.1-8.3,71-6.4,94.3-6.4s73.3-1.9,94.3,6.4
	c13.9,5.5,24.9,16.5,30.4,30.4c8.4,21,6.5,71.1,6.5,94.3S357.2,329.3,348.8,350.3z"/>
<path class="st0" d="M224,174c-45.3,0-82,36.7-82,82s36.7,82,82,82c0.1,0,0.1,0,0.2,0c45.2-0.1,81.9-36.8,81.8-82
	C306,210.7,269.3,174,224,174z M224.1,309.4c-29.5,0-53.4-23.8-53.4-53.3s23.8-53.4,53.3-53.4s53.3,23.8,53.4,53.4
	C277.4,285.5,253.6,309.4,224.1,309.4z"/>
<path class="st0" d="M328.5,170.6c0,5.2-2.1,10-5.6,13.5c-3.4,3.5-8.2,5.7-13.4,5.7c0-0.1-0.1-0.1-0.1-0.1
	c-10.6,0-19.1-8.6-19.1-19.1s8.6-19.1,19.1-19.1C320,151.5,328.5,160.1,328.5,170.6z"/>
</svg>
