<?xml version="1.0" encoding="utf-8"?>
<!-- Generator: Adobe Illustrator 26.0.1, SVG Export Plug-In . SVG Version: 6.00 Build 0)  -->
<svg version="1.1" id="Layer_1" xmlns="http://www.w3.org/2000/svg" xmlns:xlink="http://www.w3.org/1999/xlink" x="0px" y="0px"
	 viewBox="0 0 384 512" style="enable-background:new 0 0 384 512;" xml:space="preserve">
<style type="text/css">
	.st0{fill:#5382A1;}
	.st1{fill:#F8981D;}
</style>
<path class="st0" d="M277.7,312.9c9.8-6.7,23.4-12.5,23.4-12.5s-38.7,7-77.2,10.2c-47.1,3.9-97.7,4.7-123.1,1.3
	c-60.1-8,33-30.1,33-30.1s-36.1-2.4-80.6,19C0.7,326.2,183.2,337.8,277.7,312.9z"/>
<path class="st1" d="M192.3,280.8c-19-42.7-83.1-80.2,0-145.8C296,53.2,242.8,0,242.8,0c21.5,84.5-75.6,110.1-110.7,162.6
	C108.2,198.5,143.8,237,192.3,280.8z"/>
<path class="st1" d="M306.9,104.6c0.1,0-175.2,43.8-91.5,140.2c24.7,28.4-6.5,54-6.5,54s62.7-32.4,33.9-72.9
	C215.9,188.1,195.3,169.3,306.9,104.6z"/>
<path class="st0" d="M300.8,375.1c-0.5,1-1.2,1.8-2,2.6c128.3-33.7,81.1-118.9,19.8-97.3c-3.3,1.2-6.2,3.4-8.2,6.3
	c3.6-1.3,7.3-2.3,11-3C352.4,277.2,396.9,325.2,300.8,375.1L300.8,375.1z"/>
<path class="st0" d="M348,437.4c0,0,14.5,11.9-15.9,21.2c-57.9,17.5-240.8,22.8-291.6,0.7c-18.3-7.9,16-19,26.8-21.3
	c11.2-2.4,17.7-2,17.7-2c-20.3-14.3-131.3,28.1-56.4,40.2C232.8,509.4,401,461.3,348,437.4z"/>
<path class="st0" d="M124.4,396c-78.7,22,47.9,67.4,148.1,24.5c-9.8-3.8-19.2-8.4-28.2-13.8c-44.7,8.5-65.4,9.1-106,4.5
	C104.8,407.4,124.4,396,124.4,396z"/>
<path class="st0" d="M304.2,493.2c-78.7,14.8-175.8,13.1-233.3,3.6c0-0.1,11.8,9.7,72.4,13.6c92.2,5.9,233.8-3.3,237.1-46.9
	C380.4,463.5,374,480,304.2,493.2L304.2,493.2z"/>
<path class="st0" d="M260.6,353c-59.2,11.4-93.5,11.1-136.8,6.6c-33.5-3.5-11.6-19.7-11.6-19.7c-86.8,28.8,48.2,61.4,169.5,25.9
	C273.9,363,266.7,358.7,260.6,353z"/>
</svg>
