<svg xmlns="http://www.w3.org/2000/svg" viewBox="0 0 449.23 68.92"><defs><style>.cls-1{fill:#fff;}.cls-2{fill:#009bfa;}</style></defs><g id="Layer_2" data-name="Layer 2"><g id="Layer_2-2" data-name="Layer 2"><path class="cls-1" d="M38.88,25.81a12.93,12.93,0,0,0-1.8-1.22,31.27,31.27,0,0,0-3.66-1.88A36,36,0,0,0,28.61,21a19.17,19.17,0,0,0-5.22-.73,9.45,9.45,0,0,0-5.26,1.22,4,4,0,0,0-1.83,3.59,3.66,3.66,0,0,0,.82,2.44,7.16,7.16,0,0,0,2.32,1.75,20.39,20.39,0,0,0,3.75,1.43c1.49.44,3.22.92,5.17,1.47a70.91,70.91,0,0,1,7.5,2.48A21,21,0,0,1,41.57,38a13.44,13.44,0,0,1,3.62,4.85,16.75,16.75,0,0,1,1.27,6.85A17,17,0,0,1,44.62,58a15.35,15.35,0,0,1-4.85,5.46,20.46,20.46,0,0,1-7,3,35.19,35.19,0,0,1-8.1.94,45,45,0,0,1-6.48-.49,47.38,47.38,0,0,1-6.48-1.43,53.21,53.21,0,0,1-6.2-2.24A33.66,33.66,0,0,1,0,60.2L5.87,48.55a16.39,16.39,0,0,0,2.2,1.55,32.22,32.22,0,0,0,4.4,2.28,43.52,43.52,0,0,0,5.87,2,24.65,24.65,0,0,0,6.6.89Q32,55.31,32,51A3.65,3.65,0,0,0,31,48.3,10.11,10.11,0,0,0,28,46.39a32.88,32.88,0,0,0-4.4-1.59l-5.55-1.63a48.65,48.65,0,0,1-6.92-2.65,18.85,18.85,0,0,1-4.89-3.3,11.77,11.77,0,0,1-2.9-4.32,16,16,0,0,1-.94-5.71,18.13,18.13,0,0,1,1.72-8.06A17.41,17.41,0,0,1,8.8,13.22a20.43,20.43,0,0,1,6.81-3.63A27.19,27.19,0,0,1,23.8,8.37a31.61,31.61,0,0,1,6,.57,42.13,42.13,0,0,1,5.58,1.47,42.74,42.74,0,0,1,5,2,47.8,47.8,0,0,1,4.23,2.29Z"/><path class="cls-1" d="M71.89,67.54a25.5,25.5,0,0,1-9.66-1.75A21.49,21.49,0,0,1,55,61a20.4,20.4,0,0,1-4.52-7,22.29,22.29,0,0,1-1.55-8.27A24.47,24.47,0,0,1,50.46,37,20.66,20.66,0,0,1,62.15,24.91a25.1,25.1,0,0,1,9.74-1.79,24.82,24.82,0,0,1,9.7,1.79,21.32,21.32,0,0,1,7.17,4.85,20.46,20.46,0,0,1,4.44,7.05,23.5,23.5,0,0,1,1.51,8.4c0,.76,0,1.5-.08,2.24a16.78,16.78,0,0,1-.24,1.91H62.76a8.81,8.81,0,0,0,3.14,6.56,10,10,0,0,0,6.4,2.25,11.66,11.66,0,0,0,5.5-1.39A7,7,0,0,0,81.35,53l11.08,3.1a19.91,19.91,0,0,1-7.82,8.23A24.28,24.28,0,0,1,71.89,67.54Zm9-26.25A9.75,9.75,0,0,0,78,34.86a8.8,8.8,0,0,0-6.27-2.37,8.69,8.69,0,0,0-6.32,2.41,9.93,9.93,0,0,0-2.89,6.39Z"/><path class="cls-1" d="M116.83,67.54a19.61,19.61,0,0,1-8.11-1.67,18.78,18.78,0,0,1-6.39-4.69,21.87,21.87,0,0,1-4.2-7,24.93,24.93,0,0,1-1.51-8.84A26.74,26.74,0,0,1,98,36.57a21.17,21.17,0,0,1,3.91-7,18.57,18.57,0,0,1,6-4.69,17,17,0,0,1,7.62-1.71,15.9,15.9,0,0,1,8.07,2.12,14.52,14.52,0,0,1,5.62,5.7V7.23h13V52.05a3.93,3.93,0,0,0,.74,2.73,4,4,0,0,0,2.6.94v11a29.39,29.39,0,0,1-3.54.53c-1,.09-1.92.13-2.73.13-4.57-.11-7.17-1.93-7.83-5.46l-.24-2.29a15.07,15.07,0,0,1-6.2,5.95A17.74,17.74,0,0,1,116.83,67.54Zm3.51-11A9.27,9.27,0,0,0,125.47,55a10.9,10.9,0,0,0,3.83-4.36v-9a11.77,11.77,0,0,0-4-5.34,9.28,9.28,0,0,0-5.66-2.08,8.15,8.15,0,0,0-3.88.94,10.44,10.44,0,0,0-3,2.49,11,11,0,0,0-2,3.58,13.39,13.39,0,0,0-.69,4.32,11.23,11.23,0,0,0,2.85,7.91A9.63,9.63,0,0,0,120.34,56.54Z"/><path class="cls-1" d="M206,66.72V32.08L193.49,57.27h-7.18L173.76,32.08V66.72H160.4V8.86h14.5l15,30.23L205,8.86H219.4V66.72Z"/><path class="cls-1" d="M227.69,66.72V23.94h13V66.72Z"/><path class="cls-1" d="M243.86,45.29a23.39,23.39,0,0,1,1.55-8.44,20.9,20.9,0,0,1,4.48-7.09,21.3,21.3,0,0,1,7.21-4.85,25.13,25.13,0,0,1,9.74-1.79,23.22,23.22,0,0,1,12.47,3.14,20.07,20.07,0,0,1,7.58,8.19l-12.71,3.83a8.2,8.2,0,0,0-7.42-4.08,8.79,8.79,0,0,0-6.8,3,11.57,11.57,0,0,0-2.73,8.07,13.7,13.7,0,0,0,.73,4.6,10.56,10.56,0,0,0,2,3.55,9.18,9.18,0,0,0,3.05,2.28,8.62,8.62,0,0,0,3.71.82,8.73,8.73,0,0,0,4.48-1.19,7.5,7.5,0,0,0,3-3.05L287,56.21a19.15,19.15,0,0,1-7.53,8.15,23.65,23.65,0,0,1-12.6,3.18,24.31,24.31,0,0,1-9.65-1.83,22.18,22.18,0,0,1-7.26-4.9,20.6,20.6,0,0,1-4.52-7.09A23.38,23.38,0,0,1,243.86,45.29Z"/><path class="cls-1" d="M330.34,66.72h-13v-24q0-4.16-1.67-6.11a5.64,5.64,0,0,0-4.53-2,6.84,6.84,0,0,0-2.48.53A10.09,10.09,0,0,0,306,36.69a13.93,13.93,0,0,0-2.32,2.4,10.56,10.56,0,0,0-1.63,3.1V66.72H289V7.23h13V31.11a16.14,16.14,0,0,1,6.23-5.91,17.84,17.84,0,0,1,8.6-2.08,14,14,0,0,1,7,1.51,11.07,11.07,0,0,1,4.07,3.83,14.61,14.61,0,0,1,1.92,5.21,33.59,33.59,0,0,1,.49,5.67Z"/><path class="cls-1" d="M399.61,67.54A25.43,25.43,0,0,1,390,65.79,21.49,21.49,0,0,1,382.7,61a20.42,20.42,0,0,1-4.53-7,22.49,22.49,0,0,1-1.54-8.27A24.69,24.69,0,0,1,378.17,37a21.34,21.34,0,0,1,4.49-7.22,21,21,0,0,1,7.21-4.89,25.1,25.1,0,0,1,9.74-1.79,24.82,24.82,0,0,1,9.7,1.79,21.32,21.32,0,0,1,7.17,4.85,20.46,20.46,0,0,1,4.44,7.05,23.5,23.5,0,0,1,1.51,8.4c0,.76,0,1.5-.08,2.24s-.14,1.37-.24,1.91H390.48a8.81,8.81,0,0,0,3.14,6.56,10,10,0,0,0,6.4,2.25,11.66,11.66,0,0,0,5.5-1.39A7,7,0,0,0,409.06,53l11.09,3.1a19.94,19.94,0,0,1-7.83,8.23A24.25,24.25,0,0,1,399.61,67.54Zm9.05-26.25a9.8,9.8,0,0,0-2.94-6.43,8.8,8.8,0,0,0-6.27-2.37,8.69,8.69,0,0,0-6.32,2.41,9.93,9.93,0,0,0-2.89,6.39Z"/><path class="cls-1" d="M426,7.23h13V50.75c0,3.26,1.42,4.89,4.24,4.89a7.87,7.87,0,0,0,2.08-.33,11.68,11.68,0,0,0,2.16-.81L449.23,65a25.59,25.59,0,0,1-5.62,1.8,29.74,29.74,0,0,1-5.87.65q-5.62,0-8.68-2.94c-2-1.95-3.06-4.78-3.06-8.47Z"/><circle class="cls-2" cx="234.21" cy="10.53" r="10.53"/><path class="cls-1" d="M347.21,67.54a16.75,16.75,0,0,1-5.91-1,13.81,13.81,0,0,1-4.68-2.85,13.53,13.53,0,0,1-3.1-4.32,12.87,12.87,0,0,1-1.14-5.42,12.53,12.53,0,0,1,1.34-5.79,13.41,13.41,0,0,1,3.79-4.48,18.78,18.78,0,0,1,5.79-2.94,24.68,24.68,0,0,1,7.42-1,30.61,30.61,0,0,1,5.21.44,17.09,17.09,0,0,1,4.41,1.35v-2q0-7.41-8.56-7.42a19,19,0,0,0-6.69,1.19,32.77,32.77,0,0,0-6.68,3.54l-3.83-8.15a34.4,34.4,0,0,1,8.8-4.15,33.06,33.06,0,0,1,9.7-1.39q9.71,0,15,4.56t5.3,13.37v11a4.2,4.2,0,0,0,.73,2.73,4.67,4.67,0,0,0,2.31,1.58c2.19.66,5.17-.89,7.41-3.87l5.43,9.14c-1.38,1.6-5.94,6.43-13.06,7.13-2.19.21-8.2.8-11.64-3.28A10,10,0,0,1,362.37,60a19.55,19.55,0,0,1-6.8,5.62A18.54,18.54,0,0,1,347.21,67.54ZM351,58.17a11.82,11.82,0,0,0,4.12-.74,9.69,9.69,0,0,0,3.3-2,4.06,4.06,0,0,0,1.88-3.1V48.3a21.16,21.16,0,0,0-3.71-1,20.16,20.16,0,0,0-3.71-.37A10,10,0,0,0,347,48.55a5,5,0,0,0-2.32,4.24,4.82,4.82,0,0,0,1.79,3.87A6.89,6.89,0,0,0,351,58.17Z"/></g></g></svg>