<?xml version="1.0" encoding="utf-8"?>
<!-- Generator: Adobe Illustrator 26.0.1, SVG Export Plug-In . SVG Version: 6.00 Build 0)  -->
<svg version="1.1" id="Layer_1" xmlns="http://www.w3.org/2000/svg" xmlns:xlink="http://www.w3.org/1999/xlink" x="0px" y="0px"
	 viewBox="0 0 650 650" style="enable-background:new 0 0 650 650;" xml:space="preserve">
<style type="text/css">
	.st0{fill:#B22234;}
	.st1{stroke:#FFFFFF;stroke-width:50;stroke-miterlimit:10;}
	.st2{fill:#3C3B6E;}
	.st3{fill:#FFFFFF;}
</style>
<rect class="st0" width="650" height="650"/>
<path class="st1" d="M0,75h650 M650,175H0 M0,275h650 M650,375H0 M0,475h650 M650,575H0"/>
<rect class="st2" width="375.2" height="426.3"/>
<g>
	<g id="s18">
		<g id="s9">
			<g id="s5">
				<g id="s4">
					<path id="s" class="st3" d="M17.8,15l11.8,36.2L-1.2,28.8h38L6.1,51.2L17.8,15z"/>
					<g>
						<path id="s_00000147179841362010874130000018272787181040482964_" class="st3" d="M17.8,85l11.8,36.2L-1.2,98.8h38L6.1,121.2
							L17.8,85z"/>
					</g>
					<g>
						<path id="s_00000062904736312189495100000014123926225630925501_" class="st3" d="M17.8,155l11.8,36.2l-30.8-22.4h38
							L6.1,191.2L17.8,155z"/>
					</g>
					<g>
						<path id="s_00000138566199229757732580000010565852131297670545_" class="st3" d="M17.8,225l11.8,36.2l-30.8-22.4h38
							L6.1,261.2L17.8,225z"/>
					</g>
				</g>
				<g>
					<path id="s_00000031182070588033194480000007253072682850698131_" class="st3" d="M17.8,295l11.8,36.2l-30.8-22.4h38L6.1,331.2
						L17.8,295z"/>
				</g>
			</g>
			<g>
				<g id="s4_00000021081323227285197880000010424103751006205613_">
					<path id="s_00000062160356186654866390000010406479389994975387_" class="st3" d="M59,50l11.8,36.2L40,63.8h38L47.2,86.2L59,50
						z"/>
					<g>
						<path id="s_00000009569717674231056250000013433258989552977567_" class="st3" d="M59,120l11.8,36.2L40,133.8h38l-30.8,22.4
							L59,120z"/>
					</g>
					<g>
						<path id="s_00000078006849964282179180000004181352620386505108_" class="st3" d="M59,190l11.8,36.2L40,203.8h38l-30.8,22.4
							L59,190z"/>
					</g>
					<g>
						<path id="s_00000125563990009755969890000004389064873192517788_" class="st3" d="M59,260l11.8,36.2L40,273.8h38l-30.8,22.4
							L59,260z"/>
					</g>
				</g>
			</g>
		</g>
		<g>
			<g id="s9_00000096021880943443034010000012003049488848246414_">
				<g id="s5_00000095333682160799748880000004261793158860250248_">
					<g id="s4_00000078730622264418412400000007966634322270394801_">
						<path id="s_00000157288353827748015390000010593474138022379700_" class="st3" d="M100.1,15l11.8,36.2L81.1,28.8h38L88.4,51.2
							L100.1,15z"/>
						<g>
							<path id="s_00000011750715023344789980000018307525472692468646_" class="st3" d="M100.1,85l11.8,36.2L81.1,98.8h38
								l-30.8,22.4L100.1,85z"/>
						</g>
						<g>
							<path id="s_00000168829621495733100340000012353749609247314870_" class="st3" d="M100.1,155l11.8,36.2l-30.8-22.4h38
								l-30.8,22.4L100.1,155z"/>
						</g>
						<g>
							<path id="s_00000027573860448730796880000004291711738021867183_" class="st3" d="M100.1,225l11.8,36.2l-30.8-22.4h38
								l-30.8,22.4L100.1,225z"/>
						</g>
					</g>
					<g>
						<path id="s_00000083084823193967043670000003510129121227245990_" class="st3" d="M100.1,295l11.8,36.2l-30.8-22.4h38
							l-30.8,22.4L100.1,295z"/>
					</g>
				</g>
				<g>
					<g id="s4_00000174603689789919871430000000570974530745924765_">
						<path id="s_00000145743928572988228390000000396723793042102944_" class="st3" d="M141.3,50l11.8,36.2l-30.8-22.4h38
							l-30.8,22.4L141.3,50z"/>
						<g>
							<path id="s_00000119822603090358368100000011184129947776393113_" class="st3" d="M141.3,120l11.8,36.2l-30.8-22.4h38
								l-30.8,22.4L141.3,120z"/>
						</g>
						<g>
							<path id="s_00000084529021246344355240000016680365234473560228_" class="st3" d="M141.3,190l11.8,36.2l-30.8-22.4h38
								l-30.8,22.4L141.3,190z"/>
						</g>
						<g>
							<path id="s_00000000218911755211592190000004106325230255074471_" class="st3" d="M141.3,260l11.8,36.2l-30.8-22.4h38
								l-30.8,22.4L141.3,260z"/>
						</g>
					</g>
				</g>
			</g>
		</g>
	</g>
	<g>
		<g id="s18_00000124150954133962681290000007542688917484355505_">
			<g id="s9_00000095322296241706746580000015451386976223111306_">
				<g id="s5_00000044173030282488772970000010254137976424308644_">
					<g id="s4_00000173846539787071661520000000658063715342365826_">
						<path id="s_00000109751816048619056110000015241336504583066269_" class="st3" d="M182.5,15l11.8,36.2l-30.8-22.4h38
							l-30.8,22.4L182.5,15z"/>
						<g>
							<path id="s_00000081606283674731321120000003318954871610047626_" class="st3" d="M182.5,85l11.8,36.2l-30.8-22.4h38
								l-30.8,22.4L182.5,85z"/>
						</g>
						<g>
							<path id="s_00000139260241416279564680000018059935813128903869_" class="st3" d="M182.5,155l11.8,36.2l-30.8-22.4h38
								l-30.8,22.4L182.5,155z"/>
						</g>
						<g>
							<path id="s_00000158005741684487504050000018412155197730441129_" class="st3" d="M182.5,225l11.8,36.2l-30.8-22.4h38
								l-30.8,22.4L182.5,225z"/>
						</g>
					</g>
					<g>
						<path id="s_00000118391482757819386920000014307757523572616888_" class="st3" d="M182.5,295l11.8,36.2l-30.8-22.4h38
							l-30.8,22.4L182.5,295z"/>
					</g>
				</g>
				<g>
					<g id="s4_00000010279737379792603950000010711983249937835404_">
						<path id="s_00000167365959365510157350000011342156822699493788_" class="st3" d="M223.6,50l11.8,36.2l-30.8-22.4h38
							l-30.8,22.4L223.6,50z"/>
						<g>
							<path id="s_00000033370755406942659160000002306624897192939952_" class="st3" d="M223.6,120l11.8,36.2l-30.8-22.4h38
								l-30.8,22.4L223.6,120z"/>
						</g>
						<g>
							<path id="s_00000031885873559737686410000014837099992795054226_" class="st3" d="M223.6,190l11.8,36.2l-30.8-22.4h38
								l-30.8,22.4L223.6,190z"/>
						</g>
						<g>
							<path id="s_00000156577998103796783490000011258262214138003891_" class="st3" d="M223.6,260l11.8,36.2l-30.8-22.4h38
								l-30.8,22.4L223.6,260z"/>
						</g>
					</g>
				</g>
			</g>
			<g>
				<g id="s9_00000040570025114082987480000002472750750081476736_">
					<g id="s5_00000109723182614178943780000016912092649355783046_">
						<g id="s4_00000161605299779908178900000004706113812408436368_">
							<path id="s_00000152245800618834967090000016924461129000577964_" class="st3" d="M264.8,15l11.8,36.2l-30.8-22.4h38
								l-30.8,22.4L264.8,15z"/>
							<g>
								<path id="s_00000164509648654726717430000012419893023047047343_" class="st3" d="M264.8,85l11.8,36.2l-30.8-22.4h38
									l-30.8,22.4L264.8,85z"/>
							</g>
							<g>
								<path id="s_00000004541521440505987540000013114955260775239050_" class="st3" d="M264.8,155l11.8,36.2l-30.8-22.4h38
									l-30.8,22.4L264.8,155z"/>
							</g>
							<g>
								<path id="s_00000181059589760988782630000017176090545937402277_" class="st3" d="M264.8,225l11.8,36.2l-30.8-22.4h38
									l-30.8,22.4L264.8,225z"/>
							</g>
						</g>
						<g>
							<path id="s_00000123402509662462460070000004111404280080028579_" class="st3" d="M264.8,295l11.8,36.2l-30.8-22.4h38
								l-30.8,22.4L264.8,295z"/>
						</g>
					</g>
					<g>
						<g id="s4_00000178191238520483013620000018396236594384228747_">
							<path id="s_00000047765183062696585650000013410339018301313678_" class="st3" d="M306,50l11.8,36.2L287,63.8h38l-30.8,22.4
								L306,50z"/>
							<g>
								<path id="s_00000021089987522210605440000003414325487533342379_" class="st3" d="M306,120l11.8,36.2L287,133.8h38
									l-30.8,22.4L306,120z"/>
							</g>
							<g>
								<path id="s_00000009552326059117141450000004993148496533481141_" class="st3" d="M306,190l11.8,36.2L287,203.8h38
									l-30.8,22.4L306,190z"/>
							</g>
							<g>
								<path id="s_00000060004228167816587780000010945598250434299791_" class="st3" d="M306,260l11.8,36.2L287,273.8h38
									l-30.8,22.4L306,260z"/>
							</g>
							<g>
								<path id="s_00000026878199267097242370000009174744247879659446_" class="st3" d="M59,336.6l11.8,36.2L40,350.4h38
									l-30.8,22.4L59,336.6z"/>
							</g>
							<g>
								<path id="s_00000163757408578927054510000009002487294014353047_" class="st3" d="M141.3,336.6l11.8,36.2l-30.8-22.4h38
									l-30.8,22.4L141.3,336.6z"/>
							</g>
							<g>
								<path id="s_00000054261444080263984820000018145763195238830753_" class="st3" d="M223.6,336.6l11.8,36.2l-30.8-22.4h38
									l-30.8,22.4L223.6,336.6z"/>
							</g>
							<g>
								<path id="s_00000103957681825762213750000011552230916031787159_" class="st3" d="M306,336.6l11.8,36.2L287,350.4h38
									l-30.8,22.4L306,336.6z"/>
							</g>
						</g>
					</g>
				</g>
			</g>
		</g>
	</g>
	<g>
		<g id="s9_00000013178584831938468200000003734629784272429725_">
			<g id="s5_00000113315679351440181020000012884697588218432154_">
				<g id="s4_00000098222178094047839720000011842374252613669280_">
					<path id="s_00000010293123832694084580000018242482662680199080_" class="st3" d="M347.1,15l11.8,36.2l-30.8-22.4h38
						l-30.8,22.4L347.1,15z"/>
					<g>
						<path id="s_00000075156331354403816310000014799217210537675196_" class="st3" d="M347.1,85l11.8,36.2l-30.8-22.4h38
							l-30.8,22.4L347.1,85z"/>
					</g>
					<g>
						<path id="s_00000129920751567900224760000012118729118690975900_" class="st3" d="M347.1,155l11.8,36.2l-30.8-22.4h38
							l-30.8,22.4L347.1,155z"/>
					</g>
					<g>
						<path id="s_00000092442055037093322760000014309298517231743384_" class="st3" d="M347.1,225l11.8,36.2l-30.8-22.4h38
							l-30.8,22.4L347.1,225z"/>
					</g>
				</g>
				<g>
					<path id="s_00000086676226472378941340000010714302835473392000_" class="st3" d="M347.1,295l11.8,36.2l-30.8-22.4h38
						l-30.8,22.4L347.1,295z"/>
					<g>
						<path id="s_00000165218978424046786870000011632542784225788839_" class="st3" d="M17.8,375l11.8,36.2l-30.8-22.4h38
							L6.1,411.2L17.8,375z"/>
					</g>
					<g>
						<path id="s_00000182525346556264949890000002163994529526036641_" class="st3" d="M100.1,375l11.8,36.2l-30.8-22.4h38
							l-30.8,22.4L100.1,375z"/>
					</g>
					<g>
						<path id="s_00000102535136905519274640000006336954879969597371_" class="st3" d="M182.5,375l11.8,36.2l-30.8-22.4h38
							l-30.8,22.4L182.5,375z"/>
					</g>
					<g>
						<path id="s_00000157285996908572735380000010800081000967110581_" class="st3" d="M264.8,375l11.8,36.2l-30.8-22.4h38
							l-30.8,22.4L264.8,375z"/>
					</g>
					<path id="s_00000007399114053969134320000011690478319829567927_" class="st3" d="M347.1,375l11.8,36.2l-30.8-22.4h38
						l-30.8,22.4L347.1,375z"/>
				</g>
			</g>
		</g>
	</g>
</g>
</svg>
