<?xml version="1.0" encoding="utf-8"?>
<!-- Generator: Adobe Illustrator 26.0.1, SVG Export Plug-In . SVG Version: 6.00 Build 0)  -->
<svg version="1.1" id="Layer_1" xmlns="http://www.w3.org/2000/svg" xmlns:xlink="http://www.w3.org/1999/xlink" x="0px" y="0px"
	 viewBox="0 0 500 500" style="enable-background:new 0 0 500 500;" xml:space="preserve">
<style type="text/css">
	.st0{fill:#009BFA;}
	.st1{fill:#ECECEC;}
	.st2{fill:#FFFFFF;}
	.st3{fill:#1A2E35;}
	.st4{fill:#C8C8C8;}
	.st5{fill:#FFC800;}
	.st6{opacity:0.1;}
	.st7{fill:none;stroke:#FFFFFF;stroke-width:0.6135;stroke-miterlimit:10;}
	.st8{fill:#2B454E;}
	.st9{fill:#DCDCDC;}
	.st10{fill:#A8A8A8;}
	.st11{fill:#375A64;}
	.st12{fill:#4AED62;}
	.st13{fill:none;stroke:#1A2E35;stroke-width:0.3068;stroke-miterlimit:10;}
	.st14{fill:none;stroke:#1A2E35;stroke-width:0.3068;stroke-miterlimit:10;stroke-dasharray:1.8473,1.8473;}
	.st15{fill:none;stroke:#1A2E35;stroke-width:0.3068;stroke-miterlimit:10;stroke-dasharray:1.8614,1.8614;}
	.st16{fill:#207AB2;}
	.st17{fill:#352F75;}
	.st18{fill:#2E2865;}
	.st19{fill:#3E3789;}
	.st20{fill:#FD8753;}
	.st21{fill:#5E1DBB;}
	.st22{fill:#7E59D8;}
	.st23{fill:#1B1F44;}
	.st24{fill:#E2209E;}
</style>
<rect x="0" y="0" class="st0" width="500" height="500"/>
<g>
	<g>
		<path class="st1" d="M358.7,141.4l5.1-8.2l-2.5-1.6c-0.7-0.5-1.1-1.3-1-2.2c0-0.5,0.1-0.9,0-1.4c0-0.9,0.4-1.7,1.2-2.1l2.6-1.4
			l-4.6-8.5l-2.6,1.4c-0.7,0.4-1.7,0.4-2.4-0.1c-0.4-0.3-0.9-0.6-1.3-0.8c-0.7-0.4-1.2-1.2-1.2-2.1l0.1-3l-9.6-0.3l-0.1,3
			c0,0.9-0.5,1.6-1.3,2c-0.2,0.1-0.4,0.2-0.7,0.3c-0.2,0.1-0.4,0.2-0.7,0.4c-0.7,0.4-1.6,0.4-2.4,0l-2.5-1.6l-5.1,8.2l2.5,1.6
			c0.7,0.5,1.1,1.3,1,2.2c0,0.5-0.1,0.9,0,1.4c0,0.9-0.4,1.7-1.2,2.1l-2.6,1.4l4.6,8.5l2.6-1.4c0.8-0.4,1.7-0.3,2.4,0.2
			c0.4,0.3,0.8,0.5,1.2,0.7c0.8,0.4,1.2,1.2,1.2,2.1l-0.1,3l9.6,0.3l0.1-3c0-0.9,0.6-1.6,1.3-2c0.2-0.1,0.4-0.2,0.6-0.3
			c0.2-0.1,0.4-0.2,0.6-0.4c0.7-0.4,1.7-0.5,2.4,0L358.7,141.4z M351.4,134.8c-4.3,3-10.1,1.2-12-3.6c-1.3-3.3-0.1-7.2,2.8-9.2
			c4.2-3,10.2-1.2,12,3.6C355.5,128.9,354.3,132.8,351.4,134.8z"/>
		<path class="st1" d="M60.8,186.4c0.5,0.3,0.8,0.9,0.8,1.5c0,0.2,0,0.3,0,0.5c0,0.2,0,0.3,0,0.5c0,0.6-0.3,1.2-0.8,1.5l-1.8,1
			l3.4,5.9l1.8-1c0.5-0.3,1.2-0.3,1.7,0.1c0.3,0.2,0.6,0.4,0.9,0.5c0.5,0.3,0.9,0.8,0.9,1.4v2.1h6.8v-2.1c0-0.6,0.3-1.2,0.9-1.4
			c0.3-0.2,0.6-0.3,0.9-0.5c0.5-0.3,1.2-0.4,1.7-0.1l1.8,1l3.4-5.9l-1.8-1c-0.5-0.3-0.8-0.9-0.8-1.5c0-0.2,0-0.3,0-0.5
			c0-0.2,0-0.3,0-0.5c0-0.6,0.3-1.2,0.8-1.5l1.8-1l-3.4-5.9l-1.8,1c-0.5,0.3-1.2,0.3-1.7-0.1c-0.3-0.2-0.6-0.4-0.9-0.5
			c-0.5-0.3-0.9-0.8-0.9-1.4v-2.1h-6.8v2.1c0,0.6-0.3,1.2-0.9,1.4c-0.3,0.2-0.6,0.3-0.9,0.5c-0.5,0.3-1.2,0.4-1.7,0.1l-1.8-1
			l-3.4,5.9L60.8,186.4z M71,182.8c3.1,0,5.5,2.5,5.5,5.5c0,3.1-2.5,5.5-5.5,5.5c-3.1,0-5.5-2.5-5.5-5.5
			C65.4,185.3,67.9,182.8,71,182.8z"/>
		<path class="st1" d="M418.4,204.4c0.5,0.3,0.8,0.9,0.8,1.5c0,0.2,0,0.3,0,0.5c0,0.2,0,0.3,0,0.5c0,0.6-0.3,1.2-0.8,1.5l-1.8,1
			l3.4,5.9l1.8-1c0.5-0.3,1.2-0.3,1.7,0.1c0.3,0.2,0.6,0.4,0.9,0.5c0.5,0.3,0.9,0.8,0.9,1.4v2.1h6.8v-2.1c0-0.6,0.3-1.2,0.9-1.4
			c0.3-0.2,0.6-0.3,0.9-0.5c0.5-0.3,1.2-0.4,1.7-0.1l1.8,1l3.4-5.9l-1.8-1c-0.5-0.3-0.8-0.9-0.8-1.5c0-0.2,0-0.3,0-0.5
			c0-0.2,0-0.3,0-0.5c0-0.6,0.3-1.2,0.8-1.5l1.8-1l-3.4-5.9l-1.8,1c-0.5,0.3-1.2,0.3-1.7-0.1c-0.3-0.2-0.6-0.4-0.9-0.5
			c-0.5-0.3-0.9-0.8-0.9-1.4v-2.1h-6.8v2.1c0,0.6-0.3,1.2-0.9,1.4c-0.3,0.2-0.6,0.3-0.9,0.5c-0.5,0.3-1.2,0.4-1.7,0.1l-1.8-1
			l-3.4,5.9L418.4,204.4z M428.6,200.8c3.1,0,5.5,2.5,5.5,5.5c0,3.1-2.5,5.5-5.5,5.5c-3.1,0-5.5-2.5-5.5-5.5
			C423.1,203.3,425.6,200.8,428.6,200.8z"/>
	</g>
	<g>
		<g>
			<g>
				<polygon class="st1" points="442.7,161.4 441.8,161.4 441.8,160.8 442.1,160.8 442.1,160.5 442.7,160.5 				"/>
				<path class="st1" d="M440.6,161.4h-1.2v-0.6h1.2V161.4z M438.2,161.4H437v-0.6h1.2V161.4z M435.8,161.4h-1.2v-0.6h1.2V161.4z
					 M433.4,161.4h-1.2v-0.6h1.2V161.4z M431,161.4h-1.2v-0.6h1.2V161.4z M428.6,161.4h-1.2v-0.6h1.2V161.4z M426.2,161.4H425v-0.6
					h1.2V161.4z M423.8,161.4h-1.2v-0.6h1.2V161.4z M421.4,161.4h-1.2v-0.6h1.2V161.4z M419,161.4h-1.2v-0.6h1.2V161.4z
					 M416.6,161.4h-1.2v-0.6h1.2V161.4z M414.2,161.4H413v-0.6h1.2V161.4z M411.8,161.4h-1.2v-0.6h1.2V161.4z M409.5,161.4h-1.2
					v-0.6h1.2V161.4z M407.1,161.4h-1.2v-0.6h1.2V161.4z M404.7,161.4h-1.2v-0.6h1.2V161.4z M402.3,161.4h-1.2v-0.6h1.2V161.4z"/>
				<polygon class="st1" points="399.9,161.4 399,161.4 399,160.5 399.6,160.5 399.6,160.8 399.9,160.8 				"/>
				<path class="st1" d="M399.6,159.3H399v-1.2h0.6V159.3z M399.6,156.9H399v-1.2h0.6V156.9z M399.6,154.5H399v-1.2h0.6V154.5z
					 M399.6,152.1H399v-1.2h0.6V152.1z M399.6,149.7H399v-1.2h0.6V149.7z M399.6,147.4H399v-1.2h0.6V147.4z M399.6,145H399v-1.2h0.6
					V145z M399.6,142.6H399v-1.2h0.6V142.6z M399.6,140.2H399V139h0.6V140.2z M399.6,137.8H399v-1.2h0.6V137.8z M399.6,135.4H399
					v-1.2h0.6V135.4z M399.6,133H399v-1.2h0.6V133z M399.6,130.6H399v-1.2h0.6V130.6z M399.6,128.2H399V127h0.6V128.2z M399.6,125.8
					H399v-1.2h0.6V125.8z M399.6,123.4H399v-1.2h0.6V123.4z M399.6,121H399v-1.2h0.6V121z"/>
				<polygon class="st1" points="399.6,118.6 399,118.6 399,117.7 399.9,117.7 399.9,118.3 399.6,118.3 				"/>
				<path class="st1" d="M440.6,118.3h-1.2v-0.6h1.2V118.3z M438.2,118.3H437v-0.6h1.2V118.3z M435.8,118.3h-1.2v-0.6h1.2V118.3z
					 M433.4,118.3h-1.2v-0.6h1.2V118.3z M431,118.3h-1.2v-0.6h1.2V118.3z M428.6,118.3h-1.2v-0.6h1.2V118.3z M426.2,118.3H425v-0.6
					h1.2V118.3z M423.8,118.3h-1.2v-0.6h1.2V118.3z M421.4,118.3h-1.2v-0.6h1.2V118.3z M419,118.3h-1.2v-0.6h1.2V118.3z
					 M416.6,118.3h-1.2v-0.6h1.2V118.3z M414.2,118.3H413v-0.6h1.2V118.3z M411.8,118.3h-1.2v-0.6h1.2V118.3z M409.5,118.3h-1.2
					v-0.6h1.2V118.3z M407.1,118.3h-1.2v-0.6h1.2V118.3z M404.7,118.3h-1.2v-0.6h1.2V118.3z M402.3,118.3h-1.2v-0.6h1.2V118.3z"/>
				<polygon class="st1" points="442.7,118.6 442.1,118.6 442.1,118.3 441.8,118.3 441.8,117.7 442.7,117.7 				"/>
				<path class="st1" d="M442.7,159.3h-0.6v-1.2h0.6V159.3z M442.7,156.9h-0.6v-1.2h0.6V156.9z M442.7,154.5h-0.6v-1.2h0.6V154.5z
					 M442.7,152.1h-0.6v-1.2h0.6V152.1z M442.7,149.7h-0.6v-1.2h0.6V149.7z M442.7,147.4h-0.6v-1.2h0.6V147.4z M442.7,145h-0.6v-1.2
					h0.6V145z M442.7,142.6h-0.6v-1.2h0.6V142.6z M442.7,140.2h-0.6V139h0.6V140.2z M442.7,137.8h-0.6v-1.2h0.6V137.8z M442.7,135.4
					h-0.6v-1.2h0.6V135.4z M442.7,133h-0.6v-1.2h0.6V133z M442.7,130.6h-0.6v-1.2h0.6V130.6z M442.7,128.2h-0.6V127h0.6V128.2z
					 M442.7,125.8h-0.6v-1.2h0.6V125.8z M442.7,123.4h-0.6v-1.2h0.6V123.4z M442.7,121h-0.6v-1.2h0.6V121z"/>
			</g>
			<g>
				<rect x="396.6" y="158.4" class="st2" width="5.4" height="5.4"/>
				<path class="st1" d="M402.3,164.1h-6v-6h6V164.1z M396.9,163.5h4.8v-4.8h-4.8V163.5z"/>
			</g>
			<g>
				<rect x="396.6" y="136.9" class="st2" width="5.4" height="5.4"/>
				<path class="st1" d="M402.3,142.6h-6v-6h6V142.6z M396.9,142h4.8v-4.8h-4.8V142z"/>
			</g>
			<g>
				<rect x="396.6" y="115.4" class="st2" width="5.4" height="5.4"/>
				<path class="st1" d="M402.3,121h-6v-6h6V121z M396.9,120.4h4.8v-4.8h-4.8V120.4z"/>
			</g>
			<g>
				<rect x="439.7" y="158.4" class="st2" width="5.4" height="5.4"/>
				<path class="st1" d="M445.3,164.1h-6v-6h6V164.1z M440,163.5h4.8v-4.8H440V163.5z"/>
			</g>
			<g>
				<rect x="439.7" y="136.9" class="st2" width="5.4" height="5.4"/>
				<path class="st1" d="M445.3,142.6h-6v-6h6V142.6z M440,142h4.8v-4.8H440V142z"/>
			</g>
			<g>
				<rect x="439.7" y="115.4" class="st2" width="5.4" height="5.4"/>
				<path class="st1" d="M445.3,121h-6v-6h6V121z M440,120.4h4.8v-4.8H440V120.4z"/>
			</g>
			<g>
				<rect x="418.2" y="115.4" class="st2" width="5.4" height="5.4"/>
				<path class="st1" d="M423.8,121h-6v-6h6V121z M418.4,120.4h4.8v-4.8h-4.8V120.4z"/>
			</g>
			<g>
				<rect x="418.1" y="158.4" class="st2" width="5.4" height="5.4"/>
				<path class="st1" d="M423.8,164.1h-6v-6h6V164.1z M418.4,163.5h4.8v-4.8h-4.8V163.5z"/>
			</g>
			<g>
				<path class="st1" d="M432.1,135.9h-0.7c-2-6-3.1-8.5-6.5-8.5h-0.4v24.4h3.1v0.8h-13.5v-0.8h3.1v-24.4h-0.5
					c-3.4,0-4.6,2.8-6.5,8.5h-0.7l0.4-9.3h21.9L432.1,135.9z"/>
			</g>
		</g>
		<g>
			<path class="st1" d="M63.7,273.9c0.6,0.6,0.6,1.6,0,2.2c-0.3,0.3-0.7,0.4-1.1,0.4c-0.4,0-0.8-0.1-1.1-0.4l-6.8-6.9
				c-0.1,0-0.1-0.1-0.1-0.1c0,0-0.1,0-0.1,0c0-0.1,0-0.1-0.1-0.2c0,0-0.1-0.1-0.1-0.1c0,0,0-0.1,0-0.1c0-0.1,0-0.1,0-0.1
				c0-0.1,0-0.1,0-0.2c0,0,0-0.1,0-0.1c0,0,0-0.1,0-0.1c0,0,0-0.1,0-0.2c0,0,0-0.1,0-0.1c0-0.1,0-0.1,0-0.2c0,0,0,0,0,0
				c0-0.1,0.1-0.2,0.1-0.2c0,0,0,0,0,0c0,0,0.1-0.1,0.1-0.2l6.8-6.9c0.6-0.6,1.6-0.6,2.2,0c0.6,0.6,0.6,1.6,0,2.2l-5.7,5.8
				L63.7,273.9z"/>
			<path class="st1" d="M69.9,274.7l5.9-14.1c0.3-0.7,1.1-1,1.8-0.7c0.7,0.3,1,1.1,0.7,1.7l-5.9,14.2c-0.2,0.5-0.7,0.8-1.2,0.8
				c-0.1,0-0.3,0-0.5-0.1C69.9,276.2,69.6,275.4,69.9,274.7z"/>
			<path class="st1" d="M90,269C90,269,90,269,90,269c-0.1,0.1-0.1,0.1-0.2,0.2l-6.8,6.9c-0.3,0.3-0.7,0.4-1.1,0.4
				c-0.4,0-0.8-0.1-1.1-0.4c-0.6-0.6-0.6-1.6,0-2.2l5.7-5.8l-5.7-5.8c-0.6-0.6-0.6-1.6,0-2.2c0.6-0.6,1.6-0.6,2.2,0l6.8,6.9
				c0.1,0,0.1,0.1,0.2,0.2c0,0,0,0,0,0c0,0.1,0.1,0.1,0.1,0.2c0,0,0,0,0,0c0,0.1,0,0.1,0.1,0.2c0,0,0,0,0,0.1c0,0,0,0.1,0,0.2
				c0,0,0,0.1,0,0.1c0,0,0,0.1,0,0.1c0,0.1,0,0.1,0,0.2c0,0,0,0,0,0c0,0.1,0,0.2-0.1,0.2c0,0,0,0,0,0.1C90.1,268.8,90,268.9,90,269z
				"/>
		</g>
	</g>
</g>
<polygon class="st3" points="54,396.4 103,396.4 151.9,396.3 249.8,396.3 347.7,396.3 396.6,396.4 445.6,396.4 396.6,396.5 
	347.7,396.5 249.8,396.5 151.9,396.5 103,396.5 "/>
<g>
	<g>
		<g>
			<rect x="91.6" y="136.7" class="st2" width="315.1" height="190.6"/>
			<path class="st4" d="M406.7,327.3c0,0.1-315.2,0.1-315.3,0.2c-0.2-0.1,0-190.6-0.1-190.8c0,0,0-0.3,0-0.3s0.3,0,0.3,0
				c0,0,315.2,0.2,315.2,0.2C406.9,136.7,406.7,327.2,406.7,327.3L406.7,327.3z M406.7,327.3c0,0.1-0.3-191.1,0-190.5
				c0,0-315.1,0.2-315.1,0.2s0.3-0.3,0.3-0.3c0-0.1,0.1,191.4-0.3,190.4C91.6,327.1,406.7,327.3,406.7,327.3L406.7,327.3z"/>
		</g>
		<rect x="91.6" y="136.7" class="st5" width="315.1" height="31.1"/>
		<g>
			<g>
				<rect x="104.7" y="156.9" class="st2" width="6.5" height="1.1"/>
				<rect x="104.7" y="161.7" class="st2" width="6.5" height="1.1"/>
				<rect x="104.7" y="159.3" class="st2" width="6.5" height="1.1"/>
			</g>
			<g>
				<rect x="332.9" y="156.8" class="st6" width="60.7" height="6.1"/>
				<rect x="387.5" y="156.8" class="st2" width="6.1" height="6.1"/>
				<g>
					<g>
						<path class="st5" d="M392.5,161.6L392,162l-1-1.4l-0.4-0.5c0.1,0,0.2-0.1,0.2-0.1c0.1-0.1,0.2-0.2,0.3-0.4l0.4,0.5
							L392.5,161.6z"/>
						<path class="st5" d="M391.4,158.3c-0.5-0.7-1.5-0.8-2.2-0.3c-0.7,0.5-0.8,1.5-0.3,2.2c0.5,0.6,1.3,0.8,1.9,0.4
							c0.1,0,0.1-0.1,0.2-0.1c0.1-0.1,0.2-0.2,0.3-0.3C391.8,159.6,391.8,158.9,391.4,158.3z M390.8,160c-0.1,0.1-0.1,0.1-0.2,0.1
							c-0.4,0.1-0.8,0-1.1-0.3c-0.3-0.4-0.2-1,0.2-1.3c0.4-0.3,1-0.2,1.3,0.2c0.2,0.3,0.2,0.6,0.1,0.9
							C391,159.8,390.9,159.9,390.8,160z"/>
					</g>
				</g>
				<rect x="334.2" y="158" class="st2" width="0.3" height="3.7"/>
			</g>
			<rect x="135.5" y="156.9" class="st7" width="29.1" height="5.9"/>
			<rect x="171" y="156.9" class="st7" width="29.1" height="5.9"/>
			<rect x="206.5" y="156.9" class="st6" width="29.1" height="5.9"/>
			<rect x="242" y="156.9" class="st7" width="29.1" height="5.9"/>
			<rect x="277.5" y="156.9" class="st7" width="29.1" height="5.9"/>
		</g>
	</g>
	<g>
		<rect x="91.6" y="136.7" class="st8" width="315.1" height="4.9"/>
		<g>
			<path class="st4" d="M95.5,139.2c0,0.7-0.5,1.2-1.2,1.2c-0.7,0-1.2-0.5-1.2-1.2c0-0.7,0.5-1.2,1.2-1.2
				C95,138,95.5,138.5,95.5,139.2z"/>
			<path class="st2" d="M100.5,139.2c0,0.7-0.5,1.2-1.2,1.2c-0.7,0-1.2-0.5-1.2-1.2c0-0.7,0.5-1.2,1.2-1.2
				C100,138,100.5,138.5,100.5,139.2z"/>
			<path class="st5" d="M105.5,139.2c0,0.7-0.5,1.2-1.2,1.2c-0.7,0-1.2-0.5-1.2-1.2c0-0.7,0.5-1.2,1.2-1.2
				C105,138,105.5,138.5,105.5,139.2z"/>
		</g>
	</g>
	<g>
		<rect x="401.3" y="167.8" class="st9" width="5.4" height="159.5"/>
		<path class="st10" d="M404,223.1L404,223.1c-0.8,0-1.4-0.5-1.4-1.2v-52c0-0.7,0.6-1.2,1.4-1.2h0c0.8,0,1.4,0.5,1.4,1.2v52
			C405.4,222.5,404.8,223.1,404,223.1z"/>
	</g>
	<g>
		<g>
			<path class="st1" d="M104.8,175.5v23.4h23.4v-23.4H104.8z M106.6,197.1v-19.8h19.8v19.8H106.6z"/>
		</g>
		<g>
			<rect x="207.6" y="179.4" class="st5" width="11.6" height="11.6"/>
		</g>
		<g>
			<rect x="308.7" y="179.4" class="st5" width="11.6" height="11.6"/>
		</g>
		<g>
			<rect x="103.9" y="238.6" class="st5" width="11.6" height="11.6"/>
		</g>
		<path class="st1" d="M375.8,298.3v23.4h23.4v-23.4H375.8z M377.6,319.9v-19.8h19.8v19.8H377.6z"/>
	</g>
	<g>
		<g>
			<rect x="109.7" y="244.4" class="st11" width="40.6" height="7.6"/>
			<rect x="109.7" y="255.7" class="st9" width="111.5" height="2.8"/>
			<rect x="109.7" y="262" class="st9" width="111.5" height="2.8"/>
			<rect x="109.7" y="268.2" class="st9" width="111.5" height="2.8"/>
			<rect x="109.7" y="274.4" class="st9" width="111.5" height="2.8"/>
			<rect x="109.7" y="280.7" class="st9" width="111.5" height="2.8"/>
		</g>
		<g>
			<rect x="213.4" y="185.2" class="st11" width="40.6" height="7.6"/>
			<rect x="213.4" y="198" class="st9" width="83.3" height="2.8"/>
			<rect x="213.4" y="204.2" class="st9" width="83.3" height="2.8"/>
			<rect x="213.4" y="210.5" class="st9" width="83.3" height="2.8"/>
			<rect x="213.4" y="216.7" class="st9" width="83.3" height="2.8"/>
			<rect x="213.4" y="225" class="st9" width="83.3" height="2.8"/>
			<rect x="213.4" y="231.2" class="st9" width="83.3" height="2.8"/>
		</g>
		<g>
			<rect x="314.5" y="185.2" class="st11" width="74.2" height="7.7"/>
			<g>
				<g>
					<rect x="314.7" y="193" class="st2" width="73.8" height="121"/>
					<path class="st9" d="M388.7,314.2h-74.2V192.8h74.2V314.2z M314.9,313.8h73.4V193.2h-73.4V313.8z"/>
				</g>
				<polygon class="st9" points="314.9,314 314.5,313.9 388.3,192.9 388.7,193 				"/>
				<polygon class="st9" points="388.3,314 314.5,193 314.9,192.9 388.7,313.9 				"/>
			</g>
		</g>
		<g>
			<g>
				<rect x="76.8" y="185.3" class="st2" width="88.4" height="48.6"/>
				<path class="st9" d="M76.7,234.1l0-0.1l0-48.7l0.1,0l88.5,0l0,48.9l-0.1,0L76.7,234.1z M77,185.5l0,48.4l88.1,0l0-48.4L77,185.5
					z"/>
			</g>
			<path class="st9" d="M77,185.5c7.4,3.9,14.8,7.9,22.2,11.9l22.1,12l22,12.1l11,6.1l10.9,6.2l-11.1-5.9l-11.1-6l-22.1-12l-22-12.2
				C91.5,193.7,84.2,189.6,77,185.5z"/>
			<path class="st9" d="M165.1,185.5c-7.3,4.1-14.5,8.2-21.9,12.3l-22,12.2l-22.1,12l-11.1,6L77,233.8l10.9-6.2l11-6.1l22-12.1
				l22.1-12C150.2,193.3,157.6,189.4,165.1,185.5z"/>
		</g>
		<g>
			<g>
				
					<rect x="193.2" y="230.2" transform="matrix(6.123234e-17 -1 1 6.123234e-17 -110.1265 530.6604)" class="st2" width="34.2" height="180.4"/>
				<path class="st5" d="M300.8,303.2v34.4h-181v-34.4H300.8z M300.2,337.4v-34H120.4v34H300.2z"/>
			</g>
			<polygon class="st5" points="300.6,337.4 300.3,337.6 120,303.4 120.2,303.2 			"/>
			<polygon class="st5" points="300.6,303.4 120.2,337.6 120,337.4 300.3,303.2 			"/>
		</g>
	</g>
</g>
<g>
	<g>
		<g>
			<path class="st12" d="M86.2,346.1c4.2-8.7,11.6-13.1,20-10.7c8.3,2.5,9.6,14.1,3.4,17c-6.2,2.9-12.4-5.6-15.7-7.4
				C90.6,343.3,86.2,346.1,86.2,346.1z"/>
			<path class="st3" d="M82.2,369.2c0-1,0.1-2.1,0.1-3.1c0.1-2.1,0.1-4.2,0.2-6.3c0.1-3.8,0.6-7.6,2.1-11.1c1.4-3.2,3.7-5.9,6.7-7.7
				c1.1-0.7,2.3-1.2,3.5-1.5c1-1.2,2.6-1.9,4.1-2.3c1.9-0.5,3.9-0.4,5.9-0.1c0.1,0,0.1,0.1,0,0.1c-1.9-0.2-3.7-0.1-5.5,0.4
				c-0.8,0.2-1.5,0.5-2.2,0.9c-0.5,0.2-0.9,0.5-1.3,0.8c1.7-0.3,3.4-0.3,5.1,0c0.6,0.1,1.2,0.3,1.8,0.6c0.4-0.1,0.9-0.1,1.4-0.1
				c0.6,0,1.2,0.1,1.8,0.3c1.2,0.3,2.3,0.9,3.4,1.5c0.1,0,0,0.1-0.1,0.1c-1.1-0.6-2.2-1-3.3-1.3c-0.6-0.1-1.1-0.2-1.7-0.3
				c-0.3,0-0.6,0-1,0c2.3,1.1,4.3,3,5.4,5.4c0,0.1-0.1,0.1-0.1,0.1c-1.2-2.8-3.9-4.8-6.9-5.5c-0.2,0-0.4-0.1-0.6-0.1
				c0.1,0.3,0.1,0.6,0.1,0.8c0.1,0.4,0.1,0.8,0.2,1.3c0.2,0.9,0.4,1.7,0.7,2.5c0.3,0.8,0.6,1.7,1,2.5c0.4,0.8,0.8,1.7,1.4,2.4
				c0.1,0.1,0,0.1-0.1,0.1c-0.5-0.8-1.1-1.5-1.5-2.3c-0.4-0.8-0.8-1.6-1.1-2.4c-0.3-0.8-0.6-1.7-0.7-2.6c-0.1-0.5-0.2-0.9-0.2-1.4
				c0-0.3-0.1-0.6-0.1-0.9c-1-0.2-2-0.2-3-0.1c0.4,2.1,0.8,4.2,1.9,6c0,0.1-0.1,0.1-0.1,0.1c-0.5-1-1-1.9-1.4-3
				c-0.4-1-0.6-2-0.7-3.1c-1.7,0.2-3.4,0.8-4.9,1.6c-2.9,1.6-5.1,4.2-6.5,7.1c-1.6,3.2-2.2,6.7-2.4,10.2c-0.3,4.4-0.3,8.9-0.8,13.3
				c0,0.3-0.5,0.4-0.5,0.1C82,371.2,82.1,370.2,82.2,369.2z"/>
			<path class="st3" d="M91.9,340.3c0.2-0.3,0.6-0.6,1-0.9c0.3-0.3,0.7-0.6,1.1-0.8c0.7-0.5,1.5-0.9,2.4-1.1c0.1,0,0.1,0.1,0,0.1
				c-0.9,0.2-1.7,0.6-2.4,1.2c-0.4,0.3-0.7,0.5-1,0.8c-0.3,0.3-0.6,0.6-1,0.8C92,340.4,91.9,340.3,91.9,340.3z"/>
			<path class="st3" d="M105.4,343.4c0.7,0.8,1.4,1.7,1.9,2.6c0.6,0.9,1.1,1.9,1.4,2.9c0,0,0,0-0.1,0
				C107.7,347,106.7,345.1,105.4,343.4C105.3,343.4,105.4,343.4,105.4,343.4z"/>
			<path class="st3" d="M96.3,342.5c0.1,0.5,0.2,1.1,0.5,1.6c0.2,0.5,0.5,0.9,0.8,1.4c0,0,0,0.1,0,0c-0.8-0.8-1.2-1.9-1.3-3
				C96.2,342.5,96.3,342.5,96.3,342.5z"/>
		</g>
		<g>
			<path class="st12" d="M82.7,346.3c0,0-6-7.5-17.5-4.9c-11,2.5-16,22.7-5,25.1c11.1,2.4,9.1-16.2,13.2-19.4
				C76.4,344.8,80.7,345.3,82.7,346.3z"/>
			<path class="st3" d="M56.3,352.4c0.8-0.7,1.5-1.3,2.4-1.8c0.8-0.5,1.6-1,2.5-1.3c0.5-0.7,0.9-1.3,1.5-1.9c1-1.1,2.2-2,3.5-2.8
				c-0.1,0-0.2,0-0.3,0c-0.6,0-1.2,0-1.8,0c-1.2,0.1-2.4,0.4-3.6,0.9c-0.1,0-0.1-0.1,0-0.1c1.1-0.5,2.3-0.9,3.6-1.1
				c0.6-0.1,1.2-0.2,1.8-0.2c0.3,0,0.6,0,1,0.1c0.1,0,0.1,0,0.2,0c1.1-0.5,2.2-0.9,3.3-1.2c-0.1,0-0.2-0.1-0.3-0.1
				c-0.6-0.1-1.1-0.2-1.7-0.3c-1.2-0.1-2.3-0.1-3.5,0.1c-0.1,0-0.1-0.1,0-0.1c1.2-0.1,2.3-0.2,3.5-0.1c1,0,2,0.1,2.9,0.4
				c0.7-0.1,1.4-0.2,2.1-0.2c4-0.2,8.4,1.3,10.9,4.6c2.5,3.3,3,7.7,3.4,11.7c0.6,5.6,0.9,11.2,0.4,16.8c0,0.3-0.5,0.3-0.5,0
				c-0.2-4.7-0.3-9.5-0.8-14.2c-0.2-2.2-0.4-4.4-0.8-6.6c-0.3-1.9-0.8-3.7-1.6-5.4c-0.9-1.8-2.2-3.2-3.9-4.2c-1.7-1-3.6-1.5-5.5-1.7
				c-1.8-0.2-3.5,0-5.2,0.5c0.1,0.3,0.1,0.7,0,1c0,0.4-0.1,0.9-0.3,1.3c-0.1,0.4-0.3,0.8-0.5,1.1c-0.2,0.4-0.5,0.8-0.7,1.1
				c0,0.1-0.1,0-0.1-0.1c0.5-0.6,0.8-1.5,0.9-2.3c0.1-0.4,0.1-0.8,0.1-1.2c0-0.3,0-0.6,0-0.9c-1.8,0.6-3.5,1.5-5,2.7
				c-0.3,0.2-0.6,0.5-0.8,0.7c0.4,0.3,0.7,0.8,1,1.2c0.4,0.6,0.7,1.2,1,1.8c0.6,1.3,0.9,2.6,1.1,4c0,0.1-0.1,0.1-0.1,0
				c-0.2-1.4-0.7-2.6-1.3-3.8c-0.3-0.6-0.6-1.2-1-1.7c-0.2-0.3-0.4-0.6-0.6-0.8c-0.1-0.1-0.2-0.3-0.3-0.4c-1.4,1.3-2.5,2.9-3.3,4.6
				c0,0,0,0,0,0c0.6,0.5,1,1.3,1.4,1.9c0.4,0.7,0.8,1.5,1.1,2.3c0.6,1.5,1,3.1,1.4,4.7c0,0.1-0.1,0.1-0.1,0
				c-0.3-1.6-0.9-3.2-1.6-4.6c-0.3-0.7-0.7-1.4-1.1-2.1c-0.4-0.7-0.8-1.3-1.1-2c-0.8,1.7-1.2,3.5-1.3,5.3c0,0.1-0.1,0.1-0.1,0
				c0.2-2.9,1.1-5.7,2.6-8.2c-0.7,0.3-1.4,0.6-2.1,1C57.9,351.3,57.1,351.8,56.3,352.4C56.3,352.6,56.2,352.5,56.3,352.4z"/>
			<path class="st3" d="M64.8,352.9c0.3,1.1,0.8,2.2,1.1,3.4c0.3,1.1,0.5,2.2,0.5,3.4c0,0-0.1,0-0.1,0c-0.3-2.3-0.8-4.6-1.7-6.8
				C64.6,352.8,64.7,352.8,64.8,352.9z"/>
			<path class="st3" d="M57.4,350c0.5-0.4,1-0.8,1.5-1.1c0.6-0.3,1.2-0.4,1.8-0.6c0.1,0,0.1,0.1,0,0.1c-0.6,0.1-1.2,0.4-1.7,0.7
				C58.5,349.4,58,349.7,57.4,350C57.5,350.1,57.4,350.1,57.4,350z"/>
		</g>
		<g>
			<path class="st12" d="M77.1,336.2c0,0-1.1-13.5-11.1-17.9c-8.4-3.7-13.2,5.8-7.3,11.5C63.4,334.6,71.1,332.5,77.1,336.2z"/>
			<path class="st3" d="M60.5,321c1.5,0.6,3,1.3,4.5,2.1c1.2,0.7,2.4,1.5,3.5,2.3c-0.2-0.3-0.3-0.7-0.5-1c-0.3-0.5-0.5-1-0.9-1.5
				c-0.6-1-1.3-2-2.2-2.8c-0.1,0,0-0.1,0.1-0.1c0.8,0.8,1.6,1.7,2.3,2.7c0.3,0.5,0.7,1,1,1.5c0.3,0.5,0.6,1,0.7,1.6
				c0,0,0.1,0.1,0.1,0.1c1.8,1.4,3.4,3,4.8,4.7c0-0.1-0.1-0.3-0.1-0.4c-0.2-0.7-0.4-1.3-0.6-2c-0.5-1.4-1-2.7-1.8-3.9
				c0-0.1,0.1-0.1,0.1-0.1c0.8,1.3,1.5,2.5,2.1,3.8c0.3,0.6,0.5,1.3,0.7,2c0.1,0.4,0.3,0.9,0.3,1.4c0.4,0.6,0.9,1.1,1.3,1.7
				c4.3,6.1,6.5,13.6,7,21c0.2,2.2,0.2,4.4,0.1,6.7c-0.1,2.2-0.2,4.5-0.6,6.7c0,0.1-0.2,0.1-0.2,0c0.1-2,0.3-3.9,0.3-5.8
				c0-2,0-3.9-0.2-5.9c-0.3-3.9-1.1-7.8-2.2-11.5c-1.2-3.8-2.9-7.5-5.1-10.8c-0.4-0.1-0.8-0.2-1.3-0.3c-0.5-0.1-1-0.3-1.5-0.4
				c-1-0.3-1.9-0.6-2.8-1c-0.1,0,0-0.1,0.1-0.1c0.9,0.5,1.9,0.8,2.8,1c0.8,0.2,1.6,0.3,2.4,0.4c-0.7-1.1-1.5-2.1-2.3-3.1
				c-1.9,0.2-3.9,0-5.7-0.4c-1-0.2-2-0.5-2.9-0.9c-1-0.4-2-0.9-3-1.3c-0.1,0,0-0.1,0-0.1c1.7,1,3.8,1.6,5.8,1.9
				c1.8,0.3,3.6,0.4,5.4,0.4c-0.7-0.8-1.5-1.6-2.2-2.4c-2.6-2.5-5.8-4.8-9.2-6C60.4,321.1,60.4,320.9,60.5,321z"/>
			<path class="st3" d="M68.7,321c0.4,0.6,0.9,1.2,1.2,1.8c0.4,0.7,0.7,1.4,0.9,2.1c0,0,0,0,0,0c-0.3-0.7-0.6-1.3-1-2
				C69.5,322.3,69.1,321.7,68.7,321C68.6,321,68.6,321,68.7,321z"/>
			<path class="st3" d="M59.3,325.5c0.7,0.4,1.3,0.6,2.1,0.9c0.7,0.2,1.4,0.4,2.1,0.6c0,0,0,0.1,0,0.1c-0.7-0.1-1.5-0.2-2.2-0.5
				C60.6,326.3,59.9,325.9,59.3,325.5C59.2,325.6,59.3,325.5,59.3,325.5z"/>
		</g>
		<g>
			<path class="st12" d="M84.9,333.8c0.1,0.6,1.5-4.9,10-9.8c7.7-4.4,16.9-15.9,9.4-23.2C98.1,295,82,307.8,84.9,333.8z"/>
			<path class="st3" d="M79,365.3c0.1-5.7,0.6-11.4,1.3-17.1c0.7-5.2,1.8-10.3,3.6-15.3c0.6-1.8,1.4-3.5,2.1-5.3c-0.1-0.7,0-1.4,0-2
				c0-0.9,0.1-1.7,0.2-2.6c0.1-0.9,0.2-1.7,0.3-2.6c0.1-0.9,0.3-1.7,0.3-2.6c0-0.1,0.1-0.1,0.1,0c-0.2,0.9-0.2,1.8-0.3,2.7
				c-0.1,0.8-0.1,1.7-0.1,2.5c0,0.8,0,1.7,0,2.5c0,0.3,0,0.6,0,0.9c0.8-1.7,1.7-3.3,2.6-5c-0.6-3.5,0.2-7.2,0.9-10.6
				c0-0.1,0.1,0,0.1,0c-0.4,1.8-0.5,3.6-0.6,5.5c0,1.4,0,2.9,0,4.3c0.2-0.3,0.4-0.7,0.6-1c1.1-1.8,2.3-3.6,3.5-5.3
				c-0.1-0.8,0-1.7,0.1-2.5c0.1-0.9,0.3-1.8,0.6-2.7c0.3-0.9,0.6-1.8,0.9-2.7c0.4-0.9,0.9-1.7,1.2-2.6c0-0.1,0.1,0,0.1,0
				c-0.5,0.8-0.8,1.8-1.1,2.7c-0.3,0.9-0.5,1.8-0.7,2.6c-0.2,0.9-0.3,1.8-0.5,2.7c-0.1,0.6-0.1,1.2-0.2,1.8c1.8-2.4,3.8-4.8,5.9-6.9
				c0.1-0.1,0.1,0,0.1,0.1c-3.2,3.7-6.1,7.5-8.6,11.7c-0.1,0.2-0.2,0.3-0.3,0.5c0.5-0.3,1-0.5,1.4-0.8c0.8-0.5,1.6-0.9,2.5-1.4
				c0.8-0.4,1.6-0.9,2.4-1.3c0.4-0.2,0.8-0.5,1.2-0.7c0.5-0.2,1-0.5,1.4-0.8c0.1,0,0.1,0.1,0.1,0.1c-0.8,0.4-1.5,1.1-2.3,1.6
				c-0.8,0.5-1.6,1-2.4,1.5c-1.5,0.8-3.1,1.4-4.6,2.3c-1,1.8-2,3.7-2.9,5.5c0.9-0.6,1.8-1.1,2.8-1.7c0.6-0.3,1.2-0.7,1.8-1
				c0.6-0.3,1.2-0.6,1.7-1c0.1,0,0.1,0,0.1,0.1c-1,0.9-2.1,1.6-3.3,2.3c-1.1,0.6-2.2,1.3-3.3,1.8c-0.9,2-1.7,4-2.5,6.1
				C82,342,80.7,352.7,80,363.4c-0.2,3.2-0.3,6.4-0.3,9.5c0,3.2,0.1,6.4,0.1,9.5c0,0.1-0.2,0.1-0.2,0c-0.4-2.8-0.4-5.7-0.6-8.5
				C79,371.1,79,368.2,79,365.3z"/>
			<path class="st3" d="M94.4,319.5c1.6-0.6,3-1.5,4.5-2.3c1.5-0.8,2.9-1.7,4.3-2.7c0,0,0.1,0,0,0c-1.3,1-2.7,2-4.1,2.9
				C97.7,318.2,96.1,318.9,94.4,319.5C94.4,319.6,94.4,319.5,94.4,319.5z"/>
			<path class="st3" d="M92,308c0.1-0.5,0.3-1,0.4-1.5c0,0,0,0,0-0.1c0.1-0.3,0.2-0.5,0.3-0.8c0,0,0-0.1,0-0.1c0-0.1,0-0.1,0.1-0.2
				c0,0,0,0,0,0c0,0.1-0.1,0.2-0.1,0.3c0,0.1,0,0.1,0,0.2c-0.6,1.9-1,3.8-1.3,5.8c0,0.1-0.1,0.1-0.1,0C91.5,310.4,91.7,309.2,92,308
				z"/>
		</g>
	</g>
	<g>
		<g>
			<polygon class="st11" points="70,367.3 70.7,374.5 72.5,396.4 92.4,396.4 94.2,374.5 94.8,367.3 			"/>
			<polygon class="st3" points="70,367.3 70.7,374.5 94.2,374.5 94.8,367.3 			"/>
		</g>
		
			<rect x="68.1" y="364.5" transform="matrix(-1 -1.224647e-16 1.224647e-16 -1 164.8855 735.7911)" class="st11" width="28.7" height="6.9"/>
	</g>
</g>
<g>
	
		<rect x="234.3" y="245.7" transform="matrix(-1 -1.224647e-16 1.224647e-16 -1 528.265 529.4314)" class="st0" width="59.6" height="38"/>
	<g>
		<g>
			<polyline class="st13" points="230.9,286.1 230.9,287 231.8,287 			"/>
			<line class="st14" x1="233.7" y1="287" x2="295.5" y2="287"/>
			<polyline class="st13" points="296.5,287 297.4,287 297.4,286.1 			"/>
			<line class="st15" x1="297.4" y1="284.3" x2="297.4" y2="244.2"/>
			<polyline class="st13" points="297.4,243.3 297.4,242.4 296.5,242.4 			"/>
			<line class="st14" x1="294.6" y1="242.4" x2="232.7" y2="242.4"/>
			<polyline class="st13" points="231.8,242.4 230.9,242.4 230.9,243.3 			"/>
			<line class="st15" x1="230.9" y1="245.2" x2="230.9" y2="285.2"/>
		</g>
	</g>
	<g class="st6">
		<polygon points="254,275.5 293.9,275.5 274,259 		"/>
	</g>
	<g>
		<polygon class="st16" points="234.3,275.5 269.7,275.5 252,264.8 		"/>
	</g>
	<g>
		<rect x="234.3" y="275.5" class="st16" width="59.6" height="8.2"/>
	</g>
	<circle class="st6" cx="245" cy="256.1" r="5.5"/>
	<rect x="228.9" y="240.5" class="st3" width="3.9" height="3.9"/>
	<rect x="228.9" y="285.1" class="st3" width="3.9" height="3.9"/>
	<rect x="229.5" y="263.3" class="st3" width="2.8" height="2.8"/>
	<rect x="262.7" y="241" class="st3" width="2.8" height="2.8"/>
	<rect x="262.7" y="285.7" class="st3" width="2.8" height="2.8"/>
	<rect x="296" y="263.3" class="st3" width="2.8" height="2.8"/>
	<rect x="295.4" y="240.5" class="st3" width="3.9" height="3.9"/>
	<rect x="295.4" y="285.1" class="st3" width="3.9" height="3.9"/>
</g>
<g>
	<polygon class="st3" points="304.9,301.3 307.8,308.3 304.9,309.5 302,302.5 297.2,306.2 297.2,286.5 311,300.4 	"/>
	<g>
		<g>
			<path class="st3" d="M297.4,283.9c-0.4-0.9-0.4-1.8,0-2.6C297.8,282.1,297.8,283,297.4,283.9L297.4,283.9z"/>
		</g>
		<g>
			<path class="st3" d="M295.2,284.8c-0.9-0.3-1.5-0.9-1.8-1.8C294.2,283.3,294.8,283.9,295.2,284.8L295.2,284.8z"/>
		</g>
		<g>
			<path class="st3" d="M294.2,287.1c-0.9,0.4-1.8,0.4-2.6,0C292.5,286.6,293.4,286.6,294.2,287.1L294.2,287.1z"/>
		</g>
		<g>
			<path class="st3" d="M295.2,289.3c-0.3,0.9-0.9,1.5-1.8,1.8C293.6,290.3,294.3,289.6,295.2,289.3L295.2,289.3z"/>
		</g>
		<g>
			<path class="st3" d="M300.6,287.1c0.9-0.4,1.8-0.4,2.6,0C302.4,287.5,301.5,287.5,300.6,287.1L300.6,287.1z"/>
		</g>
		<g>
			<path class="st3" d="M299.7,284.8c0.3-0.9,0.9-1.5,1.8-1.8C301.2,283.9,300.6,284.5,299.7,284.8L299.7,284.8z"/>
		</g>
	</g>
</g>
<g>
	<g>
		<g>
			
				<rect x="410.2" y="320" transform="matrix(-1 -1.224647e-16 1.224647e-16 -1 829.3881 701.0114)" class="st5" width="8.9" height="61"/>
		</g>
		<g>
			<path class="st5" d="M395.8,384.7h37.6c1.6,0,2.8-1.3,2.8-2.8c0-1.6-1.3-2.8-2.8-2.8h-37.6c-1.6,0-2.8,1.3-2.8,2.8
				C393,383.4,394.3,384.7,395.8,384.7z"/>
		</g>
		<g>
			<path class="st5" d="M428.4,389c0,3.3,2.7,6,6,6c3.3,0,6-2.7,6-6c0-3.3-2.7-6-6-6C431.1,382.9,428.4,385.7,428.4,389z"/>
		</g>
		<g>
			<path class="st5" d="M408.6,389c0,3.3,2.7,6,6,6c3.3,0,6-2.7,6-6c0-3.3-2.7-6-6-6C411.4,382.9,408.6,385.7,408.6,389z"/>
		</g>
		<g>
			<path class="st5" d="M389,389c0,3.3,2.7,6,6,6c3.3,0,6-2.7,6-6c0-3.3-2.7-6-6-6C391.7,382.9,389,385.7,389,389z"/>
		</g>
		<g>
			<path class="st17" d="M435.8,258.7c0,0,23.9,8.5,19.4,39.8c-4.1,28.7-33.4,37.9-58.1,31.1c-24.7-6.8-20.6-26.3-20.6-26.3
				L435.8,258.7z"/>
		</g>
		<g>
			<path class="st18" d="M434.2,307c0.4,3.2-7.5,6.7-17.6,8c-10.1,1.3-18.6-0.3-19-3.4c-0.4-3.2,7.5-6.7,17.6-8
				C425.3,302.3,433.8,303.8,434.2,307z"/>
		</g>
		<g>
			<path class="st19" d="M444.3,314.3c-0.1,0-0.2,0-0.3-0.1c-0.1-0.1-0.1-0.4,0-0.5c6.1-5.7,7.3-16.8,7.3-16.9
				c0-0.2,0.2-0.3,0.4-0.3c0.2,0,0.3,0.2,0.3,0.4c0,0.5-1.2,11.5-7.5,17.3C444.5,314.3,444.4,314.3,444.3,314.3z"/>
		</g>
	</g>
	<g>
		<g>
			<path class="st20" d="M379.4,226.6c0,0-1.1-4.7-3.6-6.8c-2.5-2.1-5.5-3.5-4.9-1.6c0.5,1.9,2.3,5,2.3,5l-4.5-1.2
				c0,0-3-1.4-5.1-1.9c-2.2-0.6-2.8,1-2.8,1s-2.2-0.6-3.1,0.1c-0.9,0.6-0.3,2-0.3,2s-3.1,0.1-1.9,2.4c1.2,2.4,7.3,6.3,10.2,7.7
				c3,1.4,9.6,2.3,9.6,2.3S381.2,236.8,379.4,226.6z"/>
		</g>
	</g>
	<g>
		<path d="M362.8,227.7c-0.1,0-0.2-0.1-0.3-0.2c-0.1-0.2,0-0.4,0.1-0.5l7.9-4.2c0.2-0.1,0.4,0,0.5,0.1c0.1,0.2,0,0.4-0.1,0.5
			l-7.9,4.2C362.9,227.7,362.8,227.7,362.8,227.7z"/>
	</g>
	<g>
		<path d="M377,230.8C377,230.8,377,230.8,377,230.8c-2.5-0.6-3.9-1.7-4.5-3.1c-0.8-2,0.4-3.9,0.5-4c0.1-0.2,0.3-0.2,0.5-0.1
			c0.2,0.1,0.2,0.3,0.1,0.5c0,0-1.1,1.7-0.4,3.3c0.5,1.2,1.8,2.1,3.9,2.7c0.2,0,0.3,0.2,0.3,0.4C377.3,230.7,377.2,230.8,377,230.8z
			"/>
	</g>
	<g>
		<path class="st20" d="M379.6,231.9l-11.4-0.2c0,0,0.2,33.7,13.2,39.8c10.3,4.8,16.9-10,16.9-10L379.6,231.9z"/>
	</g>
	<g>
		<path class="st21" d="M328,326.5c-0.1,0-0.1,0-0.2,0c-0.2-0.1-0.2-0.3-0.2-0.5c1.4-2.7,4.7-10.2,3.8-12.4
			c-0.1-0.3-0.3-0.4-0.5-0.5c-0.2-0.1-0.5-0.1-0.7,0.1c-1.9,1.1-3.3,8-3.7,10.9c0,0.1,0,0.2,0,0.3c0,0.2-0.2,0.3-0.4,0.3
			c-0.2,0-0.3-0.2-0.3-0.4c0,0,0-0.1,0-0.2c0.4-2.5,0.9-8.4-0.7-9.7c-0.3-0.3-0.8-0.3-1.3-0.1c-0.7,0.3-1.1,0.7-1.3,1.3
			c-0.6,2.4,2.8,6.7,2.9,6.8c0.1,0.2,0.1,0.4,0,0.5c-0.2,0.1-0.4,0.1-0.5,0c-0.2-0.2-3.7-4.6-3-7.4c0.2-0.9,0.8-1.5,1.7-1.8
			c0.8-0.3,1.4-0.2,2,0.2c1,0.8,1.3,2.9,1.4,5c0.7-2.6,1.7-5.4,3-6.2c0.4-0.3,0.9-0.3,1.3-0.2c0.4,0.1,0.7,0.5,0.9,0.9
			c1.2,3-3.6,12.6-3.8,13C328.3,326.4,328.2,326.5,328,326.5z"/>
	</g>
	<g>
		<g>
			<path class="st10" d="M338.4,360.5c-0.3,0.4-0.8,0.4-1.2,0.1l-38.5-32.2c-0.3-0.3-0.4-0.8,0-1.2l3.3-3.8c0.3-0.4,0.8-0.4,1.1-0.2
				c0.2,0.2,0.5,0.2,0.8,0.1c0.1-0.1,0.3-0.1,0.4-0.3c0.9-1.1,3.1-3.5,6.1-4.3c4.1-1.1,14.9,4.1,20.2,5.8c3.4,1.2,7.6-0.7,10.1-2.1
				c1.4-0.8,3-0.7,4.1,0.3c4.2,3.8,14.1,12.9,14.6,13.6c0.6,0.9-6.3,9.6-9.7,12.4c-3.3,2.8-7.5,5.8-7.5,5.8l1.1,0.7L338.4,360.5z"/>
		</g>
	</g>
	<g>
		<g>
			<path class="st10" d="M338.4,360.5c-0.3,0.4-0.8,0.4-1.2,0.1l-38.5-32.2c-0.3-0.3-0.4-0.8,0-1.2l3.3-3.8c0.3-0.4,0.8-0.4,1.1-0.2
				c0.2,0.2,0.5,0.2,0.8,0.1c10.7,9.2,38.2,31.2,38.2,31.2l1.1,0.7L338.4,360.5z"/>
		</g>
	</g>
	<g>
		<path class="st21" d="M342.1,354.9c-0.1,0-0.2,0-0.2-0.1l-38.2-31.2c-0.2-0.1-0.2-0.3-0.1-0.5c0.1-0.2,0.4-0.2,0.5-0.1l38.2,31.2
			c0.2,0.1,0.2,0.3,0.1,0.5C342.3,354.9,342.2,354.9,342.1,354.9z"/>
	</g>
	<g>
		<path class="st21" d="M367.8,375.4c-0.2,0-0.3-0.1-0.3-0.3c-0.7-2.9-2.9-10.8-5-12c-0.2-0.1-0.5-0.2-0.7-0.1
			c-0.2,0.1-0.4,0.3-0.5,0.5c-0.7,2.1,2.6,8.3,4.1,10.8c0.1,0.1,0.1,0.2,0.1,0.2c0.1,0.2,0,0.4-0.1,0.5c-0.2,0.1-0.4,0-0.5-0.1
			c0,0-0.1-0.1-0.1-0.2c-1.3-2.1-4.7-7-6.7-7c-0.4,0-0.8,0.2-1.1,0.7c-0.4,0.7-0.4,1.3-0.2,1.9c1.1,2.3,6.5,3.4,6.5,3.4
			c0.2,0,0.3,0.2,0.3,0.4c0,0.2-0.2,0.3-0.4,0.3c-0.2,0-5.8-1.2-7-3.8c-0.4-0.8-0.3-1.7,0.2-2.5c0.4-0.7,1-1.1,1.7-1.1
			c1.3,0,2.9,1.4,4.2,3c-1.1-2.5-2.1-5.2-1.6-6.6c0.2-0.5,0.5-0.8,0.9-1c0.4-0.2,0.8-0.1,1.3,0.1c2.8,1.5,5.3,12,5.4,12.5
			C368.2,375.2,368.1,375.4,367.8,375.4C367.9,375.4,367.8,375.4,367.8,375.4z"/>
	</g>
	<g>
		<g>
			<path class="st10" d="M395.4,395.7c0,0.5-0.4,0.8-0.8,0.8l-50.2-0.3c-0.4,0-0.8-0.4-0.8-0.9l0.1-5c0-0.5,0.4-0.9,0.8-0.9
				c0.3,0,0.5-0.2,0.6-0.4c0.1-0.1,0.1-0.3,0.1-0.5c0-1.5,0.2-4.7,2-7.2c2.5-3.4,14.1-6.3,19.3-8.3c3.4-1.3,5.4-5.4,6.4-8
				c0.6-1.5,1.9-2.4,3.3-2.4c5.7,0.3,19,1,19.9,1.2c1.1,0.3,1.2,11.4,0.4,15.7c-0.8,4.3-2.1,9.2-2.1,9.2l1.3-0.1L395.4,395.7z"/>
		</g>
	</g>
	<g>
		<g>
			<path class="st10" d="M395.4,395.7c0,0.5-0.4,0.8-0.8,0.8l-50.2-0.3c-0.4,0-0.8-0.4-0.8-0.9l0.1-5c0-0.5,0.4-0.9,0.8-0.9
				c0.3,0,0.5-0.2,0.6-0.4c14.1,0.3,49.3-0.2,49.3-0.2l1.3-0.1L395.4,395.7z"/>
		</g>
	</g>
	<g>
		<path class="st21" d="M345.1,389.3c-0.2,0-0.4-0.2-0.4-0.4c0-0.2,0.2-0.4,0.4-0.4l49.3-0.2c0.2,0,0.4,0.2,0.4,0.4
			c0,0.2-0.2,0.4-0.4,0.4L345.1,389.3L345.1,389.3z"/>
	</g>
	<g>
		<polygon class="st22" points="369.4,329.5 369.4,368.7 401,368.7 406.9,314.6 381.7,311.8 		"/>
	</g>
	<g>
		<path class="st22" d="M331.3,322c0,0,25.8-30.6,41.3-35.4c15.6-4.8,63.8-3.2,63.8-3.2s2.9,22.5-10,28.4c-12.9,5.9-35.8,4.8-40,7
			c-4.2,2.1-30,27.4-30,27.4L331.3,322z"/>
	</g>
	<g>
		<path class="st23" d="M370.3,333.2c-0.1,0-0.2,0-0.2-0.1c-0.1-0.1-0.2-0.4,0-0.5c0.5-0.5,12.3-13.3,16.3-14.2
			c3.9-0.9,19.7-2.3,20.3-2.3c0.2,0,0.4,0.1,0.4,0.3c0,0.2-0.1,0.4-0.3,0.4c-0.2,0-16.3,1.4-20.2,2.3c-3.8,0.9-15.8,13.8-15.9,14
			C370.5,333.2,370.4,333.2,370.3,333.2z"/>
	</g>
	<g>
		<path class="st23" d="M386.5,319.1c-0.1,0-0.2-0.1-0.3-0.2c-0.7-1.1-4.1-6.5-2.1-7.9c0.3-0.2,0.6-0.2,0.9-0.1
			c1.5,0.8,1.7,6.6,1.8,7.8c0,0.2-0.1,0.3-0.2,0.4C386.5,319.1,386.5,319.1,386.5,319.1z M384.7,311.6c0,0-0.1,0-0.2,0.1
			c-0.9,0.6,0.2,3.4,1.5,5.7C385.9,314.9,385.4,312,384.7,311.6C384.7,311.6,384.7,311.6,384.7,311.6z"/>
	</g>
	<g>
		<path class="st21" d="M455,262c0,0-5.7-21.4-17.7-29.8s-33-4.8-38.5-0.1c-5.2,4.5-9,15.4-9,15.4l-0.8,23.2l3.9,12l43.7,2.8
			l-0.1-23.1L455,262z"/>
	</g>
	<g>
		<path class="st20" d="M453.7,262c0,0,3.8,14.5-9.5,16.5c-13.3,2-26.6-11.7-26.6-11.7l-0.3-13l26.3,8.5L453.7,262z"/>
	</g>
	<g>
		<path class="st24" d="M431.5,257.9c-0.2,0-0.4-0.2-0.4-0.4v-4.1c0-0.2,0.2-0.4,0.4-0.4c0.2,0,0.4,0.2,0.4,0.4v4.1
			C431.8,257.8,431.7,257.9,431.5,257.9z"/>
	</g>
	<g>
		<path class="st23" d="M410.6,203.5c0,0-3.4,3.9-1.5,8.1s3.9-7.7,3.9-7.7L410.6,203.5z"/>
	</g>
	<g>
		<g>
			<path class="st20" d="M422.1,220.9l0.1,7.7c0,0-1.3,2.2-5.8,2.7c-3.3,0.3-4.5-0.4-4.5-0.4l0.4-3.9l0.4-3.8l8.1-1.9L422.1,220.9z"
				/>
		</g>
	</g>
	<g>
		<g>
			<path d="M420.7,221.2c0,0.2,0.6,1,0.4,1.3c-1.6,3.9-7.1,5.7-9,5.9l0.5-5.2L420.7,221.2z"/>
		</g>
	</g>
	<g>
		<g>
			<path class="st20" d="M412.1,203.9c-1.1,0.9-1.8,2-2.2,3.3c-1,3-3,9.8-1.7,14.1c1.7,5.5,6.7,4.5,9.6,3.3c2.9-1.2,4.3-3.1,4.3-3.1
				s2.8,0.9,4.6-1.8c1.8-2.7,0.5-5.7-1.1-6.3c-1.6-0.6-3.5,0.6-3.5,0.6l1.4-2.9C423.4,211.1,417.9,199.2,412.1,203.9z"/>
		</g>
	</g>
	<g>
		<path d="M422.5,217.8c-0.1,0-0.2,0-0.3-0.1c-0.1-0.2-0.1-0.4,0.1-0.5l2.8-2.1c0.2-0.1,0.4-0.1,0.5,0.1c0.1,0.2,0.1,0.4-0.1,0.5
			l-2.8,2.1C422.6,217.8,422.5,217.8,422.5,217.8z"/>
	</g>
	<g>
		<path d="M425.6,217.7C425.6,217.7,425.6,217.7,425.6,217.7l-2.4-0.6c-0.2,0-0.3-0.2-0.3-0.4c0-0.2,0.2-0.3,0.4-0.3l2.3,0.5
			c0.2,0,0.3,0.2,0.3,0.4C425.9,217.6,425.8,217.7,425.6,217.7z"/>
	</g>
	<g>
		<path d="M409.6,212.9C409.5,212.9,409.5,212.9,409.6,212.9c-0.3-0.1-0.4-0.3-0.3-0.4l0.4-1.8c0-0.2,0.2-0.3,0.4-0.3
			c0.2,0,0.3,0.2,0.3,0.4l-0.4,1.8C409.9,212.8,409.7,212.9,409.6,212.9z"/>
	</g>
	<g>
		<path d="M415.3,213.5C415.2,213.5,415.2,213.5,415.3,213.5c-0.3-0.1-0.4-0.3-0.3-0.4l0.4-1.8c0-0.2,0.2-0.3,0.4-0.3
			c0.2,0,0.3,0.2,0.3,0.4l-0.4,1.8C415.6,213.3,415.4,213.5,415.3,213.5z"/>
	</g>
	<g>
		<path d="M409.5,209c-0.2,0-0.3-0.1-0.4-0.3c0-0.2,0.1-0.4,0.3-0.4l1.5-0.2c0.2,0,0.4,0.1,0.4,0.3c0,0.2-0.1,0.4-0.3,0.4L409.5,209
			C409.5,209,409.5,209,409.5,209z"/>
	</g>
	<g>
		<path d="M416.7,210.2c0,0-0.1,0-0.1,0l-2-0.7c-0.2-0.1-0.3-0.3-0.2-0.5c0.1-0.2,0.3-0.3,0.5-0.2l2,0.7c0.2,0.1,0.3,0.3,0.2,0.5
			C417,210.1,416.8,210.2,416.7,210.2z"/>
	</g>
	<g>
		<path class="st23" d="M422.1,214c0,0-0.8,3.2-1.4,2.8c-0.6-0.4-1.2-5-0.7-7c0.5-2.1,0.8-3.1,0.8-3.1s-8.4-0.7-10.6-2.7
			c-2.2-2,2.5-3.3,7.2-2.4c4.8,0.9,6.6,2.7,6.6,2.7s3-0.4,4.1,1.4c1.1,1.8-1.4,8.7-1.4,8.7S425.9,212.7,422.1,214z"/>
	</g>
	<g>
		<path d="M412.9,220.1c-0.9,0-1.5-1-1.6-1.2c-0.1-0.1-0.1-0.2,0-0.3c0-0.1,0.1-0.2,0.2-0.2l2.7-0.8c0.1,0,0.3,0,0.4,0.1
			c0.1,0.1,0.1,0.2,0.1,0.4c-0.4,1.2-0.9,1.9-1.5,2C413,220.1,413,220.1,412.9,220.1z M412.2,219c0.2,0.2,0.5,0.5,0.8,0.4
			c0.2,0,0.5-0.3,0.7-0.8L412.2,219z"/>
	</g>
	<g>
		<path d="M411.8,216.1c-0.1,0-0.3-0.1-0.3-0.2c-1.1-2.3,0.5-4.7,0.6-4.8c0.1-0.2,0.3-0.2,0.5-0.1c0.2,0.1,0.2,0.3,0.1,0.5
			c0,0-1.5,2.1-0.5,4c0.1,0.2,0,0.4-0.2,0.5C411.9,216.1,411.8,216.1,411.8,216.1z"/>
	</g>
	<g>
		<path class="st24" d="M414.3,231.6c-2.2,0-4-0.4-4.1-0.5c-0.2-0.1-0.3-0.2-0.3-0.4c0.1-0.2,0.2-0.3,0.4-0.3c0.1,0,7.9,2,11.9-2.7
			c0.1-0.2,0.4-0.2,0.5,0c0.2,0.1,0.2,0.4,0,0.5C420.4,230.9,417,231.6,414.3,231.6z"/>
	</g>
	<g>
		<path class="st5" d="M323.5,287.2H473c0.8,0,1.4-0.6,1.4-1.4v-1.3c0-0.8-0.6-1.4-1.4-1.4H323.5c-0.8,0-1.4,0.6-1.4,1.4v1.3
			C322.1,286.6,322.7,287.2,323.5,287.2z"/>
	</g>
	<g>
		<path class="st5" d="M463.1,396.2c-0.7,0-1.2-0.5-1.2-1.2V287.2c0-0.7,0.5-1.2,1.2-1.2s1.2,0.5,1.2,1.2V395
			C464.3,395.7,463.7,396.2,463.1,396.2z"/>
	</g>
	<g>
		<path class="st5" d="M333.5,396.2c-0.7,0-1.2-0.5-1.2-1.2V287.2c0-0.7,0.5-1.2,1.2-1.2c0.7,0,1.2,0.5,1.2,1.2V395
			C334.7,395.7,334.1,396.2,333.5,396.2z"/>
	</g>
	<g>
		<path class="st20" d="M419,254.7c0,0-16.3-10.2-17.6-8.8c-1.3,1.5,5.6,6.2,5.6,6.2s-2.4,8.2-1.3,10.3c1.1,2.1,2.5,1.2,2.5,1.2
			s3.2,2.7,8,3.3c4.8,0.6,6.5-6.5,6.5-6.5L419,254.7z"/>
	</g>
	<g>
		<path class="st20" d="M408.5,263.2c0,0,3.6,1.9,2.2,3.1c-1.4,1.2-4.9-2.2-5.4-3.1c-0.5-0.9,0.7-3.2,0.7-3.2L408.5,263.2z"/>
	</g>
	<g>
		<path d="M411,265.7C410.9,265.7,410.9,265.7,411,265.7c-0.2,0-2.9-0.8-3.6-2.3c-0.1-0.2,0-0.4,0.2-0.5c0.2-0.1,0.4,0,0.5,0.2
			c0.4,1,2.4,1.7,3,1.9c0.2,0.1,0.3,0.3,0.2,0.4C411.3,265.6,411.1,265.7,411,265.7z"/>
	</g>
	<g>
		<g>
			<path class="st2" d="M409.7,279.6h-42.5L355,252.1h40.9c1,0,1.9,0.6,2.4,1.5L409.7,279.6z"/>
		</g>
		<g>
			<path class="st4" d="M406,279.6h-42.5l-10.8-24.5c-0.6-1.4,0.4-3,1.9-3h39.3L406,279.6z"/>
		</g>
		<g>
			<path class="st4" d="M423.9,283.1h-60c-1,0-1.7-0.8-1.7-1.7s0.8-1.7,1.7-1.7h60c1,0,1.7,0.8,1.7,1.7S424.9,283.1,423.9,283.1z"/>
		</g>
		<g>
			<circle class="st2" cx="379.2" cy="265.9" r="3.6"/>
		</g>
	</g>
	<g>
		<path d="M410,252.5h-3.1c-0.2,0-0.4-0.2-0.4-0.4c0-0.2,0.2-0.4,0.4-0.4h3.1c0.2,0,0.4,0.2,0.4,0.4
			C410.4,252.3,410.2,252.5,410,252.5z"/>
	</g>
</g>
</svg>
