<?xml version="1.0" encoding="utf-8"?>
<!-- Generator: Adobe Illustrator 26.0.1, SVG Export Plug-In . SVG Version: 6.00 Build 0)  -->
<svg version="1.1" id="Layer_1" xmlns="http://www.w3.org/2000/svg" xmlns:xlink="http://www.w3.org/1999/xlink" x="0px" y="0px"
	 viewBox="0 0 448 512" style="enable-background:new 0 0 448 512;" xml:space="preserve">
<style type="text/css">
	.st0{fill:#FFFFFF;}
</style>
<path class="st0" d="M398.4,168.1c-4.2-15.8-16.5-28.2-32.2-32.4C337.9,128,224,128,224,128s-113.9,0-142.2,7.7
	c-15.7,4.2-28,16.6-32.2,32.4C42,196.6,42,256.3,42,256.3s0,59.6,7.6,88.2c4.2,15.8,16.5,27.7,32.2,31.9C110.1,384,224,384,224,384
	s113.9,0,142.2-7.7c15.7-4.2,28-16.1,32.2-31.9c7.6-28.5,7.6-88.1,7.6-88.1S406,196.7,398.4,168.1z M186.8,310.3V202.1l95.2,54.1
	L186.8,310.3z"/>
</svg>
